<?xml version="1.0" encoding="UTF-8"?><svg id="_レイヤー_1" xmlns="http://www.w3.org/2000/svg" width="1415.41" height="196" viewBox="0 0 1415.41 196"><path d="M322.27,77.2h-18.97c-1.18,0-2.03-.51-2.03-1.22v-14.03c0-1.97-1.77-3.39-4.21-3.39h-48.34c-2.44,0-4.21,1.43-4.21,3.39v14.03c0,.7-.85,1.22-2.03,1.22h-18.97c-2.44,0-4.21,1.43-4.21,3.39v72.24c0,1.97,1.77,3.39,4.21,3.39h18.97c1.18,0,2.03.51,2.03,1.22v14.03c0,1.97,1.77,3.39,4.21,3.39h48.34c2.44,0,4.21-1.43,4.21-3.39v-14.03c0-.7.85-1.22,2.03-1.22h18.97c2.44,0,4.21-1.43,4.21-3.39v-72.24c0-1.97-1.77-3.39-4.21-3.39ZM294.93,82.9v67.63c0,.7-.85,1.22-2.03,1.22h-40.02c-1.18,0-2.03-.51-2.03-1.22v-67.63c0-.7.85-1.22,2.03-1.22h40.02c1.18,0,2.03.51,2.03,1.22Z" fill="#7ba84a"/><path d="M473.02,58.56h-48.34c-2.44,0-4.21,1.43-4.21,3.39v14.03c0,.7-.85,1.22-2.03,1.22h-14.81c-1.18,0-2.03-.51-2.03-1.22v-14.03c0-1.97-1.77-3.39-4.21-3.39h-23.13c-2.44,0-4.21,1.43-4.21,3.39v109.52c0,1.97,1.77,3.39,4.21,3.39h23.13c2.44,0,4.21-1.43,4.21-3.39v-69.94c0-.7.85-1.22,2.03-1.22h18.97c2.44,0,4.21-1.43,4.21-3.39v-14.03c0-.7.85-1.22,2.03-1.22h44.18c2.44,0,4.21-1.43,4.21-3.39v-16.33c0-1.97-1.77-3.39-4.21-3.39Z" fill="#7ba84a"/><path d="M613.37,58.56h-23.13c-2.44,0-4.21,1.43-4.21,3.39v14.03c0,.7-.85,1.22-2.03,1.22h-18.97c-2.44,0-4.21,1.43-4.21,3.39v14.03c0,.7-.85,1.22-2.03,1.22h-14.81c-1.18,0-2.03-.51-2.03-1.22V24.68c0-1.97-1.77-3.39-4.21-3.39h-23.13c-2.44,0-4.21,1.43-4.21,3.39v146.79c0,1.97,1.77,3.39,4.21,3.39h23.13c2.44,0,4.21-1.43,4.21-3.39v-51.3c0-.7.85-1.22,2.03-1.22h14.81c1.18,0,2.03.51,2.03,1.28l.78,13.97c0,1.97,1.77,3.39,4.21,3.39h18.19c1.18,0,2.03.51,2.03,1.22v32.66c0,1.97,1.77,3.39,4.21,3.39h23.13c2.44,0,4.21-1.43,4.21-3.39v-34.97c0-1.97-1.77-3.39-4.21-3.39h-18.45c-1.18,0-2.03-.51-2.03-1.26l-.52-13.98c0-1.97-1.77-3.39-4.21-3.39h-18.97c-1.18,0-2.03-.51-2.03-1.22v-11.72c0-.7.85-1.22,2.03-1.22h18.97c2.44,0,4.21-1.43,4.21-3.39v-14.03c0-.7.85-1.22,2.03-1.22h18.97c2.44,0,4.21-1.43,4.21-3.39v-16.33c0-1.97-1.77-3.39-4.21-3.39Z" fill="#7ba84a"/><path d="M830.92,21.29h-18.97c-1.18,0-2.03-.51-2.03-1.22V6.04c0-1.97-1.77-3.39-4.21-3.39h-73.55c-2.44,0-4.21,1.43-4.21,3.39v14.03c0,.7-.85,1.22-2.03,1.22h-18.97c-2.44,0-4.21,1.43-4.21,3.39v53.6c0,1.97,1.77,3.39,4.21,3.39h18.97c1.18,0,2.03.51,2.03,1.22v14.03c0,1.97,1.77,3.39,4.21,3.39h69.39c1.18,0,2.03.51,2.03,1.22v48.99c0,.7-.85,1.22-2.03,1.22h-65.23c-1.18,0-2.03-.51-2.03-1.22v-14.03c0-1.97-1.77-3.39-4.21-3.39h-23.13c-2.44,0-4.21,1.43-4.21,3.39v16.33c0,1.97,1.77,3.39,4.21,3.39h18.97c1.18,0,2.03.51,2.03,1.22v14.03c0,1.97,1.77,3.39,4.21,3.39h73.55c2.44,0,4.21-1.43,4.21-3.39v-14.03c0-.7.85-1.22,2.03-1.22h18.97c2.44,0,4.21-1.43,4.21-3.39v-53.6c0-1.97-1.77-3.39-4.21-3.39h-18.97c-1.18,0-2.03-.51-2.03-1.22v-14.03c0-1.97-1.77-3.39-4.21-3.39h-69.39c-1.18,0-2.03-.51-2.03-1.22V26.99c0-.7.85-1.22,2.03-1.22h65.23c1.18,0,2.03.51,2.03,1.22v14.03c0,1.97,1.77,3.39,4.21,3.39h23.13c2.44,0,4.21-1.43,4.21-3.39v-16.33c0-1.97-1.77-3.39-4.21-3.39Z" fill="#7ba84a"/><path d="M982.45,58.56h-44.18c-1.18,0-2.03-.51-2.03-1.22V24.68c0-1.97-1.77-3.39-4.21-3.39h-23.13c-2.44,0-4.21,1.43-4.21,3.39v32.66c0,.7-.85,1.22-2.03,1.22h-18.97c-2.44,0-4.21,1.43-4.21,3.39v16.33c0,1.97,1.77,3.39,4.21,3.39h18.97c1.18,0,2.03.51,2.03,1.22v69.94c0,1.97,1.77,3.39,4.21,3.39h18.97c1.18,0,2.03.51,2.03,1.22v14.03c0,1.97,1.77,3.39,4.21,3.39h48.34c2.44,0,4.21-1.43,4.21-3.39v-16.33c0-1.97-1.77-3.39-4.21-3.39h-44.18c-1.18,0-2.03-.51-2.03-1.22v-67.63c0-.7.85-1.22,2.03-1.22h44.18c2.44,0,4.21-1.43,4.21-3.39v-16.33c0-1.97-1.77-3.39-4.21-3.39Z" fill="#7ba84a"/><path d="M1133.19,58.56h-23.13c-2.44,0-4.21,1.43-4.21,3.39v69.94c0,.7-.85,1.22-2.03,1.22h-40.02c-1.18,0-2.03-.51-2.03-1.22V61.95c0-1.97-1.77-3.39-4.21-3.39h-23.13c-2.44,0-4.21,1.43-4.21,3.39v72.24c0,1.97,1.77,3.39,4.21,3.39h18.97c1.18,0,2.03.51,2.03,1.22v14.03c0,1.97,1.77,3.39,4.21,3.39h44.18c1.18,0,2.03.51,2.03,1.22v11.72c0,.7-.85,1.22-2.03,1.22h-44.18c-2.44,0-4.21,1.43-4.21,3.39v16.33c0,1.97,1.77,3.39,4.21,3.39h48.34c2.44,0,4.21-1.43,4.21-3.39v-14.03c0-.7.85-1.22,2.03-1.22h18.97c2.44,0,4.21-1.43,4.21-3.39V61.95c0-1.97-1.77-3.39-4.21-3.39Z" fill="#7ba84a"/><path d="M1258.74,151.74h-18.97c-1.18,0-2.03-.51-2.03-1.22V24.68c0-1.97-1.77-3.39-4.21-3.39h-48.34c-2.44,0-4.21,1.43-4.21,3.39v16.33c0,1.97,1.77,3.39,4.21,3.39h18.97c1.18,0,2.03.51,2.03,1.22v125.85c0,1.97,1.77,3.39,4.21,3.39h48.34c2.44,0,4.21-1.43,4.21-3.39v-16.33c0-1.97-1.77-3.39-4.21-3.39Z" fill="#7ba84a"/><path d="M1339.31,118.95h69.39c2.44,0,4.21-1.43,4.21-3.39v-34.97c0-1.97-1.77-3.39-4.21-3.39h-18.97c-1.18,0-2.03-.51-2.03-1.22v-14.03c0-1.97-1.77-3.39-4.21-3.39h-48.34c-2.44,0-4.21,1.43-4.21,3.39v14.03c0,.7-.85,1.22-2.03,1.22h-18.97c-2.44,0-4.21,1.43-4.21,3.39v72.24c0,1.97,1.77,3.39,4.21,3.39h18.97c1.18,0,2.03.51,2.03,1.22v14.03c0,1.97,1.77,3.39,4.21,3.39h48.34c2.44,0,4.21-1.43,4.21-3.39v-14.03c0-.7.85-1.22,2.03-1.22h18.97c2.44,0,4.21-1.43,4.21-3.39v-16.33c0-1.97-1.77-3.39-4.21-3.39h-23.13c-2.44,0-4.21,1.43-4.21,3.39v14.03c0,.7-.85,1.22-2.03,1.22h-40.02c-1.18,0-2.03-.51-2.03-1.22v-30.36c0-.7.85-1.22,2.03-1.22ZM1337.28,94.62v-11.72c0-.7.85-1.22,2.03-1.22h40.02c1.18,0,2.03.51,2.03,1.22v11.72c0,.7-.85,1.22-2.03,1.22h-40.02c-1.18,0-2.03-.51-2.03-1.22Z" fill="#7ba84a"/><path d="M168.81,2.5h-30.04c-3.11,0-5.29,1.46-5.29,3.54v88.57c0,.38-.94,1.07-2.81,1.07h-19.24c-1.87,0-2.81-.68-2.81-1.07V6.04c0-2.09-2.18-3.54-5.29-3.54h-30.04c-3.12,0-5.29,1.46-5.29,3.54v88.57c0,.38-.94,1.07-2.81,1.07h-19.24c-1.87,0-2.81-.68-2.81-1.07V6.04c0-2.09-2.18-3.54-5.29-3.54H7.79c-3.12,0-5.29,1.46-5.29,3.54v90.88c0,2.09,2.18,3.55,5.29,3.55h24.64c1.87,0,2.81.68,2.81,1.07v69.94c0,2.09,2.18,3.54,5.29,3.54h30.04c3.12,0,5.29-1.46,5.29-3.54v-69.94c0-.38.94-1.07,2.81-1.07h19.24c1.87,0,2.81.68,2.81,1.07v69.94c0,2.09,2.18,3.54,5.29,3.54h30.04c3.12,0,5.29-1.46,5.29-3.54v-69.94c0-.38.94-1.07,2.81-1.07h24.64c3.11,0,5.29-1.46,5.29-3.55V6.04c0-2.09-2.18-3.54-5.29-3.54Z" fill="#7ba84a"/></svg>