<?xml version="1.0" encoding="UTF-8"?><svg id="_レイヤー_1" xmlns="http://www.w3.org/2000/svg" width="972.03" height="181.72" viewBox="0 0 972.03 181.72"><path d="M134.06,21.63h-19.48c-1.23,0-2.11-.54-2.11-1.28V5.95c0-2-1.8-3.45-4.29-3.45H6.79c-2.49,0-4.29,1.45-4.29,3.45v169.81c0,2,1.81,3.45,4.29,3.45h23.75c2.49,0,4.29-1.45,4.29-3.45v-52.66c0-.74.89-1.28,2.11-1.28h71.24c2.49,0,4.29-1.45,4.29-3.46v-14.4c0-.74.89-1.28,2.11-1.28h19.48c2.49,0,4.29-1.45,4.29-3.45V25.08c0-2-1.81-3.45-4.29-3.45ZM106.03,27.45v69.42c0,.74-.89,1.28-2.11,1.28H36.94c-1.23,0-2.11-.54-2.11-1.28V27.45c0-.74.89-1.28,2.11-1.28h66.97c1.22,0,2.11.54,2.11,1.28Z" fill="#171917"/><path d="M281.61,59.89h-49.63c-2.49,0-4.29,1.45-4.29,3.45v14.4c0,.74-.89,1.28-2.11,1.28h-15.21c-1.23,0-2.11-.54-2.11-1.28v-14.4c0-2-1.8-3.45-4.29-3.45h-23.75c-2.49,0-4.29,1.45-4.29,3.45v112.42c0,2,1.8,3.45,4.29,3.45h23.75c2.49,0,4.29-1.45,4.29-3.45v-71.79c0-.74.89-1.28,2.11-1.28h19.48c2.49,0,4.29-1.45,4.29-3.45v-14.4c0-.74.89-1.28,2.11-1.28h45.36c2.49,0,4.29-1.45,4.29-3.46v-16.76c0-2-1.81-3.45-4.29-3.45Z" fill="#171917"/><path d="M415.01,79.02h-19.48c-1.23,0-2.11-.54-2.11-1.28v-14.4c0-2-1.8-3.45-4.29-3.45h-49.63c-2.49,0-4.29,1.45-4.29,3.45v14.4c0,.74-.89,1.28-2.11,1.28h-19.48c-2.49,0-4.29,1.45-4.29,3.46v74.16c0,2,1.8,3.46,4.29,3.46h19.48c1.22,0,2.11.54,2.11,1.28v14.4c0,2,1.81,3.45,4.29,3.45h49.63c2.49,0,4.29-1.45,4.29-3.45v-14.4c0-.74.89-1.28,2.11-1.28h19.48c2.49,0,4.29-1.45,4.29-3.46v-74.16c0-2-1.81-3.46-4.29-3.46ZM386.97,84.85v69.42c0,.74-.89,1.28-2.11,1.28h-41.09c-1.23,0-2.11-.54-2.11-1.28v-69.42c0-.74.89-1.28,2.11-1.28h41.09c1.22,0,2.11.54,2.11,1.28Z" fill="#171917"/><path d="M564.42,21.63h-49.63c-2.49,0-4.29,1.45-4.29,3.45v14.4c0,.74-.89,1.28-2.11,1.28h-19.48c-2.49,0-4.29,1.45-4.29,3.46v33.53c0,.74-.89,1.28-2.11,1.28h-19.48c-2.49,0-4.29,1.45-4.29,3.46v16.76c0,2,1.81,3.45,4.29,3.45h19.48c1.22,0,2.11.54,2.11,1.28v71.79c0,2,1.81,3.45,4.29,3.45h23.75c2.49,0,4.29-1.45,4.29-3.45v-71.79c0-.74.89-1.28,2.11-1.28h45.36c2.49,0,4.29-1.45,4.29-3.45v-16.76c0-2-1.8-3.46-4.29-3.46h-45.36c-1.23,0-2.11-.54-2.11-1.28v-31.16c0-.74.89-1.28,2.11-1.28h45.36c2.49,0,4.29-1.45,4.29-3.46v-16.76c0-2-1.8-3.45-4.29-3.45Z" fill="#171917"/><path d="M699.23,155.55h-19.48c-1.23,0-2.11-.54-2.11-1.28V63.35c0-2-1.8-3.45-4.29-3.45h-49.63c-2.49,0-4.29,1.45-4.29,3.45v16.76c0,2,1.8,3.46,4.29,3.46h19.48c1.22,0,2.11.54,2.11,1.28v69.42c0,.74-.89,1.28-2.11,1.28h-19.48c-2.49,0-4.29,1.45-4.29,3.46v16.76c0,2,1.8,3.45,4.29,3.45h75.51c2.49,0,4.29-1.45,4.29-3.45v-16.76c0-2-1.8-3.46-4.29-3.46Z" fill="#171917"/><path d="M649.61,26.17h23.75c2.49,0,4.29-1.45,4.29-3.45V5.95c0-2-1.8-3.45-4.29-3.45h-23.75c-2.49,0-4.29,1.45-4.29,3.45v16.77c0,2,1.81,3.45,4.29,3.45Z" fill="#171917"/><path d="M819.3,155.55h-19.48c-1.23,0-2.11-.54-2.11-1.28V25.08c0-2-1.8-3.45-4.29-3.45h-49.63c-2.49,0-4.29,1.45-4.29,3.45v16.76c0,2,1.81,3.46,4.29,3.46h19.48c1.22,0,2.11.54,2.11,1.28v129.18c0,2,1.81,3.45,4.29,3.45h49.63c2.49,0,4.29-1.45,4.29-3.45v-16.76c0-2-1.8-3.46-4.29-3.46Z" fill="#171917"/><path d="M894,121.83h71.24c2.49,0,4.29-1.45,4.29-3.46v-35.89c0-2-1.81-3.46-4.29-3.46h-19.48c-1.23,0-2.11-.54-2.11-1.28v-14.4c0-2-1.8-3.45-4.29-3.45h-49.63c-2.49,0-4.29,1.45-4.29,3.45v14.4c0,.74-.89,1.28-2.11,1.28h-19.48c-2.49,0-4.29,1.45-4.29,3.46v74.16c0,2,1.8,3.46,4.29,3.46h19.48c1.22,0,2.11.54,2.11,1.28v14.4c0,2,1.81,3.45,4.29,3.45h49.63c2.49,0,4.29-1.45,4.29-3.45v-14.4c0-.74.89-1.28,2.11-1.28h19.48c2.49,0,4.29-1.45,4.29-3.46v-16.76c0-2-1.81-3.45-4.29-3.45h-23.75c-2.49,0-4.29,1.45-4.29,3.45v14.4c0,.74-.89,1.28-2.11,1.28h-41.09c-1.23,0-2.11-.54-2.11-1.28v-31.16c0-.74.89-1.28,2.11-1.28ZM891.88,96.87v-12.03c0-.74.89-1.28,2.11-1.28h41.09c1.22,0,2.11.54,2.11,1.28v12.03c0,.74-.89,1.28-2.11,1.28h-41.09c-1.23,0-2.11-.54-2.11-1.28Z" fill="#171917"/></svg>