<?xml version="1.0" encoding="UTF-8"?><svg id="_レイヤー_1" xmlns="http://www.w3.org/2000/svg" width="1840.59" height="195.85" viewBox="0 0 1840.59 195.85"><path d="M130.68,151.59H36.07c-1.18,0-2.03-.51-2.03-1.22V5.89c0-1.97-1.77-3.39-4.21-3.39H6.71c-2.44,0-4.21,1.43-4.21,3.39v165.43c0,1.97,1.77,3.39,4.21,3.39h123.97c2.44,0,4.21-1.43,4.21-3.39v-16.33c0-1.97-1.77-3.39-4.21-3.39Z" fill="#7ba84a"/><path d="M282.21,77.05h-18.97c-1.18,0-2.03-.51-2.03-1.22v-14.03c0-1.97-1.77-3.39-4.21-3.39h-48.34c-2.44,0-4.21,1.43-4.21,3.39v14.03c0,.7-.85,1.22-2.03,1.22h-18.97c-2.44,0-4.21,1.43-4.21,3.39v72.24c0,1.97,1.77,3.39,4.21,3.39h18.97c1.18,0,2.03.51,2.03,1.22v14.03c0,1.97,1.77,3.39,4.21,3.39h48.34c2.44,0,4.21-1.43,4.21-3.39v-14.03c0-.7.85-1.22,2.03-1.22h18.97c2.44,0,4.21-1.43,4.21-3.39v-16.33c0-1.97-1.77-3.39-4.21-3.39h-23.13c-2.44,0-4.21,1.43-4.21,3.39v14.03c0,.7-.85,1.22-2.03,1.22h-40.02c-1.18,0-2.03-.51-2.03-1.22v-30.36c0-.7.85-1.22,2.03-1.22h69.39c2.44,0,4.21-1.43,4.21-3.39v-34.97c0-1.97-1.77-3.39-4.21-3.39ZM254.87,82.75v11.72c0,.7-.85,1.22-2.03,1.22h-40.02c-1.18,0-2.03-.51-2.03-1.22v-11.72c0-.7.85-1.22,2.03-1.22h40.02c1.18,0,2.03.51,2.03,1.22Z" fill="#7ba84a"/><path d="M432.95,77.05h-18.97c-1.18,0-2.03-.51-2.03-1.22v-14.03c0-1.97-1.77-3.39-4.21-3.39h-48.34c-2.44,0-4.21,1.43-4.21,3.39v16.33c0,1.97,1.77,3.39,4.21,3.39h44.18c1.18,0,2.03.51,2.03,1.22v11.72c0,.7-.85,1.22-2.03,1.22h-44.18c-2.44,0-4.21,1.43-4.21,3.39v14.03c0,.7-.85,1.22-2.03,1.22h-18.97c-2.44,0-4.21,1.43-4.21,3.39v34.97c0,1.97,1.77,3.39,4.21,3.39h18.97c1.18,0,2.03.51,2.03,1.22v14.03c0,1.97,1.77,3.39,4.21,3.39h73.55c2.44,0,4.21-1.43,4.21-3.39v-90.88c0-1.97-1.77-3.39-4.21-3.39ZM405.61,120.02v30.36c0,.7-.85,1.22-2.03,1.22h-40.02c-1.18,0-2.03-.51-2.03-1.22v-30.36c0-.7.85-1.22,2.03-1.22h40.02c1.18,0,2.03.51,2.03,1.22Z" fill="#7ba84a"/><path d="M583.71,77.05h-18.97c-1.18,0-2.03-.51-2.03-1.22v-14.03c0-1.97-1.77-3.39-4.21-3.39h-73.55c-2.44,0-4.21,1.43-4.21,3.39v109.52c0,1.97,1.77,3.39,4.21,3.39h23.13c2.44,0,4.21-1.43,4.21-3.39v-88.57c0-.7.85-1.22,2.03-1.22h40.02c1.18,0,2.03.51,2.03,1.22v88.57c0,1.97,1.77,3.39,4.21,3.39h23.13c2.44,0,4.21-1.43,4.21-3.39v-90.88c0-1.97-1.77-3.39-4.21-3.39Z" fill="#7ba84a"/><path d="M709.25,151.59h-18.97c-1.18,0-2.03-.51-2.03-1.22V61.8c0-1.97-1.77-3.39-4.21-3.39h-48.34c-2.44,0-4.21,1.43-4.21,3.39v16.33c0,1.97,1.77,3.39,4.21,3.39h18.97c1.18,0,2.03.51,2.03,1.22v67.63c0,.7-.85,1.22-2.03,1.22h-18.97c-2.44,0-4.21,1.43-4.21,3.39v16.33c0,1.97,1.77,3.39,4.21,3.39h73.55c2.44,0,4.21-1.43,4.21-3.39v-16.33c0-1.97-1.77-3.39-4.21-3.39Z" fill="#7ba84a"/><path d="M660.9,25.62h23.13c2.44,0,4.21-1.43,4.21-3.39V5.89c0-1.97-1.77-3.39-4.21-3.39h-23.13c-2.44,0-4.21,1.43-4.21,3.39v16.33c0,1.97,1.77,3.39,4.21,3.39Z" fill="#7ba84a"/><path d="M859.21,77.05h-18.97c-1.18,0-2.03-.51-2.03-1.22v-14.03c0-1.97-1.77-3.39-4.21-3.39h-73.55c-2.44,0-4.21,1.43-4.21,3.39v109.52c0,1.97,1.77,3.39,4.21,3.39h23.13c2.44,0,4.21-1.43,4.21-3.39v-88.57c0-.7.85-1.22,2.03-1.22h40.02c1.18,0,2.03.51,2.03,1.22v88.57c0,1.97,1.77,3.39,4.21,3.39h23.13c2.44,0,4.21-1.43,4.21-3.39v-90.88c0-1.97-1.77-3.39-4.21-3.39Z" fill="#7ba84a"/><path d="M1009.96,58.41h-73.55c-2.44,0-4.21,1.43-4.21,3.39v14.03c0,.7-.85,1.22-2.03,1.22h-18.97c-2.44,0-4.21,1.43-4.21,3.39v53.6c0,1.97,1.77,3.39,4.21,3.39h18.97c1.18,0,2.03.51,2.03,1.22v14.03c0,1.97,1.77,3.39,4.21,3.39h44.18c1.18,0,2.03.51,2.03,1.22v11.72c0,.7-.85,1.22-2.03,1.22h-44.18c-2.44,0-4.21,1.43-4.21,3.39v16.33c0,1.97,1.77,3.39,4.21,3.39h48.34c2.44,0,4.21-1.43,4.21-3.39v-14.03c0-.7.85-1.22,2.03-1.22h18.97c2.44,0,4.21-1.43,4.21-3.39V61.8c0-1.97-1.77-3.39-4.21-3.39ZM980.59,132.96h-40.02c-1.18,0-2.03-.51-2.03-1.22v-48.99c0-.7.85-1.22,2.03-1.22h40.02c1.18,0,2.03.51,2.03,1.22v48.99c0,.7-.85,1.22-2.03,1.22Z" fill="#7ba84a"/><path d="M1230.11,2.5h-123.97c-2.44,0-4.21,1.43-4.21,3.39v165.43c0,1.97,1.77,3.39,4.21,3.39h23.13c2.44,0,4.21-1.43,4.21-3.39v-69.94c0-.7.85-1.22,2.03-1.22h69.39c2.44,0,4.21-1.43,4.21-3.39v-16.33c0-1.97-1.77-3.39-4.21-3.39h-69.39c-1.18,0-2.03-.51-2.03-1.22V26.84c0-.7.85-1.22,2.03-1.22h94.6c2.44,0,4.21-1.43,4.21-3.39V5.89c0-1.97-1.77-3.39-4.21-3.39Z" fill="#7ba84a"/><path d="M1381.63,77.05h-18.97c-1.18,0-2.03-.51-2.03-1.22v-14.03c0-1.97-1.77-3.39-4.21-3.39h-48.34c-2.44,0-4.21,1.43-4.21,3.39v14.03c0,.7-.85,1.22-2.03,1.22h-18.97c-2.44,0-4.21,1.43-4.21,3.39v72.24c0,1.97,1.77,3.39,4.21,3.39h18.97c1.18,0,2.03.51,2.03,1.22v14.03c0,1.97,1.77,3.39,4.21,3.39h48.34c2.44,0,4.21-1.43,4.21-3.39v-14.03c0-.7.85-1.22,2.03-1.22h18.97c2.44,0,4.21-1.43,4.21-3.39v-72.24c0-1.97-1.77-3.39-4.21-3.39ZM1354.29,82.75v67.63c0,.7-.85,1.22-2.03,1.22h-40.02c-1.18,0-2.03-.51-2.03-1.22v-67.63c0-.7.85-1.22,2.03-1.22h40.02c1.18,0,2.03.51,2.03,1.22Z" fill="#7ba84a"/><path d="M1532.38,77.05h-18.97c-1.18,0-2.03-.51-2.03-1.22v-14.03c0-1.97-1.77-3.39-4.21-3.39h-48.34c-2.44,0-4.21,1.43-4.21,3.39v14.03c0,.7-.85,1.22-2.03,1.22h-18.97c-2.44,0-4.21,1.43-4.21,3.39v72.24c0,1.97,1.77,3.39,4.21,3.39h18.97c1.18,0,2.03.51,2.03,1.22v14.03c0,1.97,1.77,3.39,4.21,3.39h48.34c2.44,0,4.21-1.43,4.21-3.39v-14.03c0-.7.85-1.22,2.03-1.22h18.97c2.44,0,4.21-1.43,4.21-3.39v-16.33c0-1.97-1.77-3.39-4.21-3.39h-24.17c-2.44,0-4.21,1.43-4.21,3.39v14.03c0,.7-.85,1.22-2.03,1.22h-38.99c-1.18,0-2.03-.51-2.03-1.22v-67.63c0-.7.85-1.22,2.03-1.22h38.99c1.18,0,2.03.51,2.03,1.22v14.03c0,1.97,1.77,3.39,4.21,3.39h24.17c2.44,0,4.21-1.43,4.21-3.39v-16.33c0-1.97-1.77-3.39-4.21-3.39Z" fill="#7ba84a"/><path d="M1683.13,58.41h-23.13c-2.44,0-4.21,1.43-4.21,3.39v88.57c0,.7-.85,1.22-2.03,1.22h-40.02c-1.18,0-2.03-.51-2.03-1.22V61.8c0-1.97-1.77-3.39-4.21-3.39h-23.13c-2.44,0-4.21,1.43-4.21,3.39v90.88c0,1.97,1.77,3.39,4.21,3.39h18.97c1.18,0,2.03.51,2.03,1.22v14.03c0,1.97,1.77,3.39,4.21,3.39h73.55c2.44,0,4.21-1.43,4.21-3.39V61.8c0-1.97-1.77-3.39-4.21-3.39Z" fill="#7ba84a"/><path d="M1810.75,100.17h23.13c2.44,0,4.21-1.43,4.21-3.39v-16.33c0-1.97-1.77-3.39-4.21-3.39h-18.97c-1.18,0-2.03-.51-2.03-1.22v-14.03c0-1.97-1.77-3.39-4.21-3.39h-48.34c-2.44,0-4.21,1.43-4.21,3.39v14.03c0,.7-.85,1.22-2.03,1.22h-18.97c-2.44,0-4.21,1.43-4.21,3.39v16.33c0,1.97,1.77,3.39,4.21,3.39h18.97c1.18,0,2.03.51,2.03,1.22v14.03c0,1.97,1.77,3.39,4.21,3.39h18.97c1.18,0,2.03.51,2.03,1.22v14.03c0,1.97,1.77,3.39,4.21,3.39h18.97c1.18,0,2.03.51,2.03,1.22v11.72c0,.7-.85,1.22-2.03,1.22h-38.98c-1.18,0-2.03-.51-2.03-1.22v-14.03c0-1.97-1.77-3.39-4.21-3.39h-24.17c-2.44,0-4.21,1.43-4.21,3.39v16.33c0,1.97,1.77,3.39,4.21,3.39h18.97c1.18,0,2.03.51,2.03,1.22v14.03c0,1.97,1.77,3.39,4.21,3.39h48.34c2.44,0,4.21-1.43,4.21-3.39v-14.03c0-.7.85-1.22,2.03-1.22h18.97c2.44,0,4.21-1.43,4.21-3.39v-16.33c0-1.97-1.77-3.39-4.21-3.39h-18.97c-1.18,0-2.03-.51-2.03-1.22v-14.03c0-1.97-1.77-3.39-4.21-3.39h-18.97c-1.18,0-2.03-.51-2.03-1.22v-14.03c0-1.97-1.77-3.39-4.21-3.39h-18.97c-1.18,0-2.03-.51-2.03-1.22v-11.72c0-.7.85-1.22,2.03-1.22h38.99c1.18,0,2.03.51,2.03,1.22v14.03c0,2.21,3.05,3.39,5.25,3.39Z" fill="#7ba84a"/></svg>