<?xml version="1.0" encoding="UTF-8"?><svg id="_レイヤー_1" xmlns="http://www.w3.org/2000/svg" width="1011.78" height="176.72" viewBox="0 0 1011.78 176.72"><path d="M129.72,36.85h-19.57c-1.23,0-2.12-.55-2.12-1.31v-14.81c0-2.06-1.81-3.55-4.31-3.55h-19.58c-1.23,0-2.12-.55-2.12-1.31V1.05c0-2.06-1.81-3.55-4.31-3.55H1.81C-.69-2.5-2.5-1.01-2.5,1.05v174.62c0,2.06,1.81,3.55,4.31,3.55h75.88c2.5,0,4.31-1.49,4.31-3.55v-14.81c0-.76.89-1.31,2.12-1.31h19.58c2.5,0,4.31-1.49,4.31-3.55v-14.8c0-.76.89-1.31,2.12-1.31h19.57c2.5,0,4.31-1.49,4.31-3.55V40.4c0-2.06-1.81-3.55-4.31-3.55ZM79.84,41.52h19.58c1.23,0,2.12.55,2.12,1.31v91.06c0,.76-.89,1.31-2.12,1.31h-19.58c-2.5,0-4.31,1.49-4.31,3.55v14.81c0,.76-.89,1.31-2.12,1.31h-41.29c-1.23,0-2.12-.55-2.12-1.31V23.16c0-.76.89-1.31,2.12-1.31h41.29c1.23,0,2.12.55,2.12,1.31v14.81c0,2.06,1.81,3.55,4.31,3.55Z" fill="#7ba84a"/><path d="M260.02,154.88h-19.57c-1.23,0-2.12-.55-2.12-1.31V60.07c0-2.06-1.81-3.55-4.31-3.55h-49.87c-2.5,0-4.31,1.49-4.31,3.55v17.24c0,2.06,1.81,3.55,4.31,3.55h19.57c1.23,0,2.12.55,2.12,1.31v71.39c0,.76-.89,1.31-2.12,1.31h-19.57c-2.5,0-4.31,1.49-4.31,3.55v17.24c0,2.06,1.81,3.55,4.31,3.55h75.88c2.5,0,4.31-1.49,4.31-3.55v-17.24c0-2.06-1.81-3.55-4.31-3.55Z" fill="#7ba84a"/><path d="M210.14,21.85h23.87c2.5,0,4.31-1.49,4.31-3.55V1.05c0-2.06-1.81-3.55-4.31-3.55h-23.87c-2.5,0-4.31,1.49-4.31,3.55v17.24c0,2.06,1.81,3.55,4.31,3.55Z" fill="#7ba84a"/><path d="M414.73,56.52h-23.87c-2.5,0-4.31,1.49-4.31,3.55v73.82c0,.76-.89,1.31-2.12,1.31h-19.57c-2.5,0-4.31,1.49-4.31,3.55v14.81c0,.76-.89,1.31-2.12,1.31h-15.28c-1.23,0-2.12-.55-2.12-1.31V60.07c0-2.06-1.81-3.55-4.31-3.55h-23.86c-2.5,0-4.31,1.49-4.31,3.55v115.6c0,2.06,1.81,3.55,4.31,3.55h49.87c2.5,0,4.31-1.49,4.31-3.55v-14.81c0-.76.89-1.31,2.12-1.31h19.57c2.5,0,4.31-1.49,4.31-3.55v-14.8c0-.76.89-1.31,2.12-1.31h19.58c2.5,0,4.31-1.49,4.31-3.55V60.07c0-2.06-1.81-3.55-4.31-3.55Z" fill="#7ba84a"/><path d="M494.36,21.85h23.86c2.5,0,4.31-1.49,4.31-3.55V1.05c0-2.06-1.81-3.55-4.31-3.55h-23.86c-2.5,0-4.31,1.49-4.31,3.55v17.24c0,2.06,1.81,3.55,4.31,3.55Z" fill="#7ba84a"/><path d="M544.23,154.88h-19.57c-1.23,0-2.12-.55-2.12-1.31V60.07c0-2.06-1.81-3.55-4.31-3.55h-49.87c-2.5,0-4.31,1.49-4.31,3.55v17.24c0,2.06,1.81,3.55,4.31,3.55h19.57c1.23,0,2.12.55,2.12,1.31v71.39c0,.76-.89,1.31-2.12,1.31h-19.57c-2.5,0-4.31,1.49-4.31,3.55v17.24c0,2.06,1.81,3.55,4.31,3.55h75.88c2.5,0,4.31-1.49,4.31-3.55v-17.24c0-2.06-1.81-3.55-4.31-3.55Z" fill="#7ba84a"/><path d="M698.94,17.17h-23.86c-2.5,0-4.31,1.49-4.31,3.55v34.48c0,.76-.89,1.32-2.12,1.32h-45.58c-2.5,0-4.31,1.49-4.31,3.55v14.81c0,.76-.89,1.31-2.12,1.31h-19.57c-2.5,0-4.31,1.49-4.31,3.55v76.26c0,2.06,1.81,3.55,4.31,3.55h19.57c1.23,0,2.12.55,2.12,1.31v14.81c0,2.06,1.81,3.55,4.31,3.55h75.88c2.5,0,4.31-1.49,4.31-3.55V20.73c0-2.06-1.81-3.55-4.31-3.55ZM670.76,82.18v71.39c0,.76-.89,1.31-2.12,1.31h-41.29c-1.23,0-2.12-.55-2.12-1.31v-71.39c0-.76.89-1.31,2.12-1.31h41.29c1.23,0,2.12.55,2.12,1.31Z" fill="#7ba84a"/><path d="M854.45,76.19h-19.58c-1.23,0-2.12-.55-2.12-1.31v-14.81c0-2.06-1.81-3.55-4.31-3.55h-49.87c-2.5,0-4.31,1.49-4.31,3.55v14.81c0,.76-.89,1.31-2.12,1.31h-19.57c-2.5,0-4.31,1.49-4.31,3.55v76.26c0,2.06,1.81,3.55,4.31,3.55h19.57c1.23,0,2.12.55,2.12,1.31v14.81c0,2.06,1.81,3.55,4.31,3.55h49.87c2.5,0,4.31-1.49,4.31-3.55v-14.81c0-.76.89-1.31,2.12-1.31h19.58c2.5,0,4.31-1.49,4.31-3.55v-17.24c0-2.06-1.81-3.55-4.31-3.55h-23.87c-2.5,0-4.31,1.49-4.31,3.55v14.81c0,.76-.89,1.31-2.12,1.31h-41.29c-1.23,0-2.12-.55-2.12-1.31v-32.04c0-.76.89-1.31,2.12-1.31h71.59c2.5,0,4.31-1.49,4.31-3.55v-36.91c0-2.06-1.81-3.55-4.31-3.55ZM826.28,82.18v12.37c0,.76-.89,1.32-2.12,1.32h-41.29c-1.23,0-2.12-.55-2.12-1.32v-12.37c0-.76.89-1.31,2.12-1.31h41.29c1.23,0,2.12.55,2.12,1.31Z" fill="#7ba84a"/><path d="M1009.97,56.52h-49.87c-2.5,0-4.31,1.49-4.31,3.55v14.81c0,.76-.89,1.31-2.12,1.31h-15.29c-1.23,0-2.12-.55-2.12-1.31v-14.81c0-2.06-1.81-3.55-4.31-3.55h-23.86c-2.5,0-4.31,1.49-4.31,3.55v115.6c0,2.06,1.81,3.55,4.31,3.55h23.86c2.5,0,4.31-1.49,4.31-3.55v-73.82c0-.76.89-1.31,2.12-1.31h19.58c2.5,0,4.31-1.49,4.31-3.55v-14.81c0-.76.89-1.31,2.12-1.31h45.58c2.5,0,4.31-1.49,4.31-3.55v-17.24c0-2.06-1.81-3.55-4.31-3.55Z" fill="#7ba84a"/></svg>