<?xml version="1.0" encoding="UTF-8"?><svg id="_レイヤー_1" xmlns="http://www.w3.org/2000/svg" width="619.34" height="182.17" viewBox="0 0 619.34 182.17"><path d="M134.2,21.59h-19.44c-.96,0-1.71-.38-1.71-.88V6.35c0-2.23-1.97-3.85-4.68-3.85H33.01c-2.71,0-4.68,1.62-4.68,3.85v14.37c0,.49-.75.88-1.71.88H7.18c-2.71,0-4.68,1.62-4.68,3.85v131.29c0,2.23,1.97,3.85,4.68,3.85h19.44c.96,0,1.71.38,1.71.88v14.37c0,2.23,1.97,3.85,4.68,3.85h101.19c2.71,0,4.68-1.62,4.68-3.85v-93.1c0-2.23-1.97-3.85-4.68-3.85H58.84c-2.71,0-4.68,1.62-4.68,3.85v16.73c0,2.23,1.97,3.85,4.68,3.85h45.27c.96,0,1.71.38,1.71.88v50.19c0,.49-.75.88-1.71.88H37.27c-.96,0-1.71-.38-1.71-.88V27.8c0-.49.75-.88,1.71-.88h66.84c.96,0,1.71.38,1.71.88v14.37c0,2.23,1.97,3.85,4.68,3.85h23.7c2.71,0,4.68-1.62,4.68-3.85v-16.73c0-2.23-1.97-3.85-4.68-3.85Z" fill="#7caa4a"/><path d="M285.34,78.87h-19.44c-.96,0-1.71-.38-1.71-.88v-14.37c0-2.23-1.97-3.85-4.68-3.85h-49.53c-2.71,0-4.68,1.62-4.68,3.85v16.73c0,2.23,1.97,3.85,4.68,3.85h45.27c.96,0,1.71.38,1.71.88v12.01c0,.49-.75.88-1.71.88h-45.27c-2.71,0-4.68,1.62-4.68,3.85v14.37c0,.49-.75.88-1.71.88h-19.44c-2.71,0-4.68,1.62-4.68,3.85v35.82c0,2.23,1.97,3.85,4.68,3.85h19.44c.96,0,1.71.38,1.71.88v14.37c0,2.23,1.97,3.85,4.68,3.85h75.36c2.71,0,4.68-1.62,4.68-3.85v-93.1c0-2.23-1.97-3.85-4.68-3.85ZM256.96,123.27v31.1c0,.49-.75.88-1.71.88h-41.01c-.96,0-1.71-.38-1.71-.88v-31.1c0-.49.75-.88,1.71-.88h41.01c.96,0,1.71.38,1.71.88Z" fill="#7caa4a"/><path d="M462.24,78.87h-19.44c-.96,0-1.71-.38-1.71-.88v-14.37c0-2.23-1.97-3.85-4.68-3.85h-101.19c-2.71,0-4.68,1.62-4.68,3.85v112.2c0,2.23,1.97,3.85,4.68,3.85h23.7c2.71,0,4.68-1.62,4.68-3.85v-90.74c0-.49.75-.88,1.71-.88h15.18c.96,0,1.71.38,1.71.88v90.74c0,2.23,1.97,3.85,4.68,3.85h23.7c2.71,0,4.68-1.62,4.68-3.85v-90.74c0-.49.75-.88,1.71-.88h15.18c.96,0,1.71.38,1.71.88v90.74c0,2.23,1.97,3.85,4.68,3.85h23.7c2.71,0,4.68-1.62,4.68-3.85v-93.1c0-2.23-1.97-3.85-4.68-3.85Z" fill="#7caa4a"/><path d="M541.06,122.39h71.1c2.71,0,4.68-1.62,4.68-3.85v-35.82c0-2.23-1.97-3.85-4.68-3.85h-19.44c-.96,0-1.71-.38-1.71-.88v-14.37c0-2.23-1.97-3.85-4.68-3.85h-49.53c-2.71,0-4.68,1.62-4.68,3.85v14.37c0,.49-.75.88-1.71.88h-19.44c-2.71,0-4.68,1.62-4.68,3.85v74.01c0,2.23,1.97,3.85,4.68,3.85h19.44c.96,0,1.71.38,1.71.88v14.37c0,2.23,1.97,3.85,4.68,3.85h49.53c2.71,0,4.68-1.62,4.68-3.85v-14.37c0-.49.75-.88,1.71-.88h19.44c2.71,0,4.68-1.62,4.68-3.85v-16.73c0-2.23-1.97-3.85-4.68-3.85h-23.7c-2.71,0-4.68,1.62-4.68,3.85v14.37c0,.49-.75.88-1.71.88h-41.01c-.96,0-1.71-.38-1.71-.88v-31.1c0-.49.75-.88,1.71-.88ZM539.35,97.09v-12.01c0-.49.75-.88,1.71-.88h41.01c.96,0,1.71.38,1.71.88v12.01c0,.49-.75.88-1.71.88h-41.01c-.96,0-1.71-.38-1.71-.88Z" fill="#7caa4a"/></svg>