<?xml version="1.0" encoding="UTF-8"?><svg id="_レイヤー_1" xmlns="http://www.w3.org/2000/svg" width="3644.18" height="195.66" viewBox="0 0 3644.18 195.66"><path d="M170.16,49.06H5.84c-1.94,0-3.34,1.15-3.34,2.75v11.94c0,1.59,1.4,2.75,3.34,2.75h13.87c.68,0,1.22.27,1.22.62v23.87c0,1.59,1.4,2.75,3.34,2.75h13.87c.68,0,1.22.27,1.22.62v23.87c0,1.59,1.4,2.75,3.34,2.75h13.87c.68,0,1.22.27,1.22.62v23.87c0,1.59,1.4,2.75,3.34,2.75h13.87c.68,0,1.22.27,1.22.62v10.25c0,1.59,1.4,2.75,3.34,2.75h16.91c1.94,0,3.34-1.15,3.34-2.75v-10.25c0-.35.54-.62,1.22-.62h13.87c1.94,0,3.34-1.15,3.34-2.75v-23.87c0-.35.54-.62,1.22-.62h13.87c1.94,0,3.34-1.15,3.34-2.75v-23.87c0-.35.54-.62,1.22-.62h13.87c1.94,0,3.34-1.15,3.34-2.75v-23.87c0-.35.54-.62,1.22-.62h13.87c1.94,0,3.34-1.15,3.34-2.75v-11.94c0-1.59-1.4-2.75-3.34-2.75Z" fill="#7caa4a"/><path d="M352.51,21.07h-18.9c-.93,0-1.66-.37-1.66-.85V6.24c0-2.17-1.92-3.74-4.55-3.74h-73.28c-2.64,0-4.55,1.57-4.55,3.74v13.97c0,.48-.73.85-1.66.85h-18.9c-2.64,0-4.55,1.57-4.55,3.74v53.4c0,2.17,1.91,3.74,4.55,3.74h18.9c.93,0,1.66.37,1.66.85v13.97c0,2.17,1.92,3.74,4.55,3.74h69.14c.93,0,1.66.37,1.66.85v48.81c0,.48-.73.85-1.66.85h-64.99c-.93,0-1.66-.37-1.66-.85v-13.97c0-2.17-1.92-3.74-4.55-3.74h-23.05c-2.64,0-4.55,1.57-4.55,3.74v16.27c0,2.17,1.91,3.74,4.55,3.74h18.9c.93,0,1.66.37,1.66.85v13.97c0,2.17,1.92,3.74,4.55,3.74h73.28c2.64,0,4.55-1.57,4.55-3.74v-13.97c0-.48.73-.85,1.66-.85h18.9c2.64,0,4.55-1.57,4.55-3.74v-53.4c0-2.17-1.92-3.74-4.55-3.74h-18.9c-.93,0-1.66-.37-1.66-.85v-13.97c0-2.17-1.92-3.74-4.55-3.74h-69.14c-.93,0-1.66-.37-1.66-.85V27.11c0-.48.73-.85,1.66-.85h64.99c.93,0,1.66.37,1.66.85v13.97c0,2.17,1.91,3.74,4.55,3.74h23.05c2.64,0,4.55-1.57,4.55-3.74v-16.27c0-2.17-1.92-3.74-4.55-3.74Z" fill="#7caa4a"/><path d="M493.92,76.96h-18.64c-.93,0-1.66-.37-1.66-.85v-13.97c0-2.17-1.91-3.74-4.55-3.74h-73.02c-2.64,0-4.55,1.57-4.55,3.74v127.29c0,2.17,1.92,3.74,4.55,3.74h22.79c2.64,0,4.55-1.57,4.55-3.74v-32.54c0-.48.73-.85,1.66-.85h44.02c2.64,0,4.55-1.57,4.55-3.74v-13.78c0-.48.73-.85,1.66-.85h18.64c2.64,0,4.55-1.57,4.55-3.74v-53.21c0-2.17-1.91-3.74-4.55-3.74ZM466.58,83v48.62c0,.48-.73.85-1.66.85h-39.88c-.93,0-1.66-.37-1.66-.85v-48.62c0-.48.73-.85,1.66-.85h39.88c.93,0,1.66.37,1.66.85Z" fill="#7caa4a"/><path d="M626.71,76.77h-18.9c-.93,0-1.66-.37-1.66-.85v-13.97c0-2.17-1.92-3.74-4.55-3.74h-48.16c-2.64,0-4.55,1.57-4.55,3.74v16.27c0,2.17,1.92,3.74,4.55,3.74h44.02c.93,0,1.66.37,1.66.85v11.68c0,.48-.73.85-1.66.85h-44.02c-2.64,0-4.55,1.57-4.55,3.74v13.97c0,.48-.73.85-1.66.85h-18.9c-2.64,0-4.55,1.57-4.55,3.74v34.84c0,2.17,1.92,3.74,4.55,3.74h18.9c.93,0,1.66.37,1.66.85v13.97c0,2.17,1.92,3.74,4.55,3.74h73.28c2.64,0,4.55-1.57,4.55-3.74v-90.54c0-2.17-1.92-3.74-4.55-3.74ZM599.11,119.94v30.24c0,.48-.73.85-1.66.85h-39.88c-.93,0-1.66-.37-1.66-.85v-30.24c0-.48.73-.85,1.66-.85h39.88c.93,0,1.66.37,1.66.85Z" fill="#7caa4a"/><path d="M770.86,76.77h-18.9c-.93,0-1.66-.37-1.66-.85v-13.97c0-2.17-1.91-3.74-4.55-3.74h-48.16c-2.64,0-4.55,1.57-4.55,3.74v13.97c0,.48-.73.85-1.66.85h-18.9c-2.64,0-4.55,1.57-4.55,3.74v71.97c0,2.17,1.91,3.74,4.55,3.74h18.9c.93,0,1.66.37,1.66.85v13.97c0,2.17,1.92,3.74,4.55,3.74h48.16c2.64,0,4.55-1.57,4.55-3.74v-13.97c0-.48.73-.85,1.66-.85h18.9c2.64,0,4.55-1.57,4.55-3.74v-16.27c0-2.17-1.92-3.74-4.55-3.74h-24.08c-2.64,0-4.55,1.57-4.55,3.74v13.97c0,.48-.73.85-1.66.85h-38.84c-.93,0-1.66-.37-1.66-.85v-67.38c0-.48.73-.85,1.66-.85h38.84c.93,0,1.66.37,1.66.85v13.97c0,2.17,1.92,3.74,4.55,3.74h24.08c2.64,0,4.55-1.57,4.55-3.74v-16.27c0-2.17-1.92-3.74-4.55-3.74Z" fill="#7caa4a"/><path d="M914.94,76.77h-18.9c-.93,0-1.66-.37-1.66-.85v-13.97c0-2.17-1.91-3.74-4.55-3.74h-48.16c-2.64,0-4.55,1.57-4.55,3.74v13.97c0,.48-.73.85-1.66.85h-18.9c-2.64,0-4.55,1.57-4.55,3.74v71.97c0,2.17,1.91,3.74,4.55,3.74h18.9c.93,0,1.66.37,1.66.85v13.97c0,2.17,1.92,3.74,4.55,3.74h48.16c2.64,0,4.55-1.57,4.55-3.74v-13.97c0-.48.73-.85,1.66-.85h18.9c2.64,0,4.55-1.57,4.55-3.74v-16.27c0-2.17-1.92-3.74-4.55-3.74h-23.05c-2.64,0-4.55,1.57-4.55,3.74v13.97c0,.48-.73.85-1.66.85h-39.88c-.93,0-1.66-.37-1.66-.85v-30.24c0-.48.73-.85,1.66-.85h69.14c2.64,0,4.55-1.57,4.55-3.74v-34.84c0-2.17-1.92-3.74-4.55-3.74ZM887.65,101.84c-.11-.11-.2-.24-.25-.35h.52c-.08.11-.18.23-.27.35ZM887.34,87.84v12.11c-.21.21-.4.45-.56.67-.23.3-.84,1.1-1.12,1.17l-39.87.57c-1.19,0-1.65-.48-1.65-1.7v-16.21c.2-.34.88-1.07,1.66-1.07h39.88c.66,0,1.66,0,1.66,4.47ZM888.79,101.5h0Z" fill="#7caa4a"/><path d="M1100.04,76.77h-18.9c-.93,0-1.66-.37-1.66-.85v-13.97c0-2.17-1.92-3.74-4.55-3.74h-48.16c-2.64,0-4.55,1.57-4.55,3.74v13.97c0,.48-.73.85-1.66.85h-18.9c-2.64,0-4.55,1.57-4.55,3.74v71.97c0,2.17,1.92,3.74,4.55,3.74h18.9c.93,0,1.66.37,1.66.85v13.97c0,2.17,1.92,3.74,4.55,3.74h48.16c2.64,0,4.55-1.57,4.55-3.74v-13.97c0-.48.73-.85,1.66-.85h18.9c2.64,0,4.55-1.57,4.55-3.74v-71.97c0-2.17-1.92-3.74-4.55-3.74ZM1072.44,82.8v67.38c0,.48-.73.85-1.66.85h-39.88c-.93,0-1.66-.37-1.66-.85v-67.38c0-.48.73-.85,1.66-.85h39.88c.93,0,1.66.37,1.66.85Z" fill="#7caa4a"/><path d="M1241.13,58.2h-48.16c-2.64,0-4.55,1.57-4.55,3.74v13.97c0,.48-.73.85-1.66.85h-14.76c-.93,0-1.66-.37-1.66-.85v-13.97c0-2.17-1.92-3.74-4.55-3.74h-23.05c-2.64,0-4.55,1.57-4.55,3.74v109.1c0,2.17,1.91,3.74,4.55,3.74h23.05c2.64,0,4.55-1.57,4.55-3.74v-69.67c0-.48.73-.85,1.66-.85h18.9c2.64,0,4.55-1.57,4.55-3.74v-13.97c0-.48.73-.85,1.66-.85h44.02c2.64,0,4.55-1.57,4.55-3.74v-16.27c0-2.17-1.91-3.74-4.55-3.74Z" fill="#7caa4a"/><path d="M1453.98,21.07h-18.9c-.93,0-1.66-.37-1.66-.85V6.24c0-2.17-1.92-3.74-4.55-3.74h-73.28c-2.64,0-4.55,1.57-4.55,3.74v13.97c0,.48-.73.85-1.66.85h-18.9c-2.64,0-4.55,1.57-4.55,3.74v127.67c0,2.17,1.92,3.74,4.55,3.74h18.9c.93,0,1.66.37,1.66.85v13.97c0,2.17,1.92,3.74,4.55,3.74h73.28c2.64,0,4.55-1.57,4.55-3.74v-13.97c0-.48.73-.85,1.66-.85h18.9c2.64,0,4.55-1.57,4.55-3.74v-16.27c0-2.17-1.92-3.74-4.55-3.74h-23.05c-2.64,0-4.55,1.57-4.55,3.74v13.97c0,.48-.73.85-1.66.85h-64.99c-.93,0-1.66-.37-1.66-.85V27.11c0-.48.73-.85,1.66-.85h64.99c.93,0,1.66.37,1.66.85v13.97c0,2.17,1.92,3.74,4.55,3.74h23.05c2.64,0,4.55-1.57,4.55-3.74v-16.27c0-2.17-1.92-3.74-4.55-3.74Z" fill="#7caa4a"/><path d="M1572.94,151.03h-18.9c-.93,0-1.66-.37-1.66-.85V24.81c0-2.17-1.91-3.74-4.55-3.74h-48.16c-2.64,0-4.55,1.57-4.55,3.74v16.27c0,2.17,1.91,3.74,4.55,3.74h18.9c.93,0,1.66.37,1.66.85v125.37c0,2.17,1.92,3.74,4.55,3.74h48.16c2.64,0,4.55-1.57,4.55-3.74v-16.27c0-2.17-1.91-3.74-4.55-3.74Z" fill="#7caa4a"/><path d="M1647.86,26.25h23.05c2.64,0,4.55-1.57,4.55-3.74V6.24c0-2.17-1.91-3.74-4.55-3.74h-23.05c-2.64,0-4.55,1.57-4.55,3.74v16.27c0,2.17,1.92,3.74,4.55,3.74Z" fill="#7caa4a"/><path d="M1696.02,151.03h-18.9c-.93,0-1.66-.37-1.66-.85V61.94c0-2.17-1.91-3.74-4.55-3.74h-48.16c-2.64,0-4.55,1.57-4.55,3.74v16.27c0,2.17,1.91,3.74,4.55,3.74h18.9c.93,0,1.66.37,1.66.85v67.38c0,.48-.73.85-1.66.85h-18.9c-2.64,0-4.55,1.57-4.55,3.74v16.27c0,2.17,1.91,3.74,4.55,3.74h73.28c2.64,0,4.55-1.57,4.55-3.74v-16.27c0-2.17-1.91-3.74-4.55-3.74Z" fill="#7caa4a"/><path d="M1832.27,76.77h-18.9c-.93,0-1.66-.37-1.66-.85v-13.97c0-2.17-1.92-3.74-4.55-3.74h-48.16c-2.64,0-4.55,1.57-4.55,3.74v13.97c0,.48-.73.85-1.66.85h-18.9c-2.64,0-4.55,1.57-4.55,3.74v71.97c0,2.17,1.92,3.74,4.55,3.74h18.9c.93,0,1.66.37,1.66.85v13.97c0,2.17,1.91,3.74,4.55,3.74h48.16c2.64,0,4.55-1.57,4.55-3.74v-13.97c0-.48.73-.85,1.66-.85h18.9c2.64,0,4.55-1.57,4.55-3.74v-16.27c0-2.17-1.91-3.74-4.55-3.74h-24.08c-2.64,0-4.55,1.57-4.55,3.74v13.97c0,.48-.73.85-1.66.85h-38.84c-.93,0-1.66-.37-1.66-.85v-67.38c0-.48.73-.85,1.66-.85h38.84c.93,0,1.66.37,1.66.85v13.97c0,2.17,1.92,3.74,4.55,3.74h24.08c2.64,0,4.55-1.57,4.55-3.74v-16.27c0-2.17-1.91-3.74-4.55-3.74Z" fill="#7caa4a"/><path d="M1974.05,58.2h-23.05c-2.64,0-4.55,1.57-4.55,3.74v13.97c0,.48-.73.85-1.66.85h-18.9c-2.64,0-4.55,1.57-4.55,3.74v13.97c0,.48-.73.85-1.66.85h-14.76c-.93,0-1.66-.37-1.66-.85V24.81c0-2.17-1.92-3.74-4.55-3.74h-23.05c-2.64,0-4.55,1.57-4.55,3.74v146.23c0,2.17,1.91,3.74,4.55,3.74h23.05c2.64,0,4.55-1.57,4.55-3.74v-51.11c0-.48.73-.85,1.66-.85h14.76c.93,0,1.66.37,1.66.93l.77,13.89c0,2.17,1.92,3.74,4.55,3.74h18.13c.93,0,1.66.37,1.66.85v32.54c0,2.17,1.92,3.74,4.55,3.74h23.05c2.64,0,4.55-1.57,4.55-3.74v-34.84c0-2.17-1.92-3.74-4.55-3.74h-18.38c-.93,0-1.66-.37-1.66-.9l-.52-13.92c0-2.17-1.92-3.74-4.55-3.74h-18.9c-.93,0-1.66-.37-1.66-.85v-11.68c0-.48.73-.85,1.66-.85h18.9c2.64,0,4.55-1.57,4.55-3.74v-13.97c0-.48.73-.85,1.66-.85h18.9c2.64,0,4.55-1.57,4.55-3.74v-16.27c0-2.17-1.92-3.74-4.55-3.74Z" fill="#7caa4a"/><path d="M2130.54,2.5h-23.05c-2.64,0-4.55,1.57-4.55,3.74v13.97c0,.48-.73.85-1.66.85h-18.9c-2.64,0-4.55,1.57-4.55,3.74v32.54c0,.48-.73.85-1.66.85h-18.9c-2.64,0-4.55,1.57-4.55,3.74v53.4c0,2.17,1.91,3.74,4.55,3.74h18.9c.93,0,1.66.37,1.66.85v32.54c0,2.17,1.92,3.74,4.55,3.74h18.9c.93,0,1.66.37,1.66.85v13.97c0,2.17,1.91,3.74,4.55,3.74h23.05c2.64,0,4.55-1.57,4.55-3.74v-16.27c0-2.17-1.91-3.74-4.55-3.74h-18.9c-.93,0-1.66-.37-1.66-.85v-32.54c0-2.17-1.92-3.74-4.55-3.74h-18.9c-.93,0-1.66-.37-1.66-.85v-48.81c0-.48.73-.85,1.66-.85h18.9c2.64,0,4.55-1.57,4.55-3.74V27.11c0-.48.73-.85,1.66-.85h18.9c2.64,0,4.55-1.57,4.55-3.74V6.24c0-2.17-1.91-3.74-4.55-3.74Z" fill="#7caa4a"/><path d="M2311.67,22.51V6.24c0-2.17-1.92-3.74-4.55-3.74h-123.52c-2.64,0-4.55,1.57-4.55,3.74v16.27c0,2.17,1.91,3.74,4.55,3.74h44.02c.93,0,1.66.37,1.66.85v143.94c0,2.17,1.92,3.74,4.55,3.74h23.05c2.64,0,4.55-1.57,4.55-3.74V27.11c0-.48.73-.85,1.66-.85h44.02c2.64,0,4.55-1.57,4.55-3.74Z" fill="#7caa4a"/><path d="M2412.61,76.77h-18.9c-.93,0-1.66-.37-1.66-.85v-13.97c0-2.17-1.92-3.74-4.55-3.74h-48.16c-2.64,0-4.55,1.57-4.55,3.74v16.27c0,2.17,1.92,3.74,4.55,3.74h44.02c.93,0,1.66.37,1.66.85v11.68c0,.48-.73.85-1.66.85h-44.02c-2.64,0-4.55,1.57-4.55,3.74v13.97c0,.48-.73.85-1.66.85h-18.9c-2.64,0-4.55,1.57-4.55,3.74v34.84c0,2.17,1.91,3.74,4.55,3.74h18.9c.93,0,1.66.37,1.66.85v13.97c0,2.17,1.92,3.74,4.55,3.74h73.28c2.64,0,4.55-1.57,4.55-3.74v-90.54c0-2.17-1.92-3.74-4.55-3.74ZM2385.01,119.94v30.24c0,.48-.73.85-1.66.85h-39.88c-.93,0-1.66-.37-1.66-.85v-30.24c0-.48.73-.85,1.66-.85h39.88c.93,0,1.66.37,1.66.85Z" fill="#7caa4a"/><path d="M2552.92,76.96h-18.64c-.93,0-1.66-.37-1.66-.85v-13.97c0-2.17-1.92-3.74-4.55-3.74h-73.02c-2.64,0-4.55,1.57-4.55,3.74v127.29c0,2.17,1.91,3.74,4.55,3.74h22.79c2.64,0,4.55-1.57,4.55-3.74v-32.54c0-.48.73-.85,1.66-.85h44.02c2.64,0,4.55-1.57,4.55-3.74v-13.78c0-.48.73-.85,1.66-.85h18.64c2.64,0,4.55-1.57,4.55-3.74v-53.21c0-2.17-1.92-3.74-4.55-3.74ZM2525.58,83v48.62c0,.48-.73.85-1.66.85h-39.88c-.93,0-1.66-.37-1.66-.85v-48.62c0-.48.73-.85,1.66-.85h39.88c.93,0,1.66.37,1.66.85Z" fill="#7caa4a"/><path d="M2668.63,58.2h-18.9c-.93,0-1.66-.37-1.66-.85V24.81c0-2.17-1.92-3.74-4.55-3.74h-18.9c-.93,0-1.66-.37-1.66-.85V6.24c0-2.17-1.92-3.74-4.55-3.74h-23.05c-2.64,0-4.55,1.57-4.55,3.74v16.27c0,2.17,1.92,3.74,4.55,3.74h18.9c.93,0,1.66.37,1.66.85v32.54c0,2.17,1.92,3.74,4.55,3.74h18.9c.93,0,1.66.37,1.66.85v48.81c0,.48-.73.85-1.66.85h-18.9c-2.64,0-4.55,1.57-4.55,3.74v32.54c0,.48-.73.85-1.66.85h-18.9c-2.64,0-4.55,1.57-4.55,3.74v16.27c0,2.17,1.92,3.74,4.55,3.74h23.05c2.64,0,4.55-1.57,4.55-3.74v-13.97c0-.48.73-.85,1.66-.85h18.9c2.64,0,4.55-1.57,4.55-3.74v-32.54c0-.48.73-.85,1.66-.85h18.9c2.64,0,4.55-1.57,4.55-3.74v-53.4c0-2.17-1.92-3.74-4.55-3.74Z" fill="#7caa4a"/><path d="M2855.07,58.2h-44.02c-.93,0-1.66-.37-1.66-.85V24.81c0-2.17-1.91-3.74-4.55-3.74h-23.05c-2.64,0-4.55,1.57-4.55,3.74v32.54c0,.48-.73.85-1.66.85h-18.9c-2.64,0-4.55,1.57-4.55,3.74v16.27c0,2.17,1.91,3.74,4.55,3.74h18.9c.93,0,1.66.37,1.66.85v69.67c0,2.17,1.91,3.74,4.55,3.74h18.9c.93,0,1.66.37,1.66.85v13.97c0,2.17,1.92,3.74,4.55,3.74h48.16c2.64,0,4.55-1.57,4.55-3.74v-16.27c0-2.17-1.92-3.74-4.55-3.74h-44.02c-.93,0-1.66-.37-1.66-.85v-67.38c0-.48.73-.85,1.66-.85h44.02c2.64,0,4.55-1.57,4.55-3.74v-16.27c0-2.17-1.92-3.74-4.55-3.74Z" fill="#7caa4a"/><path d="M2990.64,76.77h-18.9c-.93,0-1.66-.37-1.66-.85v-13.97c0-2.17-1.92-3.74-4.55-3.74h-48.16c-2.64,0-4.55,1.57-4.55,3.74v13.97c0,.48-.73.85-1.66.85h-18.9c-2.64,0-4.55,1.57-4.55,3.74v71.97c0,2.17,1.92,3.74,4.55,3.74h18.9c.93,0,1.66.37,1.66.85v13.97c0,2.17,1.91,3.74,4.55,3.74h48.16c2.64,0,4.55-1.57,4.55-3.74v-13.97c0-.48.73-.85,1.66-.85h18.9c2.64,0,4.55-1.57,4.55-3.74v-71.97c0-2.17-1.91-3.74-4.55-3.74ZM2963.04,82.8v67.38c0,.48-.73.85-1.66.85h-39.88c-.93,0-1.66-.37-1.66-.85v-67.38c0-.48.73-.85,1.66-.85h39.88c.93,0,1.66.37,1.66.85Z" fill="#7caa4a"/><path d="M3191.22,2.5h-23.05c-2.64,0-4.55,1.57-4.55,3.74v143.94c0,.48-.73.85-1.66.85h-64.99c-.93,0-1.66-.37-1.66-.85v-32.54c0-2.17-1.92-3.74-4.55-3.74h-23.05c-2.64,0-4.55,1.57-4.55,3.74v34.84c0,2.17,1.92,3.74,4.55,3.74h18.9c.93,0,1.66.37,1.66.85v13.97c0,2.17,1.91,3.74,4.55,3.74h73.28c2.64,0,4.55-1.57,4.55-3.74v-13.97c0-.48.73-.85,1.66-.85h18.9c2.64,0,4.55-1.57,4.55-3.74V6.24c0-2.17-1.91-3.74-4.55-3.74Z" fill="#7caa4a"/><path d="M3336.36,58.2h-23.05c-2.64,0-4.55,1.57-4.55,3.74v88.24c0,.48-.73.85-1.66.85h-39.88c-.93,0-1.66-.37-1.66-.85V61.94c0-2.17-1.92-3.74-4.55-3.74h-23.05c-2.64,0-4.55,1.57-4.55,3.74v90.54c0,2.17,1.92,3.74,4.55,3.74h18.9c.93,0,1.66.37,1.66.85v13.97c0,2.17,1.91,3.74,4.55,3.74h73.28c2.64,0,4.55-1.57,4.55-3.74V61.94c0-2.17-1.91-3.74-4.55-3.74Z" fill="#7caa4a"/><path d="M3501.31,76.77h-18.9c-.93,0-1.66-.37-1.66-.85v-13.97c0-2.17-1.92-3.74-4.55-3.74h-98.4c-2.64,0-4.55,1.57-4.55,3.74v109.1c0,2.17,1.91,3.74,4.55,3.74h23.05c2.64,0,4.55-1.57,4.55-3.74v-88.24c0-.48.73-.85,1.66-.85h14.76c.93,0,1.66.37,1.66.85v88.24c0,2.17,1.92,3.74,4.55,3.74h23.05c2.64,0,4.55-1.57,4.55-3.74v-88.24c0-.48.73-.85,1.66-.85h14.76c.93,0,1.66.37,1.66.85v88.24c0,2.17,1.91,3.74,4.55,3.74h23.05c2.64,0,4.55-1.57,4.55-3.74v-90.54c0-2.17-1.91-3.74-4.55-3.74Z" fill="#7caa4a"/><path d="M3637.13,76.96h-18.64c-.93,0-1.66-.37-1.66-.85v-13.97c0-2.17-1.91-3.74-4.55-3.74h-73.02c-2.64,0-4.55,1.57-4.55,3.74v127.29c0,2.17,1.91,3.74,4.55,3.74h22.79c2.64,0,4.55-1.57,4.55-3.74v-32.54c0-.48.73-.85,1.66-.85h44.02c2.64,0,4.55-1.57,4.55-3.74v-13.78c0-.48.73-.85,1.66-.85h18.64c2.64,0,4.55-1.57,4.55-3.74v-53.21c0-2.17-1.91-3.74-4.55-3.74ZM3609.79,83v48.62c0,.48-.73.85-1.66.85h-39.88c-.93,0-1.66-.37-1.66-.85v-48.62c0-.48.73-.85,1.66-.85h39.88c.93,0,1.66.37,1.66.85Z" fill="#7caa4a"/></svg>