<?xml version="1.0" encoding="UTF-8"?><svg id="_レイヤー_1" xmlns="http://www.w3.org/2000/svg" width="1862.57" height="200.86" viewBox="0 0 1862.57 200.86"><path d="M134.07,21.63h-19.48c-1.23,0-2.11-.54-2.11-1.28V5.96c0-2-1.8-3.45-4.29-3.45H32.67c-2.49,0-4.29,1.45-4.29,3.45v14.4c0,.74-.89,1.28-2.11,1.28H6.79c-2.49,0-4.29,1.45-4.29,3.45v131.55c0,2,1.81,3.46,4.29,3.46h19.48c1.22,0,2.11.54,2.11,1.28v14.4c0,2,1.81,3.45,4.29,3.45h75.51c2.49,0,4.29-1.45,4.29-3.45v-14.4c0-.74.89-1.28,2.11-1.28h19.48c2.49,0,4.29-1.45,4.29-3.46v-16.76c0-2-1.81-3.45-4.29-3.45h-23.75c-2.49,0-4.29,1.45-4.29,3.45v14.4c0,.74-.89,1.28-2.11,1.28H36.94c-1.23,0-2.11-.54-2.11-1.28V27.45c0-.74.89-1.28,2.11-1.28h66.97c1.22,0,2.11.54,2.11,1.28v14.4c0,2,1.81,3.46,4.29,3.46h23.75c2.49,0,4.29-1.45,4.29-3.46v-16.76c0-2-1.81-3.45-4.29-3.45Z" fill="#7ba84a"/><path d="M289.61,79.03h-19.48c-1.23,0-2.11-.54-2.11-1.28v-14.4c0-2-1.8-3.45-4.29-3.45h-45.36c-1.23,0-2.11-.54-2.11-1.28V25.09c0-2-1.8-3.45-4.29-3.45h-23.75c-2.49,0-4.29,1.45-4.29,3.45v150.68c0,2,1.8,3.45,4.29,3.45h23.75c2.49,0,4.29-1.45,4.29-3.45v-90.92c0-.74.89-1.28,2.11-1.28h41.09c1.22,0,2.11.54,2.11,1.28v90.92c0,2,1.81,3.45,4.29,3.45h23.75c2.49,0,4.29-1.45,4.29-3.45v-93.29c0-2-1.81-3.46-4.29-3.46Z" fill="#7ba84a"/><path d="M444.36,79.03h-19.48c-1.23,0-2.11-.54-2.11-1.28v-14.4c0-2-1.8-3.45-4.29-3.45h-49.63c-2.49,0-4.29,1.45-4.29,3.45v16.76c0,2,1.81,3.46,4.29,3.46h45.36c1.22,0,2.11.54,2.11,1.28v12.03c0,.74-.89,1.28-2.11,1.28h-45.36c-2.49,0-4.29,1.45-4.29,3.45v14.4c0,.74-.89,1.28-2.11,1.28h-19.48c-2.49,0-4.29,1.45-4.29,3.46v35.89c0,2,1.81,3.46,4.29,3.46h19.48c1.22,0,2.11.54,2.11,1.28v14.4c0,2,1.81,3.45,4.29,3.45h75.51c2.49,0,4.29-1.45,4.29-3.45v-93.29c0-2-1.8-3.46-4.29-3.46ZM416.32,123.11v31.16c0,.74-.89,1.28-2.11,1.28h-41.09c-1.23,0-2.11-.54-2.11-1.28v-31.16c0-.74.89-1.28,2.11-1.28h41.09c1.22,0,2.11.54,2.11,1.28Z" fill="#7ba84a"/><path d="M599.11,79.03h-19.48c-1.23,0-2.11-.54-2.11-1.28v-14.4c0-2-1.8-3.45-4.29-3.45h-75.51c-2.49,0-4.29,1.45-4.29,3.45v112.42c0,2,1.81,3.45,4.29,3.45h23.75c2.49,0,4.29-1.45,4.29-3.45v-90.92c0-.74.89-1.28,2.11-1.28h41.09c1.22,0,2.11.54,2.11,1.28v90.92c0,2,1.81,3.45,4.29,3.45h23.75c2.49,0,4.29-1.45,4.29-3.45v-93.29c0-2-1.8-3.46-4.29-3.46Z" fill="#7ba84a"/><path d="M753.86,59.9h-75.51c-2.49,0-4.29,1.45-4.29,3.45v14.4c0,.74-.89,1.28-2.11,1.28h-19.48c-2.49,0-4.29,1.45-4.29,3.46v55.03c0,2,1.8,3.45,4.29,3.45h19.48c1.22,0,2.11.54,2.11,1.28v14.4c0,2,1.81,3.46,4.29,3.46h45.36c1.22,0,2.11.54,2.11,1.28v12.03c0,.74-.89,1.28-2.11,1.28h-45.36c-2.49,0-4.29,1.45-4.29,3.45v16.76c0,2,1.81,3.46,4.29,3.46h49.63c2.49,0,4.29-1.45,4.29-3.46v-14.4c0-.74.89-1.28,2.11-1.28h19.48c2.49,0,4.29-1.45,4.29-3.45V63.35c0-2-1.81-3.45-4.29-3.45ZM723.71,136.42h-41.09c-1.23,0-2.11-.54-2.11-1.28v-50.29c0-.74.89-1.28,2.11-1.28h41.09c1.22,0,2.11.54,2.11,1.28v50.29c0,.74-.89,1.28-2.11,1.28Z" fill="#7ba84a"/><path d="M908.61,79.03h-19.48c-1.23,0-2.11-.54-2.11-1.28v-14.4c0-2-1.8-3.45-4.29-3.45h-49.63c-2.49,0-4.29,1.45-4.29,3.45v14.4c0,.74-.89,1.28-2.11,1.28h-19.48c-2.49,0-4.29,1.45-4.29,3.46v74.16c0,2,1.8,3.46,4.29,3.46h19.48c1.22,0,2.11.54,2.11,1.28v14.4c0,2,1.81,3.45,4.29,3.45h49.63c2.49,0,4.29-1.45,4.29-3.45v-14.4c0-.74.89-1.28,2.11-1.28h19.48c2.49,0,4.29-1.45,4.29-3.46v-16.76c0-2-1.81-3.45-4.29-3.45h-23.75c-2.49,0-4.29,1.45-4.29,3.45v14.4c0,.74-.89,1.28-2.11,1.28h-41.09c-1.23,0-2.11-.54-2.11-1.28v-31.16c0-.74.89-1.28,2.11-1.28h71.24c2.49,0,4.29-1.45,4.29-3.46v-35.89c0-2-1.81-3.46-4.29-3.46ZM880.57,84.85v12.03c0,.74-.89,1.28-2.11,1.28h-41.09c-1.23,0-2.11-.54-2.11-1.28v-12.03c0-.74.89-1.28,2.11-1.28h41.09c1.22,0,2.11.54,2.11,1.28Z" fill="#7ba84a"/><path d="M1037.48,155.55h-19.48c-1.23,0-2.11-.54-2.11-1.28V25.09c0-2-1.8-3.45-4.29-3.45h-49.63c-2.49,0-4.29,1.45-4.29,3.45v16.76c0,2,1.81,3.46,4.29,3.46h19.48c1.22,0,2.11.54,2.11,1.28v129.18c0,2,1.81,3.45,4.29,3.45h49.63c2.49,0,4.29-1.45,4.29-3.45v-16.76c0-2-1.8-3.46-4.29-3.46Z" fill="#7ba84a"/><path d="M1191.42,79.03h-19.48c-1.23,0-2.11-.54-2.11-1.28v-14.4c0-2-1.8-3.45-4.29-3.45h-49.63c-2.49,0-4.29,1.45-4.29,3.45v14.4c0,.74-.89,1.28-2.11,1.28h-19.48c-2.49,0-4.29,1.45-4.29,3.46v74.16c0,2,1.8,3.46,4.29,3.46h19.48c1.22,0,2.11.54,2.11,1.28v14.4c0,2,1.81,3.45,4.29,3.45h49.63c2.49,0,4.29-1.45,4.29-3.45v-14.4c0-.74.89-1.28,2.11-1.28h19.48c2.49,0,4.29-1.45,4.29-3.46v-74.16c0-2-1.81-3.46-4.29-3.46ZM1163.38,84.85v69.42c0,.74-.89,1.28-2.11,1.28h-41.09c-1.23,0-2.11-.54-2.11-1.28v-69.42c0-.74.89-1.28,2.11-1.28h41.09c1.22,0,2.11.54,2.11,1.28Z" fill="#7ba84a"/><path d="M1346.17,59.9h-75.51c-2.49,0-4.29,1.45-4.29,3.45v14.4c0,.74-.89,1.28-2.11,1.28h-19.48c-2.49,0-4.29,1.45-4.29,3.46v55.03c0,2,1.81,3.45,4.29,3.45h19.48c1.22,0,2.11.54,2.11,1.28v14.4c0,2,1.81,3.46,4.29,3.46h45.36c1.22,0,2.11.54,2.11,1.28v12.03c0,.74-.89,1.28-2.11,1.28h-45.36c-2.49,0-4.29,1.45-4.29,3.45v16.76c0,2,1.81,3.46,4.29,3.46h49.63c2.49,0,4.29-1.45,4.29-3.46v-14.4c0-.74.89-1.28,2.11-1.28h19.48c2.49,0,4.29-1.45,4.29-3.45V63.35c0-2-1.8-3.45-4.29-3.45ZM1316.02,136.42h-41.09c-1.23,0-2.11-.54-2.11-1.28v-50.29c0-.74.89-1.28,2.11-1.28h41.09c1.22,0,2.11.54,2.11,1.28v50.29c0,.74-.89,1.28-2.11,1.28Z" fill="#7ba84a"/><path d="M1545.48,21.63h-19.48c-1.23,0-2.11-.54-2.11-1.28V5.96c0-2-1.8-3.45-4.29-3.45h-101.39c-2.49,0-4.29,1.45-4.29,3.45v169.81c0,2,1.81,3.45,4.29,3.45h101.39c2.49,0,4.29-1.45,4.29-3.45v-14.4c0-.74.89-1.28,2.11-1.28h19.48c2.49,0,4.29-1.45,4.29-3.46v-55.03c0-2-1.81-3.45-4.29-3.45h-19.48c-1.23,0-2.11-.54-2.11-1.28v-12.03c0-.74.89-1.28,2.11-1.28h19.48c2.49,0,4.29-1.45,4.29-3.46V25.09c0-2-1.81-3.45-4.29-3.45ZM1517.44,77.75c0,.74-.89,1.28-2.11,1.28h-66.97c-1.23,0-2.11-.54-2.11-1.28V27.45c0-.74.89-1.28,2.11-1.28h66.97c1.22,0,2.11.54,2.11,1.28v50.29ZM1446.24,103.98c0-.74.89-1.28,2.11-1.28h66.97c1.22,0,2.11.54,2.11,1.28v50.29c0,.74-.89,1.28-2.11,1.28h-66.97c-1.23,0-2.11-.54-2.11-1.28v-50.29Z" fill="#7ba84a"/><path d="M1701.03,79.03h-19.48c-1.23,0-2.11-.54-2.11-1.28v-14.4c0-2-1.8-3.45-4.29-3.45h-49.63c-2.49,0-4.29,1.45-4.29,3.45v14.4c0,.74-.89,1.28-2.11,1.28h-19.48c-2.49,0-4.29,1.45-4.29,3.46v74.16c0,2,1.8,3.46,4.29,3.46h19.48c1.22,0,2.11.54,2.11,1.28v14.4c0,2,1.81,3.45,4.29,3.45h49.63c2.49,0,4.29-1.45,4.29-3.45v-14.4c0-.74.89-1.28,2.11-1.28h19.48c2.49,0,4.29-1.45,4.29-3.46v-74.16c0-2-1.81-3.46-4.29-3.46ZM1672.99,84.85v69.42c0,.74-.89,1.28-2.11,1.28h-41.09c-1.23,0-2.11-.54-2.11-1.28v-69.42c0-.74.89-1.28,2.11-1.28h41.09c1.22,0,2.11.54,2.11,1.28Z" fill="#7ba84a"/><path d="M1810.42,83.57h45.36c2.49,0,4.29-1.45,4.29-3.46v-16.76c0-2-1.81-3.45-4.29-3.45h-45.36c-1.23,0-2.11-.54-2.11-1.28V25.09c0-2-1.8-3.45-4.29-3.45h-23.75c-2.49,0-4.29,1.45-4.29,3.45v33.53c0,.74-.89,1.28-2.11,1.28h-19.48c-2.49,0-4.29,1.45-4.29,3.45v16.76c0,2,1.8,3.46,4.29,3.46h19.48c1.22,0,2.11.54,2.11,1.28v71.79c0,2,1.81,3.46,4.29,3.46h19.48c1.22,0,2.11.54,2.11,1.28v14.4c0,2,1.81,3.45,4.29,3.45h49.63c2.49,0,4.29-1.45,4.29-3.45v-16.76c0-2-1.81-3.46-4.29-3.46h-45.36c-1.23,0-2.11-.54-2.11-1.28v-69.42c0-.74.89-1.28,2.11-1.28Z" fill="#7ba84a"/></svg>