<?xml version="1.0" encoding="UTF-8"?><svg id="_レイヤー_1" xmlns="http://www.w3.org/2000/svg" width="1880.52" height="212.25" viewBox="0 0 1880.52 212.25"><path d="M114.33,83.53h-20.62c-1.33,0-2.3-.6-2.3-1.42v-15.24c0-2.08-1.88-3.6-4.48-3.6H6.98c-2.6,0-4.48,1.51-4.48,3.6v119.03c0,2.08,1.88,3.59,4.48,3.59h25.14c2.6,0,4.48-1.51,4.48-3.59v-96.27c0-.82.97-1.42,2.3-1.42h43.5c1.33,0,2.3.6,2.3,1.42v96.27c0,2.08,1.88,3.59,4.48,3.59h25.14c2.6,0,4.48-1.51,4.48-3.59v-98.78c0-2.08-1.88-3.6-4.48-3.6Z" fill="#7ba84a"/><path d="M278.19,63.27h-25.14c-2.6,0-4.48,1.51-4.48,3.6v76.01c0,.82-.97,1.42-2.3,1.42h-43.5c-1.33,0-2.3-.6-2.3-1.42v-76.01c0-2.08-1.88-3.6-4.48-3.6h-25.14c-2.6,0-4.48,1.51-4.48,3.6v78.52c0,2.08,1.88,3.6,4.48,3.6h20.62c1.33,0,2.3.6,2.3,1.42v15.25c0,2.08,1.88,3.59,4.48,3.59h48.02c1.33,0,2.3.6,2.3,1.42v12.74c0,.82-.97,1.42-2.3,1.42h-48.02c-2.6,0-4.48,1.51-4.48,3.59v17.75c0,2.08,1.88,3.6,4.48,3.6h52.55c2.59,0,4.48-1.51,4.48-3.6v-15.24c0-.82.97-1.42,2.3-1.42h20.62c2.6,0,4.48-1.51,4.48-3.59v-119.03c0-2.08-1.88-3.6-4.48-3.6Z" fill="#7ba84a"/><path d="M442.05,83.53h-20.62c-1.33,0-2.3-.6-2.3-1.42v-15.24c0-2.08-1.88-3.6-4.48-3.6h-52.55c-2.6,0-4.48,1.51-4.48,3.6v17.75c0,2.08,1.88,3.6,4.48,3.6h48.02c1.33,0,2.3.6,2.3,1.42v12.74c0,.82-.97,1.42-2.3,1.42h-48.02c-2.6,0-4.48,1.51-4.48,3.59v15.24c0,.82-.97,1.42-2.3,1.42h-20.62c-2.6,0-4.48,1.51-4.48,3.6v38.01c0,2.08,1.88,3.59,4.48,3.59h20.62c1.33,0,2.3.6,2.3,1.42v15.24c0,2.08,1.88,3.59,4.48,3.59h79.95c2.6,0,4.48-1.51,4.48-3.59v-98.78c0-2.08-1.88-3.6-4.48-3.6ZM412.42,130.14v32.99c0,.82-.97,1.42-2.3,1.42h-43.5c-1.33,0-2.3-.6-2.3-1.42v-32.99c0-.82.97-1.42,2.3-1.42h43.5c1.33,0,2.3.6,2.3,1.42Z" fill="#7ba84a"/><path d="M605.91,83.53h-20.62c-1.33,0-2.3-.6-2.3-1.42v-15.24c0-2.08-1.88-3.6-4.48-3.6h-52.55c-2.6,0-4.48,1.51-4.48,3.6v15.24c0,.82-.97,1.42-2.3,1.42h-20.62c-2.6,0-4.48,1.51-4.48,3.6v78.52c0,2.08,1.88,3.59,4.48,3.59h20.62c1.33,0,2.3.6,2.3,1.42v15.24c0,2.08,1.88,3.59,4.48,3.59h52.55c2.59,0,4.48-1.51,4.48-3.59v-15.24c0-.82.97-1.42,2.3-1.42h20.62c2.6,0,4.48-1.51,4.48-3.59v-78.52c0-2.08-1.88-3.6-4.48-3.6ZM576.28,89.63v73.51c0,.82-.97,1.42-2.3,1.42h-43.5c-1.33,0-2.3-.6-2.3-1.42v-73.51c0-.82.97-1.42,2.3-1.42h43.5c1.33,0,2.3.6,2.3,1.42Z" fill="#7ba84a"/><path d="M797.17,83.53h-20.63c-1.33,0-2.3-.6-2.3-1.42v-15.24c0-2.08-1.88-3.6-4.48-3.6h-107.35c-2.6,0-4.48,1.51-4.48,3.6v119.03c0,2.08,1.88,3.59,4.48,3.59h25.14c2.6,0,4.48-1.51,4.48-3.59v-96.27c0-.82.97-1.42,2.3-1.42h16.1c1.33,0,2.3.6,2.3,1.42v96.27c0,2.08,1.88,3.59,4.48,3.59h25.14c2.59,0,4.48-1.51,4.48-3.59v-96.27c0-.82.97-1.42,2.3-1.42h16.1c1.33,0,2.3.6,2.3,1.42v96.27c0,2.08,1.88,3.59,4.48,3.59h25.14c2.59,0,4.48-1.51,4.48-3.59v-98.78c0-2.08-1.88-3.6-4.48-3.6Z" fill="#7ba84a"/><path d="M961.87,83.53h-20.62c-1.33,0-2.3-.6-2.3-1.42v-15.24c0-2.08-1.88-3.6-4.48-3.6h-52.55c-2.6,0-4.48,1.51-4.48,3.6v17.75c0,2.08,1.88,3.6,4.48,3.6h48.02c1.33,0,2.3.6,2.3,1.42v12.74c0,.82-.97,1.42-2.3,1.42h-48.02c-2.6,0-4.48,1.51-4.48,3.59v15.24c0,.82-.97,1.42-2.3,1.42h-20.62c-2.6,0-4.48,1.51-4.48,3.6v38.01c0,2.08,1.88,3.59,4.48,3.59h20.62c1.33,0,2.3.6,2.3,1.42v15.24c0,2.08,1.88,3.59,4.48,3.59h79.95c2.6,0,4.48-1.51,4.48-3.59v-98.78c0-2.08-1.88-3.6-4.48-3.6ZM932.25,130.14v32.99c0,.82-.97,1.42-2.3,1.42h-43.5c-1.33,0-2.3-.6-2.3-1.42v-32.99c0-.82.97-1.42,2.3-1.42h43.5c1.33,0,2.3.6,2.3,1.42Z" fill="#7ba84a"/><path d="M1125.73,63.27h-52.55c-2.59,0-4.48,1.51-4.48,3.6v15.24c0,.82-.97,1.42-2.3,1.42h-16.1c-1.33,0-2.3-.6-2.3-1.42v-15.24c0-2.08-1.88-3.6-4.48-3.6h-25.14c-2.6,0-4.48,1.51-4.48,3.6v119.03c0,2.08,1.88,3.59,4.48,3.59h25.14c2.6,0,4.48-1.51,4.48-3.59v-76.01c0-.82.97-1.42,2.3-1.42h20.62c2.6,0,4.48-1.51,4.48-3.59v-15.24c0-.82.97-1.42,2.3-1.42h48.02c2.6,0,4.48-1.51,4.48-3.6v-17.75c0-2.08-1.88-3.6-4.48-3.6Z" fill="#7ba84a"/><path d="M1275.46,63.27h-25.14c-2.6,0-4.48,1.51-4.48,3.6v96.27c0,.82-.97,1.42-2.3,1.42h-43.5c-1.33,0-2.3-.6-2.3-1.42v-96.27c0-2.08-1.88-3.6-4.48-3.6h-25.14c-2.6,0-4.48,1.51-4.48,3.6v98.78c0,2.08,1.88,3.59,4.48,3.59h20.62c1.33,0,2.3.6,2.3,1.42v15.24c0,2.08,1.88,3.59,4.48,3.59h79.95c2.6,0,4.48-1.51,4.48-3.59v-119.03c0-2.08-1.88-3.6-4.48-3.6Z" fill="#7ba84a"/><path d="M1466.73,27.44h25.14c2.6,0,4.48-1.51,4.48-3.6V6.1c0-2.08-1.88-3.6-4.48-3.6h-25.14c-2.6,0-4.48,1.51-4.48,3.6v17.75c0,2.08,1.88,3.6,4.48,3.6Z" fill="#7ba84a"/><path d="M1519.28,164.55h-20.62c-1.33,0-2.3-.6-2.3-1.42v-96.27c0-2.08-1.88-3.6-4.48-3.6h-52.54c-2.6,0-4.48,1.51-4.48,3.6v17.75c0,2.08,1.88,3.6,4.48,3.6h20.62c1.33,0,2.3.6,2.3,1.42v73.51c0,.82-.97,1.42-2.3,1.42h-20.62c-2.6,0-4.48,1.51-4.48,3.59v17.75c0,2.08,1.88,3.59,4.48,3.59h79.95c2.59,0,4.48-1.51,4.48-3.59v-17.75c0-2.08-1.88-3.59-4.48-3.59Z" fill="#7ba84a"/><path d="M1682.28,83.53h-20.62c-1.33,0-2.3-.6-2.3-1.42v-15.24c0-2.08-1.88-3.6-4.48-3.6h-52.55c-2.6,0-4.48,1.51-4.48,3.6v15.24c0,.82-.97,1.42-2.3,1.42h-20.62c-2.6,0-4.48,1.51-4.48,3.6v17.75c0,2.08,1.88,3.59,4.48,3.59h20.62c1.33,0,2.3.6,2.3,1.42v15.24c0,2.08,1.88,3.6,4.48,3.6h20.62c1.33,0,2.3.6,2.3,1.42v15.24c0,2.08,1.88,3.6,4.48,3.6h20.62c1.33,0,2.3.6,2.3,1.42v12.74c0,.82-.97,1.42-2.3,1.42h-42.37c-1.33,0-2.3-.6-2.3-1.42v-15.24c0-2.08-1.88-3.6-4.48-3.6h-26.27c-2.6,0-4.48,1.51-4.48,3.6v17.75c0,2.08,1.88,3.59,4.48,3.59h20.62c1.33,0,2.3.6,2.3,1.42v15.24c0,2.08,1.88,3.59,4.48,3.59h52.55c2.59,0,4.48-1.51,4.48-3.59v-15.24c0-.82.97-1.42,2.3-1.42h20.62c2.6,0,4.48-1.51,4.48-3.59v-17.75c0-2.08-1.88-3.6-4.48-3.6h-20.62c-1.33,0-2.3-.6-2.3-1.42v-15.24c0-2.08-1.88-3.6-4.48-3.6h-20.62c-1.33,0-2.3-.6-2.3-1.42v-15.24c0-2.08-1.88-3.59-4.48-3.59h-20.62c-1.33,0-2.3-.6-2.3-1.42v-12.74c0-.82.97-1.42,2.3-1.42h42.38c1.33,0,2.3.6,2.3,1.42v15.24c0,2.34,3.26,3.59,5.61,3.59h25.14c2.6,0,4.48-1.51,4.48-3.59v-17.75c0-2.08-1.88-3.6-4.48-3.6Z" fill="#7ba84a"/><path d="M1873.54,22.76h-20.62c-1.33,0-2.3-.6-2.3-1.42V6.1c0-2.08-1.88-3.6-4.48-3.6h-79.95c-2.6,0-4.48,1.51-4.48,3.6v15.24c0,.82-.97,1.42-2.3,1.42h-20.62c-2.6,0-4.48,1.51-4.48,3.6v38.01c0,2.08,1.88,3.6,4.48,3.6h25.14c2.6,0,4.48-1.51,4.48-3.6V28.86c0-.82.97-1.42,2.3-1.42h70.91c1.33,0,2.3.6,2.3,1.42v53.25c0,.82-.97,1.42-2.3,1.42h-20.62c-2.6,0-4.48,1.51-4.48,3.6v15.24c0,.82-.97,1.42-2.3,1.42h-20.62c-2.59,0-4.48,1.51-4.48,3.59v38.01c0,2.08,1.88,3.6,4.48,3.6h25.14c2.59,0,4.48-1.51,4.48-3.6v-35.5c0-.82.97-1.42,2.3-1.42h20.62c2.6,0,4.48-1.51,4.48-3.59v-15.24c0-.82.97-1.42,2.3-1.42h20.62c2.59,0,4.48-1.51,4.48-3.6V26.35c0-2.08-1.88-3.6-4.48-3.6Z" fill="#7ba84a"/><path d="M1818.74,164.55h-25.14c-2.59,0-4.48,1.51-4.48,3.59v17.75c0,2.08,1.88,3.59,4.48,3.59h25.14c2.59,0,4.48-1.51,4.48-3.59v-17.75c0-2.08-1.88-3.59-4.48-3.59Z" fill="#7ba84a"/></svg>