<?xml version="1.0" encoding="UTF-8"?><svg id="_レイヤー_1" xmlns="http://www.w3.org/2000/svg" width="1699.81" height="181.72" viewBox="0 0 1699.81 181.72"><path d="M134.07,40.76h-19.48c-1.22,0-2.11-.54-2.11-1.28v-14.4c0-2-1.81-3.45-4.29-3.45h-19.48c-1.23,0-2.11-.54-2.11-1.28V5.95c0-2-1.8-3.45-4.29-3.45H6.79c-2.49,0-4.29,1.45-4.29,3.45v169.81c0,2,1.8,3.45,4.29,3.45h75.51c2.49,0,4.29-1.45,4.29-3.45v-14.4c0-.74.89-1.28,2.11-1.28h19.48c2.49,0,4.29-1.45,4.29-3.46v-14.4c0-.74.89-1.28,2.11-1.28h19.48c2.49,0,4.29-1.45,4.29-3.45V44.22c0-2-1.81-3.46-4.29-3.46ZM84.44,45.31h19.48c1.23,0,2.11.54,2.11,1.28v88.55c0,.74-.89,1.28-2.11,1.28h-19.48c-2.49,0-4.29,1.45-4.29,3.45v14.4c0,.74-.89,1.28-2.11,1.28h-41.09c-1.23,0-2.11-.54-2.11-1.28V27.45c0-.74.89-1.28,2.11-1.28h41.09c1.22,0,2.11.54,2.11,1.28v14.4c0,2,1.81,3.46,4.29,3.46Z" fill="#7ba84a"/><path d="M214.1,26.17h23.75c2.49,0,4.29-1.45,4.29-3.45V5.95c0-2-1.8-3.45-4.29-3.45h-23.75c-2.49,0-4.29,1.45-4.29,3.45v16.77c0,2,1.81,3.45,4.29,3.45Z" fill="#7ba84a"/><path d="M263.73,155.55h-19.48c-1.23,0-2.11-.54-2.11-1.28V63.35c0-2-1.8-3.45-4.29-3.45h-49.63c-2.49,0-4.29,1.45-4.29,3.45v16.76c0,2,1.81,3.46,4.29,3.46h19.48c1.22,0,2.11.54,2.11,1.28v69.42c0,.74-.89,1.28-2.11,1.28h-19.48c-2.49,0-4.29,1.45-4.29,3.46v16.76c0,2,1.81,3.45,4.29,3.45h75.51c2.49,0,4.29-1.45,4.29-3.45v-16.76c0-2-1.8-3.46-4.29-3.46Z" fill="#7ba84a"/><path d="M417.68,59.89h-23.75c-2.49,0-4.29,1.45-4.29,3.45v71.79c0,.74-.89,1.28-2.11,1.28h-19.48c-2.49,0-4.29,1.45-4.29,3.45v14.4c0,.74-.89,1.28-2.11,1.28h-15.21c-1.23,0-2.11-.54-2.11-1.28V63.35c0-2-1.8-3.45-4.29-3.45h-23.75c-2.49,0-4.29,1.45-4.29,3.45v112.42c0,2,1.81,3.45,4.29,3.45h49.63c2.49,0,4.29-1.45,4.29-3.45v-14.4c0-.74.89-1.28,2.11-1.28h19.48c2.49,0,4.29-1.45,4.29-3.46v-14.4c0-.74.89-1.28,2.11-1.28h19.48c2.49,0,4.29-1.45,4.29-3.45V63.35c0-2-1.8-3.45-4.29-3.45Z" fill="#7ba84a"/><path d="M546.55,155.55h-19.48c-1.23,0-2.11-.54-2.11-1.28V63.35c0-2-1.8-3.45-4.29-3.45h-49.63c-2.49,0-4.29,1.45-4.29,3.45v16.76c0,2,1.81,3.46,4.29,3.46h19.48c1.22,0,2.11.54,2.11,1.28v69.42c0,.74-.89,1.28-2.11,1.28h-19.48c-2.49,0-4.29,1.45-4.29,3.46v16.76c0,2,1.81,3.45,4.29,3.45h75.51c2.49,0,4.29-1.45,4.29-3.45v-16.76c0-2-1.8-3.46-4.29-3.46Z" fill="#7ba84a"/><path d="M496.92,26.17h23.75c2.49,0,4.29-1.45,4.29-3.45V5.95c0-2-1.8-3.45-4.29-3.45h-23.75c-2.49,0-4.29,1.45-4.29,3.45v16.77c0,2,1.81,3.45,4.29,3.45Z" fill="#7ba84a"/><path d="M700.49,21.63h-23.75c-2.49,0-4.29,1.45-4.29,3.45v33.53c0,.74-.89,1.28-2.11,1.28h-45.36c-2.49,0-4.29,1.45-4.29,3.45v14.4c0,.74-.89,1.28-2.11,1.28h-19.48c-2.49,0-4.29,1.45-4.29,3.46v74.16c0,2,1.81,3.46,4.29,3.46h19.48c1.22,0,2.11.54,2.11,1.28v14.4c0,2,1.81,3.45,4.29,3.45h75.51c2.49,0,4.29-1.45,4.29-3.45V25.08c0-2-1.8-3.45-4.29-3.45ZM672.45,84.85v69.42c0,.74-.89,1.28-2.11,1.28h-41.09c-1.23,0-2.11-.54-2.11-1.28v-69.42c0-.74.89-1.28,2.11-1.28h41.09c1.22,0,2.11.54,2.11,1.28Z" fill="#7ba84a"/><path d="M855.24,79.02h-19.48c-1.23,0-2.11-.54-2.11-1.28v-14.4c0-2-1.8-3.45-4.29-3.45h-49.63c-2.49,0-4.29,1.45-4.29,3.45v14.4c0,.74-.89,1.28-2.11,1.28h-19.48c-2.49,0-4.29,1.45-4.29,3.46v74.16c0,2,1.81,3.46,4.29,3.46h19.48c1.22,0,2.11.54,2.11,1.28v14.4c0,2,1.81,3.45,4.29,3.45h49.63c2.49,0,4.29-1.45,4.29-3.45v-14.4c0-.74.89-1.28,2.11-1.28h19.48c2.49,0,4.29-1.45,4.29-3.46v-16.76c0-2-1.8-3.45-4.29-3.45h-23.75c-2.49,0-4.29,1.45-4.29,3.45v14.4c0,.74-.89,1.28-2.11,1.28h-41.09c-1.23,0-2.11-.54-2.11-1.28v-31.16c0-.74.89-1.28,2.11-1.28h71.24c2.49,0,4.29-1.45,4.29-3.46v-35.89c0-2-1.8-3.46-4.29-3.46ZM827.2,84.85v12.03c0,.74-.89,1.28-2.11,1.28h-41.09c-1.23,0-2.11-.54-2.11-1.28v-12.03c0-.74.89-1.28,2.11-1.28h41.09c1.22,0,2.11.54,2.11,1.28Z" fill="#7ba84a"/><path d="M1009.99,59.89h-49.63c-2.49,0-4.29,1.45-4.29,3.45v14.4c0,.74-.89,1.28-2.11,1.28h-15.21c-1.23,0-2.11-.54-2.11-1.28v-14.4c0-2-1.8-3.45-4.29-3.45h-23.75c-2.49,0-4.29,1.45-4.29,3.45v112.42c0,2,1.8,3.45,4.29,3.45h23.75c2.49,0,4.29-1.45,4.29-3.45v-71.79c0-.74.89-1.28,2.11-1.28h19.48c2.49,0,4.29-1.45,4.29-3.45v-14.4c0-.74.89-1.28,2.11-1.28h45.36c2.49,0,4.29-1.45,4.29-3.46v-16.76c0-2-1.81-3.45-4.29-3.45Z" fill="#7ba84a"/><path d="M1227.97,40.76h-19.48c-1.23,0-2.11-.54-2.11-1.28v-14.4c0-2-1.8-3.45-4.29-3.45h-19.48c-1.23,0-2.11-.54-2.11-1.28V5.95c0-2-1.8-3.45-4.29-3.45h-75.51c-2.49,0-4.29,1.45-4.29,3.45v169.81c0,2,1.81,3.45,4.29,3.45h75.51c2.49,0,4.29-1.45,4.29-3.45v-14.4c0-.74.89-1.28,2.11-1.28h19.48c2.49,0,4.29-1.45,4.29-3.46v-14.4c0-.74.89-1.28,2.11-1.28h19.48c2.49,0,4.29-1.45,4.29-3.45V44.22c0-2-1.81-3.46-4.29-3.46ZM1178.35,45.31h19.48c1.22,0,2.11.54,2.11,1.28v88.55c0,.74-.89,1.28-2.11,1.28h-19.48c-2.49,0-4.29,1.45-4.29,3.45v14.4c0,.74-.89,1.28-2.11,1.28h-41.09c-1.23,0-2.11-.54-2.11-1.28V27.45c0-.74.89-1.28,2.11-1.28h41.09c1.22,0,2.11.54,2.11,1.28v14.4c0,2,1.81,3.46,4.29,3.46Z" fill="#7ba84a"/><path d="M1383.52,79.02h-19.48c-1.23,0-2.11-.54-2.11-1.28v-14.4c0-2-1.8-3.45-4.29-3.45h-49.63c-2.49,0-4.29,1.45-4.29,3.45v14.4c0,.74-.89,1.28-2.11,1.28h-19.48c-2.49,0-4.29,1.45-4.29,3.46v74.16c0,2,1.81,3.46,4.29,3.46h19.48c1.22,0,2.11.54,2.11,1.28v14.4c0,2,1.81,3.45,4.29,3.45h49.63c2.49,0,4.29-1.45,4.29-3.45v-14.4c0-.74.89-1.28,2.11-1.28h19.48c2.49,0,4.29-1.45,4.29-3.46v-74.16c0-2-1.8-3.46-4.29-3.46ZM1355.48,84.85v69.42c0,.74-.89,1.28-2.11,1.28h-41.09c-1.23,0-2.11-.54-2.11-1.28v-69.42c0-.74.89-1.28,2.11-1.28h41.09c1.22,0,2.11.54,2.11,1.28Z" fill="#7ba84a"/><path d="M1538.27,79.02h-19.48c-1.23,0-2.11-.54-2.11-1.28v-14.4c0-2-1.8-3.45-4.29-3.45h-49.63c-2.49,0-4.29,1.45-4.29,3.45v14.4c0,.74-.89,1.28-2.11,1.28h-19.48c-2.49,0-4.29,1.45-4.29,3.46v74.16c0,2,1.81,3.46,4.29,3.46h19.48c1.22,0,2.11.54,2.11,1.28v14.4c0,2,1.81,3.45,4.29,3.45h49.63c2.49,0,4.29-1.45,4.29-3.45v-14.4c0-.74.89-1.28,2.11-1.28h19.48c2.49,0,4.29-1.45,4.29-3.46v-16.76c0-2-1.8-3.45-4.29-3.45h-24.82c-2.49,0-4.29,1.45-4.29,3.45v14.4c0,.74-.89,1.28-2.11,1.28h-40.02c-1.23,0-2.11-.54-2.11-1.28v-69.42c0-.74.89-1.28,2.11-1.28h40.02c1.23,0,2.11.54,2.11,1.28v14.4c0,2,1.8,3.45,4.29,3.45h24.82c2.49,0,4.29-1.45,4.29-3.45v-16.76c0-2-1.8-3.46-4.29-3.46Z" fill="#7ba84a"/><path d="M1669.27,102.7h23.75c2.49,0,4.29-1.45,4.29-3.45v-16.76c0-2-1.81-3.46-4.29-3.46h-19.48c-1.23,0-2.11-.54-2.11-1.28v-14.4c0-2-1.8-3.45-4.29-3.45h-49.63c-2.49,0-4.29,1.45-4.29,3.45v14.4c0,.74-.89,1.28-2.11,1.28h-19.48c-2.49,0-4.29,1.45-4.29,3.46v16.76c0,2,1.8,3.45,4.29,3.45h19.48c1.22,0,2.11.54,2.11,1.28v14.4c0,2,1.81,3.46,4.29,3.46h19.48c1.22,0,2.11.54,2.11,1.28v14.4c0,2,1.81,3.45,4.29,3.45h19.48c1.22,0,2.11.54,2.11,1.28v12.03c0,.74-.89,1.28-2.11,1.28h-40.02c-1.22,0-2.11-.54-2.11-1.28v-14.4c0-2-1.81-3.45-4.29-3.45h-24.82c-2.49,0-4.29,1.45-4.29,3.45v16.76c0,2,1.8,3.46,4.29,3.46h19.48c1.22,0,2.11.54,2.11,1.28v14.4c0,2,1.81,3.45,4.29,3.45h49.63c2.49,0,4.29-1.45,4.29-3.45v-14.4c0-.74.89-1.28,2.11-1.28h19.48c2.49,0,4.29-1.45,4.29-3.46v-16.76c0-2-1.81-3.45-4.29-3.45h-19.48c-1.23,0-2.11-.54-2.11-1.28v-14.4c0-2-1.8-3.46-4.29-3.46h-19.48c-1.23,0-2.11-.54-2.11-1.28v-14.4c0-2-1.8-3.45-4.29-3.45h-19.48c-1.23,0-2.11-.54-2.11-1.28v-12.03c0-.74.89-1.28,2.11-1.28h40.02c1.23,0,2.11.54,2.11,1.28v14.4c0,2.25,3.11,3.45,5.36,3.45Z" fill="#7ba84a"/></svg>