<?xml version="1.0" encoding="UTF-8"?><svg id="_レイヤー_1" xmlns="http://www.w3.org/2000/svg" width="749.11" height="199.75" viewBox="0 0 749.11 199.75"><path d="M35.79,28.71h26.15c2.78,0,4.79-1.63,4.79-3.87V6.37c0-2.24-2.02-3.87-4.79-3.87h-26.15c-2.78,0-4.79,1.63-4.79,3.87v18.46c0,2.24,2.01,3.87,4.79,3.87Z" fill="#7ba84a"/><path d="M90.44,171.04h-21.45c-1.31,0-2.26-.56-2.26-1.34v-100.13c0-2.24-2.02-3.87-4.79-3.87H7.29c-2.78,0-4.79,1.63-4.79,3.87v18.46c0,2.24,2.02,3.87,4.79,3.87h21.45c1.31,0,2.26.56,2.26,1.34v76.45c0,.77-.95,1.34-2.26,1.34H7.29c-2.78,0-4.79,1.63-4.79,3.87v18.46c0,2.25,2.02,3.87,4.79,3.87h83.15c2.78,0,4.79-1.63,4.79-3.87v-18.46c0-2.24-2.01-3.87-4.79-3.87Z" fill="#7ba84a"/><path d="M259.97,86.77h-21.45c-1.31,0-2.26-.56-2.26-1.34v-15.85c0-2.24-2.01-3.87-4.79-3.87h-54.65c-2.78,0-4.79,1.63-4.79,3.87v15.85c0,.78-.95,1.34-2.26,1.34h-21.45c-2.78,0-4.79,1.63-4.79,3.87v18.46c0,2.24,2.02,3.87,4.79,3.87h21.45c1.31,0,2.26.56,2.26,1.34v15.86c0,2.24,2.01,3.87,4.79,3.87h21.45c1.31,0,2.26.56,2.26,1.34v15.86c0,2.24,2.02,3.87,4.79,3.87h21.45c1.31,0,2.26.56,2.26,1.34v13.25c0,.77-.95,1.34-2.26,1.34h-44.07c-1.31,0-2.26-.56-2.26-1.34v-15.86c0-2.24-2.01-3.87-4.79-3.87h-27.32c-2.78,0-4.79,1.63-4.79,3.87v18.46c0,2.24,2.02,3.87,4.79,3.87h21.45c1.31,0,2.26.56,2.26,1.34v15.85c0,2.25,2.01,3.87,4.79,3.87h54.65c2.78,0,4.79-1.63,4.79-3.87v-15.85c0-.78.95-1.34,2.26-1.34h21.45c2.78,0,4.79-1.63,4.79-3.87v-18.46c0-2.24-2.02-3.87-4.79-3.87h-21.45c-1.31,0-2.26-.56-2.26-1.34v-15.86c0-2.24-2.01-3.87-4.79-3.87h-21.45c-1.31,0-2.26-.56-2.26-1.34v-15.86c0-2.24-2.02-3.87-4.79-3.87h-21.45c-1.31,0-2.26-.56-2.26-1.34v-13.25c0-.77.95-1.34,2.26-1.34h44.07c1.31,0,2.26.56,2.26,1.34v15.86c0,2.53,3.47,3.87,5.97,3.87h26.15c2.78,0,4.79-1.63,4.79-3.87v-18.46c0-2.24-2.02-3.87-4.79-3.87Z" fill="#7ba84a"/><path d="M430.38,65.7h-26.15c-2.78,0-4.79,1.63-4.79,3.87v15.85c0,.78-.95,1.34-2.26,1.34h-21.45c-2.78,0-4.79,1.63-4.79,3.87v15.85c0,.78-.95,1.34-2.26,1.34h-16.75c-1.31,0-2.26-.56-2.26-1.34V27.44c0-2.24-2.01-3.87-4.79-3.87h-26.15c-2.78,0-4.79,1.63-4.79,3.87v165.94c0,2.25,2.02,3.87,4.79,3.87h26.15c2.78,0,4.79-1.63,4.79-3.87v-57.99c0-.78.95-1.34,2.26-1.34h16.75c1.31,0,2.26.56,2.26,1.41l.88,15.79c0,2.24,2.02,3.87,4.79,3.87h20.57c1.31,0,2.26.56,2.26,1.34v36.92c0,2.25,2.01,3.87,4.79,3.87h26.15c2.78,0,4.79-1.63,4.79-3.87v-39.53c0-2.24-2.02-3.87-4.79-3.87h-20.86c-1.31,0-2.26-.56-2.26-1.39l-.59-15.81c0-2.24-2.01-3.87-4.79-3.87h-21.45c-1.31,0-2.26-.56-2.26-1.34v-13.25c0-.78.95-1.34,2.26-1.34h21.45c2.78,0,4.79-1.63,4.79-3.87v-15.86c0-.77.95-1.34,2.26-1.34h21.45c2.78,0,4.79-1.63,4.79-3.87v-18.46c0-2.24-2.02-3.87-4.79-3.87Z" fill="#7ba84a"/><path d="M572.29,171.04h-21.45c-1.31,0-2.26-.56-2.26-1.34v-100.13c0-2.24-2.02-3.87-4.79-3.87h-54.65c-2.78,0-4.79,1.63-4.79,3.87v18.46c0,2.24,2.02,3.87,4.79,3.87h21.45c1.31,0,2.26.56,2.26,1.34v76.45c0,.77-.95,1.34-2.26,1.34h-21.45c-2.78,0-4.79,1.63-4.79,3.87v18.46c0,2.25,2.02,3.87,4.79,3.87h83.15c2.78,0,4.79-1.63,4.79-3.87v-18.46c0-2.24-2.01-3.87-4.79-3.87Z" fill="#7ba84a"/><path d="M517.64,28.71h26.15c2.78,0,4.79-1.63,4.79-3.87V6.37c0-2.24-2.02-3.87-4.79-3.87h-26.15c-2.78,0-4.79,1.63-4.79,3.87v18.46c0,2.24,2.01,3.87,4.79,3.87Z" fill="#7ba84a"/><path d="M691.87,91.91h49.95c2.78,0,4.79-1.63,4.79-3.87v-18.46c0-2.24-2.02-3.87-4.79-3.87h-49.95c-1.31,0-2.26-.56-2.26-1.34V27.44c0-2.24-2.02-3.87-4.79-3.87h-26.15c-2.78,0-4.79,1.63-4.79,3.87v36.92c0,.77-.95,1.34-2.26,1.34h-21.45c-2.78,0-4.79,1.63-4.79,3.87v18.46c0,2.24,2.02,3.87,4.79,3.87h21.45c1.31,0,2.26.56,2.26,1.34v79.06c0,2.24,2.01,3.87,4.79,3.87h21.45c1.31,0,2.26.56,2.26,1.34v15.85c0,2.25,2.02,3.87,4.79,3.87h54.65c2.78,0,4.79-1.63,4.79-3.87v-18.46c0-2.24-2.02-3.87-4.79-3.87h-49.95c-1.31,0-2.26-.56-2.26-1.34v-76.45c0-.77.95-1.34,2.26-1.34Z" fill="#7ba84a"/></svg>