<?xml version="1.0" encoding="UTF-8"?><svg id="_レイヤー_1" xmlns="http://www.w3.org/2000/svg" width="1575.13" height="182.03" viewBox="0 0 1575.13 182.03"><path d="M330.35,79.18h-19.48c-1.23,0-2.11-.54-2.11-1.28v-14.4c0-2-1.8-3.45-4.29-3.45h-49.63c-2.49,0-4.29,1.45-4.29,3.45v14.4c0,.74-.89,1.28-2.11,1.28h-19.48c-2.49,0-4.29,1.45-4.29,3.46v74.16c0,2,1.81,3.46,4.29,3.46h19.48c1.22,0,2.11.54,2.11,1.28v14.4c0,2,1.81,3.45,4.29,3.45h49.63c2.49,0,4.29-1.45,4.29-3.45v-14.4c0-.74.89-1.28,2.11-1.28h19.48c2.49,0,4.29-1.45,4.29-3.46v-16.76c0-2-1.8-3.45-4.29-3.45h-23.75c-2.49,0-4.29,1.45-4.29,3.45v14.4c0,.74-.89,1.28-2.11,1.28h-41.09c-1.23,0-2.11-.54-2.11-1.28v-31.16c0-.74.89-1.28,2.11-1.28h71.24c2.49,0,4.29-1.45,4.29-3.46v-35.89c0-2-1.8-3.46-4.29-3.46ZM302.31,85v12.03c0,.74-.89,1.28-2.11,1.28h-41.09c-1.23,0-2.11-.54-2.11-1.28v-12.03c0-.74.89-1.28,2.11-1.28h41.09c1.22,0,2.11.54,2.11,1.28Z" fill="#7ba84a"/><path d="M485.1,79.18h-19.48c-1.23,0-2.11-.54-2.11-1.28v-14.4c0-2-1.8-3.45-4.29-3.45h-49.63c-2.49,0-4.29,1.45-4.29,3.45v16.76c0,2,1.81,3.46,4.29,3.46h45.36c1.22,0,2.11.54,2.11,1.28v12.03c0,.74-.89,1.28-2.11,1.28h-45.36c-2.49,0-4.29,1.45-4.29,3.45v14.4c0,.74-.89,1.28-2.11,1.28h-19.48c-2.49,0-4.29,1.45-4.29,3.46v35.89c0,2,1.81,3.46,4.29,3.46h19.48c1.22,0,2.11.54,2.11,1.28v14.4c0,2,1.81,3.45,4.29,3.45h75.51c2.49,0,4.29-1.45,4.29-3.45v-93.29c0-2-1.8-3.46-4.29-3.46ZM457.06,123.26v31.16c0,.74-.89,1.28-2.11,1.28h-41.09c-1.23,0-2.11-.54-2.11-1.28v-31.16c0-.74.89-1.28,2.11-1.28h41.09c1.22,0,2.11.54,2.11,1.28Z" fill="#7ba84a"/><path d="M639.84,60.05h-23.75c-2.49,0-4.29,1.45-4.29,3.45v14.4c0,.74-.89,1.28-2.11,1.28h-19.48c-2.49,0-4.29,1.45-4.29,3.46v14.4c0,.74-.89,1.28-2.11,1.28h-15.21c-1.23,0-2.11-.54-2.11-1.28V25.24c0-2-1.8-3.45-4.29-3.45h-23.75c-2.49,0-4.29,1.45-4.29,3.45v150.68c0,2,1.8,3.45,4.29,3.45h23.75c2.49,0,4.29-1.45,4.29-3.45v-52.66c0-.74.89-1.28,2.11-1.28h15.21c1.22,0,2.11.54,2.11,1.34l.8,14.34c0,2,1.8,3.45,4.29,3.45h18.68c1.22,0,2.11.54,2.11,1.28v33.53c0,2,1.81,3.45,4.29,3.45h23.75c2.49,0,4.29-1.45,4.29-3.45v-35.9c0-2-1.81-3.45-4.29-3.45h-18.94c-1.22,0-2.11-.54-2.11-1.32l-.53-14.35c0-2-1.8-3.46-4.29-3.46h-19.48c-1.23,0-2.11-.54-2.11-1.28v-12.03c0-.74.89-1.28,2.11-1.28h19.48c2.49,0,4.29-1.45,4.29-3.45v-14.4c0-.74.89-1.28,2.11-1.28h19.48c2.49,0,4.29-1.45,4.29-3.46v-16.76c0-2-1.81-3.45-4.29-3.45Z" fill="#7ba84a"/><path d="M794.59,79.18h-19.48c-1.23,0-2.11-.54-2.11-1.28v-14.4c0-2-1.8-3.45-4.29-3.45h-75.51c-2.49,0-4.29,1.45-4.29,3.45v112.42c0,2,1.8,3.45,4.29,3.45h23.75c2.49,0,4.29-1.45,4.29-3.45v-90.92c0-.74.89-1.28,2.11-1.28h41.09c1.22,0,2.11.54,2.11,1.28v90.92c0,2,1.81,3.45,4.29,3.45h23.75c2.49,0,4.29-1.45,4.29-3.45v-93.29c0-2-1.81-3.46-4.29-3.46Z" fill="#7ba84a"/><path d="M949.34,79.18h-19.48c-1.23,0-2.11-.54-2.11-1.28v-14.4c0-2-1.8-3.45-4.29-3.45h-49.63c-2.49,0-4.29,1.45-4.29,3.45v14.4c0,.74-.89,1.28-2.11,1.28h-19.48c-2.49,0-4.29,1.45-4.29,3.46v74.16c0,2,1.81,3.46,4.29,3.46h19.48c1.22,0,2.11.54,2.11,1.28v14.4c0,2,1.81,3.45,4.29,3.45h49.63c2.49,0,4.29-1.45,4.29-3.45v-14.4c0-.74.89-1.28,2.11-1.28h19.48c2.49,0,4.29-1.45,4.29-3.46v-16.76c0-2-1.8-3.45-4.29-3.45h-23.75c-2.49,0-4.29,1.45-4.29,3.45v14.4c0,.74-.89,1.28-2.11,1.28h-41.09c-1.23,0-2.11-.54-2.11-1.28v-31.16c0-.74.89-1.28,2.11-1.28h71.24c2.49,0,4.29-1.45,4.29-3.46v-35.89c0-2-1.8-3.46-4.29-3.46ZM921.3,85v12.03c0,.74-.89,1.28-2.11,1.28h-41.09c-1.23,0-2.11-.54-2.11-1.28v-12.03c0-.74.89-1.28,2.11-1.28h41.09c1.22,0,2.11.54,2.11,1.28Z" fill="#7ba84a"/><path d="M1104.09,79.18h-19.48c-1.23,0-2.11-.54-2.11-1.28v-14.4c0-2-1.8-3.45-4.29-3.45h-49.63c-2.49,0-4.29,1.45-4.29,3.45v14.4c0,.74-.89,1.28-2.11,1.28h-19.48c-2.49,0-4.29,1.45-4.29,3.46v16.76c0,2,1.81,3.45,4.29,3.45h19.48c1.22,0,2.11.54,2.11,1.28v14.4c0,2,1.81,3.46,4.29,3.46h19.48c1.22,0,2.11.54,2.11,1.28v14.4c0,2,1.81,3.45,4.29,3.45h19.48c1.22,0,2.11.54,2.11,1.28v12.03c0,.74-.89,1.28-2.11,1.28h-40.02c-1.22,0-2.11-.54-2.11-1.28v-14.4c0-2-1.81-3.45-4.29-3.45h-24.81c-2.49,0-4.29,1.45-4.29,3.45v16.76c0,2,1.81,3.46,4.29,3.46h19.48c1.22,0,2.11.54,2.11,1.28v14.4c0,2,1.81,3.45,4.29,3.45h49.63c2.49,0,4.29-1.45,4.29-3.45v-14.4c0-.74.89-1.28,2.11-1.28h19.48c2.49,0,4.29-1.45,4.29-3.46v-16.76c0-2-1.8-3.45-4.29-3.45h-19.48c-1.23,0-2.11-.54-2.11-1.28v-14.4c0-2-1.8-3.46-4.29-3.46h-19.48c-1.23,0-2.11-.54-2.11-1.28v-14.4c0-2-1.8-3.45-4.29-3.45h-19.48c-1.23,0-2.11-.54-2.11-1.28v-12.03c0-.74.89-1.28,2.11-1.28h40.02c1.23,0,2.11.54,2.11,1.28v14.4c0,2.25,3.11,3.45,5.36,3.45h23.75c2.49,0,4.29-1.45,4.29-3.45v-16.76c0-2-1.8-3.46-4.29-3.46Z" fill="#7ba84a"/><path d="M1258.84,79.18h-19.48c-1.23,0-2.11-.54-2.11-1.28v-14.4c0-2-1.8-3.45-4.29-3.45h-49.63c-2.49,0-4.29,1.45-4.29,3.45v14.4c0,.74-.89,1.28-2.11,1.28h-19.48c-2.49,0-4.29,1.45-4.29,3.46v16.76c0,2,1.8,3.45,4.29,3.45h19.48c1.22,0,2.11.54,2.11,1.28v14.4c0,2,1.81,3.46,4.29,3.46h19.48c1.22,0,2.11.54,2.11,1.28v14.4c0,2,1.81,3.45,4.29,3.45h19.48c1.22,0,2.11.54,2.11,1.28v12.03c0,.74-.89,1.28-2.11,1.28h-40.02c-1.22,0-2.11-.54-2.11-1.28v-14.4c0-2-1.81-3.45-4.29-3.45h-24.82c-2.49,0-4.29,1.45-4.29,3.45v16.76c0,2,1.8,3.46,4.29,3.46h19.48c1.22,0,2.11.54,2.11,1.28v14.4c0,2,1.81,3.45,4.29,3.45h49.63c2.49,0,4.29-1.45,4.29-3.45v-14.4c0-.74.89-1.28,2.11-1.28h19.48c2.49,0,4.29-1.45,4.29-3.46v-16.76c0-2-1.81-3.45-4.29-3.45h-19.48c-1.23,0-2.11-.54-2.11-1.28v-14.4c0-2-1.8-3.46-4.29-3.46h-19.48c-1.23,0-2.11-.54-2.11-1.28v-14.4c0-2-1.8-3.45-4.29-3.45h-19.48c-1.23,0-2.11-.54-2.11-1.28v-12.03c0-.74.89-1.28,2.11-1.28h40.02c1.23,0,2.11.54,2.11,1.28v14.4c0,2.25,3.11,3.45,5.36,3.45h23.75c2.49,0,4.29-1.45,4.29-3.45v-16.76c0-2-1.81-3.46-4.29-3.46Z" fill="#7ba84a"/><path d="M1413.59,79.18h-19.48c-1.23,0-2.11-.54-2.11-1.28v-14.4c0-2-1.8-3.45-4.29-3.45h-49.63c-2.49,0-4.29,1.45-4.29,3.45v14.4c0,.74-.89,1.28-2.11,1.28h-19.48c-2.49,0-4.29,1.45-4.29,3.46v74.16c0,2,1.8,3.46,4.29,3.46h19.48c1.22,0,2.11.54,2.11,1.28v14.4c0,2,1.81,3.45,4.29,3.45h49.63c2.49,0,4.29-1.45,4.29-3.45v-14.4c0-.74.89-1.28,2.11-1.28h19.48c2.49,0,4.29-1.45,4.29-3.46v-16.76c0-2-1.81-3.45-4.29-3.45h-23.75c-2.49,0-4.29,1.45-4.29,3.45v14.4c0,.74-.89,1.28-2.11,1.28h-41.09c-1.23,0-2.11-.54-2.11-1.28v-31.16c0-.74.89-1.28,2.11-1.28h71.24c2.49,0,4.29-1.45,4.29-3.46v-35.89c0-2-1.81-3.46-4.29-3.46ZM1385.55,85v12.03c0,.74-.89,1.28-2.11,1.28h-41.09c-1.23,0-2.11-.54-2.11-1.28v-12.03c0-.74.89-1.28,2.11-1.28h41.09c1.22,0,2.11.54,2.11,1.28Z" fill="#7ba84a"/><path d="M1544.59,102.85h23.75c2.49,0,4.29-1.45,4.29-3.45v-16.76c0-2-1.8-3.46-4.29-3.46h-19.48c-1.23,0-2.11-.54-2.11-1.28v-14.4c0-2-1.8-3.45-4.29-3.45h-49.63c-2.49,0-4.29,1.45-4.29,3.45v14.4c0,.74-.89,1.28-2.11,1.28h-19.48c-2.49,0-4.29,1.45-4.29,3.46v16.76c0,2,1.81,3.45,4.29,3.45h19.48c1.22,0,2.11.54,2.11,1.28v14.4c0,2,1.81,3.46,4.29,3.46h19.48c1.22,0,2.11.54,2.11,1.28v14.4c0,2,1.81,3.45,4.29,3.45h19.48c1.22,0,2.11.54,2.11,1.28v12.03c0,.74-.89,1.28-2.11,1.28h-40.02c-1.22,0-2.11-.54-2.11-1.28v-14.4c0-2-1.81-3.45-4.29-3.45h-24.81c-2.49,0-4.29,1.45-4.29,3.45v16.76c0,2,1.81,3.46,4.29,3.46h19.48c1.22,0,2.11.54,2.11,1.28v14.4c0,2,1.81,3.45,4.29,3.45h49.63c2.49,0,4.29-1.45,4.29-3.45v-14.4c0-.74.89-1.28,2.11-1.28h19.48c2.49,0,4.29-1.45,4.29-3.46v-16.76c0-2-1.8-3.45-4.29-3.45h-19.48c-1.23,0-2.11-.54-2.11-1.28v-14.4c0-2-1.8-3.46-4.29-3.46h-19.48c-1.23,0-2.11-.54-2.11-1.28v-14.4c0-2-1.8-3.45-4.29-3.45h-19.48c-1.23,0-2.11-.54-2.11-1.28v-12.03c0-.74.89-1.28,2.11-1.28h40.02c1.23,0,2.11.54,2.11,1.28v14.4c0,2.25,3.11,3.45,5.36,3.45Z" fill="#7ba84a"/><path d="M173.17,2.5h-30.84c-3.18,0-5.4,1.48-5.4,3.61v90.92c0,.47-1.11,1.13-2.92,1.13h-19.75c-1.81,0-2.92-.66-2.92-1.13V6.11c0-2.12-2.22-3.61-5.4-3.61h-30.84c-3.18,0-5.4,1.48-5.4,3.61v90.92c0,.47-1.11,1.13-2.92,1.13h-19.75c-1.81,0-2.92-.66-2.92-1.13V6.11c0-2.12-2.22-3.61-5.4-3.61H7.9c-3.18,0-5.4,1.48-5.4,3.61v93.29c0,2.12,2.22,3.61,5.4,3.61h25.29c1.81,0,2.92.66,2.92,1.13v71.79c0,2.12,2.22,3.61,5.4,3.61h30.84c3.18,0,5.4-1.48,5.4-3.61v-71.79c0-.47,1.11-1.13,2.92-1.13h19.75c1.81,0,2.92.66,2.92,1.13v71.79c0,2.12,2.22,3.61,5.4,3.61h30.84c3.18,0,5.4-1.48,5.4-3.61v-71.79c0-.47,1.11-1.13,2.92-1.13h25.29c3.18,0,5.4-1.48,5.4-3.61V6.11c0-2.12-2.22-3.61-5.4-3.61Z" fill="#7ba84a"/></svg>