<?xml version="1.0" encoding="UTF-8"?><svg id="_レイヤー_1" xmlns="http://www.w3.org/2000/svg" width="646.38" height="182.17" viewBox="0 0 646.38 182.17"><path d="M148.91,21.59h-21.61c-1.07,0-1.9-.38-1.9-.88V6.35c0-2.23-2.19-3.85-5.21-3.85H36.42c-3.02,0-5.2,1.62-5.2,3.85v14.37c0,.49-.83.88-1.9.88H7.7c-3.02,0-5.2,1.62-5.2,3.85v131.29c0,2.23,2.19,3.85,5.2,3.85h21.61c1.07,0,1.9.38,1.9.88v14.37c0,2.23,2.19,3.85,5.2,3.85h112.49c3.02,0,5.2-1.62,5.2-3.85v-93.1c0-2.23-2.19-3.85-5.2-3.85h-83.78c-3.02,0-5.21,1.62-5.21,3.85v16.73c0,2.23,2.19,3.85,5.21,3.85h52.02c1.07,0,1.9.38,1.9.88v50.19c0,.49-.83.88-1.9.88H40.59c-1.07,0-1.9-.38-1.9-.88V27.8c0-.49.83-.88,1.9-.88h74.87c1.07,0,1.9.38,1.9.88v14.37c0,2.23,2.19,3.85,5.2,3.85h26.35c3.02,0,5.2-1.62,5.2-3.85v-16.73c0-2.23-2.19-3.85-5.2-3.85Z" fill="#171917"/><path d="M301.72,78.87h-19.44c-.96,0-1.71-.38-1.71-.88v-14.37c0-2.23-1.97-3.85-4.68-3.85h-49.53c-2.71,0-4.68,1.62-4.68,3.85v16.73c0,2.23,1.97,3.85,4.68,3.85h45.27c.96,0,1.71.38,1.71.88v12.01c0,.49-.75.88-1.71.88h-45.27c-2.71,0-4.68,1.62-4.68,3.85v14.37c0,.49-.75.88-1.71.88h-19.44c-2.71,0-4.68,1.62-4.68,3.85v35.82c0,2.23,1.97,3.85,4.68,3.85h19.44c.96,0,1.71.38,1.71.88v14.37c0,2.23,1.97,3.85,4.68,3.85h75.36c2.71,0,4.68-1.62,4.68-3.85v-93.1c0-2.23-1.97-3.85-4.68-3.85ZM273.34,123.27v31.1c0,.49-.75.88-1.71.88h-41.01c-.96,0-1.71-.38-1.71-.88v-31.1c0-.49.75-.88,1.71-.88h41.01c.96,0,1.71.38,1.71.88Z" fill="#171917"/><path d="M487.24,78.87h-19.44c-.96,0-1.71-.38-1.71-.88v-14.37c0-2.23-1.97-3.85-4.68-3.85h-104.87c-2.71,0-4.68,1.62-4.68,3.85v112.2c0,2.23,1.97,3.85,4.68,3.85h22.85c2.71,0,3.83-1.62,3.83-3.85v-90.74c0-.49.75-.88,1.71-.88h20.84c.96,0,1.71.38,1.71.88v90.74c0,2.23,1.12,3.85,3.83,3.85h21.15c2.71,0,4.68-1.62,4.68-3.85v-90.74c0-.49.75-.88,1.71-.88h20.27c.96,0,1.71.38,1.71.88v90.74c0,2.23,1.97,3.85,4.68,3.85h21.72c2.71,0,4.68-1.62,4.68-3.85v-93.1c0-2.23-1.97-3.85-4.68-3.85Z" fill="#171917"/><path d="M568.1,122.39h71.1c2.71,0,4.68-1.62,4.68-3.85v-35.82c0-2.23-1.97-3.85-4.68-3.85h-19.44c-.96,0-1.71-.38-1.71-.88v-14.37c0-2.23-1.97-3.85-4.68-3.85h-49.53c-2.71,0-4.68,1.62-4.68,3.85v14.37c0,.49-.75.88-1.71.88h-19.44c-2.71,0-4.68,1.62-4.68,3.85v74.01c0,2.23,1.97,3.85,4.68,3.85h19.44c.96,0,1.71.38,1.71.88v14.37c0,2.23,1.97,3.85,4.68,3.85h49.53c2.71,0,4.68-1.62,4.68-3.85v-14.37c0-.49.75-.88,1.71-.88h19.44c2.71,0,4.68-1.62,4.68-3.85v-16.73c0-2.23-1.97-3.85-4.68-3.85h-23.7c-2.71,0-4.68,1.62-4.68,3.85v14.37c0,.49-.75.88-1.71.88h-41.01c-.96,0-1.71-.38-1.71-.88v-31.1c0-.49.75-.88,1.71-.88ZM566.39,97.09v-12.01c0-.49.75-.88,1.71-.88h41.01c.96,0,1.71.38,1.71.88v12.01c0,.49-.75.88-1.71.88h-41.01c-.96,0-1.71-.38-1.71-.88Z" fill="#171917"/></svg>