<?xml version="1.0" encoding="UTF-8"?><svg id="_レイヤー_1" xmlns="http://www.w3.org/2000/svg" width="2557.95" height="195.85" viewBox="0 0 2557.95 195.85"><path d="M130.68,2.5H6.71c-2.44,0-4.21,1.43-4.21,3.39v165.43c0,1.97,1.77,3.39,4.21,3.39h23.13c2.44,0,4.21-1.43,4.21-3.39v-69.94c0-.7.85-1.22,2.03-1.22h69.39c2.44,0,4.21-1.43,4.21-3.39v-16.33c0-1.97-1.77-3.39-4.21-3.39H36.08c-1.18,0-2.03-.51-2.03-1.22V26.84c0-.7.85-1.22,2.03-1.22h94.6c2.44,0,4.21-1.43,4.21-3.39V5.89c0-1.97-1.77-3.39-4.21-3.39Z" fill="#7ba84a"/><path d="M253.62,77.05h-18.97c-1.18,0-2.03-.51-2.03-1.22v-14.03c0-1.97-1.77-3.39-4.21-3.39h-48.34c-2.44,0-4.21,1.43-4.21,3.39v16.33c0,1.97,1.77,3.39,4.21,3.39h44.18c1.18,0,2.03.51,2.03,1.22v11.72c0,.7-.85,1.22-2.03,1.22h-44.18c-2.44,0-4.21,1.43-4.21,3.39v14.03c0,.7-.85,1.22-2.03,1.22h-18.97c-2.44,0-4.21,1.43-4.21,3.39v34.97c0,1.97,1.77,3.39,4.21,3.39h18.97c1.18,0,2.03.51,2.03,1.22v14.03c0,1.97,1.77,3.39,4.21,3.39h73.55c2.44,0,4.21-1.43,4.21-3.39v-90.88c0-1.97-1.77-3.39-4.21-3.39ZM226.28,120.02v30.36c0,.7-.85,1.22-2.03,1.22h-40.02c-1.18,0-2.03-.51-2.03-1.22v-30.36c0-.7.85-1.22,2.03-1.22h40.02c1.18,0,2.03.51,2.03,1.22Z" fill="#7ba84a"/><path d="M409.57,58.41h-23.13c-2.44,0-4.21,1.43-4.21,3.39v69.94c0,.7-.85,1.22-2.03,1.22h-18.97c-2.44,0-4.21,1.43-4.21,3.39v14.03c0,.7-.85,1.22-2.03,1.22h-14.81c-1.18,0-2.03-.51-2.03-1.22V61.8c0-1.97-1.77-3.39-4.21-3.39h-23.13c-2.44,0-4.21,1.43-4.21,3.39v109.52c0,1.97,1.77,3.39,4.21,3.39h48.34c2.44,0,4.21-1.43,4.21-3.39v-14.03c0-.7.85-1.22,2.03-1.22h18.97c2.44,0,4.21-1.43,4.21-3.39v-14.03c0-.7.85-1.22,2.03-1.22h18.97c2.44,0,4.21-1.43,4.21-3.39V61.8c0-1.97-1.77-3.39-4.21-3.39Z" fill="#7ba84a"/><path d="M565.51,77.05h-18.97c-1.18,0-2.03-.51-2.03-1.22v-14.03c0-1.97-1.77-3.39-4.21-3.39h-48.34c-2.44,0-4.21,1.43-4.21,3.39v14.03c0,.7-.85,1.22-2.03,1.22h-18.97c-2.44,0-4.21,1.43-4.21,3.39v72.24c0,1.97,1.77,3.39,4.21,3.39h18.97c1.18,0,2.03.51,2.03,1.22v14.03c0,1.97,1.77,3.39,4.21,3.39h48.34c2.44,0,4.21-1.43,4.21-3.39v-14.03c0-.7.85-1.22,2.03-1.22h18.97c2.44,0,4.21-1.43,4.21-3.39v-72.24c0-1.97-1.77-3.39-4.21-3.39ZM538.17,82.75v67.63c0,.7-.85,1.22-2.03,1.22h-40.02c-1.18,0-2.03-.51-2.03-1.22v-67.63c0-.7.85-1.22,2.03-1.22h40.02c1.18,0,2.03.51,2.03,1.22Z" fill="#7ba84a"/><path d="M721.46,58.41h-48.34c-2.44,0-4.21,1.43-4.21,3.39v14.03c0,.7-.85,1.22-2.03,1.22h-14.81c-1.18,0-2.03-.51-2.03-1.22v-14.03c0-1.97-1.77-3.39-4.21-3.39h-23.13c-2.44,0-4.21,1.43-4.21,3.39v109.52c0,1.97,1.77,3.39,4.21,3.39h23.13c2.44,0,4.21-1.43,4.21-3.39v-69.94c0-.7.85-1.22,2.03-1.22h18.97c2.44,0,4.21-1.43,4.21-3.39v-14.03c0-.7.85-1.22,2.03-1.22h44.18c2.44,0,4.21-1.43,4.21-3.39v-16.33c0-1.97-1.77-3.39-4.21-3.39Z" fill="#7ba84a"/><path d="M834,151.59h-18.97c-1.18,0-2.03-.51-2.03-1.22V61.8c0-1.97-1.77-3.39-4.21-3.39h-48.34c-2.44,0-4.21,1.43-4.21,3.39v16.33c0,1.97,1.77,3.39,4.21,3.39h18.97c1.18,0,2.03.51,2.03,1.22v67.63c0,.7-.85,1.22-2.03,1.22h-18.97c-2.44,0-4.21,1.43-4.21,3.39v16.33c0,1.97,1.77,3.39,4.21,3.39h73.55c2.44,0,4.21-1.43,4.21-3.39v-16.33c0-1.97-1.77-3.39-4.21-3.39Z" fill="#7ba84a"/><path d="M785.66,25.62h23.13c2.44,0,4.21-1.43,4.21-3.39V5.89c0-1.97-1.77-3.39-4.21-3.39h-23.13c-2.44,0-4.21,1.43-4.21,3.39v16.33c0,1.97,1.77,3.39,4.21,3.39Z" fill="#7ba84a"/><path d="M983.97,58.41h-44.18c-1.18,0-2.03-.51-2.03-1.22V24.53c0-1.97-1.77-3.39-4.21-3.39h-23.13c-2.44,0-4.21,1.43-4.21,3.39v32.66c0,.7-.85,1.22-2.03,1.22h-18.97c-2.44,0-4.21,1.43-4.21,3.39v16.33c0,1.97,1.77,3.39,4.21,3.39h18.97c1.18,0,2.03.51,2.03,1.22v69.94c0,1.97,1.77,3.39,4.21,3.39h18.97c1.18,0,2.03.51,2.03,1.22v14.03c0,1.97,1.77,3.39,4.21,3.39h48.34c2.44,0,4.21-1.43,4.21-3.39v-16.33c0-1.97-1.77-3.39-4.21-3.39h-44.18c-1.18,0-2.03-.51-2.03-1.22v-67.63c0-.7.85-1.22,2.03-1.22h44.18c2.44,0,4.21-1.43,4.21-3.39v-16.33c0-1.97-1.77-3.39-4.21-3.39Z" fill="#7ba84a"/><path d="M1134.72,77.05h-18.97c-1.18,0-2.03-.51-2.03-1.22v-14.03c0-1.97-1.77-3.39-4.21-3.39h-48.34c-2.44,0-4.21,1.43-4.21,3.39v14.03c0,.7-.85,1.22-2.03,1.22h-18.97c-2.44,0-4.21,1.43-4.21,3.39v72.24c0,1.97,1.77,3.39,4.21,3.39h18.97c1.18,0,2.03.51,2.03,1.22v14.03c0,1.97,1.77,3.39,4.21,3.39h48.34c2.44,0,4.21-1.43,4.21-3.39v-14.03c0-.7.85-1.22,2.03-1.22h18.97c2.44,0,4.21-1.43,4.21-3.39v-16.33c0-1.97-1.77-3.39-4.21-3.39h-23.13c-2.44,0-4.21,1.43-4.21,3.39v14.03c0,.7-.85,1.22-2.03,1.22h-40.02c-1.18,0-2.03-.51-2.03-1.22v-30.36c0-.7.85-1.22,2.03-1.22h69.39c2.44,0,4.21-1.43,4.21-3.39v-34.97c0-1.97-1.77-3.39-4.21-3.39ZM1107.38,82.75v11.72c0,.7-.85,1.22-2.03,1.22h-40.02c-1.18,0-2.03-.51-2.03-1.22v-11.72c0-.7.85-1.22,2.03-1.22h40.02c1.18,0,2.03.51,2.03,1.22Z" fill="#7ba84a"/><path d="M1360.06,151.59h-94.6c-1.18,0-2.03-.51-2.03-1.22V5.89c0-1.97-1.77-3.39-4.21-3.39h-23.13c-2.44,0-4.21,1.43-4.21,3.39v165.43c0,1.97,1.77,3.39,4.21,3.39h123.97c2.44,0,4.21-1.43,4.21-3.39v-16.33c0-1.97-1.77-3.39-4.21-3.39Z" fill="#7ba84a"/><path d="M1496,77.05h-18.97c-1.18,0-2.03-.51-2.03-1.22v-14.03c0-1.97-1.77-3.39-4.21-3.39h-48.34c-2.44,0-4.21,1.43-4.21,3.39v16.33c0,1.97,1.77,3.39,4.21,3.39h44.18c1.18,0,2.03.51,2.03,1.22v11.72c0,.7-.85,1.22-2.03,1.22h-44.18c-2.44,0-4.21,1.43-4.21,3.39v14.03c0,.7-.85,1.22-2.03,1.22h-18.97c-2.44,0-4.21,1.43-4.21,3.39v34.97c0,1.97,1.77,3.39,4.21,3.39h18.97c1.18,0,2.03.51,2.03,1.22v14.03c0,1.97,1.77,3.39,4.21,3.39h73.55c2.44,0,4.21-1.43,4.21-3.39v-90.88c0-1.97-1.77-3.39-4.21-3.39ZM1468.66,120.02v30.36c0,.7-.85,1.22-2.03,1.22h-40.02c-1.18,0-2.03-.51-2.03-1.22v-30.36c0-.7.85-1.22,2.03-1.22h40.02c1.18,0,2.03.51,2.03,1.22Z" fill="#7ba84a"/><path d="M1646.74,77.05h-18.97c-1.18,0-2.03-.51-2.03-1.22v-14.03c0-1.97-1.77-3.39-4.21-3.39h-73.55c-2.44,0-4.21,1.43-4.21,3.39v109.52c0,1.97,1.77,3.39,4.21,3.39h23.13c2.44,0,4.21-1.43,4.21-3.39v-88.57c0-.7.85-1.22,2.03-1.22h40.02c1.18,0,2.03.51,2.03,1.22v88.57c0,1.97,1.77,3.39,4.21,3.39h23.13c2.44,0,4.21-1.43,4.21-3.39v-90.88c0-1.97-1.77-3.39-4.21-3.39Z" fill="#7ba84a"/><path d="M1797.49,58.41h-73.55c-2.44,0-4.21,1.43-4.21,3.39v14.03c0,.7-.85,1.22-2.03,1.22h-18.97c-2.44,0-4.21,1.43-4.21,3.39v53.6c0,1.97,1.77,3.39,4.21,3.39h18.97c1.18,0,2.03.51,2.03,1.22v14.03c0,1.97,1.77,3.39,4.21,3.39h44.18c1.18,0,2.03.51,2.03,1.22v11.72c0,.7-.85,1.22-2.03,1.22h-44.18c-2.44,0-4.21,1.43-4.21,3.39v16.33c0,1.97,1.77,3.39,4.21,3.39h48.34c2.44,0,4.21-1.43,4.21-3.39v-14.03c0-.7.85-1.22,2.03-1.22h18.97c2.44,0,4.21-1.43,4.21-3.39V61.8c0-1.97-1.77-3.39-4.21-3.39ZM1768.12,132.96h-40.02c-1.18,0-2.03-.51-2.03-1.22v-48.99c0-.7.85-1.22,2.03-1.22h40.02c1.18,0,2.03.51,2.03,1.22v48.99c0,.7-.85,1.22-2.03,1.22Z" fill="#7ba84a"/><path d="M1948.25,58.41h-23.13c-2.44,0-4.21,1.43-4.21,3.39v88.57c0,.7-.85,1.22-2.03,1.22h-40.02c-1.18,0-2.03-.51-2.03-1.22V61.8c0-1.97-1.77-3.39-4.21-3.39h-23.13c-2.44,0-4.21,1.43-4.21,3.39v90.88c0,1.97,1.77,3.39,4.21,3.39h18.97c1.18,0,2.03.51,2.03,1.22v14.03c0,1.97,1.77,3.39,4.21,3.39h73.55c2.44,0,4.21-1.43,4.21-3.39V61.8c0-1.97-1.77-3.39-4.21-3.39Z" fill="#7ba84a"/><path d="M2098.99,77.05h-18.97c-1.18,0-2.03-.51-2.03-1.22v-14.03c0-1.97-1.77-3.39-4.21-3.39h-48.34c-2.44,0-4.21,1.43-4.21,3.39v16.33c0,1.97,1.77,3.39,4.21,3.39h44.18c1.18,0,2.03.51,2.03,1.22v11.72c0,.7-.85,1.22-2.03,1.22h-44.18c-2.44,0-4.21,1.43-4.21,3.39v14.03c0,.7-.85,1.22-2.03,1.22h-18.97c-2.44,0-4.21,1.43-4.21,3.39v34.97c0,1.97,1.77,3.39,4.21,3.39h18.97c1.18,0,2.03.51,2.03,1.22v14.03c0,1.97,1.77,3.39,4.21,3.39h73.55c2.44,0,4.21-1.43,4.21-3.39v-90.88c0-1.97-1.77-3.39-4.21-3.39ZM2071.65,120.02v30.36c0,.7-.85,1.22-2.03,1.22h-40.02c-1.18,0-2.03-.51-2.03-1.22v-30.36c0-.7.85-1.22,2.03-1.22h40.02c1.18,0,2.03.51,2.03,1.22Z" fill="#7ba84a"/><path d="M2249.74,58.41h-73.55c-2.44,0-4.21,1.43-4.21,3.39v14.03c0,.7-.85,1.22-2.03,1.22h-18.97c-2.44,0-4.21,1.43-4.21,3.39v53.6c0,1.97,1.77,3.39,4.21,3.39h18.97c1.18,0,2.03.51,2.03,1.22v14.03c0,1.97,1.77,3.39,4.21,3.39h44.18c1.18,0,2.03.51,2.03,1.22v11.72c0,.7-.85,1.22-2.03,1.22h-44.18c-2.44,0-4.21,1.43-4.21,3.39v16.33c0,1.97,1.77,3.39,4.21,3.39h48.34c2.44,0,4.21-1.43,4.21-3.39v-14.03c0-.7.85-1.22,2.03-1.22h18.97c2.44,0,4.21-1.43,4.21-3.39V61.8c0-1.97-1.77-3.39-4.21-3.39ZM2220.37,132.96h-40.02c-1.18,0-2.03-.51-2.03-1.22v-48.99c0-.7.85-1.22,2.03-1.22h40.02c1.18,0,2.03.51,2.03,1.22v48.99c0,.7-.85,1.22-2.03,1.22Z" fill="#7ba84a"/><path d="M2400.49,77.05h-18.97c-1.18,0-2.03-.51-2.03-1.22v-14.03c0-1.97-1.77-3.39-4.21-3.39h-48.34c-2.44,0-4.21,1.43-4.21,3.39v14.03c0,.7-.85,1.22-2.03,1.22h-18.97c-2.44,0-4.21,1.43-4.21,3.39v72.24c0,1.97,1.77,3.39,4.21,3.39h18.97c1.18,0,2.03.51,2.03,1.22v14.03c0,1.97,1.77,3.39,4.21,3.39h48.34c2.44,0,4.21-1.43,4.21-3.39v-14.03c0-.7.85-1.22,2.03-1.22h18.97c2.44,0,4.21-1.43,4.21-3.39v-16.33c0-1.97-1.77-3.39-4.21-3.39h-23.13c-2.44,0-4.21,1.43-4.21,3.39v14.03c0,.7-.85,1.22-2.03,1.22h-40.02c-1.18,0-2.03-.51-2.03-1.22v-30.36c0-.7.85-1.22,2.03-1.22h69.39c2.44,0,4.21-1.43,4.21-3.39v-34.97c0-1.97-1.77-3.39-4.21-3.39ZM2373.15,82.75v11.72c0,.7-.85,1.22-2.03,1.22h-40.02c-1.18,0-2.03-.51-2.03-1.22v-11.72c0-.7.85-1.22,2.03-1.22h40.02c1.18,0,2.03.51,2.03,1.22Z" fill="#7ba84a"/><path d="M2528.11,100.17h23.13c2.44,0,4.21-1.43,4.21-3.39v-16.33c0-1.97-1.77-3.39-4.21-3.39h-18.97c-1.18,0-2.03-.51-2.03-1.22v-14.03c0-1.97-1.77-3.39-4.21-3.39h-48.34c-2.44,0-4.21,1.43-4.21,3.39v14.03c0,.7-.85,1.22-2.03,1.22h-18.97c-2.44,0-4.21,1.43-4.21,3.39v16.33c0,1.97,1.77,3.39,4.21,3.39h18.97c1.18,0,2.03.51,2.03,1.22v14.03c0,1.97,1.77,3.39,4.21,3.39h18.97c1.18,0,2.03.51,2.03,1.22v14.03c0,1.97,1.77,3.39,4.21,3.39h18.97c1.18,0,2.03.51,2.03,1.22v11.72c0,.7-.85,1.22-2.03,1.22h-38.98c-1.18,0-2.03-.51-2.03-1.22v-14.03c0-1.97-1.77-3.39-4.21-3.39h-24.17c-2.44,0-4.21,1.43-4.21,3.39v16.33c0,1.97,1.77,3.39,4.21,3.39h18.97c1.18,0,2.03.51,2.03,1.22v14.03c0,1.97,1.77,3.39,4.21,3.39h48.34c2.44,0,4.21-1.43,4.21-3.39v-14.03c0-.7.85-1.22,2.03-1.22h18.97c2.44,0,4.21-1.43,4.21-3.39v-16.33c0-1.97-1.77-3.39-4.21-3.39h-18.97c-1.18,0-2.03-.51-2.03-1.22v-14.03c0-1.97-1.77-3.39-4.21-3.39h-18.97c-1.18,0-2.03-.51-2.03-1.22v-14.03c0-1.97-1.77-3.39-4.21-3.39h-18.97c-1.18,0-2.03-.51-2.03-1.22v-11.72c0-.7.85-1.22,2.03-1.22h38.99c1.18,0,2.03.51,2.03,1.22v14.03c0,2.21,3.05,3.39,5.25,3.39Z" fill="#7ba84a"/></svg>