<?xml version="1.0" encoding="UTF-8"?><svg id="_レイヤー_1" xmlns="http://www.w3.org/2000/svg" width="2657.8" height="143.98" viewBox="0 0 2657.8 143.98"><path d="M124.72,36.44H4.94c-1.41,0-2.43.84-2.43,2v8.7c0,1.16,1.02,2,2.43,2h10.11c.5,0,.89.2.89.46v17.4c0,1.16,1.02,2,2.43,2h10.11c.5,0,.89.2.89.46v17.4c0,1.16,1.02,2,2.43,2h10.11c.5,0,.89.2.89.46v17.4c0,1.16,1.02,2,2.43,2h10.11c.5,0,.89.2.89.46v7.47c0,1.16,1.02,2,2.43,2h12.32c1.41,0,2.43-.84,2.43-2v-7.47c0-.26.39-.46.89-.46h10.11c1.41,0,2.43-.84,2.43-2v-17.4c0-.26.39-.46.89-.46h10.11c1.41,0,2.43-.84,2.43-2v-17.4c0-.26.39-.46.89-.46h10.11c1.41,0,2.43-.84,2.43-2v-17.4c0-.26.39-.46.89-.46h10.11c1.41,0,2.43-.84,2.43-2v-8.7c0-1.16-1.02-2-2.43-2Z" fill="#7caa4a"/><path d="M257.64,16.03h-13.78c-.68,0-1.21-.27-1.21-.62V5.23c0-1.58-1.4-2.73-3.32-2.73h-53.42c-1.92,0-3.32,1.15-3.32,2.73v10.19c0,.35-.53.62-1.21.62h-13.78c-1.92,0-3.32,1.15-3.32,2.73v38.93c0,1.58,1.4,2.73,3.32,2.73h13.78c.68,0,1.21.27,1.21.62v10.19c0,1.58,1.4,2.73,3.32,2.73h50.4c.68,0,1.21.27,1.21.62v35.58c0,.35-.53.62-1.21.62h-47.38c-.68,0-1.21-.27-1.21-.62v-10.19c0-1.58-1.4-2.73-3.32-2.73h-16.8c-1.92,0-3.32,1.15-3.32,2.73v11.86c0,1.58,1.4,2.73,3.32,2.73h13.78c.68,0,1.21.27,1.21.62v10.19c0,1.58,1.4,2.73,3.32,2.73h53.42c1.92,0,3.32-1.15,3.32-2.73v-10.19c0-.35.53-.62,1.21-.62h13.78c1.92,0,3.32-1.15,3.32-2.73v-38.93c0-1.58-1.4-2.73-3.32-2.73h-13.78c-.68,0-1.21-.27-1.21-.62v-10.19c0-1.58-1.4-2.73-3.32-2.73h-50.4c-.68,0-1.21-.27-1.21-.62V20.43c0-.35.53-.62,1.21-.62h47.38c.68,0,1.21.27,1.21.62v10.19c0,1.58,1.4,2.73,3.32,2.73h16.8c1.92,0,3.32-1.15,3.32-2.73v-11.86c0-1.58-1.4-2.73-3.32-2.73Z" fill="#7caa4a"/><path d="M360.73,56.77h-13.59c-.68,0-1.21-.27-1.21-.62v-10.19c0-1.58-1.4-2.73-3.32-2.73h-53.23c-1.92,0-3.32,1.15-3.32,2.73v92.79c0,1.58,1.4,2.73,3.32,2.73h16.61c1.92,0,3.32-1.15,3.32-2.73v-23.72c0-.35.53-.62,1.21-.62h32.09c1.92,0,3.32-1.15,3.32-2.73v-10.05c0-.35.53-.62,1.21-.62h13.59c1.92,0,3.32-1.15,3.32-2.73v-38.79c0-1.58-1.4-2.73-3.32-2.73ZM340.8,61.18v35.44c0,.35-.53.62-1.21.62h-29.07c-.68,0-1.21-.27-1.21-.62v-35.44c0-.35.53-.62,1.21-.62h29.07c.68,0,1.21.27,1.21.62Z" fill="#7caa4a"/><path d="M457.52,56.63h-13.78c-.68,0-1.21-.27-1.21-.62v-10.19c0-1.58-1.4-2.73-3.32-2.73h-35.11c-1.92,0-3.32,1.15-3.32,2.73v11.86c0,1.58,1.4,2.73,3.32,2.73h32.09c.68,0,1.21.27,1.21.62v8.51c0,.35-.53.62-1.21.62h-32.09c-1.92,0-3.32,1.15-3.32,2.73v10.19c0,.35-.53.62-1.21.62h-13.78c-1.92,0-3.32,1.15-3.32,2.73v25.39c0,1.58,1.4,2.73,3.32,2.73h13.78c.68,0,1.21.27,1.21.62v10.19c0,1.58,1.4,2.73,3.32,2.73h53.42c1.92,0,3.32-1.15,3.32-2.73V59.36c0-1.58-1.4-2.73-3.32-2.73ZM437.41,88.11v22.05c0,.35-.53.62-1.21.62h-29.07c-.68,0-1.21-.27-1.21-.62v-22.05c0-.35.53-.62,1.21-.62h29.07c.68,0,1.21.27,1.21.62Z" fill="#7caa4a"/><path d="M562.6,56.63h-13.78c-.68,0-1.21-.27-1.21-.62v-10.19c0-1.58-1.4-2.73-3.32-2.73h-35.11c-1.92,0-3.32,1.15-3.32,2.73v10.19c0,.35-.53.62-1.21.62h-13.78c-1.92,0-3.32,1.15-3.32,2.73v52.46c0,1.58,1.4,2.73,3.32,2.73h13.78c.68,0,1.21.27,1.21.62v10.19c0,1.58,1.4,2.73,3.32,2.73h35.11c1.92,0,3.32-1.15,3.32-2.73v-10.19c0-.35.53-.62,1.21-.62h13.78c1.92,0,3.32-1.15,3.32-2.73v-11.86c0-1.58-1.4-2.73-3.32-2.73h-17.55c-1.92,0-3.32,1.15-3.32,2.73v10.19c0,.35-.53.62-1.21.62h-28.31c-.68,0-1.21-.27-1.21-.62v-49.11c0-.35.53-.62,1.21-.62h28.31c.68,0,1.21.27,1.21.62v10.19c0,1.58,1.4,2.73,3.32,2.73h17.55c1.92,0,3.32-1.15,3.32-2.73v-11.86c0-1.58-1.4-2.73-3.32-2.73Z" fill="#7caa4a"/><path d="M667.63,56.63h-13.78c-.68,0-1.21-.27-1.21-.62v-10.19c0-1.58-1.4-2.73-3.32-2.73h-35.11c-1.92,0-3.32,1.15-3.32,2.73v10.19c0,.35-.53.62-1.21.62h-13.78c-1.92,0-3.32,1.15-3.32,2.73v52.46c0,1.58,1.4,2.73,3.32,2.73h13.78c.68,0,1.21.27,1.21.62v10.19c0,1.58,1.4,2.73,3.32,2.73h35.11c1.92,0,3.32-1.15,3.32-2.73v-10.19c0-.35.53-.62,1.21-.62h13.78c1.92,0,3.32-1.15,3.32-2.73v-11.86c0-1.58-1.4-2.73-3.32-2.73h-16.8c-1.92,0-3.32,1.15-3.32,2.73v10.19c0,.35-.53.62-1.21.62h-29.07c-.68,0-1.21-.27-1.21-.62v-22.05c0-.35.53-.62,1.21-.62h50.4c1.92,0,3.32-1.15,3.32-2.73v-25.39c0-1.58-1.4-2.73-3.32-2.73ZM647.74,74.92c-.08-.08-.14-.17-.18-.25h.38c-.06.08-.13.17-.2.25ZM647.51,64.71v8.82c-.15.16-.29.33-.41.49-.17.22-.61.8-.82.85l-29.06.41c-.87,0-1.2-.35-1.2-1.24v-11.82c.15-.25.64-.78,1.21-.78h29.07c.48,0,1.21,0,1.21,3.26ZM648.56,74.66h0Z" fill="#7caa4a"/><path d="M802.56,56.63h-13.78c-.68,0-1.21-.27-1.21-.62v-10.19c0-1.58-1.4-2.73-3.32-2.73h-35.11c-1.92,0-3.32,1.15-3.32,2.73v10.19c0,.35-.53.62-1.21.62h-13.78c-1.92,0-3.32,1.15-3.32,2.73v52.46c0,1.58,1.4,2.73,3.32,2.73h13.78c.68,0,1.21.27,1.21.62v10.19c0,1.58,1.4,2.73,3.32,2.73h35.11c1.92,0,3.32-1.15,3.32-2.73v-10.19c0-.35.53-.62,1.21-.62h13.78c1.92,0,3.32-1.15,3.32-2.73v-52.46c0-1.58-1.4-2.73-3.32-2.73ZM782.44,61.04v49.11c0,.35-.53.62-1.21.62h-29.07c-.68,0-1.21-.27-1.21-.62v-49.11c0-.35.53-.62,1.21-.62h29.07c.68,0,1.21.27,1.21.62Z" fill="#7caa4a"/><path d="M905.41,43.1h-35.11c-1.92,0-3.32,1.15-3.32,2.73v10.19c0,.35-.53.62-1.21.62h-10.76c-.68,0-1.21-.27-1.21-.62v-10.19c0-1.58-1.4-2.73-3.32-2.73h-16.8c-1.92,0-3.32,1.15-3.32,2.73v79.53c0,1.58,1.4,2.73,3.32,2.73h16.8c1.92,0,3.32-1.15,3.32-2.73v-50.79c0-.35.53-.62,1.21-.62h13.78c1.92,0,3.32-1.15,3.32-2.73v-10.19c0-.35.53-.62,1.21-.62h32.09c1.92,0,3.32-1.15,3.32-2.73v-11.86c0-1.58-1.4-2.73-3.32-2.73Z" fill="#7caa4a"/><path d="M1060.57,16.03h-13.78c-.68,0-1.21-.27-1.21-.62V5.23c0-1.58-1.4-2.73-3.32-2.73h-53.42c-1.92,0-3.32,1.15-3.32,2.73v10.19c0,.35-.53.62-1.21.62h-13.78c-1.92,0-3.32,1.15-3.32,2.73v93.06c0,1.58,1.4,2.73,3.32,2.73h13.78c.68,0,1.21.27,1.21.62v10.19c0,1.58,1.4,2.73,3.32,2.73h53.42c1.92,0,3.32-1.15,3.32-2.73v-10.19c0-.35.53-.62,1.21-.62h13.78c1.92,0,3.32-1.15,3.32-2.73v-11.86c0-1.58-1.4-2.73-3.32-2.73h-16.8c-1.92,0-3.32,1.15-3.32,2.73v10.19c0,.35-.53.62-1.21.62h-47.38c-.68,0-1.21-.27-1.21-.62V20.43c0-.35.53-.62,1.21-.62h47.38c.68,0,1.21.27,1.21.62v10.19c0,1.58,1.4,2.73,3.32,2.73h16.8c1.92,0,3.32-1.15,3.32-2.73v-11.86c0-1.58-1.4-2.73-3.32-2.73Z" fill="#7caa4a"/><path d="M1147.28,110.77h-13.78c-.68,0-1.21-.27-1.21-.62V18.76c0-1.58-1.4-2.73-3.32-2.73h-35.11c-1.92,0-3.32,1.15-3.32,2.73v11.86c0,1.58,1.4,2.73,3.32,2.73h13.78c.68,0,1.21.27,1.21.62v91.39c0,1.58,1.4,2.73,3.32,2.73h35.11c1.92,0,3.32-1.15,3.32-2.73v-11.86c0-1.58-1.4-2.73-3.32-2.73Z" fill="#7caa4a"/><path d="M1201.89,19.81h16.8c1.92,0,3.32-1.15,3.32-2.73V5.23c0-1.58-1.4-2.73-3.32-2.73h-16.8c-1.92,0-3.32,1.15-3.32,2.73v11.86c0,1.58,1.4,2.73,3.32,2.73Z" fill="#7caa4a"/><path d="M1237,110.77h-13.78c-.68,0-1.21-.27-1.21-.62V45.83c0-1.58-1.4-2.73-3.32-2.73h-35.11c-1.92,0-3.32,1.15-3.32,2.73v11.86c0,1.58,1.4,2.73,3.32,2.73h13.78c.68,0,1.21.27,1.21.62v49.11c0,.35-.53.62-1.21.62h-13.78c-1.92,0-3.32,1.15-3.32,2.73v11.86c0,1.58,1.4,2.73,3.32,2.73h53.42c1.92,0,3.32-1.15,3.32-2.73v-11.86c0-1.58-1.4-2.73-3.32-2.73Z" fill="#7caa4a"/><path d="M1336.32,56.63h-13.78c-.68,0-1.21-.27-1.21-.62v-10.19c0-1.58-1.4-2.73-3.32-2.73h-35.11c-1.92,0-3.32,1.15-3.32,2.73v10.19c0,.35-.53.62-1.21.62h-13.78c-1.92,0-3.32,1.15-3.32,2.73v52.46c0,1.58,1.4,2.73,3.32,2.73h13.78c.68,0,1.21.27,1.21.62v10.19c0,1.58,1.4,2.73,3.32,2.73h35.11c1.92,0,3.32-1.15,3.32-2.73v-10.19c0-.35.53-.62,1.21-.62h13.78c1.92,0,3.32-1.15,3.32-2.73v-11.86c0-1.58-1.4-2.73-3.32-2.73h-17.55c-1.92,0-3.32,1.15-3.32,2.73v10.19c0,.35-.53.62-1.21.62h-28.31c-.68,0-1.21-.27-1.21-.62v-49.11c0-.35.53-.62,1.21-.62h28.31c.68,0,1.21.27,1.21.62v10.19c0,1.58,1.4,2.73,3.32,2.73h17.55c1.92,0,3.32-1.15,3.32-2.73v-11.86c0-1.58-1.4-2.73-3.32-2.73Z" fill="#7caa4a"/><path d="M1439.67,43.1h-16.8c-1.92,0-3.32,1.15-3.32,2.73v10.19c0,.35-.53.62-1.21.62h-13.78c-1.92,0-3.32,1.15-3.32,2.73v10.19c0,.35-.53.62-1.21.62h-10.76c-.68,0-1.21-.27-1.21-.62V18.76c0-1.58-1.4-2.73-3.32-2.73h-16.8c-1.92,0-3.32,1.15-3.32,2.73v106.6c0,1.58,1.4,2.73,3.32,2.73h16.8c1.92,0,3.32-1.15,3.32-2.73v-37.25c0-.35.53-.62,1.21-.62h10.76c.68,0,1.21.27,1.21.68l.56,10.13c0,1.58,1.4,2.73,3.32,2.73h13.21c.68,0,1.21.27,1.21.62v23.72c0,1.58,1.4,2.73,3.32,2.73h16.8c1.92,0,3.32-1.15,3.32-2.73v-25.39c0-1.58-1.4-2.73-3.32-2.73h-13.4c-.68,0-1.21-.27-1.21-.66l-.38-10.15c0-1.58-1.4-2.73-3.32-2.73h-13.78c-.68,0-1.21-.27-1.21-.62v-8.51c0-.35.53-.62,1.21-.62h13.78c1.92,0,3.32-1.15,3.32-2.73v-10.19c0-.35.53-.62,1.21-.62h13.78c1.92,0,3.32-1.15,3.32-2.73v-11.86c0-1.58-1.4-2.73-3.32-2.73Z" fill="#7caa4a"/><path d="M1553.75,2.5h-16.8c-1.92,0-3.32,1.15-3.32,2.73v10.19c0,.35-.53.62-1.21.62h-13.78c-1.92,0-3.32,1.15-3.32,2.73v23.72c0,.35-.53.62-1.21.62h-13.78c-1.92,0-3.32,1.15-3.32,2.73v38.93c0,1.58,1.4,2.73,3.32,2.73h13.78c.68,0,1.21.27,1.21.62v23.72c0,1.58,1.4,2.73,3.32,2.73h13.78c.68,0,1.21.27,1.21.62v10.19c0,1.58,1.4,2.73,3.32,2.73h16.8c1.92,0,3.32-1.15,3.32-2.73v-11.86c0-1.58-1.4-2.73-3.32-2.73h-13.78c-.68,0-1.21-.27-1.21-.62v-23.72c0-1.58-1.4-2.73-3.32-2.73h-13.78c-.68,0-1.21-.27-1.21-.62v-35.58c0-.35.53-.62,1.21-.62h13.78c1.92,0,3.32-1.15,3.32-2.73v-23.72c0-.35.53-.62,1.21-.62h13.78c1.92,0,3.32-1.15,3.32-2.73V5.23c0-1.58-1.4-2.73-3.32-2.73Z" fill="#7caa4a"/><path d="M1685.78,17.09V5.23c0-1.58-1.4-2.73-3.32-2.73h-90.04c-1.92,0-3.32,1.15-3.32,2.73v11.86c0,1.58,1.4,2.73,3.32,2.73h32.09c.68,0,1.21.27,1.21.62v104.92c0,1.58,1.4,2.73,3.32,2.73h16.8c1.92,0,3.32-1.15,3.32-2.73V20.43c0-.35.53-.62,1.21-.62h32.09c1.92,0,3.32-1.15,3.32-2.73Z" fill="#7caa4a"/><path d="M1759.36,56.63h-13.78c-.68,0-1.21-.27-1.21-.62v-10.19c0-1.58-1.4-2.73-3.32-2.73h-35.11c-1.92,0-3.32,1.15-3.32,2.73v11.86c0,1.58,1.4,2.73,3.32,2.73h32.09c.68,0,1.21.27,1.21.62v8.51c0,.35-.53.62-1.21.62h-32.09c-1.92,0-3.32,1.15-3.32,2.73v10.19c0,.35-.53.62-1.21.62h-13.78c-1.92,0-3.32,1.15-3.32,2.73v25.39c0,1.58,1.4,2.73,3.32,2.73h13.78c.68,0,1.21.27,1.21.62v10.19c0,1.58,1.4,2.73,3.32,2.73h53.42c1.92,0,3.32-1.15,3.32-2.73V59.36c0-1.58-1.4-2.73-3.32-2.73ZM1739.24,88.11v22.05c0,.35-.53.62-1.21.62h-29.07c-.68,0-1.21-.27-1.21-.62v-22.05c0-.35.53-.62,1.21-.62h29.07c.68,0,1.21.27,1.21.62Z" fill="#7caa4a"/><path d="M1861.64,56.77h-13.59c-.68,0-1.21-.27-1.21-.62v-10.19c0-1.58-1.4-2.73-3.32-2.73h-53.23c-1.92,0-3.32,1.15-3.32,2.73v92.79c0,1.58,1.4,2.73,3.32,2.73h16.61c1.92,0,3.32-1.15,3.32-2.73v-23.72c0-.35.53-.62,1.21-.62h32.09c1.92,0,3.32-1.15,3.32-2.73v-10.05c0-.35.53-.62,1.21-.62h13.59c1.92,0,3.32-1.15,3.32-2.73v-38.79c0-1.58-1.4-2.73-3.32-2.73ZM1841.71,61.18v35.44c0,.35-.53.62-1.21.62h-29.07c-.68,0-1.21-.27-1.21-.62v-35.44c0-.35.53-.62,1.21-.62h29.07c.68,0,1.21.27,1.21.62Z" fill="#7caa4a"/><path d="M1945.99,43.1h-13.78c-.68,0-1.21-.27-1.21-.62v-23.72c0-1.58-1.4-2.73-3.32-2.73h-13.78c-.68,0-1.21-.27-1.21-.62V5.23c0-1.58-1.4-2.73-3.32-2.73h-16.8c-1.92,0-3.32,1.15-3.32,2.73v11.86c0,1.58,1.4,2.73,3.32,2.73h13.78c.68,0,1.21.27,1.21.62v23.72c0,1.58,1.4,2.73,3.32,2.73h13.78c.68,0,1.21.27,1.21.62v35.58c0,.35-.53.62-1.21.62h-13.78c-1.92,0-3.32,1.15-3.32,2.73v23.72c0,.35-.53.62-1.21.62h-13.78c-1.92,0-3.32,1.15-3.32,2.73v11.86c0,1.58,1.4,2.73,3.32,2.73h16.8c1.92,0,3.32-1.15,3.32-2.73v-10.19c0-.35.53-.62,1.21-.62h13.78c1.92,0,3.32-1.15,3.32-2.73v-23.72c0-.35.53-.62,1.21-.62h13.78c1.92,0,3.32-1.15,3.32-2.73v-38.93c0-1.58-1.4-2.73-3.32-2.73Z" fill="#7caa4a"/><path d="M2081.9,43.1h-32.09c-.68,0-1.21-.27-1.21-.62v-23.72c0-1.58-1.4-2.73-3.32-2.73h-16.8c-1.92,0-3.32,1.15-3.32,2.73v23.72c0,.35-.53.62-1.21.62h-13.78c-1.92,0-3.32,1.15-3.32,2.73v11.86c0,1.58,1.4,2.73,3.32,2.73h13.78c.68,0,1.21.27,1.21.62v50.79c0,1.58,1.4,2.73,3.32,2.73h13.78c.68,0,1.21.27,1.21.62v10.19c0,1.58,1.4,2.73,3.32,2.73h35.11c1.92,0,3.32-1.15,3.32-2.73v-11.86c0-1.58-1.4-2.73-3.32-2.73h-32.09c-.68,0-1.21-.27-1.21-.62v-49.11c0-.35.53-.62,1.21-.62h32.09c1.92,0,3.32-1.15,3.32-2.73v-11.86c0-1.58-1.4-2.73-3.32-2.73Z" fill="#7caa4a"/><path d="M2180.72,56.63h-13.78c-.68,0-1.21-.27-1.21-.62v-10.19c0-1.58-1.4-2.73-3.32-2.73h-35.11c-1.92,0-3.32,1.15-3.32,2.73v10.19c0,.35-.53.62-1.21.62h-13.78c-1.92,0-3.32,1.15-3.32,2.73v52.46c0,1.58,1.4,2.73,3.32,2.73h13.78c.68,0,1.21.27,1.21.62v10.19c0,1.58,1.4,2.73,3.32,2.73h35.11c1.92,0,3.32-1.15,3.32-2.73v-10.19c0-.35.53-.62,1.21-.62h13.78c1.92,0,3.32-1.15,3.32-2.73v-52.46c0-1.58-1.4-2.73-3.32-2.73ZM2160.6,61.04v49.11c0,.35-.53.62-1.21.62h-29.07c-.68,0-1.21-.27-1.21-.62v-49.11c0-.35.53-.62,1.21-.62h29.07c.68,0,1.21.27,1.21.62Z" fill="#7caa4a"/><path d="M2326.93,2.5h-16.8c-1.92,0-3.32,1.15-3.32,2.73v104.92c0,.35-.53.62-1.21.62h-47.38c-.68,0-1.21-.27-1.21-.62v-23.72c0-1.58-1.4-2.73-3.32-2.73h-16.8c-1.92,0-3.32,1.15-3.32,2.73v25.39c0,1.58,1.4,2.73,3.32,2.73h13.78c.68,0,1.21.27,1.21.62v10.19c0,1.58,1.4,2.73,3.32,2.73h53.42c1.92,0,3.32-1.15,3.32-2.73v-10.19c0-.35.53-.62,1.21-.62h13.78c1.92,0,3.32-1.15,3.32-2.73V5.23c0-1.58-1.4-2.73-3.32-2.73Z" fill="#7caa4a"/><path d="M2432.73,43.1h-16.8c-1.92,0-3.32,1.15-3.32,2.73v64.32c0,.35-.53.62-1.21.62h-29.07c-.68,0-1.21-.27-1.21-.62V45.83c0-1.58-1.4-2.73-3.32-2.73h-16.8c-1.92,0-3.32,1.15-3.32,2.73v66c0,1.58,1.4,2.73,3.32,2.73h13.78c.68,0,1.21.27,1.21.62v10.19c0,1.58,1.4,2.73,3.32,2.73h53.42c1.92,0,3.32-1.15,3.32-2.73V45.83c0-1.58-1.4-2.73-3.32-2.73Z" fill="#7caa4a"/><path d="M2552.98,56.63h-13.78c-.68,0-1.21-.27-1.21-.62v-10.19c0-1.58-1.4-2.73-3.32-2.73h-71.73c-1.92,0-3.32,1.15-3.32,2.73v79.53c0,1.58,1.4,2.73,3.32,2.73h16.8c1.92,0,3.32-1.15,3.32-2.73V61.04c0-.35.53-.62,1.21-.62h10.76c.68,0,1.21.27,1.21.62v64.32c0,1.58,1.4,2.73,3.32,2.73h16.8c1.92,0,3.32-1.15,3.32-2.73V61.04c0-.35.53-.62,1.21-.62h10.76c.68,0,1.21.27,1.21.62v64.32c0,1.58,1.4,2.73,3.32,2.73h16.8c1.92,0,3.32-1.15,3.32-2.73V59.36c0-1.58-1.4-2.73-3.32-2.73Z" fill="#7caa4a"/><path d="M2651.98,56.77h-13.59c-.68,0-1.21-.27-1.21-.62v-10.19c0-1.58-1.4-2.73-3.32-2.73h-53.23c-1.92,0-3.32,1.15-3.32,2.73v92.79c0,1.58,1.4,2.73,3.32,2.73h16.61c1.92,0,3.32-1.15,3.32-2.73v-23.72c0-.35.53-.62,1.21-.62h32.09c1.92,0,3.32-1.15,3.32-2.73v-10.05c0-.35.53-.62,1.21-.62h13.59c1.92,0,3.32-1.15,3.32-2.73v-38.79c0-1.58-1.4-2.73-3.32-2.73ZM2632.05,61.18v35.44c0,.35-.53.62-1.21.62h-29.07c-.68,0-1.21-.27-1.21-.62v-35.44c0-.35.53-.62,1.21-.62h29.07c.68,0,1.21.27,1.21.62Z" fill="#7caa4a"/></svg>