<?xml version="1.0" encoding="UTF-8"?><svg id="_レイヤー_1" xmlns="http://www.w3.org/2000/svg" width="3130.6" height="192.91" viewBox="0 0 3130.6 192.91"><path d="M128.85,20.87h-18.7c-1.15,0-1.98-.5-1.98-1.18V5.86c0-1.95-1.75-3.36-4.16-3.36H31.51c-2.41,0-4.16,1.41-4.16,3.36v13.82c0,.68-.83,1.18-1.99,1.18H6.66c-2.41,0-4.16,1.41-4.16,3.36v52.82c0,1.95,1.75,3.36,4.16,3.36h18.7c1.15,0,1.99.5,1.99,1.18v13.82c0,1.95,1.75,3.36,4.16,3.36h68.39c1.15,0,1.99.5,1.99,1.18v48.28c0,.69-.83,1.18-1.99,1.18H35.61c-1.15,0-1.98-.5-1.98-1.18v-13.82c0-1.95-1.75-3.36-4.16-3.36H6.66c-2.41,0-4.16,1.41-4.16,3.36v16.1c0,1.95,1.75,3.36,4.16,3.36h18.7c1.15,0,1.99.5,1.99,1.18v13.82c0,1.95,1.75,3.36,4.16,3.36h72.49c2.41,0,4.16-1.41,4.16-3.36v-13.82c0-.68.83-1.18,1.98-1.18h18.7c2.41,0,4.16-1.41,4.16-3.36v-52.82c0-1.95-1.75-3.36-4.16-3.36h-18.7c-1.15,0-1.98-.5-1.98-1.18v-13.82c0-1.95-1.75-3.36-4.16-3.36H35.61c-1.15,0-1.98-.5-1.98-1.18V26.5c0-.68.83-1.18,1.98-1.18h64.3c1.15,0,1.99.5,1.99,1.18v13.82c0,1.95,1.75,3.36,4.16,3.36h22.8c2.41,0,4.16-1.41,4.16-3.36v-16.09c0-1.95-1.75-3.36-4.16-3.36Z" fill="#7ba84a"/><path d="M278.18,75.96h-18.7c-1.15,0-1.99-.5-1.99-1.18v-13.82c0-1.95-1.75-3.36-4.16-3.36h-47.65c-2.41,0-4.16,1.41-4.16,3.36v13.82c0,.68-.83,1.18-1.99,1.18h-18.7c-2.41,0-4.16,1.41-4.16,3.36v71.19c0,1.95,1.75,3.36,4.16,3.36h18.7c1.15,0,1.99.5,1.99,1.18v13.82c0,1.95,1.75,3.36,4.16,3.36h47.65c2.41,0,4.16-1.41,4.16-3.36v-13.82c0-.68.83-1.18,1.99-1.18h18.7c2.41,0,4.16-1.41,4.16-3.36v-16.1c0-1.95-1.75-3.36-4.16-3.36h-22.8c-2.41,0-4.16,1.41-4.16,3.36v13.82c0,.69-.83,1.18-1.98,1.18h-39.45c-1.15,0-1.98-.5-1.98-1.18v-29.91c0-.68.83-1.18,1.98-1.18h68.4c2.41,0,4.16-1.41,4.16-3.36v-34.46c0-1.95-1.75-3.36-4.16-3.36ZM251.22,81.59v11.55c0,.69-.83,1.18-1.98,1.18h-39.45c-1.15,0-1.98-.5-1.98-1.18v-11.55c0-.69.83-1.18,1.98-1.18h39.45c1.15,0,1.98.5,1.98,1.18Z" fill="#7ba84a"/><path d="M426.74,57.59h-47.65c-2.41,0-4.16,1.41-4.16,3.36v13.82c0,.68-.83,1.18-1.98,1.18h-14.6c-1.15,0-1.98-.5-1.98-1.18v-13.82c0-1.95-1.75-3.36-4.16-3.36h-22.8c-2.41,0-4.16,1.41-4.16,3.36v107.91c0,1.95,1.75,3.36,4.16,3.36h22.8c2.41,0,4.16-1.41,4.16-3.36v-68.91c0-.69.83-1.18,1.98-1.18h18.7c2.41,0,4.16-1.41,4.16-3.36v-13.82c0-.69.83-1.18,1.98-1.18h43.55c2.41,0,4.16-1.41,4.16-3.36v-16.09c0-1.95-1.75-3.36-4.16-3.36Z" fill="#7ba84a"/><path d="M567.62,57.59h-22.8c-2.41,0-4.16,1.41-4.16,3.36v68.91c0,.69-.83,1.18-1.98,1.18h-18.7c-2.41,0-4.16,1.41-4.16,3.36v13.82c0,.69-.83,1.18-1.98,1.18h-14.6c-1.15,0-1.98-.5-1.98-1.18V60.96c0-1.95-1.75-3.36-4.16-3.36h-22.8c-2.41,0-4.16,1.41-4.16,3.36v107.91c0,1.95,1.75,3.36,4.16,3.36h47.65c2.41,0,4.16-1.41,4.16-3.36v-13.82c0-.68.83-1.18,1.98-1.18h18.7c2.41,0,4.16-1.41,4.16-3.36v-13.82c0-.69.83-1.18,1.99-1.18h18.7c2.41,0,4.16-1.41,4.16-3.36V60.96c0-1.95-1.75-3.36-4.16-3.36Z" fill="#7ba84a"/><path d="M716.19,75.96h-18.7c-1.15,0-1.99-.5-1.99-1.18v-13.82c0-1.95-1.75-3.36-4.16-3.36h-47.65c-2.41,0-4.16,1.41-4.16,3.36v13.82c0,.68-.83,1.18-1.99,1.18h-18.7c-2.41,0-4.16,1.41-4.16,3.36v71.19c0,1.95,1.75,3.36,4.16,3.36h18.7c1.15,0,1.99.5,1.99,1.18v13.82c0,1.95,1.75,3.36,4.16,3.36h47.65c2.41,0,4.16-1.41,4.16-3.36v-13.82c0-.68.83-1.18,1.99-1.18h18.7c2.41,0,4.16-1.41,4.16-3.36v-16.1c0-1.95-1.75-3.36-4.16-3.36h-22.8c-2.41,0-4.16,1.41-4.16,3.36v13.82c0,.69-.83,1.18-1.98,1.18h-39.45c-1.15,0-1.98-.5-1.98-1.18v-29.91c0-.68.83-1.18,1.98-1.18h68.4c2.41,0,4.16-1.41,4.16-3.36v-34.46c0-1.95-1.75-3.36-4.16-3.36ZM689.22,81.59v11.55c0,.69-.83,1.18-1.98,1.18h-39.45c-1.15,0-1.98-.5-1.98-1.18v-11.55c0-.69.83-1.18,1.98-1.18h39.45c1.15,0,1.98.5,1.98,1.18Z" fill="#7ba84a"/><path d="M864.75,57.59h-47.65c-2.41,0-4.16,1.41-4.16,3.36v13.82c0,.68-.83,1.18-1.98,1.18h-14.6c-1.15,0-1.98-.5-1.98-1.18v-13.82c0-1.95-1.75-3.36-4.16-3.36h-22.8c-2.41,0-4.16,1.41-4.16,3.36v107.91c0,1.95,1.75,3.36,4.16,3.36h22.8c2.41,0,4.16-1.41,4.16-3.36v-68.91c0-.69.83-1.18,1.98-1.18h18.7c2.41,0,4.16-1.41,4.16-3.36v-13.82c0-.69.83-1.18,1.98-1.18h43.55c2.41,0,4.16-1.41,4.16-3.36v-16.09c0-1.95-1.75-3.36-4.16-3.36Z" fill="#7ba84a"/><path d="M992.82,97.74h-97.34c-2.41,0-4.16,1.41-4.16,3.36v16.1c0,1.95,1.75,3.36,4.16,3.36h97.34c2.41,0,4.16-1.41,4.16-3.36v-16.1c0-1.95-1.75-3.36-4.16-3.36Z" fill="#7ba84a"/><path d="M1166.23,20.87h-18.7c-1.15,0-1.99-.5-1.99-1.18V5.86c0-1.95-1.75-3.36-4.16-3.36h-72.49c-2.41,0-4.16,1.41-4.16,3.36v13.82c0,.68-.83,1.18-1.99,1.18h-18.7c-2.41,0-4.16,1.41-4.16,3.36v52.82c0,1.95,1.75,3.36,4.16,3.36h18.7c1.15,0,1.99.5,1.99,1.18v13.82c0,1.95,1.75,3.36,4.16,3.36h68.39c1.15,0,1.99.5,1.99,1.18v48.28c0,.69-.83,1.18-1.99,1.18h-64.3c-1.15,0-1.98-.5-1.98-1.18v-13.82c0-1.95-1.75-3.36-4.16-3.36h-22.8c-2.41,0-4.16,1.41-4.16,3.36v16.1c0,1.95,1.75,3.36,4.16,3.36h18.7c1.15,0,1.99.5,1.99,1.18v13.82c0,1.95,1.75,3.36,4.16,3.36h72.49c2.41,0,4.16-1.41,4.16-3.36v-13.82c0-.68.83-1.18,1.99-1.18h18.7c2.41,0,4.16-1.41,4.16-3.36v-52.82c0-1.95-1.75-3.36-4.16-3.36h-18.7c-1.15,0-1.99-.5-1.99-1.18v-13.82c0-1.95-1.75-3.36-4.16-3.36h-68.4c-1.15,0-1.98-.5-1.98-1.18V26.5c0-.68.83-1.18,1.98-1.18h64.3c1.15,0,1.99.5,1.99,1.18v13.82c0,1.95,1.75,3.36,4.16,3.36h22.8c2.41,0,4.16-1.41,4.16-3.36v-16.09c0-1.95-1.75-3.36-4.16-3.36Z" fill="#7ba84a"/><path d="M1290.71,149.42h-18.7c-1.15,0-1.98-.5-1.98-1.18V60.96c0-1.95-1.75-3.36-4.16-3.36h-47.65c-2.41,0-4.16,1.41-4.16,3.36v16.09c0,1.95,1.75,3.36,4.16,3.36h18.7c1.15,0,1.99.5,1.99,1.18v66.64c0,.69-.83,1.18-1.99,1.18h-18.7c-2.41,0-4.16,1.41-4.16,3.36v16.09c0,1.95,1.75,3.36,4.16,3.36h72.49c2.41,0,4.16-1.41,4.16-3.36v-16.09c0-1.95-1.75-3.36-4.16-3.36Z" fill="#7ba84a"/><path d="M1243.07,25.32h22.8c2.41,0,4.16-1.41,4.16-3.36V5.86c0-1.95-1.75-3.36-4.16-3.36h-22.8c-2.41,0-4.16,1.41-4.16,3.36v16.09c0,1.95,1.75,3.36,4.16,3.36Z" fill="#7ba84a"/><path d="M1438.51,20.87h-22.8c-2.41,0-4.16,1.41-4.16,3.36v32.18c0,.68-.83,1.18-1.98,1.18h-43.55c-2.41,0-4.16,1.41-4.16,3.36v13.82c0,.68-.83,1.18-1.99,1.18h-18.7c-2.41,0-4.16,1.41-4.16,3.36v71.19c0,1.95,1.75,3.36,4.16,3.36h18.7c1.15,0,1.99.5,1.99,1.18v13.82c0,1.95,1.75,3.36,4.16,3.36h72.49c2.41,0,4.16-1.41,4.16-3.36V24.23c0-1.95-1.75-3.36-4.16-3.36ZM1411.55,81.59v66.64c0,.69-.83,1.18-1.98,1.18h-39.45c-1.15,0-1.98-.5-1.98-1.18v-66.64c0-.69.83-1.18,1.98-1.18h39.45c1.15,0,1.98.5,1.98,1.18Z" fill="#7ba84a"/><path d="M1587.08,75.96h-18.7c-1.15,0-1.99-.5-1.99-1.18v-13.82c0-1.95-1.75-3.36-4.16-3.36h-47.65c-2.41,0-4.16,1.41-4.16,3.36v13.82c0,.68-.83,1.18-1.99,1.18h-18.7c-2.41,0-4.16,1.41-4.16,3.36v71.19c0,1.95,1.75,3.36,4.16,3.36h18.7c1.15,0,1.99.5,1.99,1.18v13.82c0,1.95,1.75,3.36,4.16,3.36h47.65c2.41,0,4.16-1.41,4.16-3.36v-13.82c0-.68.83-1.18,1.99-1.18h18.7c2.41,0,4.16-1.41,4.16-3.36v-16.1c0-1.95-1.75-3.36-4.16-3.36h-22.8c-2.41,0-4.16,1.41-4.16,3.36v13.82c0,.69-.83,1.18-1.98,1.18h-39.45c-1.15,0-1.98-.5-1.98-1.18v-29.91c0-.68.83-1.18,1.98-1.18h68.4c2.41,0,4.16-1.41,4.16-3.36v-34.46c0-1.95-1.75-3.36-4.16-3.36ZM1560.11,81.59v11.55c0,.69-.83,1.18-1.98,1.18h-39.45c-1.15,0-1.98-.5-1.98-1.18v-11.55c0-.69.83-1.18,1.98-1.18h39.45c1.15,0,1.98.5,1.98,1.18Z" fill="#7ba84a"/><path d="M1811.71,2.5h-122.19c-2.41,0-4.16,1.41-4.16,3.36v163.01c0,1.95,1.75,3.36,4.16,3.36h122.19c2.41,0,4.16-1.41,4.16-3.36v-16.09c0-1.95-1.75-3.36-4.16-3.36h-93.24c-1.15,0-1.98-.5-1.98-1.18v-48.28c0-.69.83-1.18,1.98-1.18h68.4c2.41,0,4.16-1.41,4.16-3.36v-16.1c0-1.95-1.75-3.36-4.16-3.36h-68.4c-1.15,0-1.98-.5-1.98-1.18V26.5c0-.68.83-1.18,1.98-1.18h93.24c2.41,0,4.16-1.41,4.16-3.36V5.86c0-1.95-1.75-3.36-4.16-3.36Z" fill="#7ba84a"/><path d="M1961.04,57.59h-22.8c-2.41,0-4.16,1.41-4.16,3.36v32.18c0,.69-.83,1.18-1.98,1.18h-39.45c-1.15,0-1.98-.5-1.98-1.18v-32.18c0-1.95-1.75-3.36-4.16-3.36h-22.8c-2.41,0-4.16,1.41-4.16,3.36v34.46c0,1.95,1.75,3.36,4.16,3.36h18.7c1.15,0,1.99.5,1.99,1.18v11.55c0,.68-.83,1.18-1.99,1.18h-18.7c-2.41,0-4.16,1.41-4.16,3.36v52.82c0,1.95,1.75,3.36,4.16,3.36h22.8c2.41,0,4.16-1.41,4.16-3.36v-50.55c0-.68.83-1.18,1.98-1.18h39.45c1.15,0,1.98.5,1.98,1.18v50.55c0,1.95,1.75,3.36,4.16,3.36h22.8c2.41,0,4.16-1.41,4.16-3.36v-52.82c0-1.95-1.75-3.36-4.16-3.36h-18.7c-1.15,0-1.99-.5-1.99-1.18v-11.55c0-.69.83-1.18,1.99-1.18h18.7c2.41,0,4.16-1.41,4.16-3.36v-34.46c0-1.95-1.75-3.36-4.16-3.36Z" fill="#7ba84a"/><path d="M2109.35,76.15h-18.44c-1.15,0-1.99-.5-1.99-1.18v-13.82c0-1.95-1.75-3.36-4.16-3.36h-72.24c-2.41,0-4.16,1.41-4.16,3.36v125.9c0,1.95,1.75,3.36,4.16,3.36h22.54c2.41,0,4.16-1.41,4.16-3.36v-32.18c0-.69.83-1.18,1.98-1.18h43.55c2.41,0,4.16-1.41,4.16-3.36v-13.63c0-.69.83-1.18,1.99-1.18h18.44c2.41,0,4.16-1.41,4.16-3.36v-52.63c0-1.95-1.75-3.36-4.16-3.36ZM2082.65,81.78v48.09c0,.69-.83,1.18-1.98,1.18h-39.45c-1.15,0-1.98-.5-1.98-1.18v-48.09c0-.69.83-1.18,1.98-1.18h39.45c1.15,0,1.98.5,1.98,1.18Z" fill="#7ba84a"/><path d="M2258.17,75.96h-18.7c-1.15,0-1.99-.5-1.99-1.18v-13.82c0-1.95-1.75-3.36-4.16-3.36h-47.65c-2.41,0-4.16,1.41-4.16,3.36v13.82c0,.68-.83,1.18-1.99,1.18h-18.7c-2.41,0-4.16,1.41-4.16,3.36v71.19c0,1.95,1.75,3.36,4.16,3.36h18.7c1.15,0,1.99.5,1.99,1.18v13.82c0,1.95,1.75,3.36,4.16,3.36h47.65c2.41,0,4.16-1.41,4.16-3.36v-13.82c0-.68.83-1.18,1.99-1.18h18.7c2.41,0,4.16-1.41,4.16-3.36v-16.1c0-1.95-1.75-3.36-4.16-3.36h-22.8c-2.41,0-4.16,1.41-4.16,3.36v13.82c0,.69-.83,1.18-1.98,1.18h-39.45c-1.15,0-1.98-.5-1.98-1.18v-29.91c0-.68.83-1.18,1.98-1.18h68.4c2.41,0,4.16-1.41,4.16-3.36v-34.46c0-1.95-1.75-3.36-4.16-3.36ZM2231.21,81.59v11.55c0,.69-.83,1.18-1.98,1.18h-39.45c-1.15,0-1.98-.5-1.98-1.18v-11.55c0-.69.83-1.18,1.98-1.18h39.45c1.15,0,1.98.5,1.98,1.18Z" fill="#7ba84a"/><path d="M2406.73,57.59h-47.65c-2.41,0-4.16,1.41-4.16,3.36v13.82c0,.68-.83,1.18-1.98,1.18h-14.6c-1.15,0-1.98-.5-1.98-1.18v-13.82c0-1.95-1.75-3.36-4.16-3.36h-22.8c-2.41,0-4.16,1.41-4.16,3.36v107.91c0,1.95,1.75,3.36,4.16,3.36h22.8c2.41,0,4.16-1.41,4.16-3.36v-68.91c0-.69.83-1.18,1.98-1.18h18.7c2.41,0,4.16-1.41,4.16-3.36v-13.82c0-.69.83-1.18,1.98-1.18h43.55c2.41,0,4.16-1.41,4.16-3.36v-16.09c0-1.95-1.75-3.36-4.16-3.36Z" fill="#7ba84a"/><path d="M2482.8,25.32h22.8c2.41,0,4.16-1.41,4.16-3.36V5.86c0-1.95-1.75-3.36-4.16-3.36h-22.8c-2.41,0-4.16,1.41-4.16,3.36v16.09c0,1.95,1.75,3.36,4.16,3.36Z" fill="#7ba84a"/><path d="M2530.45,149.42h-18.7c-1.15,0-1.98-.5-1.98-1.18V60.96c0-1.95-1.75-3.36-4.16-3.36h-47.65c-2.41,0-4.16,1.41-4.16,3.36v16.09c0,1.95,1.75,3.36,4.16,3.36h18.7c1.15,0,1.99.5,1.99,1.18v66.64c0,.69-.83,1.18-1.99,1.18h-18.7c-2.41,0-4.16,1.41-4.16,3.36v16.09c0,1.95,1.75,3.36,4.16,3.36h72.49c2.41,0,4.16-1.41,4.16-3.36v-16.09c0-1.95-1.75-3.36-4.16-3.36Z" fill="#7ba84a"/><path d="M2678.25,75.96h-18.7c-1.15,0-1.99-.5-1.99-1.18v-13.82c0-1.95-1.75-3.36-4.16-3.36h-47.65c-2.41,0-4.16,1.41-4.16,3.36v13.82c0,.68-.83,1.18-1.99,1.18h-18.7c-2.41,0-4.16,1.41-4.16,3.36v71.19c0,1.95,1.75,3.36,4.16,3.36h18.7c1.15,0,1.99.5,1.99,1.18v13.82c0,1.95,1.75,3.36,4.16,3.36h47.65c2.41,0,4.16-1.41,4.16-3.36v-13.82c0-.68.83-1.18,1.99-1.18h18.7c2.41,0,4.16-1.41,4.16-3.36v-16.1c0-1.95-1.75-3.36-4.16-3.36h-22.8c-2.41,0-4.16,1.41-4.16,3.36v13.82c0,.69-.83,1.18-1.98,1.18h-39.45c-1.15,0-1.98-.5-1.98-1.18v-29.91c0-.68.83-1.18,1.98-1.18h68.4c2.41,0,4.16-1.41,4.16-3.36v-34.46c0-1.95-1.75-3.36-4.16-3.36ZM2651.28,81.59v11.55c0,.69-.83,1.18-1.98,1.18h-39.45c-1.15,0-1.98-.5-1.98-1.18v-11.55c0-.69.83-1.18,1.98-1.18h39.45c1.15,0,1.98.5,1.98,1.18Z" fill="#7ba84a"/><path d="M2826.81,75.96h-18.7c-1.15,0-1.99-.5-1.99-1.18v-13.82c0-1.95-1.75-3.36-4.16-3.36h-72.49c-2.41,0-4.16,1.41-4.16,3.36v107.91c0,1.95,1.75,3.36,4.16,3.36h22.8c2.41,0,4.16-1.41,4.16-3.36v-87.28c0-.69.83-1.18,1.98-1.18h39.45c1.15,0,1.98.5,1.98,1.18v87.28c0,1.95,1.75,3.36,4.16,3.36h22.8c2.41,0,4.16-1.41,4.16-3.36v-89.55c0-1.95-1.75-3.36-4.16-3.36Z" fill="#7ba84a"/><path d="M2975.37,75.96h-18.7c-1.15,0-1.99-.5-1.99-1.18v-13.82c0-1.95-1.75-3.36-4.16-3.36h-47.65c-2.41,0-4.16,1.41-4.16,3.36v13.82c0,.68-.83,1.18-1.99,1.18h-18.7c-2.41,0-4.16,1.41-4.16,3.36v71.19c0,1.95,1.75,3.36,4.16,3.36h18.7c1.15,0,1.99.5,1.99,1.18v13.82c0,1.95,1.75,3.36,4.16,3.36h47.65c2.41,0,4.16-1.41,4.16-3.36v-13.82c0-.68.83-1.18,1.99-1.18h18.7c2.41,0,4.16-1.41,4.16-3.36v-16.1c0-1.95-1.75-3.36-4.16-3.36h-23.82c-2.41,0-4.16,1.41-4.16,3.36v13.82c0,.69-.83,1.18-1.98,1.18h-38.43c-1.15,0-1.98-.5-1.98-1.18v-66.64c0-.69.83-1.18,1.98-1.18h38.43c1.15,0,1.98.5,1.98,1.18v13.82c0,1.95,1.75,3.36,4.16,3.36h23.82c2.41,0,4.16-1.41,4.16-3.36v-16.1c0-1.95-1.75-3.36-4.16-3.36Z" fill="#7ba84a"/><path d="M3055.54,117.14h68.4c2.41,0,4.16-1.41,4.16-3.36v-34.46c0-1.95-1.75-3.36-4.16-3.36h-18.7c-1.15,0-1.99-.5-1.99-1.18v-13.82c0-1.95-1.75-3.36-4.16-3.36h-47.65c-2.41,0-4.16,1.41-4.16,3.36v13.82c0,.68-.83,1.18-1.99,1.18h-18.7c-2.41,0-4.16,1.41-4.16,3.36v71.19c0,1.95,1.75,3.36,4.16,3.36h18.7c1.15,0,1.99.5,1.99,1.18v13.82c0,1.95,1.75,3.36,4.16,3.36h47.65c2.41,0,4.16-1.41,4.16-3.36v-13.82c0-.68.83-1.18,1.99-1.18h18.7c2.41,0,4.16-1.41,4.16-3.36v-16.1c0-1.95-1.75-3.36-4.16-3.36h-22.8c-2.41,0-4.16,1.41-4.16,3.36v13.82c0,.69-.83,1.18-1.98,1.18h-39.45c-1.15,0-1.98-.5-1.98-1.18v-29.91c0-.68.83-1.18,1.98-1.18ZM3053.56,93.14v-11.55c0-.69.83-1.18,1.98-1.18h39.45c1.15,0,1.98.5,1.98,1.18v11.55c0,.69-.83,1.18-1.98,1.18h-39.45c-1.15,0-1.98-.5-1.98-1.18Z" fill="#7ba84a"/></svg>