<?xml version="1.0" encoding="UTF-8"?><svg id="_レイヤー_1" xmlns="http://www.w3.org/2000/svg" width="983.12" height="1077.75" viewBox="0 0 983.12 1077.75"><rect x="65.67" y="318.64" width="33.5" height="33.5" rx="2.7" ry="2.7" fill="#7caa4a"/><rect x="99.16" y="426.3" width="33.5" height="33.5" rx="2.7" ry="2.7" fill="#7caa4a"/><path d="M885.85,287.85v28.09c0,1.49-1.21,2.7-2.7,2.7h-79.77c-1.49,0-2.7,1.21-2.7,2.7v35.27c0,1.49,1.21,2.7,2.7,2.7h46.27c1.49,0,2.7,1.21,2.7,2.7v61.58c0,1.49-1.21,2.7-2.7,2.7h-28.09c-1.49,0-2.7-1.21-2.7-2.7v-28.09c0-1.49-1.21-2.7-2.7-2.7h-51.06c-1.49,0-2.7,1.21-2.7,2.7v32.88c0,1.49-1.21,2.7-2.7,2.7h-32.88c-1.49,0-2.7,1.21-2.7,2.7v32.88c0,1.49-1.21,2.7-2.7,2.7h-71.16c-1.49,0-2.7,1.21-2.7,2.7v32.87c0,1.49,1.21,2.7,2.7,2.7h32.88c1.49,0,2.7,1.21,2.7,2.7v32.88c0,1.49,1.21,2.7,2.7,2.7h32.87c1.49,0,2.7,1.21,2.7,2.7v71.16c0,1.49-1.21,2.7-2.7,2.7h-32.87c-1.49,0-2.7-1.21-2.7-2.7v-32.88c0-1.49-1.21-2.7-2.7-2.7h-71.17c-1.49,0-2.7,1.21-2.7,2.7v262.58c0,1.49-1.21,2.7-2.7,2.7h-32.87c-1.49,0-2.7-1.21-2.7-2.7v-71.16c0-1.49-1.21-2.7-2.7-2.7h-32.88c-1.49,0-2.7-1.21-2.7-2.7v-32.88c0-1.49-1.21-2.7-2.7-2.7h-71.16c-1.49,0-2.7,1.21-2.7,2.7v32.88c0,1.49-1.21,2.7-2.7,2.7h-32.88c-1.49,0-2.7,1.21-2.7,2.7v35.57h-.61c.34,0,.61.27.61.61v34.98c0,1.49-1.21,2.7-2.7,2.7h-32.87c-1.49,0-2.7-1.21-2.7-2.7v-34.98c0-.34.27-.61.61-.61h-.61v-226.99c0-1.49-1.21-2.7-2.7-2.7h-71.17c-1.49,0-2.7,1.21-2.7,2.7v32.88c0,1.49-1.21,2.7-2.7,2.7h-32.87c-1.49,0-2.7-1.21-2.7-2.7v-71.16c0-1.49,1.21-2.7,2.7-2.7h32.87c1.49,0,2.7-1.21,2.7-2.7v-32.88c0-1.49,1.21-2.7,2.7-2.7h32.88c1.49,0,2.7-1.21,2.7-2.7v-32.87c0-1.49-1.21-2.7-2.7-2.7h-71.16c-1.49,0-2.7-1.21-2.7-2.7v-32.88c0-1.49-1.21-2.7-2.7-2.7h-32.88c-1.49,0-2.7-1.21-2.7-2.7v-32.88c0-1.49-1.21-2.7-2.7-2.7h-54.9c-1.49,0-2.7,1.21-2.7,2.7v28.09c0,1.49-1.21,2.7-2.7,2.7h-28.09c-1.49,0-2.7-1.21-2.7-2.7v-61.58c0-1.49,1.21-2.7,2.7-2.7h50.1c1.49,0,2.7-1.21,2.7-2.7v-35.27c0-1.49-1.21-2.7-2.7-2.7h-83.6c-1.49,0-2.7-1.21-2.7-2.7v-28.09c0-1.49,1.21-2.7,2.7-2.7h83.6c1.49,0,2.7-1.21,2.7-2.7v-116.63c0-1.49,1.21-2.7,2.7-2.7h32.88c1.49,0,2.7-1.21,2.7-2.7v-32.87c0-1.49,1.21-2.7,2.7-2.7h32.88c1.49,0,2.7-1.21,2.7-2.7V50.97c0-1.49,1.21-2.7,2.7-2.7h32.87c1.49,0,2.7-1.21,2.7-2.7V12.7c0-1.49,1.21-2.7,2.7-2.7h32.88c1.49,0,2.7,1.21,2.7,2.7v32.87c0,1.49,1.21,2.7,2.7,2.7h32.88c1.49,0,2.7,1.21,2.7,2.7v32.88c0,1.49,1.21,2.7,2.7,2.7h224.28c1.49,0,2.7-1.21,2.7-2.7v-32.88c0-1.49,1.21-2.7,2.7-2.7h32.88c1.49,0,2.7-1.21,2.7-2.7V12.7c0-1.49,1.21-2.7,2.7-2.7h32.88c1.49,0,2.7,1.21,2.7,2.7v32.87c0,1.49,1.21,2.7,2.7,2.7h32.87c1.49,0,2.7,1.21,2.7,2.7v71.17c0,1.49,1.21,2.7,2.7,2.7h32.88c1.49,0,2.7,1.21,2.7,2.7v32.87c0,1.49,1.21,2.7,2.7,2.7h32.88c1.49,0,2.7,1.21,2.7,2.7v116.63c0,1.49,1.21,2.7,2.7,2.7h79.77c1.49,0,2.7,1.21,2.7,2.7Z" fill="#7caa4a"/><rect x="885.85" y="318.64" width="33.5" height="33.5" rx="2.7" ry="2.7" fill="#7caa4a"/><rect x="852.35" y="426.3" width="33.5" height="33.5" rx="2.7" ry="2.7" fill="#7caa4a"/><path d="M36.61,973.11v76.54c0,1.16-1.18,1.99-2.83,1.99H12.83c-1.65,0-2.83-.83-2.83-1.99v-94.64c0-1.16,1.18-1.99,2.83-1.99h66.64c1.65,0,2.83.83,2.83,1.99v12.12c0,1.16,1.18,1.99,2.83,1.99h17.19c1.65,0,2.83.83,2.83,1.99v78.54c0,1.16-1.18,1.99-2.83,1.99h-20.96c-1.65,0-2.83-.83-2.83-1.99v-76.54c0-1.16-1.18-1.99-2.83-1.99h-36.26c-1.65,0-2.83.83-2.83,1.99Z" fill="#7caa4a"/><path d="M161.89,955.01v60.44c0,1.16,1.18,1.99,2.83,1.99h36.26c1.65,0,2.83-.83,2.83-1.99v-60.44c0-1.16,1.18-1.99,2.83-1.99h20.96c1.65,0,2.83.83,2.83,1.99v94.64c0,1.16-1.18,1.99-2.83,1.99h-17.19c-1.65,0-2.83.83-2.83,1.99v12.12c0,1.16-1.18,1.99-2.83,1.99h-43.8c-1.65,0-2.83-.83-2.83-1.99v-14.11c0-1.16,1.18-1.99,2.83-1.99h40.03c1.65,0,2.83-.83,2.83-1.99v-10.13c0-1.16-1.18-1.99-2.83-1.99h-40.03c-1.65,0-2.83-.83-2.83-1.99v-12.12c0-1.16-1.18-1.99-2.83-1.99h-17.19c-1.65,0-2.83-.83-2.83-1.99v-62.43c0-1.16,1.18-1.99,2.83-1.99h20.96c1.65,0,2.83.83,2.83,1.99Z" fill="#7caa4a"/><path d="M455.5,953.64v12.47c0,1.19,1.21,2.05,2.91,2.05h17.69c1.7,0,2.91.85,2.91,2.05v64.24c0,1.2-1.21,2.05-2.91,2.05h-17.69c-1.69,0-2.91.85-2.91,2.05v12.47c0,1.2-1.21,2.05-2.91,2.05h-45.07c-1.69,0-2.91-.85-2.91-2.05v-12.47c0-1.2-1.21-2.05-2.91-2.05h-17.69c-1.69,0-2.91-.85-2.91-2.05v-64.24c0-1.19,1.21-2.05,2.91-2.05h17.69c1.7,0,2.91-.85,2.91-2.05v-12.47c0-1.19,1.21-2.05,2.91-2.05h45.07c1.69,0,2.91.85,2.91,2.05ZM411.4,1034.45h37.31c1.7,0,2.91-.85,2.91-2.05v-60.14c0-1.2-1.21-2.05-2.91-2.05h-37.31c-1.69,0-2.91.85-2.91,2.05v60.14c0,1.19,1.21,2.05,2.91,2.05Z" fill="#7caa4a"/><path d="M531.55,973.11v76.54c0,1.16-1.18,1.99-2.83,1.99h-20.12c-1.65,0-2.83-.83-2.83-1.99v-94.64c0-1.16,1.18-1.99,2.83-1.99h89.48c1.65,0,2.83.83,2.83,1.99v12.12c0,1.16,1.18,1.99,2.83,1.99h16.36c1.65,0,2.83.83,2.83,1.99v78.54c0,1.16-1.18,1.99-2.83,1.99h-19.29c-1.65,0-2.83-.83-2.83-1.99v-76.54c0-1.16-1.18-1.99-2.83-1.99h-15.09c-1.65,0-2.83.83-2.83,1.99v76.54c0,1.16-1.18,1.99-2.83,1.99h-19.29c-1.65,0-2.83-.83-2.83-1.99v-76.54c0-1.16-1.18-1.99-2.83-1.99h-15.09c-1.65,0-2.83.83-2.83,1.99Z" fill="#7caa4a"/><path d="M674.11,985.23h40.03c1.65,0,2.83-.83,2.83-1.99v-10.13c0-1.16-1.18-1.99-2.83-1.99h-52.23c-1.65,0-2.83-.83-2.83-1.99v-14.11c0-1.16,1.18-1.99,2.83-1.99h55.99c1.65,0,2.83.83,2.83,1.99v12.12c0,1.16,1.18,1.99,2.83,1.99h17.19c1.65,0,2.83.83,2.83,1.99v78.54c0,1.16-1.18,1.99-2.83,1.99h-66.64c-1.65,0-2.83-.83-2.83-1.99v-12.12c0-1.16-1.18-1.99-2.83-1.99h-17.19c-1.65,0-2.83-.83-2.83-1.99v-30.22c0-1.16,1.18-1.99,2.83-1.99h17.19c1.65,0,2.83-.83,2.83-1.99v-12.12c0-1.16,1.18-1.99,2.83-1.99ZM677.88,1033.55h36.26c1.65,0,2.83-.83,2.83-1.99v-26.23c0-1.16-1.18-1.99-2.83-1.99h-36.26c-1.65,0-2.83.83-2.83,1.99v26.23c0,1.16,1.18,1.99,2.83,1.99Z" fill="#7caa4a"/><path d="M801.04,989.21v60.44c0,1.16-1.18,1.99-2.83,1.99h-20.96c-1.65,0-2.83-.83-2.83-1.99v-94.64c0-1.16,1.18-1.99,2.83-1.99h20.96c1.65,0,2.83.83,2.83,1.99v12.12c0,1.16,1.18,1.99,2.83,1.99h13.42c1.65,0,2.83-.83,2.83-1.99v-12.12c0-1.16,1.18-1.99,2.83-1.99h29.06c1.65,0,2.83.83,2.83,1.99v14.11c0,1.16-1.18,1.99-2.83,1.99h-25.3c-1.65,0-2.83.83-2.83,1.99v12.12c0,1.16-1.18,1.99-2.83,1.99h-17.19c-1.65,0-2.83.83-2.83,1.99Z" fill="#7caa4a"/><path d="M904.59,955.01v76.55c0,1.16,1.18,1.99,2.83,1.99h36.26c1.65,0,2.83-.83,2.83-1.99v-76.55c0-1.16,1.18-1.99,2.83-1.99h20.96c1.65,0,2.83.83,2.83,1.99v94.64c0,1.16-1.18,1.99-2.83,1.99h-66.64c-1.65,0-2.83-.83-2.83-1.99v-12.12c0-1.16-1.18-1.99-2.83-1.99h-17.19c-1.65,0-2.83-.83-2.83-1.99v-78.54c0-1.16,1.18-1.99,2.83-1.99h20.96c1.65,0,2.83.83,2.83,1.99Z" fill="#7caa4a"/><path d="M283.41,985.23h40.03c1.65,0,2.83-.83,2.83-1.99v-10.13c0-1.16-1.18-1.99-2.83-1.99h-52.23c-1.65,0-2.83-.83-2.83-1.99v-14.11c0-1.16,1.18-1.99,2.83-1.99h55.99c1.65,0,2.83.83,2.83,1.99v12.12c0,1.16,1.18,1.99,2.83,1.99h17.19c1.65,0,2.83.83,2.83,1.99v78.54c0,1.16-1.18,1.99-2.83,1.99h-66.64c-1.65,0-2.83-.83-2.83-1.99v-12.12c0-1.16-1.18-1.99-2.83-1.99h-17.19c-1.65,0-2.83-.83-2.83-1.99v-30.22c0-1.16,1.18-1.99,2.83-1.99h17.19c1.65,0,2.83-.83,2.83-1.99v-12.12c0-1.16,1.18-1.99,2.83-1.99ZM287.17,1033.55h36.26c1.65,0,2.83-.83,2.83-1.99v-26.23c0-1.16-1.18-1.99-2.83-1.99h-36.26c-1.65,0-2.83.83-2.83,1.99v26.23c0,1.16,1.18,1.99,2.83,1.99Z" fill="#7caa4a"/></svg>