<?xml version="1.0" encoding="UTF-8"?><svg id="_レイヤー_1" xmlns="http://www.w3.org/2000/svg" width="1331.61" height="178.2" viewBox="0 0 1331.61 178.2"><path d="M46.23,39.31v104.24c0,1.59-1.6,2.72-3.85,2.72H13.85c-2.24,0-3.85-1.13-3.85-2.72V14.66c0-1.58,1.6-2.71,3.85-2.71h90.75c2.24,0,3.85,1.13,3.85,2.71v16.51c0,1.58,1.6,2.71,3.85,2.71h23.41c2.25,0,3.85,1.13,3.85,2.71v106.96c0,1.59-1.6,2.72-3.85,2.72h-28.54c-2.24,0-3.85-1.13-3.85-2.72V39.31c0-1.59-1.6-2.72-3.85-2.72h-49.39c-2.24,0-3.85,1.13-3.85,2.72Z" fill="#7caa4a"/><path d="M216.85,14.66v82.31c0,1.58,1.6,2.71,3.85,2.71h49.39c2.25,0,3.85-1.13,3.85-2.71V14.66c0-1.58,1.6-2.71,3.85-2.71h28.54c2.25,0,3.85,1.13,3.85,2.71v128.89c0,1.59-1.6,2.72-3.85,2.72h-23.41c-2.24,0-3.85,1.13-3.85,2.71v16.51c0,1.58-1.6,2.71-3.85,2.71h-59.65c-2.24,0-3.85-1.13-3.85-2.71v-19.22c0-1.59,1.6-2.72,3.85-2.72h54.52c2.25,0,3.85-1.13,3.85-2.71v-13.79c0-1.59-1.6-2.72-3.85-2.72h-54.52c-2.24,0-3.85-1.13-3.85-2.71v-16.51c0-1.58-1.6-2.71-3.85-2.71h-23.41c-2.24,0-3.85-1.13-3.85-2.71V14.66c0-1.58,1.6-2.71,3.85-2.71h28.54c2.25,0,3.85,1.13,3.85,2.71Z" fill="#7caa4a"/><path d="M616.7,12.79v16.99c0,1.63,1.65,2.79,3.96,2.79h24.09c2.31,0,3.96,1.16,3.96,2.79v87.49c0,1.63-1.65,2.79-3.96,2.79h-24.09c-2.31,0-3.96,1.16-3.96,2.8v16.98c0,1.63-1.65,2.8-3.96,2.8h-61.38c-2.31,0-3.96-1.16-3.96-2.8v-16.98c0-1.63-1.65-2.8-3.96-2.8h-24.09c-2.31,0-3.96-1.16-3.96-2.79V35.36c0-1.63,1.65-2.79,3.96-2.79h24.09c2.31,0,3.96-1.16,3.96-2.79V12.79c0-1.63,1.65-2.79,3.96-2.79h61.38c2.31,0,3.96,1.16,3.96,2.79ZM556.64,122.85h50.82c2.31,0,3.96-1.16,3.96-2.79V38.16c0-1.63-1.65-2.8-3.96-2.8h-50.82c-2.31,0-3.96,1.16-3.96,2.8v81.9c0,1.63,1.65,2.79,3.96,2.79Z" fill="#7caa4a"/><path d="M720.27,39.31v104.24c0,1.59-1.6,2.72-3.85,2.72h-27.4c-2.24,0-3.85-1.13-3.85-2.72V14.66c0-1.58,1.6-2.71,3.85-2.71h121.86c2.25,0,3.85,1.13,3.85,2.71v16.51c0,1.58,1.6,2.71,3.85,2.71h22.28c2.24,0,3.85,1.13,3.85,2.71v106.96c0,1.59-1.6,2.72-3.85,2.72h-26.27c-2.25,0-3.85-1.13-3.85-2.72V39.31c0-1.59-1.6-2.72-3.85-2.72h-20.55c-2.24,0-3.85,1.13-3.85,2.72v104.24c0,1.59-1.6,2.72-3.85,2.72h-26.27c-2.25,0-3.85-1.13-3.85-2.72V39.31c0-1.59-1.6-2.72-3.85-2.72h-20.55c-2.24,0-3.85,1.13-3.85,2.72Z" fill="#7caa4a"/><path d="M914.41,55.81h54.52c2.25,0,3.85-1.13,3.85-2.71v-13.79c0-1.59-1.6-2.72-3.85-2.72h-71.12c-2.24,0-3.85-1.13-3.85-2.71V14.66c0-1.58,1.6-2.71,3.85-2.71h76.25c2.24,0,3.85,1.13,3.85,2.71v16.51c0,1.58,1.6,2.71,3.85,2.71h23.41c2.25,0,3.85,1.13,3.85,2.71v106.96c0,1.59-1.6,2.72-3.85,2.72h-90.75c-2.24,0-3.85-1.13-3.85-2.72v-16.5c0-1.59-1.6-2.72-3.85-2.72h-23.41c-2.24,0-3.85-1.13-3.85-2.71v-41.15c0-1.59,1.6-2.71,3.85-2.71h23.41c2.25,0,3.85-1.13,3.85-2.72v-16.5c0-1.59,1.6-2.72,3.85-2.72ZM919.54,121.62h49.39c2.25,0,3.85-1.13,3.85-2.71v-35.73c0-1.58-1.6-2.71-3.85-2.71h-49.39c-2.24,0-3.85,1.13-3.85,2.71v35.73c0,1.58,1.6,2.71,3.85,2.71Z" fill="#7caa4a"/><path d="M1087.26,61.24v82.31c0,1.59-1.6,2.72-3.85,2.72h-28.54c-2.24,0-3.85-1.13-3.85-2.72V14.66c0-1.58,1.6-2.71,3.85-2.71h28.54c2.25,0,3.85,1.13,3.85,2.71v16.51c0,1.58,1.6,2.71,3.85,2.71h18.28c2.24,0,3.85-1.13,3.85-2.71V14.66c0-1.58,1.6-2.71,3.85-2.71h39.58c2.25,0,3.85,1.13,3.85,2.71v19.22c0,1.58-1.6,2.71-3.85,2.71h-34.45c-2.25,0-3.85,1.13-3.85,2.72v16.5c0,1.59-1.6,2.72-3.85,2.72h-23.41c-2.24,0-3.85,1.13-3.85,2.71Z" fill="#7caa4a"/><path d="M1228.29,14.66v104.24c0,1.58,1.6,2.71,3.85,2.71h49.39c2.25,0,3.85-1.13,3.85-2.71V14.66c0-1.58,1.6-2.71,3.85-2.71h28.54c2.25,0,3.85,1.13,3.85,2.71v128.89c0,1.59-1.6,2.72-3.85,2.72h-90.75c-2.24,0-3.85-1.13-3.85-2.72v-16.5c0-1.59-1.6-2.72-3.85-2.72h-23.41c-2.24,0-3.85-1.13-3.85-2.71V14.66c0-1.58,1.6-2.71,3.85-2.71h28.54c2.25,0,3.85,1.13,3.85,2.71Z" fill="#7caa4a"/><path d="M382.33,55.81h54.52c2.25,0,3.85-1.13,3.85-2.71v-13.79c0-1.59-1.6-2.72-3.85-2.72h-71.12c-2.24,0-3.85-1.13-3.85-2.71V14.66c0-1.58,1.6-2.71,3.85-2.71h76.25c2.24,0,3.85,1.13,3.85,2.71v16.51c0,1.58,1.6,2.71,3.85,2.71h23.41c2.25,0,3.85,1.13,3.85,2.71v106.96c0,1.59-1.6,2.72-3.85,2.72h-90.75c-2.24,0-3.85-1.13-3.85-2.72v-16.5c0-1.59-1.6-2.72-3.85-2.72h-23.41c-2.24,0-3.85-1.13-3.85-2.71v-41.15c0-1.59,1.6-2.71,3.85-2.71h23.41c2.25,0,3.85-1.13,3.85-2.72v-16.5c0-1.59,1.6-2.72,3.85-2.72ZM387.46,121.62h49.39c2.25,0,3.85-1.13,3.85-2.71v-35.73c0-1.58-1.6-2.71-3.85-2.71h-49.39c-2.24,0-3.85,1.13-3.85,2.71v35.73c0,1.58,1.6,2.71,3.85,2.71Z" fill="#7caa4a"/></svg>