<?xml version="1.0" encoding="UTF-8"?><svg id="_レイヤー_1" xmlns="http://www.w3.org/2000/svg" width="873.68" height="862.19" viewBox="0 0 873.68 862.19"><rect x="10" y="318.64" width="33.5" height="33.5" rx="2.7" ry="2.7" fill="#7caa4a"/><rect x="43.5" y="426.3" width="33.5" height="33.5" rx="2.7" ry="2.7" fill="#7caa4a"/><path d="M830.19,287.85v28.09c0,1.49-1.21,2.7-2.7,2.7h-79.77c-1.49,0-2.7,1.21-2.7,2.7v35.27c0,1.49,1.21,2.7,2.7,2.7h46.27c1.49,0,2.7,1.21,2.7,2.7v61.58c0,1.49-1.21,2.7-2.7,2.7h-28.09c-1.49,0-2.7-1.21-2.7-2.7v-28.09c0-1.49-1.21-2.7-2.7-2.7h-51.06c-1.49,0-2.7,1.21-2.7,2.7v32.88c0,1.49-1.21,2.7-2.7,2.7h-32.88c-1.49,0-2.7,1.21-2.7,2.7v32.88c0,1.49-1.21,2.7-2.7,2.7h-71.16c-1.49,0-2.7,1.21-2.7,2.7v32.87c0,1.49,1.21,2.7,2.7,2.7h32.88c1.49,0,2.7,1.21,2.7,2.7v32.88c0,1.49,1.21,2.7,2.7,2.7h32.87c1.49,0,2.7,1.21,2.7,2.7v71.16c0,1.49-1.21,2.7-2.7,2.7h-32.87c-1.49,0-2.7-1.21-2.7-2.7v-32.88c0-1.49-1.21-2.7-2.7-2.7h-71.17c-1.49,0-2.7,1.21-2.7,2.7v262.58c0,1.49-1.21,2.7-2.7,2.7h-32.87c-1.49,0-2.7-1.21-2.7-2.7v-71.16c0-1.49-1.21-2.7-2.7-2.7h-32.88c-1.49,0-2.7-1.21-2.7-2.7v-32.88c0-1.49-1.21-2.7-2.7-2.7h-71.16c-1.49,0-2.7,1.21-2.7,2.7v32.88c0,1.49-1.21,2.7-2.7,2.7h-32.88c-1.49,0-2.7,1.21-2.7,2.7v35.57h-.61c.34,0,.61.27.61.61v34.98c0,1.49-1.21,2.7-2.7,2.7h-32.87c-1.49,0-2.7-1.21-2.7-2.7v-34.98c0-.34.27-.61.61-.61h-.61v-226.99c0-1.49-1.21-2.7-2.7-2.7h-71.17c-1.49,0-2.7,1.21-2.7,2.7v32.88c0,1.49-1.21,2.7-2.7,2.7h-32.87c-1.49,0-2.7-1.21-2.7-2.7v-71.16c0-1.49,1.21-2.7,2.7-2.7h32.87c1.49,0,2.7-1.21,2.7-2.7v-32.88c0-1.49,1.21-2.7,2.7-2.7h32.88c1.49,0,2.7-1.21,2.7-2.7v-32.87c0-1.49-1.21-2.7-2.7-2.7h-71.16c-1.49,0-2.7-1.21-2.7-2.7v-32.88c0-1.49-1.21-2.7-2.7-2.7h-32.88c-1.49,0-2.7-1.21-2.7-2.7v-32.88c0-1.49-1.21-2.7-2.7-2.7h-54.9c-1.49,0-2.7,1.21-2.7,2.7v28.09c0,1.49-1.21,2.7-2.7,2.7h-28.09c-1.49,0-2.7-1.21-2.7-2.7v-61.58c0-1.49,1.21-2.7,2.7-2.7h50.1c1.49,0,2.7-1.21,2.7-2.7v-35.27c0-1.49-1.21-2.7-2.7-2.7H46.2c-1.49,0-2.7-1.21-2.7-2.7v-28.09c0-1.49,1.21-2.7,2.7-2.7h83.6c1.49,0,2.7-1.21,2.7-2.7v-116.63c0-1.49,1.21-2.7,2.7-2.7h32.88c1.49,0,2.7-1.21,2.7-2.7v-32.87c0-1.49,1.21-2.7,2.7-2.7h32.88c1.49,0,2.7-1.21,2.7-2.7V50.97c0-1.49,1.21-2.7,2.7-2.7h32.87c1.49,0,2.7-1.21,2.7-2.7V12.7c0-1.49,1.21-2.7,2.7-2.7h32.88c1.49,0,2.7,1.21,2.7,2.7v32.87c0,1.49,1.21,2.7,2.7,2.7h32.88c1.49,0,2.7,1.21,2.7,2.7v32.88c0,1.49,1.21,2.7,2.7,2.7h224.28c1.49,0,2.7-1.21,2.7-2.7v-32.88c0-1.49,1.21-2.7,2.7-2.7h32.88c1.49,0,2.7-1.21,2.7-2.7V12.7c0-1.49,1.21-2.7,2.7-2.7h32.88c1.49,0,2.7,1.21,2.7,2.7v32.87c0,1.49,1.21,2.7,2.7,2.7h32.87c1.49,0,2.7,1.21,2.7,2.7v71.17c0,1.49,1.21,2.7,2.7,2.7h32.88c1.49,0,2.7,1.21,2.7,2.7v32.87c0,1.49,1.21,2.7,2.7,2.7h32.88c1.49,0,2.7,1.21,2.7,2.7v116.63c0,1.49,1.21,2.7,2.7,2.7h79.77c1.49,0,2.7,1.21,2.7,2.7Z" fill="#7caa4a"/><rect x="830.18" y="318.64" width="33.5" height="33.5" rx="2.7" ry="2.7" fill="#7caa4a"/><rect x="796.69" y="426.3" width="33.5" height="33.5" rx="2.7" ry="2.7" fill="#7caa4a"/></svg>