<?xml version="1.0" encoding="UTF-8"?><svg id="_レイヤー_1" xmlns="http://www.w3.org/2000/svg" width="1657.91" height="285.5" viewBox="0 0 1657.91 285.5"><rect x="10" y="107.3" width="10.56" height="10.56" rx=".85" ry=".85" fill="#7caa4a"/><rect x="20.56" y="141.24" width="10.56" height="10.56" rx=".85" ry=".85" fill="#7caa4a"/><path d="M268.57,97.59v8.86c0,.47-.38.85-.85.85h-25.15c-.47,0-.85.38-.85.85v11.12c0,.47.38.85.85.85h14.59c.47,0,.85.38.85.85v19.41c0,.47-.38.85-.85.85h-8.86c-.47,0-.85-.38-.85-.85v-8.86c0-.47-.38-.85-.85-.85h-16.1c-.47,0-.85.38-.85.85v10.37c0,.47-.38.85-.85.85h-10.37c-.47,0-.85.38-.85.85v10.37c0,.47-.38.85-.85.85h-22.43c-.47,0-.85.38-.85.85v10.36c0,.47.38.85.85.85h10.37c.47,0,.85.38.85.85v10.37c0,.47.38.85.85.85h10.36c.47,0,.85.38.85.85v22.43c0,.47-.38.85-.85.85h-10.36c-.47,0-.85-.38-.85-.85v-10.37c0-.47-.38-.85-.85-.85h-22.44c-.47,0-.85.38-.85.85v82.78c0,.47-.38.85-.85.85h-10.36c-.47,0-.85-.38-.85-.85v-22.43c0-.47-.38-.85-.85-.85h-10.37c-.47,0-.85-.38-.85-.85v-10.37c0-.47-.38-.85-.85-.85h-22.43c-.47,0-.85.38-.85.85v10.37c0,.47-.38.85-.85.85h-10.37c-.47,0-.85.38-.85.85v11.21h-.19c.11,0,.19.09.19.19v11.03c0,.47-.38.85-.85.85h-10.36c-.47,0-.85-.38-.85-.85v-11.03c0-.11.09-.19.19-.19h-.19v-71.56c0-.47-.38-.85-.85-.85h-22.44c-.47,0-.85.38-.85.85v10.37c0,.47-.38.85-.85.85h-10.36c-.47,0-.85-.38-.85-.85v-22.43c0-.47.38-.85.85-.85h10.36c.47,0,.85-.38.85-.85v-10.37c0-.47.38-.85.85-.85h10.37c.47,0,.85-.38.85-.85v-10.36c0-.47-.38-.85-.85-.85h-22.43c-.47,0-.85-.38-.85-.85v-10.37c0-.47-.38-.85-.85-.85h-10.37c-.47,0-.85-.38-.85-.85v-10.37c0-.47-.38-.85-.85-.85h-17.31c-.47,0-.85.38-.85.85v8.86c0,.47-.38.85-.85.85h-8.86c-.47,0-.85-.38-.85-.85v-19.41c0-.47.38-.85.85-.85h15.8c.47,0,.85-.38.85-.85v-11.12c0-.47-.38-.85-.85-.85h-26.35c-.47,0-.85-.38-.85-.85v-8.86c0-.47.38-.85.85-.85h26.35c.47,0,.85-.38.85-.85v-36.77c0-.47.38-.85.85-.85h10.37c.47,0,.85-.38.85-.85v-10.36c0-.47.38-.85.85-.85h10.37c.47,0,.85-.38.85-.85v-22.44c0-.47.38-.85.85-.85h10.36c.47,0,.85-.38.85-.85v-10.36c0-.47.38-.85.85-.85h10.37c.47,0,.85.38.85.85v10.36c0,.47.38.85.85.85h10.37c.47,0,.85.38.85.85v10.37c0,.47.38.85.85.85h70.7c.47,0,.85-.38.85-.85v-10.37c0-.47.38-.85.85-.85h10.37c.47,0,.85-.38.85-.85v-10.36c0-.47.38-.85.85-.85h10.37c.47,0,.85.38.85.85v10.36c0,.47.38.85.85.85h10.36c.47,0,.85.38.85.85v22.44c0,.47.38.85.85.85h10.37c.47,0,.85.38.85.85v10.36c0,.47.38.85.85.85h10.37c.47,0,.85.38.85.85v36.77c0,.47.38.85.85.85h25.15c.47,0,.85.38.85.85Z" fill="#7caa4a"/><rect x="268.57" y="107.3" width="10.56" height="10.56" rx=".85" ry=".85" fill="#7caa4a"/><rect x="258.01" y="141.24" width="10.56" height="10.56" rx=".85" ry=".85" fill="#7caa4a"/><path d="M372.53,129.16v104.24c0,1.59-1.6,2.72-3.85,2.72h-28.54c-2.24,0-3.85-1.13-3.85-2.72V104.51c0-1.58,1.6-2.71,3.85-2.71h90.75c2.24,0,3.85,1.13,3.85,2.71v16.51c0,1.58,1.6,2.71,3.85,2.71h23.41c2.25,0,3.85,1.13,3.85,2.71v106.96c0,1.59-1.6,2.72-3.85,2.72h-28.54c-2.24,0-3.85-1.13-3.85-2.72v-104.24c0-1.59-1.6-2.72-3.85-2.72h-49.39c-2.24,0-3.85,1.13-3.85,2.72Z" fill="#7caa4a"/><path d="M543.15,104.51v82.31c0,1.58,1.6,2.71,3.85,2.71h49.39c2.25,0,3.85-1.13,3.85-2.71v-82.31c0-1.58,1.6-2.71,3.85-2.71h28.54c2.25,0,3.85,1.13,3.85,2.71v128.89c0,1.59-1.6,2.72-3.85,2.72h-23.41c-2.24,0-3.85,1.13-3.85,2.71v16.51c0,1.58-1.6,2.71-3.85,2.71h-59.65c-2.24,0-3.85-1.13-3.85-2.71v-19.22c0-1.59,1.6-2.72,3.85-2.72h54.52c2.25,0,3.85-1.13,3.85-2.71v-13.79c0-1.59-1.6-2.72-3.85-2.72h-54.52c-2.24,0-3.85-1.13-3.85-2.71v-16.51c0-1.58-1.6-2.71-3.85-2.71h-23.41c-2.24,0-3.85-1.13-3.85-2.71v-85.02c0-1.58,1.6-2.71,3.85-2.71h28.54c2.25,0,3.85,1.13,3.85,2.71Z" fill="#7caa4a"/><path d="M942.99,102.64v16.99c0,1.63,1.65,2.79,3.96,2.79h24.09c2.31,0,3.96,1.16,3.96,2.79v87.49c0,1.63-1.65,2.79-3.96,2.79h-24.09c-2.31,0-3.96,1.16-3.96,2.8v16.98c0,1.63-1.65,2.8-3.96,2.8h-61.38c-2.31,0-3.96-1.16-3.96-2.8v-16.98c0-1.63-1.65-2.8-3.96-2.8h-24.09c-2.31,0-3.96-1.16-3.96-2.79v-87.49c0-1.63,1.65-2.79,3.96-2.79h24.09c2.31,0,3.96-1.16,3.96-2.79v-16.99c0-1.63,1.65-2.79,3.96-2.79h61.38c2.31,0,3.96,1.16,3.96,2.79ZM882.94,212.7h50.82c2.31,0,3.96-1.16,3.96-2.79v-81.9c0-1.63-1.65-2.8-3.96-2.8h-50.82c-2.31,0-3.96,1.16-3.96,2.8v81.9c0,1.63,1.65,2.79,3.96,2.79Z" fill="#7caa4a"/><path d="M1046.57,129.16v104.24c0,1.59-1.6,2.72-3.85,2.72h-27.4c-2.24,0-3.85-1.13-3.85-2.72V104.51c0-1.58,1.6-2.71,3.85-2.71h121.86c2.25,0,3.85,1.13,3.85,2.71v16.51c0,1.58,1.6,2.71,3.85,2.71h22.28c2.24,0,3.85,1.13,3.85,2.71v106.96c0,1.59-1.6,2.72-3.85,2.72h-26.27c-2.25,0-3.85-1.13-3.85-2.72v-104.24c0-1.59-1.6-2.72-3.85-2.72h-20.55c-2.24,0-3.85,1.13-3.85,2.72v104.24c0,1.59-1.6,2.72-3.85,2.72h-26.27c-2.25,0-3.85-1.13-3.85-2.72v-104.24c0-1.59-1.6-2.72-3.85-2.72h-20.55c-2.24,0-3.85,1.13-3.85,2.72Z" fill="#7caa4a"/><path d="M1240.7,145.66h54.52c2.25,0,3.85-1.13,3.85-2.71v-13.79c0-1.59-1.6-2.72-3.85-2.72h-71.12c-2.24,0-3.85-1.13-3.85-2.71v-19.22c0-1.58,1.6-2.71,3.85-2.71h76.25c2.24,0,3.85,1.13,3.85,2.71v16.51c0,1.58,1.6,2.71,3.85,2.71h23.41c2.25,0,3.85,1.13,3.85,2.71v106.96c0,1.59-1.6,2.72-3.85,2.72h-90.75c-2.24,0-3.85-1.13-3.85-2.72v-16.5c0-1.59-1.6-2.72-3.85-2.72h-23.41c-2.24,0-3.85-1.13-3.85-2.71v-41.15c0-1.59,1.6-2.71,3.85-2.71h23.41c2.25,0,3.85-1.13,3.85-2.72v-16.5c0-1.59,1.6-2.72,3.85-2.72ZM1245.84,211.47h49.39c2.25,0,3.85-1.13,3.85-2.71v-35.73c0-1.58-1.6-2.71-3.85-2.71h-49.39c-2.24,0-3.85,1.13-3.85,2.71v35.73c0,1.58,1.6,2.71,3.85,2.71Z" fill="#7caa4a"/><path d="M1413.56,151.09v82.31c0,1.59-1.6,2.72-3.85,2.72h-28.54c-2.24,0-3.85-1.13-3.85-2.72V104.51c0-1.58,1.6-2.71,3.85-2.71h28.54c2.25,0,3.85,1.13,3.85,2.71v16.51c0,1.58,1.6,2.71,3.85,2.71h18.28c2.24,0,3.85-1.13,3.85-2.71v-16.51c0-1.58,1.6-2.71,3.85-2.71h39.58c2.25,0,3.85,1.13,3.85,2.71v19.22c0,1.58-1.6,2.71-3.85,2.71h-34.45c-2.25,0-3.85,1.13-3.85,2.72v16.5c0,1.59-1.6,2.72-3.85,2.72h-23.41c-2.24,0-3.85,1.13-3.85,2.71Z" fill="#7caa4a"/><path d="M1554.59,104.51v104.24c0,1.58,1.6,2.71,3.85,2.71h49.39c2.25,0,3.85-1.13,3.85-2.71v-104.24c0-1.58,1.6-2.71,3.85-2.71h28.54c2.25,0,3.85,1.13,3.85,2.71v128.89c0,1.59-1.6,2.72-3.85,2.72h-90.75c-2.24,0-3.85-1.13-3.85-2.72v-16.5c0-1.59-1.6-2.72-3.85-2.72h-23.41c-2.24,0-3.85-1.13-3.85-2.71v-106.96c0-1.58,1.6-2.71,3.85-2.71h28.54c2.25,0,3.85,1.13,3.85,2.71Z" fill="#7caa4a"/><path d="M708.63,145.66h54.52c2.25,0,3.85-1.13,3.85-2.71v-13.79c0-1.59-1.6-2.72-3.85-2.72h-71.12c-2.24,0-3.85-1.13-3.85-2.71v-19.22c0-1.58,1.6-2.71,3.85-2.71h76.25c2.24,0,3.85,1.13,3.85,2.71v16.51c0,1.58,1.6,2.71,3.85,2.71h23.41c2.25,0,3.85,1.13,3.85,2.71v106.96c0,1.59-1.6,2.72-3.85,2.72h-90.75c-2.24,0-3.85-1.13-3.85-2.72v-16.5c0-1.59-1.6-2.72-3.85-2.72h-23.41c-2.24,0-3.85-1.13-3.85-2.71v-41.15c0-1.59,1.6-2.71,3.85-2.71h23.41c2.25,0,3.85-1.13,3.85-2.72v-16.5c0-1.59,1.6-2.72,3.85-2.72ZM713.76,211.47h49.39c2.25,0,3.85-1.13,3.85-2.71v-35.73c0-1.58-1.6-2.71-3.85-2.71h-49.39c-2.24,0-3.85,1.13-3.85,2.71v35.73c0,1.58,1.6,2.71,3.85,2.71Z" fill="#7caa4a"/></svg>