<?xml version="1.0" encoding="UTF-8"?><svg id="_レイヤー_1" xmlns="http://www.w3.org/2000/svg" width="1217.55" height="1189.2" viewBox="0 0 1217.55 1189.2"><path d="M1150.86,774.35v-54.69c0-.55-.45-1-1-1h-54.7c-.55,0-1-.45-1-1v-26.35c0-.55-.45-1-1-1h-54.69c-.55,0-1-.45-1-1v-26.34c0-.55-.45-1-1-1h-118.38c-.55,0-1,.45-1,1v26.34c0,.55-.45,1-1,1h-54.7c-.55,0-1,.45-1,1v26.35c0,.55-.45,1-1,1h-189.42c-.55,0-1-.45-1-1v-19.35c0-.55.45-1,1-1h83.04c.55,0,1-.45,1-1v-26.34c0-.55.45-1,1-1h54.69c.55,0,1-.45,1-1v-26.35c0-.55.45-1,1-1h26.35c.55,0,1-.45,1-1v-26.34c0-.55.45-1,1-1h26.34c.55,0,1-.45,1-1v-26.35c0-.55.45-1,1-1h26.35c.55,0,1-.45,1-1v-54.69c0-.55.45-1,1-1h26.35c.55,0,1-.45,1-1v-26.35c0-.55.45-1,1-1h26.34c.55,0,1-.45,1-1v-203.43c0-.55-.45-1-1-1h-26.34c-.55,0-1-.45-1-1v-111.38c0-.55-.45-1-1-1h-26.35c-.55,0-1-.45-1-1V11c0-.55-.45-1-1-1h-118.39c-.55,0-1,.45-1,1v26.35c0,.55-.45,1-1,1H188.08c-.55,0-1-.45-1-1V11c0-.55-.45-1-1-1h-118.39c-.55,0-1,.45-1,1v168.08c0,.55-.45,1-1,1h-26.34c-.55,0-1,.45-1,1v111.38c0,.55-.45,1-1,1H11c-.55,0-1,.45-1,1v203.43c0,.55.45,1,1,1h26.35c.55,0,1,.45,1,1v54.69c0,.55.45,1,1,1h26.34c.55,0,1,.45,1,1v26.35c0,.55.45,1,1,1h26.35c.55,0,1,.45,1,1v26.35c0,.55.45,1,1,1h26.34c.55,0,1,.45,1,1v26.34c0,.55.45,1,1,1h26.35c.55,0,1,.45,1,1v26.35c0,.55.45,1,1,1h54.69c.55,0,1,.45,1,1v26.34c0,.55.45,1,1,1h83.04c.55,0,1,.45,1,1v19.35c0,.55-.45,1-1,1h-54.69c-.55,0-1,.45-1,1v146.73c0,.55.45,1,1,1h26.35c.55,0,1,.45,1,1v19.35c0,.55-.45,1-1,1h-26.35c-.55,0-1,.45-1,1v83.04c0,.55-.45,1-1,1h-26.35c-.55,0-1,.45-1,1v54.69c0,.55-.45,1-1,1h-26.34c-.55,0-1,.45-1,1v54.7c0,.55-.45,1-1,1h-26.35c-.55,0-1,.45-1,1v26.34c0,.55-.45,1-1,1h-26.35c-.55,0-1,.45-1,1v61.69c0,.55.45,1,1,1h90.04c.55,0,1-.45,1-1v-26.34c0-.55.45-1,1-1h26.35c.55,0,1-.45,1-1v-54.69c0-.55.45-1,1-1h26.35c.55,0,1-.45,1-1v-26.35c0-.55.45-1,1-1h26.34c.55,0,1-.45,1-1v-83.04c0-.55.45-1,1-1h26.35c.55,0,1-.45,1-1v-54.69c0-.55.45-1,1-1h26.35c.55,0,1-.45,1-1v-83.04c0-.55.45-1,1-1h19.34c.55,0,1,.45,1,1v189.42c0,.55-.45,1-1,1h-26.34c-.55,0-1,.45-1,1v54.7c0,.55-.45,1-1,1h-26.35c-.55,0-1,.45-1,1v26.34c0,.55-.45,1-1,1h-26.35c-.55,0-1,.45-1,1v61.69c0,.55.45,1,1,1h118.39c.55,0,1-.45,1-1v-26.34c0-.55.45-1,1-1h26.35c.55,0,1-.45,1-1v-168.08c0-.55.45-1,1-1h26.34c.55,0,1-.45,1-1v-111.39c0-.55.45-1,1-1h19.35c.55,0,1,.45,1,1v111.39c0,.55.45,1,1,1h26.35c.55,0,1,.45,1,1v168.08c0,.55.45,1,1,1h54.69c.55,0,1,.45,1,1v26.34c0,.55.45,1,1,1h90.04c.55,0,1-.45,1-1v-61.69c0-.55-.45-1-1-1h-26.35c-.55,0-1-.45-1-1v-54.69c0-.55-.45-1-1-1h-26.35c-.55,0-1-.45-1-1v-54.69c0-.55-.45-1-1-1h-26.34c-.55,0-1-.45-1-1v-161.08c0-.55.45-1,1-1h19.34c.55,0,1,.45,1,1v83.04c0,.55.45,1,1,1h26.35c.55,0,1,.45,1,1v54.69c0,.55.45,1,1,1h26.35c.55,0,1,.45,1,1v83.04c0,.55.45,1,1,1h26.34c.55,0,1,.45,1,1v26.35c0,.55.45,1,1,1h26.35c.55,0,1,.45,1,1v54.69c0,.55.45,1,1,1h26.35c.55,0,1,.45,1,1v26.34c0,.55.45,1,1,1h90.04c.55,0,1-.45,1-1v-61.69c0-.55-.45-1-1-1h-26.35c-.55,0-1-.45-1-1v-26.34c0-.55-.45-1-1-1h-26.35c-.55,0-1-.45-1-1v-54.7c0-.55-.45-1-1-1h-26.34c-.55,0-1-.45-1-1v-54.69c0-.55-.45-1-1-1h-26.35c-.55,0-1-.45-1-1v-83.04c0-.55-.45-1-1-1h-26.35c-.55,0-1-.45-1-1v-19.35c0-.55.45-1,1-1h139.74c.55,0,1-.45,1-1v-26.34c0-.55.45-1,1-1h54.69c.55,0,1-.45,1-1v-26.35c0-.55.45-1,1-1h54.69c.55,0,1-.45,1-1v-26.35c0-.55.45-1,1-1h54.69c.55,0,1-.45,1-1v-26.34c0-.55.45-1,1-1h76.04c.55,0,1,.45,1,1v26.34c0,.55.45,1,1,1h54.7c.55,0,1,.45,1,1v26.35c0,.55.45,1,1,1h61.69c.55,0,1-.45,1-1v-33.35c0-.55-.45-1-1-1h-54.69c-.55,0-1-.45-1-1ZM1199.55,803.7h-47.69c-.55,0-1-.45-1-1v-19.35c0-.55.45-1,1-1h47.69c.55,0,1,.45,1,1v19.35c0,.55-.45,1-1,1ZM1094.16,774.35v-26.34c0-.55-.45-1-1-1h-90.04c-.55,0-1,.45-1,1v26.34c0,.55-.45,1-1,1h-54.69c-.55,0-1,.45-1,1v26.35c0,.55-.45,1-1,1h-54.69c-.55,0-1,.45-1,1v26.35c0,.55-.45,1-1,1h-54.69c-.55,0-1,.45-1,1v26.34c0,.55-.45,1-1,1h-139.74c-.55,0-1,.45-1,1v33.35c0,.55.45,1,1,1h26.35c.55,0,1,.45,1,1v83.04c0,.55.45,1,1,1h26.35c.55,0,1,.45,1,1v54.69c0,.55.45,1,1,1h26.34c.55,0,1,.45,1,1v54.7c0,.55.45,1,1,1h26.35c.55,0,1,.45,1,1v26.34c0,.55.45,1,1,1h26.35c.55,0,1,.45,1,1v47.69c0,.55-.45,1-1,1h-76.04c-.55,0-1-.45-1-1v-26.34c0-.55-.45-1-1-1h-26.35c-.55,0-1-.45-1-1v-54.69c0-.55-.45-1-1-1h-26.35c-.55,0-1-.45-1-1v-26.35c0-.55-.45-1-1-1h-26.34c-.55,0-1-.45-1-1v-83.04c0-.55-.45-1-1-1h-26.35c-.55,0-1-.45-1-1v-54.69c0-.55-.45-1-1-1h-26.35c-.55,0-1-.45-1-1v-83.04c0-.55-.45-1-1-1h-33.34c-.55,0-1,.45-1,1v175.08c0,.55.45,1,1,1h26.34c.55,0,1,.45,1,1v54.69c0,.55.45,1,1,1h26.35c.55,0,1,.45,1,1v54.69c0,.55.45,1,1,1h26.35c.55,0,1,.45,1,1v47.69c0,.55-.45,1-1,1h-76.04c-.55,0-1-.45-1-1v-26.34c0-.55-.45-1-1-1h-54.69c-.55,0-1-.45-1-1v-168.08c0-.55-.45-1-1-1h-26.35c-.55,0-1-.45-1-1v-111.39c0-.55-.45-1-1-1h-33.35c-.55,0-1,.45-1,1v111.39c0,.55-.45,1-1,1h-26.34c-.55,0-1,.45-1,1v168.08c0,.55-.45,1-1,1h-26.35c-.55,0-1,.45-1,1v26.34c0,.55-.45,1-1,1h-104.39c-.55,0-1-.45-1-1v-47.69c0-.55.45-1,1-1h26.35c.55,0,1-.45,1-1v-26.34c0-.55.45-1,1-1h26.35c.55,0,1-.45,1-1v-54.7c0-.55.45-1,1-1h26.34c.55,0,1-.45,1-1v-203.42c0-.55-.45-1-1-1h-33.34c-.55,0-1,.45-1,1v83.04c0,.55-.45,1-1,1h-26.35c-.55,0-1,.45-1,1v54.69c0,.55-.45,1-1,1h-26.35c-.55,0-1,.45-1,1v83.04c0,.55-.45,1-1,1h-26.34c-.55,0-1,.45-1,1v26.35c0,.55-.45,1-1,1h-26.35c-.55,0-1,.45-1,1v54.69c0,.55-.45,1-1,1h-26.35c-.55,0-1,.45-1,1v26.34c0,.55-.45,1-1,1h-76.04c-.55,0-1-.45-1-1v-47.69c0-.55.45-1,1-1h26.35c.55,0,1-.45,1-1v-26.34c0-.55.45-1,1-1h26.35c.55,0,1-.45,1-1v-54.7c0-.55.45-1,1-1h26.34c.55,0,1-.45,1-1v-54.69c0-.55.45-1,1-1h26.35c.55,0,1-.45,1-1v-83.04c0-.55.45-1,1-1h26.35c.55,0,1-.45,1-1v-33.35c0-.55-.45-1-1-1h-26.35c-.55,0-1-.45-1-1v-132.73c0-.55.45-1,1-1h54.69c.55,0,1-.45,1-1v-33.35c0-.55-.45-1-1-1h-83.04c-.55,0-1-.45-1-1v-26.34c0-.55-.45-1-1-1h-54.69c-.55,0-1-.45-1-1v-26.35c0-.55-.45-1-1-1h-26.35c-.55,0-1-.45-1-1v-26.34c0-.55-.45-1-1-1h-26.34c-.55,0-1-.45-1-1v-26.35c0-.55-.45-1-1-1h-26.35c-.55,0-1-.45-1-1v-26.35c0-.55-.45-1-1-1h-26.34c-.55,0-1-.45-1-1v-54.69c0-.55-.45-1-1-1h-26.35c-.55,0-1-.45-1-1v-189.43c0-.55.45-1,1-1h26.35c.55,0,1-.45,1-1v-111.38c0-.55.45-1,1-1h26.34c.55,0,1-.45,1-1V18c0-.55.45-1,1-1h104.39c.55,0,1,.45,1,1v26.35c0,.55.45,1,1,1h600.27c.55,0,1-.45,1-1v-26.35c0-.55.45-1,1-1h104.39c.55,0,1,.45,1,1v168.08c0,.55.45,1,1,1h26.35c.55,0,1,.45,1,1v111.38c0,.55.45,1,1,1h26.34c.55,0,1,.45,1,1v189.43c0,.55-.45,1-1,1h-26.34c-.55,0-1,.45-1,1v26.35c0,.55-.45,1-1,1h-26.35c-.55,0-1,.45-1,1v54.69c0,.55-.45,1-1,1h-26.35c-.55,0-1,.45-1,1v26.35c0,.55-.45,1-1,1h-26.34c-.55,0-1,.45-1,1v26.34c0,.55-.45,1-1,1h-26.35c-.55,0-1,.45-1,1v26.35c0,.55-.45,1-1,1h-54.69c-.55,0-1,.45-1,1v26.34c0,.55-.45,1-1,1h-83.04c-.55,0-1,.45-1,1v33.35c0,.55.45,1,1,1h203.42c.55,0,1-.45,1-1v-26.35c0-.55.45-1,1-1h54.7c.55,0,1-.45,1-1v-26.34c0-.55.45-1,1-1h104.38c.55,0,1,.45,1,1v26.34c0,.55.45,1,1,1h54.69c.55,0,1,.45,1,1v26.35c0,.55.45,1,1,1h54.7c.55,0,1,.45,1,1v47.69c0,.55-.45,1-1,1h-47.7c-.55,0-1-.45-1-1Z" fill="#7caa4a"/><path d="M1143.86,726.66v47.69c0,.55-.45,1-1,1h-47.7c-.55,0-1-.45-1-1v-26.34c0-.55-.45-1-1-1h-90.04c-.55,0-1,.45-1,1v26.34c0,.55-.45,1-1,1h-54.69c-.55,0-1,.45-1,1v26.35c0,.55-.45,1-1,1h-54.69c-.55,0-1,.45-1,1v26.35c0,.55-.45,1-1,1h-54.69c-.55,0-1,.45-1,1v26.34c0,.55-.45,1-1,1h-139.74c-.55,0-1,.45-1,1v33.35c0,.55.45,1,1,1h26.35c.55,0,1,.45,1,1v83.04c0,.55.45,1,1,1h26.35c.55,0,1,.45,1,1v54.69c0,.55.45,1,1,1h26.34c.55,0,1,.45,1,1v54.7c0,.55.45,1,1,1h26.35c.55,0,1,.45,1,1v26.34c0,.55.45,1,1,1h26.35c.55,0,1,.45,1,1v47.69c0,.55-.45,1-1,1h-76.04c-.55,0-1-.45-1-1v-26.34c0-.55-.45-1-1-1h-26.35c-.55,0-1-.45-1-1v-54.69c0-.55-.45-1-1-1h-26.35c-.55,0-1-.45-1-1v-26.35c0-.55-.45-1-1-1h-26.34c-.55,0-1-.45-1-1v-83.04c0-.55-.45-1-1-1h-26.35c-.55,0-1-.45-1-1v-54.69c0-.55-.45-1-1-1h-26.35c-.55,0-1-.45-1-1v-83.04c0-.55-.45-1-1-1h-33.34c-.55,0-1,.45-1,1v175.08c0,.55.45,1,1,1h26.34c.55,0,1,.45,1,1v54.69c0,.55.45,1,1,1h26.35c.55,0,1,.45,1,1v54.69c0,.55.45,1,1,1h26.35c.55,0,1,.45,1,1v47.69c0,.55-.45,1-1,1h-76.04c-.55,0-1-.45-1-1v-26.34c0-.55-.45-1-1-1h-54.69c-.55,0-1-.45-1-1v-168.08c0-.55-.45-1-1-1h-26.35c-.55,0-1-.45-1-1v-111.39c0-.55-.45-1-1-1h-33.35c-.55,0-1,.45-1,1v111.39c0,.55-.45,1-1,1h-26.34c-.55,0-1,.45-1,1v168.08c0,.55-.45,1-1,1h-26.35c-.55,0-1,.45-1,1v26.34c0,.55-.45,1-1,1h-104.39c-.55,0-1-.45-1-1v-47.69c0-.55.45-1,1-1h26.35c.55,0,1-.45,1-1v-26.34c0-.55.45-1,1-1h26.35c.55,0,1-.45,1-1v-54.7c0-.55.45-1,1-1h26.34c.55,0,1-.45,1-1v-203.42c0-.55-.45-1-1-1h-33.34c-.55,0-1,.45-1,1v83.04c0,.55-.45,1-1,1h-26.35c-.55,0-1,.45-1,1v54.69c0,.55-.45,1-1,1h-26.35c-.55,0-1,.45-1,1v83.04c0,.55-.45,1-1,1h-26.34c-.55,0-1,.45-1,1v26.35c0,.55-.45,1-1,1h-26.35c-.55,0-1,.45-1,1v54.69c0,.55-.45,1-1,1h-26.35c-.55,0-1,.45-1,1v26.34c0,.55-.45,1-1,1h-76.04c-.55,0-1-.45-1-1v-47.69c0-.55.45-1,1-1h26.35c.55,0,1-.45,1-1v-26.34c0-.55.45-1,1-1h26.35c.55,0,1-.45,1-1v-54.7c0-.55.45-1,1-1h26.34c.55,0,1-.45,1-1v-54.69c0-.55.45-1,1-1h26.35c.55,0,1-.45,1-1v-83.04c0-.55.45-1,1-1h26.35c.55,0,1-.45,1-1v-33.35c0-.55-.45-1-1-1h-26.35c-.55,0-1-.45-1-1v-132.73c0-.55.45-1,1-1h54.69c.55,0,1-.45,1-1v-33.35c0-.55-.45-1-1-1h-83.04c-.55,0-1-.45-1-1v-26.34c0-.55-.45-1-1-1h-54.69c-.55,0-1-.45-1-1v-26.35c0-.55-.45-1-1-1h-26.35c-.55,0-1-.45-1-1v-26.34c0-.55-.45-1-1-1h-26.34c-.55,0-1-.45-1-1v-26.35c0-.55-.45-1-1-1h-26.35c-.55,0-1-.45-1-1v-26.35c0-.55-.45-1-1-1h-26.34c-.55,0-1-.45-1-1v-54.69c0-.55-.45-1-1-1h-26.35c-.55,0-1-.45-1-1v-189.43c0-.55.45-1,1-1h26.35c.55,0,1-.45,1-1v-111.38c0-.55.45-1,1-1h26.34c.55,0,1-.45,1-1V18c0-.55.45-1,1-1h104.39c.55,0,1,.45,1,1v26.35c0,.55.45,1,1,1h600.27c.55,0,1-.45,1-1v-26.35c0-.55.45-1,1-1h104.39c.55,0,1,.45,1,1v168.08c0,.55.45,1,1,1h26.35c.55,0,1,.45,1,1v111.38c0,.55.45,1,1,1h26.34c.55,0,1,.45,1,1v189.43c0,.55-.45,1-1,1h-26.34c-.55,0-1,.45-1,1v26.35c0,.55-.45,1-1,1h-26.35c-.55,0-1,.45-1,1v54.69c0,.55-.45,1-1,1h-26.35c-.55,0-1,.45-1,1v26.35c0,.55-.45,1-1,1h-26.34c-.55,0-1,.45-1,1v26.34c0,.55-.45,1-1,1h-26.35c-.55,0-1,.45-1,1v26.35c0,.55-.45,1-1,1h-54.69c-.55,0-1,.45-1,1v26.34c0,.55-.45,1-1,1h-83.04c-.55,0-1,.45-1,1v33.35c0,.55.45,1,1,1h203.42c.55,0,1-.45,1-1v-26.35c0-.55.45-1,1-1h54.7c.55,0,1-.45,1-1v-26.34c0-.55.45-1,1-1h104.38c.55,0,1,.45,1,1v26.34c0,.55.45,1,1,1h54.69c.55,0,1,.45,1,1v26.35c0,.55.45,1,1,1h54.7c.55,0,1,.45,1,1Z" fill="#171917"/><rect x="1150.86" y="782.35" width="49.69" height="21.35" rx="1" ry="1" fill="#171917"/></svg>