<?xml version="1.0" encoding="UTF-8"?><svg id="_レイヤー_1" xmlns="http://www.w3.org/2000/svg" width="2386.02" height="1012.84" viewBox="0 0 2386.02 1012.84"><path d="M2330.85,620.82v41.31c0,.48-.39.87-.87.87h-41.32c-.48,0-.87-.39-.87-.87v-22.82c0-.48-.39-.87-.87-.87h-78c-.48,0-.87.39-.87.87v22.82c0,.48-.39.87-.87.87h-47.38c-.48,0-.87.39-.87.87v22.82c0,.48-.39.87-.87.87h-47.38c-.48,0-.87.39-.87.87v22.82c0,.48-.39.87-.87.87h-47.38c-.48,0-.87.39-.87.87v22.82c0,.48-.39.87-.87.87h-121.05c-.48,0-.87.39-.87.87v28.88c0,.48.39.87.87.87h22.83c.48,0,.87.39.87.87v71.94c0,.48.39.87.87.87h22.82c.48,0,.87.39.87.87v47.38c0,.48.39.87.87.87h22.83c.48,0,.87.39.87.87v47.38c0,.48.39.87.87.87h22.83c.48,0,.87.39.87.87v22.82c0,.48.39.87.87.87h22.83c.48,0,.87.39.87.87v41.32c0,.48-.39.87-.87.87h-65.88c-.48,0-.87-.39-.87-.87v-22.82c0-.48-.39-.87-.87-.87h-22.82c-.48,0-.87-.39-.87-.87v-47.38c0-.48-.39-.87-.87-.87h-22.83c-.48,0-.87-.39-.87-.87v-22.82c0-.48-.39-.87-.87-.87h-22.82c-.48,0-.87-.39-.87-.87v-71.94c0-.48-.39-.87-.87-.87h-22.83c-.48,0-.87-.39-.87-.87v-47.38c0-.48-.39-.87-.87-.87h-22.83c-.48,0-.87-.39-.87-.87v-71.94c0-.48-.39-.87-.87-.87h-28.88c-.48,0-.87.39-.87.87v151.66c0,.48.39.87.87.87h22.83c.48,0,.87.39.87.87v47.38c0,.48.39.87.87.87h22.83c.48,0,.87.39.87.87v47.38c0,.48.39.87.87.87h22.83c.48,0,.87.39.87.87v41.32c0,.48-.39.87-.87.87h-65.88c-.48,0-.87-.39-.87-.87v-22.82c0-.48-.39-.87-.87-.87h-22.82c-.48,0-.87-.39-.87-.87v-47.38c0-.48-.39-.87-.87-.87h-22.83c-.48,0-.87-.39-.87-.87v-96.49c0-.48-.39-.87-.87-.87h-22.83c-.48,0-.87-.39-.87-.87v-96.49c0-.48-.39-.87-.87-.87h-28.88c-.48,0-.87.39-.87.87v96.49c0,.48-.39.87-.87.87h-22.83c-.48,0-.87.39-.87.87v96.49c0,.48-.39.87-.87.87h-22.83c-.48,0-.87.39-.87.87v47.38c0,.48-.39.87-.87.87h-22.83c-.48,0-.87.39-.87.87v22.82c0,.48-.39.87-.87.87h-65.88c-.48,0-.87-.39-.87-.87v-41.32c0-.48.39-.87.87-.87h22.83c.48,0,.87-.39.87-.87v-47.38c0-.48.39-.87.87-.87h22.82c.48,0,.87-.39.87-.87v-47.38c0-.48.39-.87.87-.87h22.83c.48,0,.87-.39.87-.87v-151.66c0-.48-.39-.87-.87-.87h-28.88c-.48,0-.87.39-.87.87v71.94c0,.48-.39.87-.87.87h-22.82c-.48,0-.87.39-.87.87v47.38c0,.48-.39.87-.87.87h-22.83c-.48,0-.87.39-.87.87v71.94c0,.48-.39.87-.87.87h-22.83c-.48,0-.87.39-.87.87v22.82c0,.48-.39.87-.87.87h-22.83c-.48,0-.87.39-.87.87v47.38c0,.48-.39.87-.87.87h-22.82c-.48,0-.87.39-.87.87v22.82c0,.48-.39.87-.87.87h-65.88c-.48,0-.87-.39-.87-.87v-41.32c0-.48.39-.87.87-.87h22.83c.48,0,.87-.39.87-.87v-22.82c0-.48.39-.87.87-.87h22.83c.48,0,.87-.39.87-.87v-47.38c0-.48.39-.87.87-.87h22.83c.48,0,.87-.39.87-.87v-47.38c0-.48.39-.87.87-.87h22.82c.48,0,.87-.39.87-.87v-71.94c0-.48.39-.87.87-.87h22.83c.48,0,.87-.39.87-.87v-28.88c0-.48-.39-.87-.87-.87H326.14c-.48,0-.87-.39-.87-.87v-22.82c0-.48-.39-.87-.87-.87h-47.38c-.48,0-.87-.39-.87-.87v-22.82c0-.48-.39-.87-.87-.87h-47.37c-.48,0-.87-.39-.87-.87v-22.82c0-.48-.39-.87-.87-.87h-47.38c-.48,0-.87-.39-.87-.87v-22.82c0-.48-.39-.87-.87-.87h-78c-.48,0-.87.39-.87.87v22.82c0,.48-.39.87-.87.87h-41.32c-.48,0-.87-.39-.87-.87v-41.31c0-.48.39-.87.87-.87h47.38c.48,0,.87-.39.87-.87v-22.82c0-.48.39-.87.87-.87h47.38c.48,0,.87-.39.87-.87v-22.82c0-.48.39-.87.87-.87h90.43c.48,0,.87.39.87.87v22.82c0,.48.39.87.87.87h47.38c.48,0,.87.39.87.87v22.82c0,.48.39.87.87.87h1303.84c.48,0,.87-.39.87-.87v-28.88c0-.48-.39-.87-.87-.87h-71.94c-.48,0-.87-.39-.87-.87v-22.82c0-.48-.39-.87-.87-.87h-47.38c-.48,0-.87-.39-.87-.87v-22.82c0-.48-.39-.87-.87-.87h-22.83c-.48,0-.87-.39-.87-.87v-22.82c0-.48-.39-.87-.87-.87h-22.83c-.48,0-.87-.39-.87-.87v-22.82c0-.48-.39-.87-.87-.87h-22.82c-.48,0-.87-.39-.87-.87v-47.38c0-.48-.39-.87-.87-.87h-22.82c-.48,0-.87-.39-.87-.87v-22.82c0-.48-.39-.87-.87-.87h-22.83c-.48,0-.87-.39-.87-.87v-164.1c0-.48.39-.87.87-.87h22.83c.48,0,.87-.39.87-.87v-96.48c0-.48.39-.87.87-.87h22.82c.48,0,.87-.39.87-.87V6.92c0-.48.39-.87.87-.87h90.43c.48,0,.87.39.87.87v22.82c0,.48.39.87.87.87h520c.48,0,.87-.39.87-.87V6.92c0-.48.39-.87.87-.87h90.43c.48,0,.87.39.87.87v145.61c0,.48.39.87.87.87h22.83c.48,0,.87.39.87.87v96.48c0,.48.39.87.87.87h22.83c.48,0,.87.39.87.87v164.1c0,.48-.39.87-.87.87h-22.83c-.48,0-.87.39-.87.87v22.82c0,.48-.39.87-.87.87h-22.83c-.48,0-.87.39-.87.87v47.38c0,.48-.39.87-.87.87h-22.82c-.48,0-.87.39-.87.87v22.82c0,.48-.39.87-.87.87h-22.83c-.48,0-.87.39-.87.87v22.82c0,.48-.39.87-.87.87h-22.83c-.48,0-.87.39-.87.87v22.82c0,.48-.39.87-.87.87h-47.38c-.48,0-.87.39-.87.87v22.82c0,.48-.39.87-.87.87h-71.93c-.48,0-.87.39-.87.87v28.88c0,.48.39.87.87.87h176.21c.48,0,.87-.39.87-.87v-22.82c0-.48.39-.87.87-.87h47.38c.48,0,.87-.39.87-.87v-22.82c0-.48.39-.87.87-.87h90.43c.48,0,.87.39.87.87v22.82c0,.48.39.87.87.87h47.38c.48,0,.87.39.87.87v22.82c0,.48.39.87.87.87h47.38c.48,0,.87.39.87.87Z" fill="#171917"/><rect x="6.06" y="669.05" width="43.05" height="18.5" rx=".87" ry=".87" fill="#171917"/><rect x="2336.91" y="669.05" width="43.05" height="18.5" rx=".87" ry=".87" fill="#171917"/><path d="M2336.91,662.13v-47.37c0-.48-.39-.87-.87-.87h-47.38c-.48,0-.87-.39-.87-.87v-22.82c0-.48-.39-.87-.87-.87h-47.38c-.48,0-.87-.39-.87-.87v-22.82c0-.48-.39-.87-.87-.87h-102.55c-.48,0-.87.39-.87.87v22.82c0,.48-.39.87-.87.87h-47.38c-.48,0-.87.39-.87.87v22.82c0,.48-.39.87-.87.87h-164.09c-.48,0-.87-.39-.87-.87v-16.77c0-.48.39-.87.87-.87h71.93c.48,0,.87-.39.87-.87v-22.82c0-.48.39-.87.87-.87h47.38c.48,0,.87-.39.87-.87v-22.82c0-.48.39-.87.87-.87h22.83c.48,0,.87-.39.87-.87v-22.82c0-.48.39-.87.87-.87h22.83c.48,0,.87-.39.87-.87v-22.82c0-.48.39-.87.87-.87h22.82c.48,0,.87-.39.87-.87v-47.38c0-.48.39-.87.87-.87h22.83c.48,0,.87-.39.87-.87v-22.82c0-.48.39-.87.87-.87h22.83c.48,0,.87-.39.87-.87v-176.22c0-.48-.39-.87-.87-.87h-22.83c-.48,0-.87-.39-.87-.87v-96.48c0-.48-.39-.87-.87-.87h-22.83c-.48,0-.87-.39-.87-.87V.87c0-.48-.39-.87-.87-.87h-102.55c-.48,0-.87.39-.87.87v22.82c0,.48-.39.87-.87.87h-507.88c-.48,0-.87-.39-.87-.87V.87c0-.48-.39-.87-.87-.87h-102.54c-.48,0-.87.39-.87.87v145.61c0,.48-.39.87-.87.87h-22.82c-.48,0-.87.39-.87.87v96.48c0,.48-.39.87-.87.87h-22.83c-.48,0-.87.39-.87.87v176.22c0,.48.39.87.87.87h22.83c.48,0,.87.39.87.87v22.82c0,.48.39.87.87.87h22.82c.48,0,.87.39.87.87v47.38c0,.48.39.87.87.87h22.82c.48,0,.87.39.87.87v22.82c0,.48.39.87.87.87h22.83c.48,0,.87.39.87.87v22.82c0,.48.39.87.87.87h22.83c.48,0,.87.39.87.87v22.82c0,.48.39.87.87.87h47.38c.48,0,.87.39.87.87v22.82c0,.48.39.87.87.87h71.94c.48,0,.87.39.87.87v16.77c0,.48-.39.87-.87.87H301.59c-.48,0-.87-.39-.87-.87v-22.82c0-.48-.39-.87-.87-.87h-47.38c-.48,0-.87-.39-.87-.87v-22.82c0-.48-.39-.87-.87-.87h-102.54c-.48,0-.87.39-.87.87v22.82c0,.48-.39.87-.87.87h-47.38c-.48,0-.87.39-.87.87v22.82c0,.48-.39.87-.87.87h-47.38c-.48,0-.87.39-.87.87v47.37c0,.48-.39.87-.87.87H.87c-.48,0-.87.39-.87.87v28.88c0,.48.39.87.87.87h53.44c.48,0,.87-.39.87-.87v-22.82c0-.48.39-.87.87-.87h47.38c.48,0,.87-.39.87-.87v-22.82c0-.48.39-.87.87-.87h65.88c.48,0,.87.39.87.87v22.82c0,.48.39.87.87.87h47.38c.48,0,.87.39.87.87v22.82c0,.48.39.87.87.87h47.37c.48,0,.87.39.87.87v22.82c0,.48.39.87.87.87h47.38c.48,0,.87.39.87.87v22.82c0,.48.39.87.87.87h1248.67c.48,0,.87.39.87.87v16.77c0,.48-.39.87-.87.87h-22.83c-.48,0-.87.39-.87.87v71.94c0,.48-.39.87-.87.87h-22.82c-.48,0-.87.39-.87.87v47.38c0,.48-.39.87-.87.87h-22.83c-.48,0-.87.39-.87.87v47.38c0,.48-.39.87-.87.87h-22.83c-.48,0-.87.39-.87.87v22.82c0,.48-.39.87-.87.87h-22.83c-.48,0-.87.39-.87.87v53.44c0,.48.39.87.87.87h78c.48,0,.87-.39.87-.87v-22.82c0-.48.39-.87.87-.87h22.82c.48,0,.87-.39.87-.87v-47.38c0-.48.39-.87.87-.87h22.83c.48,0,.87-.39.87-.87v-22.82c0-.48.39-.87.87-.87h22.83c.48,0,.87-.39.87-.87v-71.94c0-.48.39-.87.87-.87h22.83c.48,0,.87-.39.87-.87v-47.38c0-.48.39-.87.87-.87h22.82c.48,0,.87-.39.87-.87v-71.94c0-.48.39-.87.87-.87h16.77c.48,0,.87.39.87.87v139.55c0,.48-.39.87-.87.87h-22.83c-.48,0-.87.39-.87.87v47.38c0,.48-.39.87-.87.87h-22.82c-.48,0-.87.39-.87.87v47.38c0,.48-.39.87-.87.87h-22.83c-.48,0-.87.39-.87.87v53.44c0,.48.39.87.87.87h78c.48,0,.87-.39.87-.87v-22.82c0-.48.39-.87.87-.87h22.83c.48,0,.87-.39.87-.87v-47.38c0-.48.39-.87.87-.87h22.83c.48,0,.87-.39.87-.87v-96.49c0-.48.39-.87.87-.87h22.83c.48,0,.87-.39.87-.87v-96.49c0-.48.39-.87.87-.87h16.77c.48,0,.87.39.87.87v96.49c0,.48.39.87.87.87h22.83c.48,0,.87.39.87.87v96.49c0,.48.39.87.87.87h22.83c.48,0,.87.39.87.87v47.38c0,.48.39.87.87.87h22.82c.48,0,.87.39.87.87v22.82c0,.48.39.87.87.87h78c.48,0,.87-.39.87-.87v-53.44c0-.48-.39-.87-.87-.87h-22.83c-.48,0-.87-.39-.87-.87v-47.38c0-.48-.39-.87-.87-.87h-22.83c-.48,0-.87-.39-.87-.87v-47.38c0-.48-.39-.87-.87-.87h-22.83c-.48,0-.87-.39-.87-.87v-139.55c0-.48.39-.87.87-.87h16.77c.48,0,.87.39.87.87v71.94c0,.48.39.87.87.87h22.83c.48,0,.87.39.87.87v47.38c0,.48.39.87.87.87h22.83c.48,0,.87.39.87.87v71.94c0,.48.39.87.87.87h22.82c.48,0,.87.39.87.87v22.82c0,.48.39.87.87.87h22.83c.48,0,.87.39.87.87v47.38c0,.48.39.87.87.87h22.82c.48,0,.87.39.87.87v22.82c0,.48.39.87.87.87h78c.48,0,.87-.39.87-.87v-53.44c0-.48-.39-.87-.87-.87h-22.83c-.48,0-.87-.39-.87-.87v-22.82c0-.48-.39-.87-.87-.87h-22.83c-.48,0-.87-.39-.87-.87v-47.38c0-.48-.39-.87-.87-.87h-22.83c-.48,0-.87-.39-.87-.87v-47.38c0-.48-.39-.87-.87-.87h-22.82c-.48,0-.87-.39-.87-.87v-71.94c0-.48-.39-.87-.87-.87h-22.83c-.48,0-.87-.39-.87-.87v-16.77c0-.48.39-.87.87-.87h121.05c.48,0,.87-.39.87-.87v-22.82c0-.48.39-.87.87-.87h47.38c.48,0,.87-.39.87-.87v-22.82c0-.48.39-.87.87-.87h47.38c.48,0,.87-.39.87-.87v-22.82c0-.48.39-.87.87-.87h47.38c.48,0,.87-.39.87-.87v-22.82c0-.48.39-.87.87-.87h65.88c.48,0,.87.39.87.87v22.82c0,.48.39.87.87.87h47.38c.48,0,.87.39.87.87v22.82c0,.48.39.87.87.87h53.44c.48,0,.87-.39.87-.87v-28.88c0-.48-.39-.87-.87-.87h-47.38c-.48,0-.87-.39-.87-.87ZM48.25,687.55H6.92c-.48,0-.87-.39-.87-.87v-16.77c0-.48.39-.87.87-.87h41.32c.48,0,.87.39.87.87v16.77c0,.48-.39.87-.87.87ZM2287.8,662.13v-22.82c0-.48-.39-.87-.87-.87h-78c-.48,0-.87.39-.87.87v22.82c0,.48-.39.87-.87.87h-47.38c-.48,0-.87.39-.87.87v22.82c0,.48-.39.87-.87.87h-47.38c-.48,0-.87.39-.87.87v22.82c0,.48-.39.87-.87.87h-47.38c-.48,0-.87.39-.87.87v22.82c0,.48-.39.87-.87.87h-121.05c-.48,0-.87.39-.87.87v28.88c0,.48.39.87.87.87h22.83c.48,0,.87.39.87.87v71.94c0,.48.39.87.87.87h22.82c.48,0,.87.39.87.87v47.38c0,.48.39.87.87.87h22.83c.48,0,.87.39.87.87v47.38c0,.48.39.87.87.87h22.83c.48,0,.87.39.87.87v22.82c0,.48.39.87.87.87h22.83c.48,0,.87.39.87.87v41.32c0,.48-.39.87-.87.87h-65.88c-.48,0-.87-.39-.87-.87v-22.82c0-.48-.39-.87-.87-.87h-22.82c-.48,0-.87-.39-.87-.87v-47.38c0-.48-.39-.87-.87-.87h-22.83c-.48,0-.87-.39-.87-.87v-22.82c0-.48-.39-.87-.87-.87h-22.82c-.48,0-.87-.39-.87-.87v-71.94c0-.48-.39-.87-.87-.87h-22.83c-.48,0-.87-.39-.87-.87v-47.38c0-.48-.39-.87-.87-.87h-22.83c-.48,0-.87-.39-.87-.87v-71.94c0-.48-.39-.87-.87-.87h-28.88c-.48,0-.87.39-.87.87v151.66c0,.48.39.87.87.87h22.83c.48,0,.87.39.87.87v47.38c0,.48.39.87.87.87h22.83c.48,0,.87.39.87.87v47.38c0,.48.39.87.87.87h22.83c.48,0,.87.39.87.87v41.32c0,.48-.39.87-.87.87h-65.88c-.48,0-.87-.39-.87-.87v-22.82c0-.48-.39-.87-.87-.87h-22.82c-.48,0-.87-.39-.87-.87v-47.38c0-.48-.39-.87-.87-.87h-22.83c-.48,0-.87-.39-.87-.87v-96.49c0-.48-.39-.87-.87-.87h-22.83c-.48,0-.87-.39-.87-.87v-96.49c0-.48-.39-.87-.87-.87h-28.88c-.48,0-.87.39-.87.87v96.49c0,.48-.39.87-.87.87h-22.83c-.48,0-.87.39-.87.87v96.49c0,.48-.39.87-.87.87h-22.83c-.48,0-.87.39-.87.87v47.38c0,.48-.39.87-.87.87h-22.83c-.48,0-.87.39-.87.87v22.82c0,.48-.39.87-.87.87h-65.88c-.48,0-.87-.39-.87-.87v-41.32c0-.48.39-.87.87-.87h22.83c.48,0,.87-.39.87-.87v-47.38c0-.48.39-.87.87-.87h22.82c.48,0,.87-.39.87-.87v-47.38c0-.48.39-.87.87-.87h22.83c.48,0,.87-.39.87-.87v-151.66c0-.48-.39-.87-.87-.87h-28.88c-.48,0-.87.39-.87.87v71.94c0,.48-.39.87-.87.87h-22.82c-.48,0-.87.39-.87.87v47.38c0,.48-.39.87-.87.87h-22.83c-.48,0-.87.39-.87.87v71.94c0,.48-.39.87-.87.87h-22.83c-.48,0-.87.39-.87.87v22.82c0,.48-.39.87-.87.87h-22.83c-.48,0-.87.39-.87.87v47.38c0,.48-.39.87-.87.87h-22.82c-.48,0-.87.39-.87.87v22.82c0,.48-.39.87-.87.87h-65.88c-.48,0-.87-.39-.87-.87v-41.32c0-.48.39-.87.87-.87h22.83c.48,0,.87-.39.87-.87v-22.82c0-.48.39-.87.87-.87h22.83c.48,0,.87-.39.87-.87v-47.38c0-.48.39-.87.87-.87h22.83c.48,0,.87-.39.87-.87v-47.38c0-.48.39-.87.87-.87h22.82c.48,0,.87-.39.87-.87v-71.94c0-.48.39-.87.87-.87h22.83c.48,0,.87-.39.87-.87v-28.88c0-.48-.39-.87-.87-.87H326.14c-.48,0-.87-.39-.87-.87v-22.82c0-.48-.39-.87-.87-.87h-47.38c-.48,0-.87-.39-.87-.87v-22.82c0-.48-.39-.87-.87-.87h-47.37c-.48,0-.87-.39-.87-.87v-22.82c0-.48-.39-.87-.87-.87h-47.38c-.48,0-.87-.39-.87-.87v-22.82c0-.48-.39-.87-.87-.87h-78c-.48,0-.87.39-.87.87v22.82c0,.48-.39.87-.87.87h-41.32c-.48,0-.87-.39-.87-.87v-41.31c0-.48.39-.87.87-.87h47.38c.48,0,.87-.39.87-.87v-22.82c0-.48.39-.87.87-.87h47.38c.48,0,.87-.39.87-.87v-22.82c0-.48.39-.87.87-.87h90.43c.48,0,.87.39.87.87v22.82c0,.48.39.87.87.87h47.38c.48,0,.87.39.87.87v22.82c0,.48.39.87.87.87h1303.84c.48,0,.87-.39.87-.87v-28.88c0-.48-.39-.87-.87-.87h-71.94c-.48,0-.87-.39-.87-.87v-22.82c0-.48-.39-.87-.87-.87h-47.38c-.48,0-.87-.39-.87-.87v-22.82c0-.48-.39-.87-.87-.87h-22.83c-.48,0-.87-.39-.87-.87v-22.82c0-.48-.39-.87-.87-.87h-22.83c-.48,0-.87-.39-.87-.87v-22.82c0-.48-.39-.87-.87-.87h-22.82c-.48,0-.87-.39-.87-.87v-47.38c0-.48-.39-.87-.87-.87h-22.82c-.48,0-.87-.39-.87-.87v-22.82c0-.48-.39-.87-.87-.87h-22.83c-.48,0-.87-.39-.87-.87v-164.1c0-.48.39-.87.87-.87h22.83c.48,0,.87-.39.87-.87v-96.48c0-.48.39-.87.87-.87h22.82c.48,0,.87-.39.87-.87V6.92c0-.48.39-.87.87-.87h90.43c.48,0,.87.39.87.87v22.82c0,.48.39.87.87.87h520c.48,0,.87-.39.87-.87V6.92c0-.48.39-.87.87-.87h90.43c.48,0,.87.39.87.87v145.61c0,.48.39.87.87.87h22.83c.48,0,.87.39.87.87v96.48c0,.48.39.87.87.87h22.83c.48,0,.87.39.87.87v164.1c0,.48-.39.87-.87.87h-22.83c-.48,0-.87.39-.87.87v22.82c0,.48-.39.87-.87.87h-22.83c-.48,0-.87.39-.87.87v47.38c0,.48-.39.87-.87.87h-22.82c-.48,0-.87.39-.87.87v22.82c0,.48-.39.87-.87.87h-22.83c-.48,0-.87.39-.87.87v22.82c0,.48-.39.87-.87.87h-22.83c-.48,0-.87.39-.87.87v22.82c0,.48-.39.87-.87.87h-47.38c-.48,0-.87.39-.87.87v22.82c0,.48-.39.87-.87.87h-71.93c-.48,0-.87.39-.87.87v28.88c0,.48.39.87.87.87h176.21c.48,0,.87-.39.87-.87v-22.82c0-.48.39-.87.87-.87h47.38c.48,0,.87-.39.87-.87v-22.82c0-.48.39-.87.87-.87h90.43c.48,0,.87.39.87.87v22.82c0,.48.39.87.87.87h47.38c.48,0,.87.39.87.87v22.82c0,.48.39.87.87.87h47.38c.48,0,.87.39.87.87v41.31c0,.48-.39.87-.87.87h-41.32c-.48,0-.87-.39-.87-.87ZM2379.1,687.55h-41.32c-.48,0-.87-.39-.87-.87v-16.77c0-.48.39-.87.87-.87h41.32c.48,0,.87.39.87.87v16.77c0,.48-.39.87-.87.87Z" fill="#7caa4a"/></svg>