<?xml version="1.0" encoding="UTF-8"?><svg id="_レイヤー_1" xmlns="http://www.w3.org/2000/svg" width="1258.4" height="1012.85" viewBox="0 0 1258.4 1012.85"><rect x="6.06" y="669.06" width="43.05" height="18.5" rx=".87" ry=".87" fill="#171917"/><path d="M1209.29,662.14v-47.38c0-.48-.39-.87-.87-.87h-47.38c-.48,0-.87-.39-.87-.87v-22.82c0-.48-.39-.87-.87-.87h-47.38c-.48,0-.87-.39-.87-.87v-22.82c0-.48-.39-.87-.87-.87h-102.55c-.48,0-.87.39-.87.87v22.82c0,.48-.39.87-.87.87h-47.38c-.48,0-.87.39-.87.87v22.82c0,.48-.39.87-.87.87h-164.09c-.48,0-.87-.39-.87-.87v-16.77c0-.48.39-.87.87-.87h71.94c.48,0,.87-.39.87-.87v-22.82c0-.48.39-.87.87-.87h47.38c.48,0,.87-.39.87-.87v-22.82c0-.48.39-.87.87-.87h22.82c.48,0,.87-.39.87-.87v-22.82c0-.48.39-.87.87-.87h22.82c.48,0,.87-.39.87-.87v-22.82c0-.48.39-.87.87-.87h22.82c.48,0,.87-.39.87-.87v-47.38c0-.48.39-.87.87-.87h22.82c.48,0,.87-.39.87-.87v-22.82c0-.48.39-.87.87-.87h22.82c.48,0,.87-.39.87-.87v-176.22c0-.48-.39-.87-.87-.87h-22.82c-.48,0-.87-.39-.87-.87v-96.49c0-.48-.39-.87-.87-.87h-22.82c-.48,0-.87-.39-.87-.87V.87c0-.48-.39-.87-.87-.87h-102.54c-.48,0-.87.39-.87.87v22.82c0,.48-.39.87-.87.87h-507.88c-.48,0-.87-.39-.87-.87V.87c0-.48-.39-.87-.87-.87h-102.55c-.48,0-.87.39-.87.87v145.61c0,.48-.39.87-.87.87h-22.82c-.48,0-.87.39-.87.87v96.49c0,.48-.39.87-.87.87h-22.82c-.48,0-.87.39-.87.87v176.22c0,.48.39.87.87.87h22.82c.48,0,.87.39.87.87v22.82c0,.48.39.87.87.87h22.82c.48,0,.87.39.87.87v47.38c0,.48.39.87.87.87h22.82c.48,0,.87.39.87.87v22.82c0,.48.39.87.87.87h22.82c.48,0,.87.39.87.87v22.82c0,.48.39.87.87.87h22.82c.48,0,.87.39.87.87v22.82c0,.48.39.87.87.87h47.37c.48,0,.87.39.87.87v22.82c0,.48.39.87.87.87h71.94c.48,0,.87.39.87.87v16.77c0,.48-.39.87-.87.87h-164.09c-.48,0-.87-.39-.87-.87v-22.82c0-.48-.39-.87-.87-.87h-47.38c-.48,0-.87-.39-.87-.87v-22.82c0-.48-.39-.87-.87-.87h-102.55c-.48,0-.87.39-.87.87v22.82c0,.48-.39.87-.87.87h-47.38c-.48,0-.87.39-.87.87v22.82c0,.48-.39.87-.87.87h-47.38c-.48,0-.87.39-.87.87v47.38c0,.48-.39.87-.87.87H.87c-.48,0-.87.39-.87.87v28.88c0,.48.39.87.87.87h53.44c.48,0,.87-.39.87-.87v-22.82c0-.48.39-.87.87-.87h47.38c.48,0,.87-.39.87-.87v-22.82c0-.48.39-.87.87-.87h65.88c.48,0,.87.39.87.87v22.82c0,.48.39.87.87.87h47.38c.48,0,.87.39.87.87v22.82c0,.48.39.87.87.87h47.38c.48,0,.87.39.87.87v22.82c0,.48.39.87.87.87h47.38c.48,0,.87.39.87.87v22.82c0,.48.39.87.87.87h121.04c.48,0,.87.39.87.87v16.77c0,.48-.39.87-.87.87h-22.82c-.48,0-.87.39-.87.87v71.94c0,.48-.39.87-.87.87h-22.82c-.48,0-.87.39-.87.87v47.38c0,.48-.39.87-.87.87h-22.82c-.48,0-.87.39-.87.87v47.38c0,.48-.39.87-.87.87h-22.82c-.48,0-.87.39-.87.87v22.82c0,.48-.39.87-.87.87h-22.82c-.48,0-.87.39-.87.87v53.44c0,.48.39.87.87.87h77.99c.48,0,.87-.39.87-.87v-22.82c0-.48.39-.87.87-.87h22.82c.48,0,.87-.39.87-.87v-47.38c0-.48.39-.87.87-.87h22.82c.48,0,.87-.39.87-.87v-22.82c0-.48.39-.87.87-.87h22.82c.48,0,.87-.39.87-.87v-71.94c0-.48.39-.87.87-.87h22.82c.48,0,.87-.39.87-.87v-47.38c0-.48.39-.87.87-.87h22.82c.48,0,.87-.39.87-.87v-71.94c0-.48.39-.87.87-.87h16.77c.48,0,.87.39.87.87v139.55c0,.48-.39.87-.87.87h-22.82c-.48,0-.87.39-.87.87v47.38c0,.48-.39.87-.87.87h-22.82c-.48,0-.87.39-.87.87v47.38c0,.48-.39.87-.87.87h-22.82c-.48,0-.87.39-.87.87v53.44c0,.48.39.87.87.87h78c.48,0,.87-.39.87-.87v-22.82c0-.48.39-.87.87-.87h22.82c.48,0,.87-.39.87-.87v-47.38c0-.48.39-.87.87-.87h22.82c.48,0,.87-.39.87-.87v-96.49c0-.48.39-.87.87-.87h22.82c.48,0,.87-.39.87-.87v-96.49c0-.48.39-.87.87-.87h16.77c.48,0,.87.39.87.87v96.49c0,.48.39.87.87.87h22.82c.48,0,.87.39.87.87v96.49c0,.48.39.87.87.87h22.82c.48,0,.87.39.87.87v47.38c0,.48.39.87.87.87h22.82c.48,0,.87.39.87.87v22.82c0,.48.39.87.87.87h78c.48,0,.87-.39.87-.87v-53.44c0-.48-.39-.87-.87-.87h-22.82c-.48,0-.87-.39-.87-.87v-47.38c0-.48-.39-.87-.87-.87h-22.82c-.48,0-.87-.39-.87-.87v-47.38c0-.48-.39-.87-.87-.87h-22.82c-.48,0-.87-.39-.87-.87v-139.55c0-.48.39-.87.87-.87h16.77c.48,0,.87.39.87.87v71.94c0,.48.39.87.87.87h22.82c.48,0,.87.39.87.87v47.38c0,.48.39.87.87.87h22.82c.48,0,.87.39.87.87v71.94c0,.48.39.87.87.87h22.82c.48,0,.87.39.87.87v22.82c0,.48.39.87.87.87h22.82c.48,0,.87.39.87.87v47.38c0,.48.39.87.87.87h22.82c.48,0,.87.39.87.87v22.82c0,.48.39.87.87.87h77.99c.48,0,.87-.39.87-.87v-53.44c0-.48-.39-.87-.87-.87h-22.82c-.48,0-.87-.39-.87-.87v-22.82c0-.48-.39-.87-.87-.87h-22.82c-.48,0-.87-.39-.87-.87v-47.38c0-.48-.39-.87-.87-.87h-22.82c-.48,0-.87-.39-.87-.87v-47.38c0-.48-.39-.87-.87-.87h-22.82c-.48,0-.87-.39-.87-.87v-71.94c0-.48-.39-.87-.87-.87h-22.82c-.48,0-.87-.39-.87-.87v-16.77c0-.48.39-.87.87-.87h121.04c.48,0,.87-.39.87-.87v-22.82c0-.48.39-.87.87-.87h47.38c.48,0,.87-.39.87-.87v-22.82c0-.48.39-.87.87-.87h47.38c.48,0,.87-.39.87-.87v-22.82c0-.48.39-.87.87-.87h47.38c.48,0,.87-.39.87-.87v-22.82c0-.48.39-.87.87-.87h65.88c.48,0,.87.39.87.87v22.82c0,.48.39.87.87.87h47.38c.48,0,.87.39.87.87v22.82c0,.48.39.87.87.87h53.44c.48,0,.87-.39.87-.87v-28.88c0-.48-.39-.87-.87-.87h-47.38c-.48,0-.87-.39-.87-.87ZM48.25,687.56H6.92c-.48,0-.87-.39-.87-.87v-16.77c0-.48.39-.87.87-.87h41.32c.48,0,.87.39.87.87v16.77c0,.48-.39.87-.87.87ZM1251.47,687.56h-41.32c-.48,0-.87-.39-.87-.87v-16.77c0-.48.39-.87.87-.87h41.32c.48,0,.87.39.87.87v16.77c0,.48-.39.87-.87.87ZM1160.18,662.14v-22.82c0-.48-.39-.87-.87-.87h-78c-.48,0-.87.39-.87.87v22.82c0,.48-.39.87-.87.87h-47.38c-.48,0-.87.39-.87.87v22.82c0,.48-.39.87-.87.87h-47.38c-.48,0-.87.39-.87.87v22.82c0,.48-.39.87-.87.87h-47.38c-.48,0-.87.39-.87.87v22.82c0,.48-.39.87-.87.87h-121.04c-.48,0-.87.39-.87.87v28.88c0,.48.39.87.87.87h22.82c.48,0,.87.39.87.87v71.94c0,.48.39.87.87.87h22.82c.48,0,.87.39.87.87v47.38c0,.48.39.87.87.87h22.82c.48,0,.87.39.87.87v47.38c0,.48.39.87.87.87h22.82c.48,0,.87.39.87.87v22.82c0,.48.39.87.87.87h22.82c.48,0,.87.39.87.87v41.32c0,.48-.39.87-.87.87h-65.87c-.48,0-.87-.39-.87-.87v-22.82c0-.48-.39-.87-.87-.87h-22.82c-.48,0-.87-.39-.87-.87v-47.38c0-.48-.39-.87-.87-.87h-22.82c-.48,0-.87-.39-.87-.87v-22.82c0-.48-.39-.87-.87-.87h-22.82c-.48,0-.87-.39-.87-.87v-71.94c0-.48-.39-.87-.87-.87h-22.82c-.48,0-.87-.39-.87-.87v-47.38c0-.48-.39-.87-.87-.87h-22.82c-.48,0-.87-.39-.87-.87v-71.94c0-.48-.39-.87-.87-.87h-28.88c-.48,0-.87.39-.87.87v151.66c0,.48.39.87.87.87h22.82c.48,0,.87.39.87.87v47.38c0,.48.39.87.87.87h22.82c.48,0,.87.39.87.87v47.38c0,.48.39.87.87.87h22.82c.48,0,.87.39.87.87v41.32c0,.48-.39.87-.87.87h-65.88c-.48,0-.87-.39-.87-.87v-22.82c0-.48-.39-.87-.87-.87h-22.82c-.48,0-.87-.39-.87-.87v-47.38c0-.48-.39-.87-.87-.87h-22.82c-.48,0-.87-.39-.87-.87v-96.49c0-.48-.39-.87-.87-.87h-22.82c-.48,0-.87-.39-.87-.87v-96.49c0-.48-.39-.87-.87-.87h-28.88c-.48,0-.87.39-.87.87v96.49c0,.48-.39.87-.87.87h-22.82c-.48,0-.87.39-.87.87v96.49c0,.48-.39.87-.87.87h-22.82c-.48,0-.87.39-.87.87v47.38c0,.48-.39.87-.87.87h-22.82c-.48,0-.87.39-.87.87v22.82c0,.48-.39.87-.87.87h-65.88c-.48,0-.87-.39-.87-.87v-41.32c0-.48.39-.87.87-.87h22.82c.48,0,.87-.39.87-.87v-47.38c0-.48.39-.87.87-.87h22.82c.48,0,.87-.39.87-.87v-47.38c0-.48.39-.87.87-.87h22.82c.48,0,.87-.39.87-.87v-151.66c0-.48-.39-.87-.87-.87h-28.88c-.48,0-.87.39-.87.87v71.94c0,.48-.39.87-.87.87h-22.82c-.48,0-.87.39-.87.87v47.38c0,.48-.39.87-.87.87h-22.82c-.48,0-.87.39-.87.87v71.94c0,.48-.39.87-.87.87h-22.82c-.48,0-.87.39-.87.87v22.82c0,.48-.39.87-.87.87h-22.82c-.48,0-.87.39-.87.87v47.38c0,.48-.39.87-.87.87h-22.82c-.48,0-.87.39-.87.87v22.82c0,.48-.39.87-.87.87h-65.87c-.48,0-.87-.39-.87-.87v-41.32c0-.48.39-.87.87-.87h22.82c.48,0,.87-.39.87-.87v-22.82c0-.48.39-.87.87-.87h22.82c.48,0,.87-.39.87-.87v-47.38c0-.48.39-.87.87-.87h22.82c.48,0,.87-.39.87-.87v-47.38c0-.48.39-.87.87-.87h22.82c.48,0,.87-.39.87-.87v-71.94c0-.48.39-.87.87-.87h22.82c.48,0,.87-.39.87-.87v-28.88c0-.48-.39-.87-.87-.87h-121.04c-.48,0-.87-.39-.87-.87v-22.82c0-.48-.39-.87-.87-.87h-47.38c-.48,0-.87-.39-.87-.87v-22.82c0-.48-.39-.87-.87-.87h-47.38c-.48,0-.87-.39-.87-.87v-22.82c0-.48-.39-.87-.87-.87h-47.38c-.48,0-.87-.39-.87-.87v-22.82c0-.48-.39-.87-.87-.87h-78c-.48,0-.87.39-.87.87v22.82c0,.48-.39.87-.87.87h-41.32c-.48,0-.87-.39-.87-.87v-41.32c0-.48.39-.87.87-.87h47.38c.48,0,.87-.39.87-.87v-22.82c0-.48.39-.87.87-.87h47.38c.48,0,.87-.39.87-.87v-22.82c0-.48.39-.87.87-.87h90.43c.48,0,.87.39.87.87v22.82c0,.48.39.87.87.87h47.38c.48,0,.87.39.87.87v22.82c0,.48.39.87.87.87h176.21c.48,0,.87-.39.87-.87v-28.88c0-.48-.39-.87-.87-.87h-71.94c-.48,0-.87-.39-.87-.87v-22.82c0-.48-.39-.87-.87-.87h-47.37c-.48,0-.87-.39-.87-.87v-22.82c0-.48-.39-.87-.87-.87h-22.82c-.48,0-.87-.39-.87-.87v-22.82c0-.48-.39-.87-.87-.87h-22.82c-.48,0-.87-.39-.87-.87v-22.82c0-.48-.39-.87-.87-.87h-22.82c-.48,0-.87-.39-.87-.87v-47.38c0-.48-.39-.87-.87-.87h-22.82c-.48,0-.87-.39-.87-.87v-22.82c0-.48-.39-.87-.87-.87h-22.82c-.48,0-.87-.39-.87-.87v-164.1c0-.48.39-.87.87-.87h22.82c.48,0,.87-.39.87-.87v-96.49c0-.48.39-.87.87-.87h22.82c.48,0,.87-.39.87-.87V6.92c0-.48.39-.87.87-.87h90.43c.48,0,.87.39.87.87v22.82c0,.48.39.87.87.87h520c.48,0,.87-.39.87-.87V6.92c0-.48.39-.87.87-.87h90.43c.48,0,.87.39.87.87v145.61c0,.48.39.87.87.87h22.82c.48,0,.87.39.87.87v96.49c0,.48.39.87.87.87h22.82c.48,0,.87.39.87.87v164.1c0,.48-.39.87-.87.87h-22.82c-.48,0-.87.39-.87.87v22.82c0,.48-.39.87-.87.87h-22.82c-.48,0-.87.39-.87.87v47.38c0,.48-.39.87-.87.87h-22.82c-.48,0-.87.39-.87.87v22.82c0,.48-.39.87-.87.87h-22.82c-.48,0-.87.39-.87.87v22.82c0,.48-.39.87-.87.87h-22.82c-.48,0-.87.39-.87.87v22.82c0,.48-.39.87-.87.87h-47.38c-.48,0-.87.39-.87.87v22.82c0,.48-.39.87-.87.87h-71.94c-.48,0-.87.39-.87.87v28.88c0,.48.39.87.87.87h176.21c.48,0,.87-.39.87-.87v-22.82c0-.48.39-.87.87-.87h47.38c.48,0,.87-.39.87-.87v-22.82c0-.48.39-.87.87-.87h90.43c.48,0,.87.39.87.87v22.82c0,.48.39.87.87.87h47.38c.48,0,.87.39.87.87v22.82c0,.48.39.87.87.87h47.38c.48,0,.87.39.87.87v41.32c0,.48-.39.87-.87.87h-41.32c-.48,0-.87-.39-.87-.87Z" fill="#7caa4a"/><path d="M1203.23,620.82v41.32c0,.48-.39.87-.87.87h-41.32c-.48,0-.87-.39-.87-.87v-22.82c0-.48-.39-.87-.87-.87h-78c-.48,0-.87.39-.87.87v22.82c0,.48-.39.87-.87.87h-47.38c-.48,0-.87.39-.87.87v22.82c0,.48-.39.87-.87.87h-47.38c-.48,0-.87.39-.87.87v22.82c0,.48-.39.87-.87.87h-47.38c-.48,0-.87.39-.87.87v22.82c0,.48-.39.87-.87.87h-121.04c-.48,0-.87.39-.87.87v28.88c0,.48.39.87.87.87h22.82c.48,0,.87.39.87.87v71.94c0,.48.39.87.87.87h22.82c.48,0,.87.39.87.87v47.38c0,.48.39.87.87.87h22.82c.48,0,.87.39.87.87v47.38c0,.48.39.87.87.87h22.82c.48,0,.87.39.87.87v22.82c0,.48.39.87.87.87h22.82c.48,0,.87.39.87.87v41.32c0,.48-.39.87-.87.87h-65.87c-.48,0-.87-.39-.87-.87v-22.82c0-.48-.39-.87-.87-.87h-22.82c-.48,0-.87-.39-.87-.87v-47.38c0-.48-.39-.87-.87-.87h-22.82c-.48,0-.87-.39-.87-.87v-22.82c0-.48-.39-.87-.87-.87h-22.82c-.48,0-.87-.39-.87-.87v-71.94c0-.48-.39-.87-.87-.87h-22.82c-.48,0-.87-.39-.87-.87v-47.38c0-.48-.39-.87-.87-.87h-22.82c-.48,0-.87-.39-.87-.87v-71.94c0-.48-.39-.87-.87-.87h-28.88c-.48,0-.87.39-.87.87v151.66c0,.48.39.87.87.87h22.82c.48,0,.87.39.87.87v47.38c0,.48.39.87.87.87h22.82c.48,0,.87.39.87.87v47.38c0,.48.39.87.87.87h22.82c.48,0,.87.39.87.87v41.32c0,.48-.39.87-.87.87h-65.88c-.48,0-.87-.39-.87-.87v-22.82c0-.48-.39-.87-.87-.87h-22.82c-.48,0-.87-.39-.87-.87v-47.38c0-.48-.39-.87-.87-.87h-22.82c-.48,0-.87-.39-.87-.87v-96.49c0-.48-.39-.87-.87-.87h-22.82c-.48,0-.87-.39-.87-.87v-96.49c0-.48-.39-.87-.87-.87h-28.88c-.48,0-.87.39-.87.87v96.49c0,.48-.39.87-.87.87h-22.82c-.48,0-.87.39-.87.87v96.49c0,.48-.39.87-.87.87h-22.82c-.48,0-.87.39-.87.87v47.38c0,.48-.39.87-.87.87h-22.82c-.48,0-.87.39-.87.87v22.82c0,.48-.39.87-.87.87h-65.88c-.48,0-.87-.39-.87-.87v-41.32c0-.48.39-.87.87-.87h22.82c.48,0,.87-.39.87-.87v-47.38c0-.48.39-.87.87-.87h22.82c.48,0,.87-.39.87-.87v-47.38c0-.48.39-.87.87-.87h22.82c.48,0,.87-.39.87-.87v-151.66c0-.48-.39-.87-.87-.87h-28.88c-.48,0-.87.39-.87.87v71.94c0,.48-.39.87-.87.87h-22.82c-.48,0-.87.39-.87.87v47.38c0,.48-.39.87-.87.87h-22.82c-.48,0-.87.39-.87.87v71.94c0,.48-.39.87-.87.87h-22.82c-.48,0-.87.39-.87.87v22.82c0,.48-.39.87-.87.87h-22.82c-.48,0-.87.39-.87.87v47.38c0,.48-.39.87-.87.87h-22.82c-.48,0-.87.39-.87.87v22.82c0,.48-.39.87-.87.87h-65.87c-.48,0-.87-.39-.87-.87v-41.32c0-.48.39-.87.87-.87h22.82c.48,0,.87-.39.87-.87v-22.82c0-.48.39-.87.87-.87h22.82c.48,0,.87-.39.87-.87v-47.38c0-.48.39-.87.87-.87h22.82c.48,0,.87-.39.87-.87v-47.38c0-.48.39-.87.87-.87h22.82c.48,0,.87-.39.87-.87v-71.94c0-.48.39-.87.87-.87h22.82c.48,0,.87-.39.87-.87v-28.88c0-.48-.39-.87-.87-.87h-121.04c-.48,0-.87-.39-.87-.87v-22.82c0-.48-.39-.87-.87-.87h-47.38c-.48,0-.87-.39-.87-.87v-22.82c0-.48-.39-.87-.87-.87h-47.38c-.48,0-.87-.39-.87-.87v-22.82c0-.48-.39-.87-.87-.87h-47.38c-.48,0-.87-.39-.87-.87v-22.82c0-.48-.39-.87-.87-.87h-78c-.48,0-.87.39-.87.87v22.82c0,.48-.39.87-.87.87h-41.32c-.48,0-.87-.39-.87-.87v-41.32c0-.48.39-.87.87-.87h47.38c.48,0,.87-.39.87-.87v-22.82c0-.48.39-.87.87-.87h47.38c.48,0,.87-.39.87-.87v-22.82c0-.48.39-.87.87-.87h90.43c.48,0,.87.39.87.87v22.82c0,.48.39.87.87.87h47.38c.48,0,.87.39.87.87v22.82c0,.48.39.87.87.87h176.21c.48,0,.87-.39.87-.87v-28.88c0-.48-.39-.87-.87-.87h-71.94c-.48,0-.87-.39-.87-.87v-22.82c0-.48-.39-.87-.87-.87h-47.37c-.48,0-.87-.39-.87-.87v-22.82c0-.48-.39-.87-.87-.87h-22.82c-.48,0-.87-.39-.87-.87v-22.82c0-.48-.39-.87-.87-.87h-22.82c-.48,0-.87-.39-.87-.87v-22.82c0-.48-.39-.87-.87-.87h-22.82c-.48,0-.87-.39-.87-.87v-47.38c0-.48-.39-.87-.87-.87h-22.82c-.48,0-.87-.39-.87-.87v-22.82c0-.48-.39-.87-.87-.87h-22.82c-.48,0-.87-.39-.87-.87v-164.1c0-.48.39-.87.87-.87h22.82c.48,0,.87-.39.87-.87v-96.49c0-.48.39-.87.87-.87h22.82c.48,0,.87-.39.87-.87V6.92c0-.48.39-.87.87-.87h90.43c.48,0,.87.39.87.87v22.82c0,.48.39.87.87.87h520c.48,0,.87-.39.87-.87V6.92c0-.48.39-.87.87-.87h90.43c.48,0,.87.39.87.87v145.61c0,.48.39.87.87.87h22.82c.48,0,.87.39.87.87v96.49c0,.48.39.87.87.87h22.82c.48,0,.87.39.87.87v164.1c0,.48-.39.87-.87.87h-22.82c-.48,0-.87.39-.87.87v22.82c0,.48-.39.87-.87.87h-22.82c-.48,0-.87.39-.87.87v47.38c0,.48-.39.87-.87.87h-22.82c-.48,0-.87.39-.87.87v22.82c0,.48-.39.87-.87.87h-22.82c-.48,0-.87.39-.87.87v22.82c0,.48-.39.87-.87.87h-22.82c-.48,0-.87.39-.87.87v22.82c0,.48-.39.87-.87.87h-47.38c-.48,0-.87.39-.87.87v22.82c0,.48-.39.87-.87.87h-71.94c-.48,0-.87.39-.87.87v28.88c0,.48.39.87.87.87h176.21c.48,0,.87-.39.87-.87v-22.82c0-.48.39-.87.87-.87h47.38c.48,0,.87-.39.87-.87v-22.82c0-.48.39-.87.87-.87h90.43c.48,0,.87.39.87.87v22.82c0,.48.39.87.87.87h47.38c.48,0,.87.39.87.87v22.82c0,.48.39.87.87.87h47.38c.48,0,.87.39.87.87Z" fill="#171917"/><rect x="1209.29" y="669.06" width="43.05" height="18.5" rx=".87" ry=".87" fill="#171917"/></svg>