<?xml version="1.0" encoding="UTF-8"?><svg id="_レイヤー_1" xmlns="http://www.w3.org/2000/svg" width="707.72" height="253.91" viewBox="0 0 707.72 253.91" preserveAspectRatio="none"><rect x="17" y="130.45" width="49.73" height="21.37" rx="1" ry="1" fill="#171917"/><path d="M470.81,94.09v-26.36c0-.55-.45-1-1-1h-83.09c-.55,0-1-.45-1-1v-26.37c0-.55-.45-1-1-1h-54.72c-.55,0-1-.45-1-1V11c0-.55-.45-1-1-1h-146.82c-.55,0-1,.45-1,1v26.36c0,.55-.45,1-1,1h-54.73c-.55,0-1,.45-1,1v26.37c0,.55-.45,1-1,1h-54.72c-.55,0-1,.45-1,1v54.72c0,.55-.45,1-1,1H11c-.55,0-1,.45-1,1v33.37c0,.55.45,1,1,1h61.73c.55,0,1-.45,1-1v-26.37c0-.55.45-1,1-1h54.72c.55,0,1-.45,1-1v-26.36c0-.55.45-1,1-1h76.09c.55,0,1,.45,1,1v26.36c0,.55.45,1,1,1h83.09c.55,0,1,.45,1,1v26.37c0,.55.45,1,1,1h54.73c.55,0,1,.45,1,1v26.36c0,.55.45,1,1,1h54.73c.55,0,1,.45,1,1v26.36c0,.55.45,1,1,1h83.09c.55,0,1,.45,1,1v26.37c0,.55.45,1,1,1h203.54c.55,0,1-.45,1-1V96.09c0-.55-.45-1-1-1h-224.91c-.55,0-1-.45-1-1ZM689.72,236.91h-189.54c-.55,0-1-.45-1-1v-26.37c0-.55-.45-1-1-1h-83.09c-.55,0-1-.45-1-1v-26.36c0-.55-.45-1-1-1h-54.73c-.55,0-1-.45-1-1v-26.36c0-.55-.45-1-1-1h-54.73c-.55,0-1-.45-1-1v-26.37c0-.55-.45-1-1-1h-83.09c-.55,0-1-.45-1-1v-26.36c0-.55-.45-1-1-1h-90.09c-.55,0-1,.45-1,1v26.36c0,.55-.45,1-1,1h-47.72c-.55,0-1-.45-1-1v-47.72c0-.55.45-1,1-1h54.72c.55,0,1-.45,1-1v-26.37c0-.55.45-1,1-1h54.73c.55,0,1-.45,1-1v-26.36c0-.55.45-1,1-1h132.82c.55,0,1,.45,1,1v26.36c0,.55.45,1,1,1h54.72c.55,0,1,.45,1,1v26.37c0,.55.45,1,1,1h83.09c.55,0,1,.45,1,1v26.36c0,.55.45,1,1,1h224.91c.55,0,1,.45,1,1v132.82c0,.55-.45,1-1,1ZM65.73,151.82H18c-.55,0-1-.45-1-1v-19.37c0-.55.45-1,1-1h47.73c.55,0,1,.45,1,1v19.37c0,.55-.45,1-1,1Z" fill="#7caa4a"/><path d="M690.72,103.09v132.82c0,.55-.45,1-1,1h-189.54c-.55,0-1-.45-1-1v-26.37c0-.55-.45-1-1-1h-83.09c-.55,0-1-.45-1-1v-26.36c0-.55-.45-1-1-1h-54.73c-.55,0-1-.45-1-1v-26.36c0-.55-.45-1-1-1h-54.73c-.55,0-1-.45-1-1v-26.37c0-.55-.45-1-1-1h-83.09c-.55,0-1-.45-1-1v-26.36c0-.55-.45-1-1-1h-90.09c-.55,0-1,.45-1,1v26.36c0,.55-.45,1-1,1h-47.72c-.55,0-1-.45-1-1v-47.72c0-.55.45-1,1-1h54.72c.55,0,1-.45,1-1v-26.37c0-.55.45-1,1-1h54.73c.55,0,1-.45,1-1v-26.36c0-.55.45-1,1-1h132.82c.55,0,1,.45,1,1v26.36c0,.55.45,1,1,1h54.72c.55,0,1,.45,1,1v26.37c0,.55.45,1,1,1h83.09c.55,0,1,.45,1,1v26.36c0,.55.45,1,1,1h224.91c.55,0,1,.45,1,1Z" fill="#171917"/></svg>
