<?xml version="1.0" encoding="UTF-8"?><svg id="_レイヤー_1" xmlns="http://www.w3.org/2000/svg" width="1455.67" height="1171.61" viewBox="0 0 1455.67 1171.61"><rect x="7" y="773.94" width="49.81" height="21.4" rx="1" ry="1" fill="#171917"/><path d="M1398.85,765.94v-54.81c0-.55-.45-1-1-1h-54.81c-.55,0-1-.45-1-1v-26.41c0-.55-.45-1-1-1h-54.81c-.55,0-1-.45-1-1v-26.4c0-.55-.45-1-1-1h-118.62c-.55,0-1,.45-1,1v26.4c0,.55-.45,1-1,1h-54.81c-.55,0-1,.45-1,1v26.41c0,.55-.45,1-1,1h-189.83c-.55,0-1-.45-1-1v-19.41c0-.55.45-1,1-1h83.21c.55,0,1-.45,1-1v-26.4c0-.55.45-1,1-1h54.81c.55,0,1-.45,1-1v-26.41c0-.55.45-1,1-1h26.41c.55,0,1-.45,1-1v-26.4c0-.55.45-1,1-1h26.4c.55,0,1-.45,1-1v-26.41c0-.55.45-1,1-1h26.41c.55,0,1-.45,1-1v-54.81c0-.55.45-1,1-1h26.4c.55,0,1-.45,1-1v-26.4c0-.55.45-1,1-1h26.41c.55,0,1-.45,1-1v-203.84c0-.55-.45-1-1-1h-26.41c-.55,0-1-.45-1-1v-111.62c0-.55-.45-1-1-1h-26.4c-.55,0-1-.45-1-1V1c0-.55-.45-1-1-1h-118.62c-.55,0-1,.45-1,1v26.4c0,.55-.45,1-1,1H434.08c-.55,0-1-.45-1-1V1c0-.55-.45-1-1-1h-118.62c-.55,0-1,.45-1,1v168.43c0,.55-.45,1-1,1h-26.41c-.55,0-1,.45-1,1v111.62c0,.55-.45,1-1,1h-26.4c-.55,0-1,.45-1,1v203.84c0,.55.45,1,1,1h26.4c.55,0,1,.45,1,1v26.4c0,.55.45,1,1,1h26.41c.55,0,1,.45,1,1v54.81c0,.55.45,1,1,1h26.4c.55,0,1,.45,1,1v26.41c0,.55.45,1,1,1h26.41c.55,0,1,.45,1,1v26.4c0,.55.45,1,1,1h26.4c.55,0,1,.45,1,1v26.41c0,.55.45,1,1,1h54.81c.55,0,1,.45,1,1v26.4c0,.55.45,1,1,1h83.22c.55,0,1,.45,1,1v19.41c0,.55-.45,1-1,1h-189.84c-.55,0-1-.45-1-1v-26.41c0-.55-.45-1-1-1h-54.81c-.55,0-1-.45-1-1v-26.4c0-.55-.45-1-1-1h-118.62c-.55,0-1,.45-1,1v26.4c0,.55-.45,1-1,1h-54.81c-.55,0-1,.45-1,1v26.41c0,.55-.45,1-1,1h-54.81c-.55,0-1,.45-1,1v54.81c0,.55-.45,1-1,1H1c-.55,0-1,.45-1,1v33.4c0,.55.45,1,1,1h61.81c.55,0,1-.45,1-1v-26.4c0-.55.45-1,1-1h54.81c.55,0,1-.45,1-1v-26.41c0-.55.45-1,1-1h76.22c.55,0,1,.45,1,1v26.41c0,.55.45,1,1,1h54.81c.55,0,1,.45,1,1v26.4c0,.55.45,1,1,1h54.81c.55,0,1,.45,1,1v26.41c0,.55.45,1,1,1h54.81c.55,0,1,.45,1,1v26.4c0,.55.45,1,1,1h140.03c.55,0,1,.45,1,1v19.41c0,.55-.45,1-1,1h-26.41c-.55,0-1,.45-1,1v83.21c0,.55-.45,1-1,1h-26.41c-.55,0-1,.45-1,1v54.81c0,.55-.45,1-1,1h-26.4c-.55,0-1,.45-1,1v54.81c0,.55-.45,1-1,1h-26.41c-.55,0-1,.45-1,1v26.41c0,.55-.45,1-1,1h-26.4c-.55,0-1,.45-1,1v61.81c0,.55.45,1,1,1h90.21c.55,0,1-.45,1-1v-26.41c0-.55.45-1,1-1h26.41c.55,0,1-.45,1-1v-54.81c0-.55.45-1,1-1h26.41c.55,0,1-.45,1-1v-26.4c0-.55.45-1,1-1h26.4c.55,0,1-.45,1-1v-83.22c0-.55.45-1,1-1h26.41c.55,0,1-.45,1-1v-54.81c0-.55.45-1,1-1h26.4c.55,0,1-.45,1-1v-83.21c0-.55.45-1,1-1h19.41c.55,0,1,.45,1,1v161.43c0,.55-.45,1-1,1h-26.41c-.55,0-1,.45-1,1v54.81c0,.55-.45,1-1,1h-26.4c-.55,0-1,.45-1,1v54.81c0,.55-.45,1-1,1h-26.41c-.55,0-1,.45-1,1v61.81c0,.55.45,1,1,1h90.22c.55,0,1-.45,1-1v-26.41c0-.55.45-1,1-1h26.4c.55,0,1-.45,1-1v-54.81c0-.55.45-1,1-1h26.41c.55,0,1-.45,1-1v-111.62c0-.55.45-1,1-1h26.4c.55,0,1-.45,1-1v-111.62c0-.55.45-1,1-1h19.41c.55,0,1,.45,1,1v111.62c0,.55.45,1,1,1h26.4c.55,0,1,.45,1,1v111.62c0,.55.45,1,1,1h26.41c.55,0,1,.45,1,1v54.81c0,.55.45,1,1,1h26.4c.55,0,1,.45,1,1v26.41c0,.55.45,1,1,1h90.22c.55,0,1-.45,1-1v-61.81c0-.55-.45-1-1-1h-26.41c-.55,0-1-.45-1-1v-54.81c0-.55-.45-1-1-1h-26.4c-.55,0-1-.45-1-1v-54.81c0-.55-.45-1-1-1h-26.41c-.55,0-1-.45-1-1v-161.43c0-.55.45-1,1-1h19.41c.55,0,1,.45,1,1v83.21c0,.55.45,1,1,1h26.4c.55,0,1,.45,1,1v54.81c0,.55.45,1,1,1h26.41c.55,0,1,.45,1,1v83.22c0,.55.45,1,1,1h26.4c.55,0,1,.45,1,1v26.4c0,.55.45,1,1,1h26.41c.55,0,1,.45,1,1v54.81c0,.55.45,1,1,1h26.4c.55,0,1,.45,1,1v26.41c0,.55.45,1,1,1h90.22c.55,0,1-.45,1-1v-61.81c0-.55-.45-1-1-1h-26.41c-.55,0-1-.45-1-1v-26.41c0-.55-.45-1-1-1h-26.4c-.55,0-1-.45-1-1v-54.81c0-.55-.45-1-1-1h-26.41c-.55,0-1-.45-1-1v-54.81c0-.55-.45-1-1-1h-26.4c-.55,0-1-.45-1-1v-83.21c0-.55-.45-1-1-1h-26.41c-.55,0-1-.45-1-1v-19.41c0-.55.45-1,1-1h140.03c.55,0,1-.45,1-1v-26.4c0-.55.45-1,1-1h54.81c.55,0,1-.45,1-1v-26.41c0-.55.45-1,1-1h54.81c.55,0,1-.45,1-1v-26.4c0-.55.45-1,1-1h54.81c.55,0,1-.45,1-1v-26.41c0-.55.45-1,1-1h76.21c.55,0,1,.45,1,1v26.41c0,.55.45,1,1,1h54.82c.55,0,1,.45,1,1v26.4c0,.55.45,1,1,1h61.81c.55,0,1-.45,1-1v-33.4c0-.55-.45-1-1-1h-54.82c-.55,0-1-.45-1-1ZM55.81,795.34H8c-.55,0-1-.45-1-1v-19.4c0-.55.45-1,1-1h47.81c.55,0,1,.45,1,1v19.4c0,.55-.45,1-1,1ZM1390.85,766.94h-47.81c-.55,0-1-.45-1-1v-26.41c0-.55-.45-1-1-1h-90.21c-.55,0-1,.45-1,1v26.41c0,.55-.45,1-1,1h-54.81c-.55,0-1,.45-1,1v26.4c0,.55-.45,1-1,1h-54.81c-.55,0-1,.45-1,1v26.41c0,.55-.45,1-1,1h-54.81c-.55,0-1,.45-1,1v26.4c0,.55-.45,1-1,1h-140.03c-.55,0-1,.45-1,1v33.41c0,.55.45,1,1,1h26.41c.55,0,1,.45,1,1v83.21c0,.55.45,1,1,1h26.4c.55,0,1,.45,1,1v54.81c0,.55.45,1,1,1h26.41c.55,0,1,.45,1,1v54.81c0,.55.45,1,1,1h26.4c.55,0,1,.45,1,1v26.41c0,.55.45,1,1,1h26.41c.55,0,1,.45,1,1v47.81c0,.55-.45,1-1,1h-76.22c-.55,0-1-.45-1-1v-26.41c0-.55-.45-1-1-1h-26.4c-.55,0-1-.45-1-1v-54.81c0-.55-.45-1-1-1h-26.41c-.55,0-1-.45-1-1v-26.4c0-.55-.45-1-1-1h-26.4c-.55,0-1-.45-1-1v-83.22c0-.55-.45-1-1-1h-26.41c-.55,0-1-.45-1-1v-54.81c0-.55-.45-1-1-1h-26.4c-.55,0-1-.45-1-1v-83.21c0-.55-.45-1-1-1h-33.41c-.55,0-1,.45-1,1v175.43c0,.55.45,1,1,1h26.41c.55,0,1,.45,1,1v54.81c0,.55.45,1,1,1h26.4c.55,0,1,.45,1,1v54.81c0,.55.45,1,1,1h26.41c.55,0,1,.45,1,1v47.81c0,.55-.45,1-1,1h-76.22c-.55,0-1-.45-1-1v-26.41c0-.55-.45-1-1-1h-26.4c-.55,0-1-.45-1-1v-54.81c0-.55-.45-1-1-1h-26.41c-.55,0-1-.45-1-1v-111.62c0-.55-.45-1-1-1h-26.4c-.55,0-1-.45-1-1v-111.62c0-.55-.45-1-1-1h-33.41c-.55,0-1,.45-1,1v111.62c0,.55-.45,1-1,1h-26.4c-.55,0-1,.45-1,1v111.62c0,.55-.45,1-1,1h-26.41c-.55,0-1,.45-1,1v54.81c0,.55-.45,1-1,1h-26.4c-.55,0-1,.45-1,1v26.41c0,.55-.45,1-1,1h-76.22c-.55,0-1-.45-1-1v-47.81c0-.55.45-1,1-1h26.41c.55,0,1-.45,1-1v-54.81c0-.55.45-1,1-1h26.4c.55,0,1-.45,1-1v-54.81c0-.55.45-1,1-1h26.41c.55,0,1-.45,1-1v-175.43c0-.55-.45-1-1-1h-33.41c-.55,0-1,.45-1,1v83.21c0,.55-.45,1-1,1h-26.4c-.55,0-1,.45-1,1v54.81c0,.55-.45,1-1,1h-26.41c-.55,0-1,.45-1,1v83.22c0,.55-.45,1-1,1h-26.4c-.55,0-1,.45-1,1v26.4c0,.55-.45,1-1,1h-26.41c-.55,0-1,.45-1,1v54.81c0,.55-.45,1-1,1h-26.41c-.55,0-1,.45-1,1v26.41c0,.55-.45,1-1,1h-76.21c-.55,0-1-.45-1-1v-47.81c0-.55.45-1,1-1h26.4c.55,0,1-.45,1-1v-26.41c0-.55.45-1,1-1h26.41c.55,0,1-.45,1-1v-54.81c0-.55.45-1,1-1h26.4c.55,0,1-.45,1-1v-54.81c0-.55.45-1,1-1h26.41c.55,0,1-.45,1-1v-83.21c0-.55.45-1,1-1h26.41c.55,0,1-.45,1-1v-33.41c0-.55-.45-1-1-1h-140.03c-.55,0-1-.45-1-1v-26.4c0-.55-.45-1-1-1h-54.81c-.55,0-1-.45-1-1v-26.41c0-.55-.45-1-1-1h-54.81c-.55,0-1-.45-1-1v-26.4c0-.55-.45-1-1-1h-54.81c-.55,0-1-.45-1-1v-26.41c0-.55-.45-1-1-1h-90.22c-.55,0-1,.45-1,1v26.41c0,.55-.45,1-1,1h-47.81c-.55,0-1-.45-1-1v-47.81c0-.55.45-1,1-1h54.81c.55,0,1-.45,1-1v-26.41c0-.55.45-1,1-1h54.81c.55,0,1-.45,1-1v-26.4c0-.55.45-1,1-1h104.62c.55,0,1,.45,1,1v26.4c0,.55.45,1,1,1h54.81c.55,0,1,.45,1,1v26.41c0,.55.45,1,1,1h203.84c.55,0,1-.45,1-1v-33.41c0-.55-.45-1-1-1h-83.22c-.55,0-1-.45-1-1v-26.4c0-.55-.45-1-1-1h-54.81c-.55,0-1-.45-1-1v-26.41c0-.55-.45-1-1-1h-26.4c-.55,0-1-.45-1-1v-26.4c0-.55-.45-1-1-1h-26.41c-.55,0-1-.45-1-1v-26.41c0-.55-.45-1-1-1h-26.4c-.55,0-1-.45-1-1v-54.81c0-.55-.45-1-1-1h-26.41c-.55,0-1-.45-1-1v-26.4c0-.55-.45-1-1-1h-26.4c-.55,0-1-.45-1-1v-189.84c0-.55.45-1,1-1h26.4c.55,0,1-.45,1-1v-111.62c0-.55.45-1,1-1h26.41c.55,0,1-.45,1-1V8c0-.55.45-1,1-1h104.62c.55,0,1,.45,1,1v26.4c0,.55.45,1,1,1h601.51c.55,0,1-.45,1-1V8c0-.55.45-1,1-1h104.62c.55,0,1,.45,1,1v168.43c0,.55.45,1,1,1h26.4c.55,0,1,.45,1,1v111.62c0,.55.45,1,1,1h26.41c.55,0,1,.45,1,1v189.84c0,.55-.45,1-1,1h-26.41c-.55,0-1,.45-1,1v26.4c0,.55-.45,1-1,1h-26.4c-.55,0-1,.45-1,1v54.81c0,.55-.45,1-1,1h-26.41c-.55,0-1,.45-1,1v26.41c0,.55-.45,1-1,1h-26.4c-.55,0-1,.45-1,1v26.4c0,.55-.45,1-1,1h-26.41c-.55,0-1,.45-1,1v26.41c0,.55-.45,1-1,1h-54.81c-.55,0-1,.45-1,1v26.4c0,.55-.45,1-1,1h-83.21c-.55,0-1,.45-1,1v33.41c0,.55.45,1,1,1h203.83c.55,0,1-.45,1-1v-26.41c0-.55.45-1,1-1h54.81c.55,0,1-.45,1-1v-26.4c0-.55.45-1,1-1h104.62c.55,0,1,.45,1,1v26.4c0,.55.45,1,1,1h54.81c.55,0,1,.45,1,1v26.41c0,.55.45,1,1,1h54.81c.55,0,1,.45,1,1v47.81c0,.55-.45,1-1,1ZM1447.67,795.34h-47.81c-.55,0-1-.45-1-1v-19.4c0-.55.45-1,1-1h47.81c.55,0,1,.45,1,1v19.4c0,.55-.45,1-1,1Z" fill="#7caa4a"/><path d="M1391.85,718.13v47.81c0,.55-.45,1-1,1h-47.81c-.55,0-1-.45-1-1v-26.41c0-.55-.45-1-1-1h-90.21c-.55,0-1,.45-1,1v26.41c0,.55-.45,1-1,1h-54.81c-.55,0-1,.45-1,1v26.4c0,.55-.45,1-1,1h-54.81c-.55,0-1,.45-1,1v26.41c0,.55-.45,1-1,1h-54.81c-.55,0-1,.45-1,1v26.4c0,.55-.45,1-1,1h-140.03c-.55,0-1,.45-1,1v33.41c0,.55.45,1,1,1h26.41c.55,0,1,.45,1,1v83.21c0,.55.45,1,1,1h26.4c.55,0,1,.45,1,1v54.81c0,.55.45,1,1,1h26.41c.55,0,1,.45,1,1v54.81c0,.55.45,1,1,1h26.4c.55,0,1,.45,1,1v26.41c0,.55.45,1,1,1h26.41c.55,0,1,.45,1,1v47.81c0,.55-.45,1-1,1h-76.22c-.55,0-1-.45-1-1v-26.41c0-.55-.45-1-1-1h-26.4c-.55,0-1-.45-1-1v-54.81c0-.55-.45-1-1-1h-26.41c-.55,0-1-.45-1-1v-26.4c0-.55-.45-1-1-1h-26.4c-.55,0-1-.45-1-1v-83.22c0-.55-.45-1-1-1h-26.41c-.55,0-1-.45-1-1v-54.81c0-.55-.45-1-1-1h-26.4c-.55,0-1-.45-1-1v-83.21c0-.55-.45-1-1-1h-33.41c-.55,0-1,.45-1,1v175.43c0,.55.45,1,1,1h26.41c.55,0,1,.45,1,1v54.81c0,.55.45,1,1,1h26.4c.55,0,1,.45,1,1v54.81c0,.55.45,1,1,1h26.41c.55,0,1,.45,1,1v47.81c0,.55-.45,1-1,1h-76.22c-.55,0-1-.45-1-1v-26.41c0-.55-.45-1-1-1h-26.4c-.55,0-1-.45-1-1v-54.81c0-.55-.45-1-1-1h-26.41c-.55,0-1-.45-1-1v-111.62c0-.55-.45-1-1-1h-26.4c-.55,0-1-.45-1-1v-111.62c0-.55-.45-1-1-1h-33.41c-.55,0-1,.45-1,1v111.62c0,.55-.45,1-1,1h-26.4c-.55,0-1,.45-1,1v111.62c0,.55-.45,1-1,1h-26.41c-.55,0-1,.45-1,1v54.81c0,.55-.45,1-1,1h-26.4c-.55,0-1,.45-1,1v26.41c0,.55-.45,1-1,1h-76.22c-.55,0-1-.45-1-1v-47.81c0-.55.45-1,1-1h26.41c.55,0,1-.45,1-1v-54.81c0-.55.45-1,1-1h26.4c.55,0,1-.45,1-1v-54.81c0-.55.45-1,1-1h26.41c.55,0,1-.45,1-1v-175.43c0-.55-.45-1-1-1h-33.41c-.55,0-1,.45-1,1v83.21c0,.55-.45,1-1,1h-26.4c-.55,0-1,.45-1,1v54.81c0,.55-.45,1-1,1h-26.41c-.55,0-1,.45-1,1v83.22c0,.55-.45,1-1,1h-26.4c-.55,0-1,.45-1,1v26.4c0,.55-.45,1-1,1h-26.41c-.55,0-1,.45-1,1v54.81c0,.55-.45,1-1,1h-26.41c-.55,0-1,.45-1,1v26.41c0,.55-.45,1-1,1h-76.21c-.55,0-1-.45-1-1v-47.81c0-.55.45-1,1-1h26.4c.55,0,1-.45,1-1v-26.41c0-.55.45-1,1-1h26.41c.55,0,1-.45,1-1v-54.81c0-.55.45-1,1-1h26.4c.55,0,1-.45,1-1v-54.81c0-.55.45-1,1-1h26.41c.55,0,1-.45,1-1v-83.21c0-.55.45-1,1-1h26.41c.55,0,1-.45,1-1v-33.41c0-.55-.45-1-1-1h-140.03c-.55,0-1-.45-1-1v-26.4c0-.55-.45-1-1-1h-54.81c-.55,0-1-.45-1-1v-26.41c0-.55-.45-1-1-1h-54.81c-.55,0-1-.45-1-1v-26.4c0-.55-.45-1-1-1h-54.81c-.55,0-1-.45-1-1v-26.41c0-.55-.45-1-1-1h-90.22c-.55,0-1,.45-1,1v26.41c0,.55-.45,1-1,1h-47.81c-.55,0-1-.45-1-1v-47.81c0-.55.45-1,1-1h54.81c.55,0,1-.45,1-1v-26.41c0-.55.45-1,1-1h54.81c.55,0,1-.45,1-1v-26.4c0-.55.45-1,1-1h104.62c.55,0,1,.45,1,1v26.4c0,.55.45,1,1,1h54.81c.55,0,1,.45,1,1v26.41c0,.55.45,1,1,1h203.84c.55,0,1-.45,1-1v-33.41c0-.55-.45-1-1-1h-83.22c-.55,0-1-.45-1-1v-26.4c0-.55-.45-1-1-1h-54.81c-.55,0-1-.45-1-1v-26.41c0-.55-.45-1-1-1h-26.4c-.55,0-1-.45-1-1v-26.4c0-.55-.45-1-1-1h-26.41c-.55,0-1-.45-1-1v-26.41c0-.55-.45-1-1-1h-26.4c-.55,0-1-.45-1-1v-54.81c0-.55-.45-1-1-1h-26.41c-.55,0-1-.45-1-1v-26.4c0-.55-.45-1-1-1h-26.4c-.55,0-1-.45-1-1v-189.84c0-.55.45-1,1-1h26.4c.55,0,1-.45,1-1v-111.62c0-.55.45-1,1-1h26.41c.55,0,1-.45,1-1V8c0-.55.45-1,1-1h104.62c.55,0,1,.45,1,1v26.4c0,.55.45,1,1,1h601.51c.55,0,1-.45,1-1V8c0-.55.45-1,1-1h104.62c.55,0,1,.45,1,1v168.43c0,.55.45,1,1,1h26.4c.55,0,1,.45,1,1v111.62c0,.55.45,1,1,1h26.41c.55,0,1,.45,1,1v189.84c0,.55-.45,1-1,1h-26.41c-.55,0-1,.45-1,1v26.4c0,.55-.45,1-1,1h-26.4c-.55,0-1,.45-1,1v54.81c0,.55-.45,1-1,1h-26.41c-.55,0-1,.45-1,1v26.41c0,.55-.45,1-1,1h-26.4c-.55,0-1,.45-1,1v26.4c0,.55-.45,1-1,1h-26.41c-.55,0-1,.45-1,1v26.41c0,.55-.45,1-1,1h-54.81c-.55,0-1,.45-1,1v26.4c0,.55-.45,1-1,1h-83.21c-.55,0-1,.45-1,1v33.41c0,.55.45,1,1,1h203.83c.55,0,1-.45,1-1v-26.41c0-.55.45-1,1-1h54.81c.55,0,1-.45,1-1v-26.4c0-.55.45-1,1-1h104.62c.55,0,1,.45,1,1v26.4c0,.55.45,1,1,1h54.81c.55,0,1,.45,1,1v26.41c0,.55.45,1,1,1h54.81c.55,0,1,.45,1,1Z" fill="#171917"/><rect x="1398.86" y="773.94" width="49.81" height="21.4" rx="1" ry="1" fill="#171917"/></svg>