<?xml version="1.0" encoding="UTF-8"?><svg id="_レイヤー_1" xmlns="http://www.w3.org/2000/svg" width="1395.98" height="1140.86" viewBox="0 0 1395.98 1140.86"><rect x="1339.29" y="772.35" width="49.69" height="21.35" rx="1" ry="1" fill="#171917"/><path d="M1332.29,766.35v26.35c0,.55-.45,1-1,1h-54.7c-.55,0-1,.45-1,1v26.35c0,.55-.45,1-1,1h-76.03c-.55,0-1-.45-1-1v-26.35c0-.55-.45-1-1-1h-54.7c-.55,0-1-.45-1-1v-26.35c0-.55-.45-1-1-1h-54.69c-.55,0-1-.45-1-1v-26.34c0-.55-.45-1-1-1h-54.69c-.55,0-1-.45-1-1v-26.35c0-.55-.45-1-1-1h-139.74c-.55,0-1-.45-1-1v-19.35c0-.55.45-1,1-1h83.04c.55,0,1-.45,1-1v-26.34c0-.55.45-1,1-1h54.7c.55,0,1-.45,1-1v-26.35c0-.55.45-1,1-1h26.34c.55,0,1-.45,1-1v-26.35c0-.55.45-1,1-1h26.35c.55,0,1-.45,1-1v-26.34c0-.55.45-1,1-1h26.35c.55,0,1-.45,1-1v-54.7c0-.55.45-1,1-1h26.34c.55,0,1-.45,1-1v-26.34c0-.55.45-1,1-1h26.35c.55,0,1-.45,1-1v-203.43c0-.55-.45-1-1-1h-26.35c-.55,0-1-.45-1-1v-111.38c0-.55-.45-1-1-1h-26.34c-.55,0-1-.45-1-1V1c0-.55-.45-1-1-1h-118.39c-.55,0-1,.45-1,1v26.34c0,.55-.45,1-1,1H404.85c-.55,0-1-.45-1-1V1c0-.55-.45-1-1-1h-118.38c-.55,0-1,.45-1,1v168.08c0,.55-.45,1-1,1h-26.35c-.55,0-1,.45-1,1v111.38c0,.55-.45,1-1,1h-26.34c-.55,0-1,.45-1,1v203.43c0,.55.45,1,1,1h26.34c.55,0,1,.45,1,1v26.34c0,.55.45,1,1,1h26.35c.55,0,1,.45,1,1v54.7c0,.55.45,1,1,1h26.35c.55,0,1,.45,1,1v26.34c0,.55.45,1,1,1h26.34c.55,0,1,.45,1,1v26.35c0,.55.45,1,1,1h26.35c.55,0,1,.45,1,1v26.35c0,.55.45,1,1,1h54.69c.55,0,1,.45,1,1v26.34c0,.55.45,1,1,1h83.04c.55,0,1,.45,1,1v19.35c0,.55-.45,1-1,1h-139.73c-.55,0-1,.45-1,1v26.35c0,.55-.45,1-1,1h-54.69c-.55,0-1,.45-1,1v26.34c0,.55-.45,1-1,1h-54.7c-.55,0-1,.45-1,1v26.35c0,.55-.45,1-1,1h-54.69c-.55,0-1,.45-1,1v26.35c0,.55-.45,1-1,1h-76.04c-.55,0-1-.45-1-1v-26.35c0-.55-.45-1-1-1h-54.69c-.55,0-1-.45-1-1v-26.35c0-.55-.45-1-1-1H1c-.55,0-1,.45-1,1v33.35c0,.55.45,1,1,1h54.7c.55,0,1,.45,1,1v54.69c0,.55.45,1,1,1h54.69c.55,0,1,.45,1,1v26.35c0,.55.45,1,1,1h54.69c.55,0,1,.45,1,1v26.34c0,.55.45,1,1,1h118.39c.55,0,1-.45,1-1v-26.34c0-.55.45-1,1-1h54.69c.55,0,1-.45,1-1v-26.35c0-.55.45-1,1-1h132.73c.55,0,1,.45,1,1v19.35c0,.55-.45,1-1,1h-26.34c-.55,0-1,.45-1,1v83.04c0,.55-.45,1-1,1h-26.35c-.55,0-1,.45-1,1v54.69c0,.55-.45,1-1,1h-26.35c-.55,0-1,.45-1,1v26.35c0,.55-.45,1-1,1h-83.03c-.55,0-1,.45-1,1v33.34c0,.55.45,1,1,1h26.34c.55,0,1,.45,1,1v26.35c0,.55.45,1,1,1h118.39c.55,0,1-.45,1-1v-26.35c0-.55.45-1,1-1h26.34c.55,0,1-.45,1-1v-26.34c0-.55.45-1,1-1h26.35c.55,0,1-.45,1-1v-83.04c0-.55.45-1,1-1h26.35c.55,0,1-.45,1-1v-54.7c0-.55.45-1,1-1h26.34c.55,0,1-.45,1-1v-26.34c0-.55.45-1,1-1h19.35c.55,0,1,.45,1,1v104.38c0,.55-.45,1-1,1h-26.35c-.55,0-1,.45-1,1v83.04c0,.55-.45,1-1,1h-26.34c-.55,0-1,.45-1,1v26.35c0,.55-.45,1-1,1h-26.35c-.55,0-1,.45-1,1v33.35c0,.55.45,1,1,1h118.39c.55,0,1-.45,1-1v-26.35c0-.55.45-1,1-1h26.34c.55,0,1-.45,1-1v-111.39c0-.55.45-1,1-1h26.35c.55,0,1-.45,1-1v-83.04c0-.55.45-1,1-1h19.35c.55,0,1,.45,1,1v83.04c0,.55.45,1,1,1h26.34c.55,0,1,.45,1,1v111.39c0,.55.45,1,1,1h26.35c.55,0,1,.45,1,1v26.35c0,.55.45,1,1,1h118.38c.55,0,1-.45,1-1v-33.35c0-.55-.45-1-1-1h-26.34c-.55,0-1-.45-1-1v-26.35c0-.55-.45-1-1-1h-26.35c-.55,0-1-.45-1-1v-83.04c0-.55-.45-1-1-1h-26.34c-.55,0-1-.45-1-1v-104.38c0-.55.45-1,1-1h19.34c.55,0,1,.45,1,1v26.34c0,.55.45,1,1,1h26.35c.55,0,1,.45,1,1v54.7c0,.55.45,1,1,1h26.34c.55,0,1,.45,1,1v83.04c0,.55.45,1,1,1h26.35c.55,0,1,.45,1,1v26.34c0,.55.45,1,1,1h26.35c.55,0,1,.45,1,1v26.35c0,.55.45,1,1,1h118.38c.55,0,1-.45,1-1v-26.35c0-.55.45-1,1-1h26.35c.55,0,1-.45,1-1v-33.34c0-.55-.45-1-1-1h-83.04c-.55,0-1-.45-1-1v-26.35c0-.55-.45-1-1-1h-26.35c-.55,0-1-.45-1-1v-54.69c0-.55-.45-1-1-1h-26.34c-.55,0-1-.45-1-1v-83.04c0-.55-.45-1-1-1h-26.35c-.55,0-1-.45-1-1v-19.35c0-.55.45-1,1-1h132.73c.55,0,1,.45,1,1v26.35c0,.55.45,1,1,1h54.7c.55,0,1,.45,1,1v26.34c0,.55.45,1,1,1h118.38c.55,0,1-.45,1-1v-26.34c0-.55.45-1,1-1h54.69c.55,0,1-.45,1-1v-26.35c0-.55.45-1,1-1h54.7c.55,0,1-.45,1-1v-54.69c0-.55.45-1,1-1h54.69c.55,0,1-.45,1-1v-33.35c0-.55-.45-1-1-1h-61.69c-.55,0-1,.45-1,1ZM1387.98,793.7h-47.69c-.55,0-1-.45-1-1v-19.35c0-.55.45-1,1-1h47.69c.55,0,1,.45,1,1v19.35c0,.55-.45,1-1,1ZM55.7,793.7H8c-.55,0-1-.45-1-1v-19.35c0-.55.45-1,1-1h47.7c.55,0,1,.45,1,1v19.35c0,.55-.45,1-1,1ZM1331.29,850.39h-54.7c-.55,0-1,.45-1,1v26.35c0,.55-.45,1-1,1h-54.69c-.55,0-1,.45-1,1v26.34c0,.55-.45,1-1,1h-104.38c-.55,0-1-.45-1-1v-26.34c0-.55-.45-1-1-1h-54.7c-.55,0-1-.45-1-1v-26.35c0-.55-.45-1-1-1h-146.73c-.55,0-1,.45-1,1v33.35c0,.55.45,1,1,1h26.35c.55,0,1,.45,1,1v83.04c0,.55.45,1,1,1h26.34c.55,0,1,.45,1,1v54.69c0,.55.45,1,1,1h26.35c.55,0,1,.45,1,1v26.35c0,.55.45,1,1,1h83.04c.55,0,1,.45,1,1v19.34c0,.55-.45,1-1,1h-26.35c-.55,0-1,.45-1,1v26.35c0,.55-.45,1-1,1h-104.38c-.55,0-1-.45-1-1v-26.35c0-.55-.45-1-1-1h-26.35c-.55,0-1-.45-1-1v-26.34c0-.55-.45-1-1-1h-26.35c-.55,0-1-.45-1-1v-83.04c0-.55-.45-1-1-1h-26.34c-.55,0-1-.45-1-1v-54.7c0-.55-.45-1-1-1h-26.35c-.55,0-1-.45-1-1v-26.34c0-.55-.45-1-1-1h-33.34c-.55,0-1,.45-1,1v118.38c0,.55.45,1,1,1h26.34c.55,0,1,.45,1,1v83.04c0,.55.45,1,1,1h26.35c.55,0,1,.45,1,1v26.35c0,.55.45,1,1,1h26.34c.55,0,1,.45,1,1v19.35c0,.55-.45,1-1,1h-104.38c-.55,0-1-.45-1-1v-26.35c0-.55-.45-1-1-1h-26.35c-.55,0-1-.45-1-1v-111.39c0-.55-.45-1-1-1h-26.34c-.55,0-1-.45-1-1v-83.04c0-.55-.45-1-1-1h-33.35c-.55,0-1,.45-1,1v83.04c0,.55-.45,1-1,1h-26.35c-.55,0-1,.45-1,1v111.39c0,.55-.45,1-1,1h-26.34c-.55,0-1,.45-1,1v26.35c0,.55-.45,1-1,1h-104.39c-.55,0-1-.45-1-1v-19.35c0-.55.45-1,1-1h26.35c.55,0,1-.45,1-1v-26.35c0-.55.45-1,1-1h26.34c.55,0,1-.45,1-1v-83.04c0-.55.45-1,1-1h26.35c.55,0,1-.45,1-1v-118.38c0-.55-.45-1-1-1h-33.35c-.55,0-1,.45-1,1v26.34c0,.55-.45,1-1,1h-26.34c-.55,0-1,.45-1,1v54.7c0,.55-.45,1-1,1h-26.35c-.55,0-1,.45-1,1v83.04c0,.55-.45,1-1,1h-26.35c-.55,0-1,.45-1,1v26.34c0,.55-.45,1-1,1h-26.34c-.55,0-1,.45-1,1v26.35c0,.55-.45,1-1,1h-104.39c-.55,0-1-.45-1-1v-26.35c0-.55-.45-1-1-1h-26.34c-.55,0-1-.45-1-1v-19.34c0-.55.45-1,1-1h83.03c.55,0,1-.45,1-1v-26.35c0-.55.45-1,1-1h26.35c.55,0,1-.45,1-1v-54.69c0-.55.45-1,1-1h26.35c.55,0,1-.45,1-1v-83.04c0-.55.45-1,1-1h26.34c.55,0,1-.45,1-1v-33.35c0-.55-.45-1-1-1h-146.73c-.55,0-1,.45-1,1v26.35c0,.55-.45,1-1,1h-54.69c-.55,0-1,.45-1,1v26.34c0,.55-.45,1-1,1h-104.39c-.55,0-1-.45-1-1v-26.34c0-.55-.45-1-1-1h-54.69c-.55,0-1-.45-1-1v-26.35c0-.55-.45-1-1-1h-54.69c-.55,0-1-.45-1-1v-47.69c0-.55.45-1,1-1h47.69c.55,0,1,.45,1,1v26.35c0,.55.45,1,1,1h90.04c.55,0,1-.45,1-1v-26.35c0-.55.45-1,1-1h54.69c.55,0,1-.45,1-1v-26.35c0-.55.45-1,1-1h54.7c.55,0,1-.45,1-1v-26.34c0-.55.45-1,1-1h54.69c.55,0,1-.45,1-1v-26.35c0-.55.45-1,1-1h139.73c.55,0,1-.45,1-1v-33.35c0-.55-.45-1-1-1h-83.04c-.55,0-1-.45-1-1v-26.34c0-.55-.45-1-1-1h-54.69c-.55,0-1-.45-1-1v-26.35c0-.55-.45-1-1-1h-26.35c-.55,0-1-.45-1-1v-26.35c0-.55-.45-1-1-1h-26.34c-.55,0-1-.45-1-1v-26.34c0-.55-.45-1-1-1h-26.35c-.55,0-1-.45-1-1v-54.7c0-.55-.45-1-1-1h-26.35c-.55,0-1-.45-1-1v-26.34c0-.55-.45-1-1-1h-26.34c-.55,0-1-.45-1-1v-189.43c0-.55.45-1,1-1h26.34c.55,0,1-.45,1-1v-111.38c0-.55.45-1,1-1h26.35c.55,0,1-.45,1-1V8c0-.55.45-1,1-1h104.38c.55,0,1,.45,1,1v26.34c0,.55.45,1,1,1h600.28c.55,0,1-.45,1-1V8c0-.55.45-1,1-1h104.39c.55,0,1,.45,1,1v168.08c0,.55.45,1,1,1h26.34c.55,0,1,.45,1,1v111.38c0,.55.45,1,1,1h26.35c.55,0,1,.45,1,1v189.43c0,.55-.45,1-1,1h-26.35c-.55,0-1,.45-1,1v26.34c0,.55-.45,1-1,1h-26.34c-.55,0-1,.45-1,1v54.7c0,.55-.45,1-1,1h-26.35c-.55,0-1,.45-1,1v26.34c0,.55-.45,1-1,1h-26.35c-.55,0-1,.45-1,1v26.35c0,.55-.45,1-1,1h-26.34c-.55,0-1,.45-1,1v26.35c0,.55-.45,1-1,1h-54.7c-.55,0-1,.45-1,1v26.34c0,.55-.45,1-1,1h-83.04c-.55,0-1,.45-1,1v33.35c0,.55.45,1,1,1h139.74c.55,0,1,.45,1,1v26.35c0,.55.45,1,1,1h54.69c.55,0,1,.45,1,1v26.34c0,.55.45,1,1,1h54.69c.55,0,1,.45,1,1v26.35c0,.55.45,1,1,1h54.7c.55,0,1,.45,1,1v26.35c0,.55.45,1,1,1h90.03c.55,0,1-.45,1-1v-26.35c0-.55.45-1,1-1h47.7c.55,0,1,.45,1,1v47.69c0,.55-.45,1-1,1Z" fill="#7caa4a"/><rect x="7" y="772.35" width="49.7" height="21.35" rx="1" ry="1" fill="#171917"/><path d="M1332.29,801.7v47.69c0,.55-.45,1-1,1h-54.7c-.55,0-1,.45-1,1v26.35c0,.55-.45,1-1,1h-54.69c-.55,0-1,.45-1,1v26.34c0,.55-.45,1-1,1h-104.38c-.55,0-1-.45-1-1v-26.34c0-.55-.45-1-1-1h-54.7c-.55,0-1-.45-1-1v-26.35c0-.55-.45-1-1-1h-146.73c-.55,0-1,.45-1,1v33.35c0,.55.45,1,1,1h26.35c.55,0,1,.45,1,1v83.04c0,.55.45,1,1,1h26.34c.55,0,1,.45,1,1v54.69c0,.55.45,1,1,1h26.35c.55,0,1,.45,1,1v26.35c0,.55.45,1,1,1h83.04c.55,0,1,.45,1,1v19.34c0,.55-.45,1-1,1h-26.35c-.55,0-1,.45-1,1v26.35c0,.55-.45,1-1,1h-104.38c-.55,0-1-.45-1-1v-26.35c0-.55-.45-1-1-1h-26.35c-.55,0-1-.45-1-1v-26.34c0-.55-.45-1-1-1h-26.35c-.55,0-1-.45-1-1v-83.04c0-.55-.45-1-1-1h-26.34c-.55,0-1-.45-1-1v-54.7c0-.55-.45-1-1-1h-26.35c-.55,0-1-.45-1-1v-26.34c0-.55-.45-1-1-1h-33.34c-.55,0-1,.45-1,1v118.38c0,.55.45,1,1,1h26.34c.55,0,1,.45,1,1v83.04c0,.55.45,1,1,1h26.35c.55,0,1,.45,1,1v26.35c0,.55.45,1,1,1h26.34c.55,0,1,.45,1,1v19.35c0,.55-.45,1-1,1h-104.38c-.55,0-1-.45-1-1v-26.35c0-.55-.45-1-1-1h-26.35c-.55,0-1-.45-1-1v-111.39c0-.55-.45-1-1-1h-26.34c-.55,0-1-.45-1-1v-83.04c0-.55-.45-1-1-1h-33.35c-.55,0-1,.45-1,1v83.04c0,.55-.45,1-1,1h-26.35c-.55,0-1,.45-1,1v111.39c0,.55-.45,1-1,1h-26.34c-.55,0-1,.45-1,1v26.35c0,.55-.45,1-1,1h-104.39c-.55,0-1-.45-1-1v-19.35c0-.55.45-1,1-1h26.35c.55,0,1-.45,1-1v-26.35c0-.55.45-1,1-1h26.34c.55,0,1-.45,1-1v-83.04c0-.55.45-1,1-1h26.35c.55,0,1-.45,1-1v-118.38c0-.55-.45-1-1-1h-33.35c-.55,0-1,.45-1,1v26.34c0,.55-.45,1-1,1h-26.34c-.55,0-1,.45-1,1v54.7c0,.55-.45,1-1,1h-26.35c-.55,0-1,.45-1,1v83.04c0,.55-.45,1-1,1h-26.35c-.55,0-1,.45-1,1v26.34c0,.55-.45,1-1,1h-26.34c-.55,0-1,.45-1,1v26.35c0,.55-.45,1-1,1h-104.39c-.55,0-1-.45-1-1v-26.35c0-.55-.45-1-1-1h-26.34c-.55,0-1-.45-1-1v-19.34c0-.55.45-1,1-1h83.03c.55,0,1-.45,1-1v-26.35c0-.55.45-1,1-1h26.35c.55,0,1-.45,1-1v-54.69c0-.55.45-1,1-1h26.35c.55,0,1-.45,1-1v-83.04c0-.55.45-1,1-1h26.34c.55,0,1-.45,1-1v-33.35c0-.55-.45-1-1-1h-146.73c-.55,0-1,.45-1,1v26.35c0,.55-.45,1-1,1h-54.69c-.55,0-1,.45-1,1v26.34c0,.55-.45,1-1,1h-104.39c-.55,0-1-.45-1-1v-26.34c0-.55-.45-1-1-1h-54.69c-.55,0-1-.45-1-1v-26.35c0-.55-.45-1-1-1h-54.69c-.55,0-1-.45-1-1v-47.69c0-.55.45-1,1-1h47.69c.55,0,1,.45,1,1v26.35c0,.55.45,1,1,1h90.04c.55,0,1-.45,1-1v-26.35c0-.55.45-1,1-1h54.69c.55,0,1-.45,1-1v-26.35c0-.55.45-1,1-1h54.7c.55,0,1-.45,1-1v-26.34c0-.55.45-1,1-1h54.69c.55,0,1-.45,1-1v-26.35c0-.55.45-1,1-1h139.73c.55,0,1-.45,1-1v-33.35c0-.55-.45-1-1-1h-83.04c-.55,0-1-.45-1-1v-26.34c0-.55-.45-1-1-1h-54.69c-.55,0-1-.45-1-1v-26.35c0-.55-.45-1-1-1h-26.35c-.55,0-1-.45-1-1v-26.35c0-.55-.45-1-1-1h-26.34c-.55,0-1-.45-1-1v-26.34c0-.55-.45-1-1-1h-26.35c-.55,0-1-.45-1-1v-54.7c0-.55-.45-1-1-1h-26.35c-.55,0-1-.45-1-1v-26.34c0-.55-.45-1-1-1h-26.34c-.55,0-1-.45-1-1v-189.43c0-.55.45-1,1-1h26.34c.55,0,1-.45,1-1v-111.38c0-.55.45-1,1-1h26.35c.55,0,1-.45,1-1V8c0-.55.45-1,1-1h104.38c.55,0,1,.45,1,1v26.34c0,.55.45,1,1,1h600.28c.55,0,1-.45,1-1V8c0-.55.45-1,1-1h104.39c.55,0,1,.45,1,1v168.08c0,.55.45,1,1,1h26.34c.55,0,1,.45,1,1v111.38c0,.55.45,1,1,1h26.35c.55,0,1,.45,1,1v189.43c0,.55-.45,1-1,1h-26.35c-.55,0-1,.45-1,1v26.34c0,.55-.45,1-1,1h-26.34c-.55,0-1,.45-1,1v54.7c0,.55-.45,1-1,1h-26.35c-.55,0-1,.45-1,1v26.34c0,.55-.45,1-1,1h-26.35c-.55,0-1,.45-1,1v26.35c0,.55-.45,1-1,1h-26.34c-.55,0-1,.45-1,1v26.35c0,.55-.45,1-1,1h-54.7c-.55,0-1,.45-1,1v26.34c0,.55-.45,1-1,1h-83.04c-.55,0-1,.45-1,1v33.35c0,.55.45,1,1,1h139.74c.55,0,1,.45,1,1v26.35c0,.55.45,1,1,1h54.69c.55,0,1,.45,1,1v26.34c0,.55.45,1,1,1h54.69c.55,0,1,.45,1,1v26.35c0,.55.45,1,1,1h54.7c.55,0,1,.45,1,1v26.35c0,.55.45,1,1,1h90.03c.55,0,1-.45,1-1v-26.35c0-.55.45-1,1-1h47.7c.55,0,1,.45,1,1Z" fill="#171917"/></svg>