<?xml version="1.0" encoding="UTF-8"?><svg id="_レイヤー_1" xmlns="http://www.w3.org/2000/svg" width="576.87" height="576.87" viewBox="0 0 576.87 576.87"><rect x="258.9" y="176.02" width=".01" height="23.05" fill="#7caa4a"/><path d="M523.1,406.47h-33.97c-1.19,0-2.15-.97-2.15-2.17v-87.84c0-1.2-.96-2.17-2.15-2.17h-41.31c-1.19,0-2.15-.97-2.15-2.17v-41.77c0-1.2-.96-2.17-2.15-2.17h-41.32c-1.19,0-2.15-.97-2.15-2.17v-41.74c0-1.2-.96-2.17-2.15-2.17h-41.34c-1.19,0-2.15-.97-2.15-2.17v-41.76c0-1.2-.96-2.17-2.15-2.17h-41.31c-1.19,0-2.15-.97-2.15-2.17v-18.72c0-1.2-.96-2.17-2.15-2.17h-29.29c-1.19,0-2.15-.97-2.15-2.17v-18.7c0-1.2-.96-2.17-2.15-2.17h-41.34c-1.19,0-2.15.97-2.15,2.17v41.76c0,1.2.96,2.17,2.15,2.17h29.31c1.14,0,2.06.9,2.13,2.02.01.04.01.1.01.14v41.76c0,1.2-.96,2.17-2.15,2.17h-41.34c-1.19,0-2.15.97-2.15,2.17v41.74c0,1.2-.96,2.17-2.15,2.17h-41.31c-1.19,0-2.15.97-2.15,2.17v41.77c0,1.2-.96,2.17-2.15,2.17h-94.16c-1.19,0-2.15.97-2.15,2.17v13.46c0,1.2.96,2.17,2.15,2.17h48.55c1.19,0,2.15.97,2.15,2.17v13.27c0,1.2-.96,2.17-2.15,2.17h-31.54c-1.19,0-2.15.97-2.15,2.17v13.44c0,1.2.96,2.17,2.15,2.17h31.54c1.19,0,2.15.97,2.15,2.17v34.66c0,1.2-.96,2.17-2.15,2.17h-32.33c-1.19,0-2.15.97-2.15,2.17v87.85c0,1.2.96,2.17,2.15,2.17h34.47s364.91.01,364.91.01h0s36.12-.01,36.12-.01c1.19,0,2.15-.97,2.15-2.17v-87.85c0-1.2-.96-2.17-2.15-2.17ZM219.22,342.83c0,1.2-.96,2.17-2.15,2.17h-21.7c-1.19,0-2.15-.97-2.15-2.17v-21.94c0-1.2.96-2.17,2.15-2.17h21.7c1.19,0,2.15.97,2.15,2.17v21.94ZM272.89,384.14c0,1.2-.96,2.17-2.15,2.17h-47.5c-1.19,0-2.15-.97-2.15-2.17v-15.29c0-1.2.96-2.17,2.15-2.17h10.34c1.19,0,2.15-.97,2.15-2.17v-14.51c0-1.2.96-2.17,2.15-2.17h16.16c1.19,0,2.15.97,2.15,2.17v14.51c0,1.2.96,2.17,2.15,2.17h12.42c1.19,0,2.15.97,2.15,2.17v15.29ZM319.39,342.83c0,1.2-.96,2.17-2.15,2.17h-21.71c-1.19,0-2.15-.97-2.15-2.17v-21.94c0-1.2.96-2.17,2.15-2.17h21.71c1.19,0,2.15.97,2.15,2.17v21.94ZM412.48,406.73c0,1.2-.96,2.17-2.15,2.17h-11.06c-1.19,0-2.15-.97-2.15-2.17v-11.17c0-1.2-.96-2.17-2.15-2.17h-53.98c-1.19,0-2.15-.97-2.15-2.17v-11.17c0-1.2.96-2.17,2.15-2.17h53.98c1.19,0,2.15.97,2.15,2.17v11.17c0,1.2.96,2.17,2.15,2.17h11.06c1.19,0,2.15.97,2.15,2.17v11.17ZM427.32,375.87c0,1.2-.96,2.17-2.15,2.17h-11.06c-1.19,0-2.15-.97-2.15-2.17v-11.19c0-1.2-.96-2.17-2.15-2.17h-62.45c-1.19,0-2.15-.97-2.15-2.17v-11.17c0-1.2.96-2.17,2.15-2.17h62.45c1.19,0,2.15.97,2.15,2.17v11.17c0,1.2.96,2.17,2.15,2.17h11.06c1.19,0,2.15.97,2.15,2.17v11.19Z" fill="#7caa4a"/><polygon points="122.07 498.67 122.07 498.65 87.6 498.65 122.07 498.67" fill="#7caa4a"/><polygon points="486.98 498.67 486.98 498.65 523.1 498.65 486.98 498.67" fill="#7caa4a"/><rect x="51.53" y="332.17" width="17.78" height="17.6" rx="2.16" ry="2.16" transform="translate(-280.55 401.4) rotate(-90)" fill="#7caa4a"/><path d="M86.24,369.64v13.46c0,1.2-.96,2.17-2.15,2.17h-13.32c-1.18,0-2.15-.97-2.15-2.17v-13.46c0-1.2.96-2.17,2.15-2.17h13.32c1.18,0,2.15.97,2.15,2.17Z" fill="#7caa4a"/></svg>