<?xml version="1.0" encoding="UTF-8"?><svg id="_レイヤー_1" xmlns="http://www.w3.org/2000/svg" width="576.87" height="576.87" viewBox="0 0 576.87 576.87"><path d="M557.33,254.59h-30.26c-.99,0-1.79-.8-1.79-1.79v-30.25c0-.99-.8-1.79-1.79-1.79h-64.09c-.99,0-1.79-.81-1.79-1.79v-30.26c0-.99-.8-1.79-1.79-1.79h-64.1c-.98,0-1.79.8-1.79,1.79v81c0,.99-.8,1.79-1.79,1.79h-47.17c-.98,0-1.79-.8-1.79-1.79v-81c0-.99-.8-1.79-1.79-1.79h-30.25c-.99,0-1.79.8-1.79,1.79v81c0,.99-.8,1.79-1.79,1.79h-47.17c-.99,0-1.79-.8-1.79-1.79v-81c0-.99-.8-1.79-1.79-1.79h-30.26c-.99,0-1.79.8-1.79,1.79v81c0,.99-.8,1.79-1.79,1.79h-47.17c-.99,0-1.79-.8-1.79-1.79v-47.16c0-.99-.8-1.79-1.79-1.79h-30.25c-.99,0-1.79.8-1.79,1.79v47.16c0,.99-.81,1.79-1.79,1.79h-47.17c-.99,0-1.79-.8-1.79-1.79v-30.25c0-.99-.81-1.79-1.79-1.79h-30.26c-.99,0-1.79.8-1.79,1.79v97.93c0,.99.8,1.79,1.79,1.79h30.26c.98,0,1.79-.8,1.79-1.79v-30.26c0-.99.8-1.79,1.79-1.79h47.17c.98,0,1.79.8,1.79,1.79v47.17c0,.99.8,1.79,1.79,1.79h30.25c.99,0,1.79-.8,1.79-1.79v-47.17c0-.99.8-1.79,1.79-1.79h47.17c.99,0,1.79.8,1.79,1.79v81.01c0,.99.8,1.79,1.79,1.79h30.26c.99,0,1.79-.8,1.79-1.79v-81.01c0-.99.8-1.79,1.79-1.79h47.17c.99,0,1.79.8,1.79,1.79v81.01c0,.99.8,1.79,1.79,1.79h30.25c.99,0,1.79-.8,1.79-1.79v-81.01c0-.99.81-1.79,1.79-1.79h47.17c.99,0,1.79.8,1.79,1.79v81.01c0,.99.81,1.79,1.79,1.79h64.1c.99,0,1.79-.8,1.79-1.79v-30.26c0-.99.8-1.79,1.79-1.79h64.09c.99,0,1.79-.8,1.79-1.79v-18.79h-32.05c-.98,0-1.79-.8-1.79-1.79v-9.68c0-.98.81-1.79,1.79-1.79h64.1c.98,0,1.79-.8,1.79-1.79v-64.09c0-.99-.81-1.79-1.79-1.79ZM442.85,254.4c0-.99.8-1.79,1.79-1.79h11.39c.98,0,1.79.8,1.79,1.79v11.39c0,.99-.81,1.79-1.79,1.79h-11.39c-.99,0-1.79-.8-1.79-1.79v-11.39ZM457.81,295.71c0,.99-.81,1.79-1.79,1.79h-11.39c-.99,0-1.79-.8-1.79-1.79v-11.39c0-.99.8-1.79,1.79-1.79h11.39c.98,0,1.79.8,1.79,1.79v11.39ZM470.98,282.54h-11.38c-.99,0-1.79-.8-1.79-1.79v-11.38c0-.99.8-1.79,1.79-1.79h11.38c.99,0,1.79.8,1.79,1.79v11.38c0,.99-.8,1.79-1.79,1.79ZM487.74,295.71c0,.99-.8,1.79-1.79,1.79h-11.39c-.99,0-1.79-.8-1.79-1.79v-11.39c0-.99.8-1.79,1.79-1.79h11.39c.99,0,1.79.8,1.79,1.79v11.39ZM487.74,265.79c0,.99-.8,1.79-1.79,1.79h-11.39c-.99,0-1.79-.8-1.79-1.79v-11.39c0-.99.8-1.79,1.79-1.79h11.39c.99,0,1.79.8,1.79,1.79v11.39Z" fill="#7caa4a"/><rect x="17.75" y="339.18" width="33.84" height="33.84" rx="1.79" ry="1.79" fill="#7caa4a"/><rect x="17.75" y="203.84" width="33.84" height="33.84" rx="1.79" ry="1.79" fill="#7caa4a"/></svg>