<?xml version="1.0" encoding="UTF-8"?><svg id="_レイヤー_1" xmlns="http://www.w3.org/2000/svg" width="576.87" height="576.87" viewBox="0 0 576.87 576.87"><path d="M484.46,342.3c.64,0,1.15-.52,1.15-1.15v-42.97h-.14v-41.16c0-.64-.52-1.15-1.15-1.15h-18.64c-.64,0-1.15-.52-1.15-1.15v-30.86h-.04v-36.49c0-.64-.52-1.15-1.15-1.15h-32.37c-.64,0-1.15-.52-1.15-1.15v-36.45c0-.64-.52-1.15-1.15-1.15h-41.82c-.64,0-1.15.52-1.15,1.15v41.82c0,.64.52,1.15,1.15,1.15h32.37c.64,0,1.15.52,1.15,1.15v37.6h.04v36.49c0,.64.52,1.15,1.15,1.15h18.64c.64,0,1.15.52,1.15,1.15v30.86h.14v24.84c0,.64-.52,1.15-1.15,1.15h-22.95c-.64,0-1.15.52-1.15,1.15v42.97h.12v39.31c0,.64-.52,1.15-1.15,1.15h-53.15c-.64,0-1.15.52-1.15,1.15v40.91c0,.64-.52,1.15-1.15,1.15h-28.76s-42.08,0-42.08,0h-43.02s-28.76,0-28.76,0c-.64,0-1.15-.52-1.15-1.15v-40.91c0-.64-.52-1.15-1.15-1.15h-53.15c-.64,0-1.15-.52-1.15-1.15v-39.31h.12v-42.97c0-.64-.52-1.15-1.15-1.15h-22.95c-.64,0-1.15-.52-1.15-1.15v-24.84h.14v-30.86c0-.64.52-1.15,1.15-1.15h18.64c.64,0,1.15-.52,1.15-1.15v-36.49h.04v-37.6c0-.64.52-1.15,1.15-1.15h57.15c.64,0,1.15-.52,1.15-1.15v-22.07c0-.64.52-1.15,1.15-1.15h27.18c.64,0,1.15.52,1.15,1.15v85.95c0,.64.52,1.15,1.15,1.15h41.82c.64,0,1.15-.52,1.15-1.15V80.1c0-.64-.52-1.15-1.15-1.15H114.22c-.64,0-1.15.52-1.15,1.15v41.82c0,.64.52,1.15,1.15,1.15h85.95c.64,0,1.15.52,1.15,1.15v22.07c0,.64-.52,1.15-1.15,1.15h-51.97c-.64,0-1.15.52-1.15,1.15v36.45c0,.64-.52,1.15-1.15,1.15h-32.37c-.64,0-1.15.52-1.15,1.15v36.49h-.04v30.86c0,.64-.52,1.15-1.15,1.15h-18.64c-.64,0-1.15.52-1.15,1.15v41.16h-.14v42.97c0,.64.52,1.15,1.15,1.15h22.95c.64,0,1.15.52,1.15,1.15v26.56h-.12v42.97c0,.64.52,1.15,1.15,1.15h28.36c.64,0,1.15.52,1.15,1.15v38.24c0,.64.52,1.15,1.15,1.15h52.39c.64,0,1.15.52,1.15,1.15v40.91c0,.64.52,1.15,1.15,1.15h41.87s43.42,0,43.42,0h44.13s41.63,0,41.63,0c.64,0,1.15-.52,1.15-1.15v-40.91c0-.64.52-1.15,1.15-1.15h52.39c.64,0,1.15-.52,1.15-1.15v-38.24c0-.64.52-1.15,1.15-1.15h28.36c.64,0,1.15-.52,1.15-1.15v-42.97h-.12v-26.56c0-.64.52-1.15,1.15-1.15h22.95Z" fill="#7caa4a"/></svg>