<?xml version="1.0" encoding="UTF-8"?><svg id="_レイヤー_1" xmlns="http://www.w3.org/2000/svg" width="1074.27" height="1382.66" viewBox="0 0 1074.27 1382.66"><rect x="348.29" y="1146.61" width="14.82" height="14.82" rx=".99" ry=".99" fill="#86aa57"/><rect x="363.11" y="1194.24" width="14.82" height="14.82" rx=".99" ry=".99" fill="#86aa57"/><path d="M711.15,1132.78v12.85c0,.54-.44.99-.99.99h-35.71c-.54,0-.99.44-.99.99v16.02c0,.54.44.99.99.99h20.89c.54,0,.99.44.99.99v27.67c0,.54-.44.99-.99.99h-12.84c-.54,0-.99-.44-.99-.99v-12.85c0-.54-.44-.99-.99-.99h-23.01c-.54,0-.99.44-.99.99v14.97c0,.54-.44.99-.99.99h-14.97c-.54,0-.99.44-.99.99v14.97c0,.54-.44.99-.99.99h-31.9c-.54,0-.99.44-.99.99v14.97c0,.54.44.99.99.99h14.97c.54,0,.99.44.99.99v14.97c0,.54.44.99.99.99h14.97c.54,0,.99.44.99.99v31.9c0,.54-.44.99-.99.99h-14.97c-.54,0-.99-.44-.99-.99v-14.97c0-.54-.44-.99-.99-.99h-31.9c-.54,0-.99.44-.99.99v99.65c0,.54-.44.99-.99.99h-14.97c-.54,0-.99-.44-.99-.99v-14.97c0-.54-.44-.99-.99-.99h-14.97c-.54,0-.99-.44-.99-.99v-14.97c0-.54-.44-.99-.99-.99h-31.9c-.54,0-.99.44-.99.99v14.97c0,.54-.44.99-.99.99h-14.96c-.54,0-.99.44-.99.99v31.9c0,.54-.44.99-.99.99h-14.97c-.54,0-.99-.44-.99-.99v-116.58c0-.54-.44-.99-.99-.99h-48.84c-.54,0-.99-.44-.99-.99v-14.97c0-.54-.44-.99-.99-.99h-14.97c-.54,0-.99-.44-.99-.99v-31.9c0-.54.44-.99.99-.99h14.97c.54,0,.99.44.99.99v14.97c0,.54.44.99.99.99h31.9c.54,0,.99-.44.99-.99v-14.97c0-.54-.44-.99-.99-.99h-31.9c-.54,0-.99-.44-.99-.99v-14.97c0-.54-.44-.99-.99-.99h-14.97c-.54,0-.99-.44-.99-.99v-14.97c0-.54-.44-.99-.99-.99h-24.7c-.54,0-.99.44-.99.99v12.85c0,.54-.44.99-.99.99h-12.85c-.54,0-.99-.44-.99-.99v-27.67c0-.54.44-.99.99-.99h22.58c.54,0,.99-.44.99-.99v-16.02c0-.54-.44-.99-.99-.99h-37.4c-.54,0-.99-.44-.99-.99v-12.85c0-.54.44-.99.99-.99h37.4c.54,0,.99-.44.99-.99v-52.01c0-.54.44-.99.99-.99h14.97c.54,0,.99-.44.99-.99v-14.97c0-.54.44-.99.99-.99h14.97c.54,0,.99-.44.99-.99v-31.9c0-.54.44-.99.99-.99h14.97c.54,0,.99-.44.99-.99v-14.96c0-.54.44-.99.99-.99h14.97c.54,0,.99.44.99.99v14.96c0,.54.44.99.99.99h14.97c.54,0,.99.44.99.99v14.97c0,.54.44.99.99.99h99.65c.54,0,.99-.44.99-.99v-14.97c0-.54.44-.99.99-.99h14.97c.54,0,.99-.44.99-.99v-14.96c0-.54.44-.99.99-.99h14.97c.54,0,.99.44.99.99v14.96c0,.54.44.99.99.99h14.97c.54,0,.99.44.99.99v31.9c0,.54.44.99.99.99h14.97c.54,0,.99.44.99.99v14.97c0,.54.44.99.99.99h14.97c.54,0,.99.44.99.99v52.01c0,.54.44.99.99.99h35.71c.54,0,.99.44.99.99Z" fill="#86aa57"/><rect x="711.16" y="1146.61" width="14.82" height="14.82" rx=".99" ry=".99" fill="#86aa57"/><rect x="696.34" y="1194.24" width="14.82" height="14.82" rx=".99" ry=".99" fill="#86aa57"/><path d="M387.18,771.33h-12.33c-1.46,0-2.53.88-2.53,2.09v37.26c0,.2-.36.36-.8.36h-34.76c-.44,0-.8-.16-.8-.36v-37.26c0-1.21-1.06-2.09-2.53-2.09h-12.33c-1.46,0-2.53.88-2.53,2.09v88.14c0,1.21,1.06,2.09,2.53,2.09h12.33c1.46,0,2.53-.88,2.53-2.09v-37.26c0-.2.36-.36.8-.36h34.76c.44,0,.8.16.8.36v37.26c0,1.21,1.06,2.09,2.53,2.09h12.33c1.46,0,2.53-.88,2.53-2.09v-88.14c0-1.21-1.06-2.09-2.53-2.09Z" fill="#86aa57"/><path d="M481.36,781.26h-10.11c-.44,0-.8-.16-.8-.36v-7.47c0-1.21-1.06-2.09-2.53-2.09h-39.19c-1.46,0-2.53.88-2.53,2.09v7.47c0,.2-.36.36-.8.36h-10.11c-1.46,0-2.53.88-2.53,2.09v78.21c0,1.21,1.06,2.09,2.53,2.09h12.33c1.46,0,2.53-.88,2.53-2.09v-37.26c0-.2.36-.36.8-.36h34.76c.44,0,.8.16.8.36v37.26c0,1.21,1.06,2.09,2.53,2.09h12.33c1.46,0,2.53-.88,2.53-2.09v-78.21c0-1.21-1.06-2.09-2.53-2.09ZM466.5,784.58v26.11c0,.2-.36.36-.8.36h-34.76c-.44,0-.8-.16-.8-.36v-26.11c0-.2.36-.36.8-.36h34.76c.44,0,.8.16.8.36Z" fill="#86aa57"/><path d="M575.53,781.26h-10.11c-.44,0-.8-.16-.8-.36v-7.47c0-1.21-1.06-2.09-2.53-2.09h-52.63c-1.46,0-2.53.88-2.53,2.09v88.14c0,1.21,1.06,2.09,2.53,2.09h12.33c1.46,0,2.53-.88,2.53-2.09v-27.33c0-.2.36-.36.8-.36h36.98c1.46,0,2.53-.88,2.53-2.09v-7.47c0-.2.36-.36.8-.36h10.11c1.46,0,2.53-.88,2.53-2.09v-38.49c0-1.21-1.06-2.09-2.53-2.09ZM560.68,784.58v36.04c0,.2-.36.36-.8.36h-34.76c-.44,0-.8-.16-.8-.36v-36.04c0-.2.36-.36.8-.36h34.76c.44,0,.8.16.8.36Z" fill="#86aa57"/><path d="M666.92,781.26h-10.11c-.44,0-.8-.16-.8-.36v-7.47c0-1.21-1.06-2.09-2.53-2.09h-52.63c-1.46,0-2.53.88-2.53,2.09v88.14c0,1.21,1.06,2.09,2.53,2.09h12.33c1.46,0,2.53-.88,2.53-2.09v-27.33c0-.2.36-.36.8-.36h36.98c1.46,0,2.53-.88,2.53-2.09v-7.47c0-.2.36-.36.8-.36h10.11c1.46,0,2.53-.88,2.53-2.09v-38.49c0-1.21-1.06-2.09-2.53-2.09ZM652.07,784.58v36.04c0,.2-.36.36-.8.36h-34.76c-.44,0-.8-.16-.8-.36v-36.04c0-.2.36-.36.8-.36h34.76c.44,0,.8.16.8.36Z" fill="#86aa57"/><path d="M753.15,771.33h-12.33c-1.46,0-2.53.88-2.53,2.09v27.33c0,.2-.36.36-.8.36h-10.11c-1.46,0-2.53.88-2.53,2.09v17.2c0,.2-.36.36-.8.36h-7.89c-.44,0-.8-.16-.8-.36v-17.2c0-1.21-1.06-2.09-2.53-2.09h-10.11c-.44,0-.8-.16-.8-.36v-27.33c0-1.21-1.06-2.09-2.53-2.09h-12.33c-1.46,0-2.53.88-2.53,2.09v28.56c0,1.21,1.06,2.09,2.53,2.09h10.11c.44,0,.8.16.8.36v17.2c0,1.21,1.06,2.09,2.53,2.09h10.11c.44,0,.8.16.8.36v37.47c0,1.21,1.06,2.09,2.53,2.09h12.33c1.46,0,2.53-.88,2.53-2.09v-37.26c0-.2.36-.36.8-.36h10.11c1.46,0,2.53-.88,2.53-2.09v-17.4c0-.2.36-.36.8-.36h10.11c1.46,0,2.53-.88,2.53-2.09v-28.56c0-1.21-1.06-2.09-2.53-2.09Z" fill="#86aa57"/></svg>