<?xml version="1.0" encoding="UTF-8"?><svg id="_レイヤー_1" xmlns="http://www.w3.org/2000/svg" width="576.87" height="576.87" viewBox="0 0 576.87 576.87"><path d="M478.77,286.87v-26.18c0-.86-.69-1.55-1.55-1.55h-26.19c-.86,0-1.55-.69-1.55-1.55v-26.19c0-.86-.69-1.55-1.55-1.55h-26.19c-.86,0-1.55-.69-1.55-1.55v-26.19c0-.86-.69-1.55-1.55-1.55h-26.18c-.86,0-1.55-.69-1.55-1.55v-26.18c0-.86-.69-1.55-1.55-1.55h-26.19c-.86,0-1.55-.69-1.55-1.55v-26.19c0-.86-.69-1.55-1.55-1.55h-26.18c-.86,0-1.55-.69-1.55-1.55v-26.19c0-.86-.69-1.55-1.55-1.55h-26.18c-.86,0-1.55-.69-1.55-1.55v-26.18c0-.86-.69-1.55-1.55-1.55h-26.18c-.86,0-1.55.69-1.55,1.55v26.19c0,.86-.7,1.55-1.56,1.55h-26.18c-.86,0-1.55.69-1.55,1.55v26.19c0,.86-.7,1.55-1.56,1.55h-26.18c-.86,0-1.55.69-1.55,1.55v26.19c0,.86-.7,1.55-1.56,1.55h-26.18c-.86,0-1.55.69-1.55,1.55v26.18c0,.86-.69,1.55-1.55,1.55h-26.18c-.86,0-1.55.69-1.55,1.55v26.19c-.01.86-.7,1.55-1.56,1.55h-26.18c-.86,0-1.55.69-1.55,1.55v26.19c0,.86-.7,1.55-1.56,1.55h-26.18c-.86,0-1.55.69-1.55,1.55v26.18c0,.86-.69,1.55-1.55,1.55h-26.19c-.86,0-1.55.69-1.55,1.55v26.19c0,.86.69,1.55,1.55,1.55h26.19c.86,0,1.55.69,1.55,1.55v143.3c0,.86.69,1.55,1.55,1.55h27.74v27.75c0,.86.69,1.55,1.55,1.55h73.98c.86,0,1.55-.69,1.55-1.55v-143.32c0-.86.69-1.55,1.55-1.55h66.23c.86,0,1.55.69,1.55,1.55v143.31c0,.86.69,1.55,1.55,1.55h27.74s144.85.01,144.85.01c.86,0,1.55-.69,1.55-1.55v-26.2c0-.86.69-1.55,1.55-1.55h26.19c.86,0,1.55-.69,1.55-1.55v-143.31c0-.86.69-1.55,1.55-1.55h26.19c.86,0,1.55-.69,1.55-1.55v-26.19c0-.86-.69-1.55-1.55-1.55h-26.19c-.86,0-1.55-.69-1.55-1.55ZM366.62,433.92h-29.1c-.86,0-1.55-.69-1.55-1.55v-29.12c0-.86.69-1.55,1.55-1.55h29.1c.86,0,1.55.69,1.55,1.55v29.12c0,.86-.69,1.55-1.55,1.55ZM366.62,379.02h-29.1c-.86,0-1.55-.69-1.55-1.55v-29.12c0-.86.69-1.55,1.55-1.55h29.1c.86,0,1.55.69,1.55,1.55v29.12c0,.86-.69,1.55-1.55,1.55ZM419.83,433.92h-29.1c-.86,0-1.55-.69-1.55-1.55v-29.12c0-.86.69-1.55,1.55-1.55h29.1c.86,0,1.55.69,1.55,1.55v29.12c0,.86-.69,1.55-1.55,1.55ZM419.83,379.02h-29.1c-.86,0-1.55-.69-1.55-1.55v-29.12c0-.86.69-1.55,1.55-1.55h29.1c.86,0,1.55.69,1.55,1.55v29.12c0,.86-.69,1.55-1.55,1.55Z" fill="#7caa4a"/></svg>