<?xml version="1.0" encoding="UTF-8"?><svg id="_レイヤー_1" xmlns="http://www.w3.org/2000/svg" width="576.87" height="576.87" viewBox="0 0 576.87 576.87"><path d="M543.11,256.39h-28.66c-.94,0-1.7-.76-1.7-1.7v-28.66c0-.94-.76-1.7-1.7-1.7h-60.7c-.94,0-1.7-.76-1.7-1.7v-28.66c0-.93-.76-1.7-1.7-1.7h-92.75c-.94,0-1.7-.76-1.7-1.7v-28.65c0-.94-.76-1.7-1.7-1.7h-92.75c-.94,0-1.7.76-1.7,1.7v28.65c0,.94-.76,1.7-1.7,1.7h-60.7c-.94,0-1.7.77-1.7,1.7v28.66c0,.94-.77,1.7-1.7,1.7h-60.71c-.93,0-1.7.76-1.7,1.7v28.66c0,.94-.76,1.7-1.7,1.7h-28.65c-.94,0-1.7-.76-1.7-1.7v-28.66c0-.94-.76-1.7-1.7-1.7h-28.66c-.94,0-1.7-.76-1.7-1.7v-28.66c0-.93-.76-1.7-1.7-1.7h-28.65c-.94,0-1.7.77-1.7,1.7v60.71c0,.94.76,1.7,1.7,1.7h28.65c.94,0,1.7.76,1.7,1.7v60.7c0,.94-.76,1.7-1.7,1.7h-28.65c-.94,0-1.7.76-1.7,1.7v60.7c0,.94.76,1.7,1.7,1.7h28.65c.94,0,1.7-.76,1.7-1.7v-28.65c0-.94.76-1.7,1.7-1.7h28.66c.94,0,1.7-.76,1.7-1.7v-28.66c0-.94.76-1.7,1.7-1.7h28.65c.94,0,1.7.76,1.7,1.7v28.66c0,.94.77,1.7,1.7,1.7h60.71c.93,0,1.7.76,1.7,1.7v28.65c0,.94.76,1.7,1.7,1.7h92.75c.93,0,1.7.77,1.7,1.7v28.66c0,.94.76,1.7,1.7,1.7h60.7c.94,0,1.7-.76,1.7-1.7v-28.66c0-.93.76-1.7,1.7-1.7h92.75c.94,0,1.7-.76,1.7-1.7v-28.65c0-.94.76-1.7,1.7-1.7h60.7c.94,0,1.7-.76,1.7-1.7v-28.66c0-.94.76-1.7,1.7-1.7h28.66c.94,0,1.7-.76,1.7-1.7v-60.7c0-.94-.76-1.7-1.7-1.7ZM436.35,290.18c0,.93-.76,1.7-1.7,1.7h-15.35c-.93,0-1.7-.77-1.7-1.7v-15.35c0-.94.77-1.7,1.7-1.7h15.35c.94,0,1.7.76,1.7,1.7v15.35ZM488.47,319.64c0,.94-.76,1.7-1.7,1.7h-33.94c-.94,0-1.7-.76-1.7-1.7v-10.62c0-.94.76-1.7,1.7-1.7h33.94c.94,0,1.7.76,1.7,1.7v10.62ZM508.56,290.18c0,.93-.76,1.7-1.7,1.7h-15.35c-.94,0-1.7-.77-1.7-1.7v-15.35c0-.94.76-1.7,1.7-1.7h15.35c.94,0,1.7.76,1.7,1.7v15.35Z" fill="#7caa4a"/></svg>