<?xml version="1.0" encoding="UTF-8"?><svg id="_レイヤー_1" xmlns="http://www.w3.org/2000/svg" width="1724.31" height="649.03" viewBox="0 0 1724.31 649.03"><path d="M198.38,30.98h-29c-1.82,0-3.14-.8-3.14-1.9V7.64c0-2.98-2.69-5.14-6.39-5.14H8.91c-3.7,0-6.39,2.16-6.39,5.14v252.8c0,2.98,2.69,5.15,6.39,5.15h35.35c3.7,0,6.39-2.16,6.39-5.15v-106.87c0-1.11,1.32-1.91,3.15-1.91h99.7c1.82,0,3.15.8,3.15,1.91v106.87c0,2.98,2.69,5.15,6.39,5.15h35.35c3.7,0,6.39-2.16,6.39-5.15v-106.88c0-2.98-2.69-5.14-6.39-5.14h-29c-1.82,0-3.14-.8-3.14-1.91v-24.95c0-1.1,1.32-1.9,3.14-1.9h29c3.7,0,6.39-2.16,6.39-5.15V36.12c0-2.98-2.69-5.14-6.39-5.14ZM156.64,39.65v74.87c0,1.1-1.32,1.9-3.15,1.9H53.79c-1.82,0-3.15-.8-3.15-1.9V39.65c0-1.1,1.32-1.9,3.15-1.9h99.7c1.82,0,3.15.8,3.15,1.9Z" fill="#79a64a"/><path d="M431.9,87.94h-35.35c-3.7,0-6.39,2.16-6.39,5.14v135.35c0,1.1-1.32,1.9-3.14,1.9h-61.17c-1.82,0-3.15-.8-3.15-1.9V93.08c0-2.98-2.69-5.14-6.39-5.14h-35.35c-3.7,0-6.39,2.16-6.39,5.14v138.87c0,2.98,2.69,5.15,6.39,5.15h29c1.82,0,3.14.8,3.14,1.9v21.43c0,2.98,2.69,5.15,6.39,5.15h112.41c3.7,0,6.39-2.16,6.39-5.15V93.08c0-2.98-2.69-5.14-6.39-5.14Z" fill="#79a64a"/><path d="M666.89,116.42h-29c-1.82,0-3.15-.8-3.15-1.9v-21.44c0-2.98-2.69-5.14-6.39-5.14h-112.41c-3.7,0-6.39,2.16-6.39,5.14v167.36c0,2.98,2.69,5.15,6.39,5.15h35.35c3.7,0,6.39-2.16,6.39-5.15V125.09c0-1.1,1.32-1.9,3.15-1.9h61.17c1.82,0,3.14.8,3.14,1.9v135.35c0,2.98,2.69,5.15,6.39,5.15h35.35c3.7,0,6.39-2.16,6.39-5.15V121.57c0-2.98-2.69-5.15-6.39-5.15Z" fill="#79a64a"/><path d="M999.61,30.98h-29c-1.82,0-3.15-.8-3.15-1.9V7.64c0-2.98-2.69-5.14-6.39-5.14h-112.41c-3.7,0-6.39,2.16-6.39,5.14v21.44c0,1.1-1.32,1.9-3.14,1.9h-29c-3.7,0-6.39,2.16-6.39,5.14v224.32c0,2.98,2.69,5.15,6.39,5.15h35.35c3.7,0,6.39-2.16,6.39-5.15v-106.87c0-1.11,1.32-1.91,3.15-1.91h99.7c1.82,0,3.14.8,3.14,1.91v106.87c0,2.98,2.69,5.15,6.39,5.15h35.35c3.7,0,6.39-2.16,6.39-5.15V36.12c0-2.98-2.69-5.14-6.39-5.14ZM957.87,39.65v74.87c0,1.1-1.32,1.9-3.14,1.9h-99.7c-1.82,0-3.15-.8-3.15-1.9V39.65c0-1.1,1.32-1.9,3.15-1.9h99.7c1.82,0,3.14.8,3.14,1.9Z" fill="#79a64a"/><path d="M1270.87,87.94h-31.83c-2.95,0-8.73,1.55-8.73,5.14v78.4c0,1.1-1.32,1.9-3.15,1.9h-27.33c-1.82,0-3.15-.8-3.15-1.9v-78.4c0-2.98-2.69-5.14-6.39-5.14h-33.01c-3.7,0-6.39,2.16-6.39,5.14v78.4c0,1.1-1.32,1.9-3.14,1.9h-24.99c-2.58,0-5.3-1.31-5.49-1.9v-78.4c0-3.59-5.78-5.14-8.73-5.14h-31.83c-3.7,0-6.39,2.16-6.39,5.14v81.92c0,2.98,2.69,5.15,6.39,5.15h29c1.82,0,3.14.8,3.14,1.9v78.39c0,2.98,2.69,5.15,6.39,5.15h35.35c3.7,0,6.39-2.16,6.39-5.15v-78.39c0-1.1,1.32-1.9,3.15-1.9h26.96c.06.03.12.05.16.06,2.91,1.13,3.31,1.81,3.35,1.84v78.39c0,2.98,2.69,5.15,6.39,5.15h33.01c2.95,0,8.74-1.55,8.74-5.15v-78.39c0-1.1,1.32-1.9,3.14-1.9h29c3.7,0,6.39-2.16,6.39-5.15v-81.92c0-2.98-2.69-5.14-6.39-5.14Z" fill="#79a64a"/><path d="M1486.15,116.42h-29c-1.82,0-3.15-.8-3.15-1.9v-21.44c0-2.98-2.69-5.14-6.39-5.14h-73.88c-3.7,0-6.39,2.16-6.39,5.14v21.09c0,2.98,2.69,5.15,6.39,5.15h67.53c1.82,0,3.14.8,3.14,1.9v23.29c0,1.1-1.32,1.9-3.14,1.9h-67.53c-3.7,0-6.39,2.16-6.39,5.14v19.92c0,1.1-1.32,1.9-3.14,1.9h-29c-3.7,0-6.39,2.16-6.39,5.15v53.43c0,2.98,2.69,5.15,6.39,5.15h29c1.82,0,3.14.8,3.14,1.9v21.43c0,2.98,2.69,5.15,6.39,5.15h112.41c3.7,0,6.39-2.16,6.39-5.15V121.57c0-2.98-2.69-5.15-6.39-5.15ZM1444.41,182.05v46.39c0,1.1-1.32,1.9-3.14,1.9h-61.17c-1.82,0-3.15-.8-3.15-1.9v-46.39c0-1.1,1.32-1.9,3.15-1.9h61.17c1.82,0,3.14.8,3.14,1.9Z" fill="#79a64a"/><path d="M1715.35,87.94h-35.35c-3.7,0-6.39,2.16-6.39,5.14v106.87c0,1.1-1.32,1.9-3.14,1.9h-61.17c-1.82,0-3.15-.8-3.15-1.9v-106.87c0-2.98-2.69-5.14-6.39-5.14h-35.36c-3.7,0-6.39,2.16-6.39,5.14v110.4c0,2.98,2.69,5.15,6.39,5.15h29c1.82,0,3.14.8,3.14,1.9v19.08c0,2.98,2.69,5.15,6.39,5.15h67.53c1.82,0,3.14.8,3.14,1.9v20.26c0,1.1-1.32,1.9-3.14,1.9h-67.53c-3.7,0-6.39,2.16-6.39,5.15v24.96c0,2.98,2.69,5.15,6.39,5.15h73.88c3.7,0,6.39-2.16,6.39-5.15v-21.43c0-1.1,1.32-1.9,3.15-1.9h29c3.7,0,6.39-2.16,6.39-5.15V93.08c0-2.98-2.69-5.14-6.39-5.14Z" fill="#79a64a"/><path d="M169.71,392.58H8.67c-3.57,0-6.17,2.09-6.17,4.96v244.02c0,2.88,2.6,4.97,6.17,4.97h34.12c3.57,0,6.16-2.09,6.16-4.97v-103.16c0-1.07,1.28-1.84,3.04-1.84h98.01c3.57,0,6.17-2.09,6.17-4.96v-24.09c0-2.88-2.6-4.97-6.17-4.97H52c-1.76,0-3.04-.77-3.04-1.83v-72.27c0-1.06,1.28-1.84,3.04-1.84h117.71c3.57,0,6.17-2.09,6.17-4.96v-24.1c0-2.87-2.6-4.96-6.17-4.96Z" fill="#79a64a"/><path d="M354.41,475.05h-56.82c-3.57,0-6.17,2.09-6.17,4.96v20.69c0,1.06-1.28,1.83-3.03,1.83h-21.85c-1.76,0-3.04-.77-3.04-1.83v-20.69c0-2.87-2.6-4.96-6.17-4.96h-34.12c-3.57,0-6.17,2.09-6.17,4.96v161.55c0,2.88,2.6,4.97,6.17,4.97h34.12c3.57,0,6.17-2.09,6.17-4.97v-103.16c0-1.07,1.28-1.84,3.04-1.84h27.99c3.57,0,6.16-2.09,6.16-4.96v-20.69c0-1.06,1.28-1.84,3.04-1.84h50.68c3.57,0,6.16-2.09,6.16-4.97v-24.09c0-2.87-2.59-4.96-6.16-4.96Z" fill="#79a64a"/><path d="M547.58,502.54h-27.99c-1.76,0-3.04-.77-3.04-1.83v-20.69c0-2.87-2.59-4.96-6.16-4.96h-71.32c-3.57,0-6.17,2.09-6.17,4.96v20.69c0,1.06-1.27,1.83-3.03,1.83h-27.99c-3.57,0-6.16,2.09-6.16,4.97v106.56c0,2.88,2.59,4.97,6.16,4.97h27.99c1.76,0,3.03.77,3.03,1.84v20.69c0,2.88,2.6,4.97,6.17,4.97h71.32c3.57,0,6.16-2.09,6.16-4.97v-20.69c0-1.06,1.28-1.84,3.04-1.84h27.99c3.57,0,6.17-2.09,6.17-4.97v-106.56c0-2.88-2.6-4.97-6.17-4.97ZM507.29,510.91v99.76c0,1.06-1.28,1.83-3.03,1.83h-59.05c-1.76,0-3.04-.77-3.04-1.83v-99.76c0-1.06,1.28-1.84,3.04-1.84h59.05c1.76,0,3.03.77,3.03,1.84Z" fill="#79a64a"/><path d="M795.51,502.54h-27.99c-1.76,0-3.04-.77-3.04-1.83v-20.69c0-2.87-2.59-4.96-6.16-4.96h-145.7c-3.57,0-6.17,2.09-6.17,4.96v161.55c0,2.88,2.6,4.97,6.17,4.97h31.86c3.57,0,6.16-2.09,6.16-4.97v-130.65c0-1.06,1.28-1.84,3.04-1.84h26.39c1.76,0,3.03.77,3.03,1.84v130.65c0,2.88,2.6,4.97,6.17,4.97h29.6c3.57,0,6.17-2.09,6.17-4.97v-130.65c0-1.06,1.28-1.84,3.04-1.84h26.38c1.76,0,3.03.77,3.03,1.84v130.65c0,2.88,2.6,4.97,6.17,4.97h31.86c3.57,0,6.17-2.09,6.17-4.97v-134.05c0-2.88-2.6-4.97-6.17-4.97Z" fill="#79a64a"/><path d="M1115.86,393.58c-.88-.9-2.14-1-3.02-1h-31.86c-3.57,0-6.17,2.09-6.17,4.96v130.17c.02.43.03,1.03.06,1.09,0,0-.19.1-.83.1h-36.58c-.46,0-.69-.06-.74-.04-.06-.22-.05-.75-.04-1.16v-130.16c.01-3.2-1.78-4.96-5.02-4.96h-37.52c-3.57,0-6.17,2.09-6.17,4.96v129.52c0,.69-1.95,1.84-4.17,1.84h-30.91c-1.76,0-3.04-.77-3.04-1.84v-129.52c0-2.87-2.59-4.96-6.16-4.96h-31.86c-3.57,0-6.17,2.09-6.17,4.96v135.19c0,2.88,2.6,4.97,6.17,4.97h26.55c1.84,0,4.47,3.22,4.47,4.32v99.55c0,2.88,2.6,4.97,6.17,4.97h35.85c3.35,0,7.84-2.97,7.84-6v-100.99c0-1.06,1.28-1.84,3.04-1.84h33.18c1.76,0,3.03.77,3.03,1.84v102.03c0,2.88,2.6,4.97,6.17,4.97h37.52c3.57,0,6.16-2.09,6.16-4.97v-102c.18-.6,2.81-1.87,5.3-1.87h25.72c.87,0,2.14-.1,3.02-1,.94-.96.92-2.24.89-3.38v-135.77s0-.58,0-.58c.02-1.14.05-2.42-.89-3.38Z" fill="#79a64a"/><path d="M1320.13,502.54h-27.99c-1.76,0-3.04-.77-3.04-1.83v-20.69c0-2.87-2.59-4.96-6.16-4.96h-71.32c-3.57,0-6.17,2.09-6.17,4.96v20.69c0,1.06-1.28,1.83-3.03,1.83h-27.99c-3.57,0-6.17,2.09-6.17,4.97v106.56c0,2.88,2.6,4.97,6.17,4.97h27.99c1.76,0,3.03.77,3.03,1.84v20.69c0,2.88,2.6,4.97,6.17,4.97h71.32c3.57,0,6.16-2.09,6.16-4.97v-20.69c0-1.06,1.28-1.84,3.04-1.84h27.99c3.57,0,6.17-2.09,6.17-4.97v-106.56c0-2.88-2.6-4.97-6.17-4.97ZM1214.72,510.91c0-1.06,1.28-1.84,3.04-1.84h59.05c1.76,0,3.03.77,3.03,1.84v99.76c0,1.06-1.28,1.83-3.03,1.83h-59.05c-1.76,0-3.04-.77-3.04-1.83v-99.76Z" fill="#79a64a"/><path d="M1650.46,534.3h27.99c3.57,0,6.16-2.09,6.16-4.96v-18.42c0-1.06,1.28-1.84,3.04-1.84h27.99c3.57,0,6.17-2.09,6.17-4.97v-24.09c0-2.87-2.6-4.96-6.17-4.96h-34.12c-3.57,0-6.17,2.09-6.17,4.96v20.69c0,1.06-1.28,1.83-3.03,1.83h-27.99c-3.57,0-6.17,2.09-6.17,4.97v20.69c0,1.06-1.27,1.84-3.03,1.84h-21.86c-1.76,0-3.04-.77-3.04-1.84v-103.16c0-2.87-2.59-4.96-6.16-4.96h-34.13c-3.57,0-6.17,2.09-6.17,4.96v216.53c0,2.88,2.6,4.97,6.17,4.97h34.13c3.57,0,6.16-2.09,6.16-4.97v-75.67c0-1.06,1.28-1.84,3.04-1.84h21.86c1.76,0,3.03.77,3.03,1.92l1.15,20.6c0,2.88,2.59,4.97,6.16,4.97h26.84c1.76,0,3.03.77,3.03,1.84v48.18c0,2.88,2.6,4.97,6.17,4.97h34.12c3.57,0,6.17-2.09,6.17-4.97v-51.58c0-2.88-2.6-4.97-6.17-4.97h-27.22c-1.76,0-3.03-.77-3.04-1.9l-.77-18.36c0-2.88-2.59-4.97-6.16-4.97h-27.99c-1.76,0-3.04-.77-3.04-1.83v-21.82c0-1.06,1.28-1.84,3.04-1.84Z" fill="#79a64a"/><path d="M1517.43,475.05h-56.82c-3.57,0-6.17,2.09-6.17,4.96v20.69c0,1.06-1.27,1.83-3.03,1.83h-21.86c-1.76,0-3.04-.77-3.04-1.83v-20.69c0-2.87-2.59-4.96-6.16-4.96h-34.12c-3.57,0-6.17,2.09-6.17,4.96v161.55c0,2.88,2.6,4.97,6.17,4.97h34.12c3.57,0,6.16-2.09,6.16-4.97v-103.16c0-1.07,1.28-1.84,3.04-1.84h27.99c3.57,0,6.17-2.09,6.17-4.96v-20.69c0-1.06,1.28-1.84,3.04-1.84h50.68c3.57,0,6.16-2.09,6.16-4.97v-24.09c0-2.87-2.59-4.96-6.16-4.96Z" fill="#79a64a"/></svg>