<?xml version="1.0" encoding="UTF-8"?><svg id="_レイヤー_1" xmlns="http://www.w3.org/2000/svg" width="576.87" height="576.87" viewBox="0 0 576.87 576.87"><rect x="155.04" y="89.03" width="19.02" height="19.02" rx="1.87" ry="1.87" transform="translate(-21.48 145.22) rotate(-45)" fill="#7caa4a"/><path d="M517.78,254.57c.73-.73.73-1.92,0-2.65l-12.73-12.73c-.73-.73-.73-1.92,0-2.65l12.73-12.71c.73-.73.73-1.92,0-2.65l-12.72-12.72c-.73-.73-1.92-.73-2.65,0l-12.72,12.72c-.73.73-1.92.73-2.65,0l-12.73-12.73c-.73-.73-1.92-.73-2.65,0l-12.72,12.72c-.73.73-1.92.73-2.65,0l-12.97-12.96c-.59-.6-1.56-.6-2.16,0l-28.34,28.33c-.73.73-1.92.73-2.65,0l-58.84-58.83c-.73-.73-.73-1.92,0-2.65l28.09-28.1c.73-.73.73-1.92,0-2.65l-12.72-12.72c-.73-.73-.73-1.92,0-2.65l12.73-12.73c.73-.73.73-1.92,0-2.65l-12.73-12.73c-.73-.73-.73-1.92,0-2.65l12.73-12.71c.73-.73.73-1.92,0-2.65l-12.72-12.72c-.73-.73-1.92-.73-2.65,0l-12.72,12.72c-.73.73-1.92.73-2.65,0l-12.73-12.73c-.73-.73-1.92-.73-2.65,0l-12.72,12.72c-.73.73-1.92.73-2.65,0l-12.97-12.96c-.59-.6-1.56-.6-2.16,0l-28.34,28.33c-.73.73-1.92.73-2.65,0l-12.72-12.71c-.73-.73-1.92-.73-2.65,0l-30.98,30.98c-.73.73-1.92.73-2.65,0l-30.02-30.02c-.73-.73-1.92-.73-2.65,0l-10.8,10.8c-.73.73-.73,1.92,0,2.65l30.01,30.02c.73.73.73,1.92,0,2.65l-13.68,13.68c-.73.73-1.92.73-2.65,0l-16.81-16.81c-.6-.59-1.57-.59-2.17,0l-24.49,24.5c-.73.73-.73,1.92,0,2.65l10.8,10.81c.73.73,1.92.73,2.65,0l10.81-10.81c.73-.73,1.92-.73,2.65,0l4.43,4.44,14.05,14.05c.73.73.73,1.92,0,2.65l-12.73,12.71c-.73.73-.73,1.92,0,2.65l12.73,12.73c.73.73.73,1.92,0,2.65l-12.73,12.73c-.73.73-.73,1.92,0,2.65l12.72,12.72c.73.73.73,1.92,0,2.65l-12.72,12.73c-.73.73-.73,1.92,0,2.65l28.09,28.09c.73.73.73,1.92,0,2.65L59.22,436.4c-.73.73-.73,1.92,0,2.65l12.73,12.73c.73.73.73,1.92,0,2.65l-12.72,12.72c-.73.73-.73,1.92,0,2.65l12.72,12.72c.73.73.73,1.92,0,2.65l-12.97,12.97c-.6.59-.6,1.56,0,2.16l28.34,28.34c.73.73,1.92.73,2.65,0l12.71-12.73c.73-.73,1.92-.73,2.65,0l12.97,12.97c.6.6,1.57.6,2.16,0l12.97-12.96c.73-.73,1.92-.73,2.65,0l12.72,12.72c.73.73,1.92.73,2.65,0l151.33-151.33c.6-.6,1.57-.6,2.16,0l28.34,28.34c.73.73,1.92.73,2.65,0l12.97-12.97c.6-.6,1.57-.6,2.16,0l12.97,12.96c.73.73,1.92.73,2.65,0l12.72-12.72c.73-.73,1.92-.73,2.65,0l12.97,12.97c.6.59,1.57.59,2.16,0l12.97-12.97c.73-.73,1.92-.73,2.65,0l14.05,14.05,9.05,9.04c.73.73.73,1.92,0,2.65l-10.8,10.8c-.73.73-.73,1.92,0,2.65l10.8,10.8c.73.73,1.92.73,2.65,0l24.26-24.26c.73-.73.73-1.92,0-2.65l-21.42-21.42c-.6-.59-.6-1.56,0-2.16l14.17-14.17c.6-.6,1.57-.6,2.16,0l35.12,35.12c.6.59,1.57.59,2.17,0l11.28-11.29c.6-.59.6-1.56,0-2.16l-34.88-34.88c-.73-.73-.73-1.92,0-2.65l30.99-30.98c.73-.73.73-1.92,0-2.65l-12.98-12.97c-.59-.6-.59-1.57,0-2.16l28.34-28.34c.73-.73.73-1.92,0-2.65l-12.73-12.71c-.73-.73-.73-1.92,0-2.65l12.73-12.73ZM308.68,219.77l12.99,12.98c.73.73.73,1.92,0,2.65l-12.99,12.98c-.73.73-1.92.73-2.65,0l-12.98-12.98c-.73-.73-.73-1.92,0-2.65l12.98-12.98c.73-.73,1.92-.73,2.65,0ZM331.97,301.75l-10.52,10.52c-.73.73-1.92.73-2.65,0l-10.8-10.8h0s-23.86-23.87-23.86-23.87c-.73-.73-.73-1.92,0-2.65l10.23-10.23c.73-.73,1.92-.73,2.65,0l10.98,10.98.06.06,11.04-11.04c.73-.73,1.92-.73,2.65,0l10.22,10.23c.73.73.73,1.92,0,2.65l-9.42,9.43c-.73.73-.73,1.92,0,2.65l9.42,9.42c.73.73.73,1.92,0,2.65ZM360.68,302.48l-12.42-12.43c-.73-.73-.73-1.92,0-2.65l12.42-12.42c.73-.73,1.92-.73,2.65,0l12.43,12.42c.73.73.73,1.92,0,2.65l-12.43,12.43c-.73.73-1.92.73-2.65,0Z" fill="#7caa4a"/><rect x="125.26" y="145.72" width="19.02" height="19.02" rx="1.87" ry="1.87" transform="translate(-70.29 140.76) rotate(-45)" fill="#7caa4a"/><rect x="484.42" y="418.41" width="19.02" height="19.02" rx="1.87" ry="1.87" transform="translate(-157.92 474.6) rotate(-45)" fill="#7caa4a"/><rect x="427.73" y="448.2" width="19.02" height="19.02" rx="1.87" ry="1.87" transform="translate(-195.58 443.24) rotate(-45)" fill="#7caa4a"/></svg>