<?xml version="1.0" encoding="UTF-8"?><svg id="_レイヤー_1" xmlns="http://www.w3.org/2000/svg" width="1074.27" height="1382.66" viewBox="0 0 1074.27 1382.66"><path d="M282.95,0h-12.15c-1.44,0-2.49.87-2.49,2.06v26.94c0,.2-.35.36-.78.36h-9.97c-1.44,0-2.49.87-2.49,2.06v16.95c0,.2-.35.36-.79.36h-7.78c-.43,0-.79-.16-.79-.36v-16.95c0-1.2-1.05-2.06-2.49-2.06h-9.97c-.43,0-.79-.16-.79-.36V2.06c0-1.2-1.05-2.06-2.49-2.06h-12.15c-1.44,0-2.49.87-2.49,2.06v28.16c0,1.2,1.05,2.06,2.49,2.06h9.97c.43,0,.78.16.78.36v16.95c0,1.2,1.05,2.06,2.49,2.06h9.96c.43,0,.79.16.79.36v36.94c0,1.2,1.05,2.06,2.49,2.06h12.15c1.44,0,2.49-.87,2.49-2.06v-36.73c0-.2.35-.36.78-.36h9.97c1.44,0,2.49-.87,2.49-2.06v-17.16c0-.2.35-.36.78-.36h9.97c1.44,0,2.49-.87,2.49-2.06V2.06c0-1.2-1.05-2.06-2.49-2.06Z" fill="#86aa57"/><path d="M375.78,9.79h-9.97c-.43,0-.78-.16-.78-.36V2.06c0-1.2-1.05-2.06-2.49-2.06h-38.63c-1.44,0-2.49.87-2.49,2.06v7.37c0,.2-.35.36-.78.36h-9.97c-1.44,0-2.49.87-2.49,2.06v67.31c0,1.2,1.05,2.06,2.49,2.06h9.97c.43,0,.78.16.78.36v7.37c0,1.2,1.05,2.06,2.49,2.06h38.63c1.44,0,2.49-.87,2.49-2.06v-7.37c0-.2.35-.36.78-.36h9.97c1.44,0,2.49-.87,2.49-2.06V11.85c0-1.2-1.05-2.06-2.49-2.06ZM326.09,12.71h34.26c.43,0,.78.16.78.36v64.89c0,.2-.35.36-.78.36h-34.26c-.43,0-.78-.16-.78-.36V13.06c0-.2.35-.36.78-.36Z" fill="#86aa57"/><path d="M468.61,0h-12.15c-1.44,0-2.49.87-2.49,2.06v75.89c0,.2-.35.36-.78.36h-34.26c-.43,0-.79-.16-.79-.36V2.06c0-1.2-1.05-2.06-2.49-2.06h-12.15c-1.44,0-2.49.87-2.49,2.06v77.1c0,1.2,1.05,2.06,2.49,2.06h9.97c.43,0,.78.16.78.36v7.37c0,1.2,1.05,2.06,2.49,2.06h38.63c1.44,0,2.49-.87,2.49-2.06v-7.37c0-.2.35-.36.78-.36h9.97c1.44,0,2.49-.87,2.49-2.06V2.06c0-1.2-1.05-2.06-2.49-2.06Z" fill="#86aa57"/><path d="M583.87,0h-12.15c-1.44,0-2.49.87-2.49,2.06v7.37c0,.2-.35.36-.78.36h-9.97c-1.44,0-2.49.87-2.49,2.06v7.37c0,.2-.35.36-.78.36h-7.78c-.43,0-.78-.16-.78-.36v-7.37c0-1.2-1.05-2.06-2.49-2.06h-9.97c-.43,0-.79-.16-.79-.36V2.06c0-1.2-1.05-2.06-2.49-2.06h-12.15c-1.44,0-2.49.87-2.49,2.06v86.89c0,1.2,1.05,2.06,2.49,2.06h12.15c1.44,0,2.49-.87,2.49-2.06V22.85c0-.2.35-.36.79-.36h7.78c.43,0,.79.16.79.36v7.37c0,1.2,1.05,2.06,2.49,2.06h12.15c1.44,0,2.49-.87,2.49-2.06v-7.37c0-.2.35-.36.78-.36h7.78c.43,0,.78.16.78.36v66.1c0,1.2,1.05,2.06,2.49,2.06h12.15c1.44,0,2.49-.87,2.49-2.06V2.06c0-1.2-1.05-2.06-2.49-2.06Z" fill="#86aa57"/><path d="M676.7,0h-12.15c-1.44,0-2.49.87-2.49,2.06v75.89c0,.2-.35.36-.78.36h-34.26c-.43,0-.79-.16-.79-.36V2.06c0-1.2-1.05-2.06-2.49-2.06h-12.15c-1.44,0-2.49.87-2.49,2.06v77.1c0,1.2,1.05,2.06,2.49,2.06h9.97c.43,0,.78.16.78.36v7.37c0,1.2,1.05,2.06,2.49,2.06h38.63c1.44,0,2.49-.87,2.49-2.06v-7.37c0-.2.35-.36.78-.36h9.97c1.44,0,2.49-.87,2.49-2.06V2.06c0-1.2-1.05-2.06-2.49-2.06Z" fill="#86aa57"/><path d="M769.53,9.79h-9.97c-.43,0-.79-.16-.79-.36V2.06c0-1.2-1.05-2.06-2.49-2.06h-38.63c-1.44,0-2.49.87-2.49,2.06v7.37c0,.2-.35.36-.78.36h-9.97c-1.44,0-2.49.87-2.49,2.06v28.16c0,1.2,1.05,2.06,2.49,2.06h9.97c.43,0,.78.16.78.36v7.37c0,1.2,1.05,2.06,2.49,2.06h36.45c.43,0,.78.16.78.36v25.73c0,.2-.35.36-.78.36h-34.26c-.43,0-.79-.16-.79-.36v-7.37c0-1.2-1.05-2.06-2.49-2.06h-12.15c-1.44,0-2.49.87-2.49,2.06v8.58c0,1.2,1.05,2.06,2.49,2.06h9.97c.43,0,.78.16.78.36v7.37c0,1.2,1.05,2.06,2.49,2.06h38.63c1.44,0,2.49-.87,2.49-2.06v-7.37c0-.2.35-.36.79-.36h9.97c1.44,0,2.49-.87,2.49-2.06v-28.16c0-1.2-1.05-2.06-2.49-2.06h-9.97c-.43,0-.79-.16-.79-.36v-7.37c0-1.2-1.05-2.06-2.49-2.06h-36.45c-.43,0-.79-.16-.79-.36V13.06c0-.2.35-.36.79-.36h34.26c.43,0,.78.16.78.36v7.37c0,1.2,1.05,2.06,2.49,2.06h12.15c1.44,0,2.49-.87,2.49-2.06v-8.58c0-1.2-1.05-2.06-2.49-2.06Z" fill="#86aa57"/><path d="M856.44,0h-65.12c-1.44,0-2.49.87-2.49,2.06v8.58c0,1.2,1.05,2.06,2.49,2.06h23.21c.43,0,.78.16.78.36v75.89c0,1.2,1.05,2.06,2.49,2.06h12.15c1.44,0,2.49-.87,2.49-2.06V13.06c0-.2.35-.36.78-.36h23.21c1.44,0,2.49-.87,2.49-2.06V2.06c0-1.2-1.05-2.06-2.49-2.06Z" fill="#86aa57"/><path d="M519.16,147.32h-9.97c-.43,0-.78-.16-.78-.36v-7.37c0-1.2-1.05-2.06-2.49-2.06h-38.63c-1.44,0-2.49.87-2.49,2.06v7.37c0,.2-.35.36-.78.36h-9.96c-1.44,0-2.49.87-2.49,2.06v67.31c0,1.2,1.05,2.06,2.49,2.06h9.96c.43,0,.78.16.78.36v7.37c0,1.2,1.05,2.06,2.49,2.06h38.63c1.44,0,2.49-.87,2.49-2.06v-7.37c0-.2.35-.36.78-.36h9.97c1.44,0,2.49-.87,2.49-2.06v-67.31c0-1.2-1.05-2.06-2.49-2.06ZM469.47,150.24h34.26c.43,0,.78.16.78.36v64.89c0,.2-.35.36-.78.36h-34.26c-.43,0-.79-.16-.79-.36v-64.89c0-.2.35-.36.79-.36Z" fill="#86aa57"/><path d="M611.99,147.32h-9.97c-.43,0-.78-.16-.78-.36v-7.37c0-1.2-1.05-2.06-2.49-2.06h-51.87c-1.44,0-2.49.87-2.49,2.06v86.89c0,1.2,1.05,2.06,2.49,2.06h12.15c1.44,0,2.49-.87,2.49-2.06v-36.73c0-.2.35-.36.79-.36h34.26c.43,0,.78.16.78.36v36.73c0,1.2,1.05,2.06,2.49,2.06h12.15c1.44,0,2.49-.87,2.49-2.06v-37.94c0-1.2-1.05-2.06-2.49-2.06h-9.97c-.43,0-.78-.16-.78-.36v-6.16c0-.17.32-.36.78-.36h9.97c1.44,0,2.49-.87,2.49-2.06v-28.16c0-1.2-1.05-2.06-2.49-2.06ZM597.35,150.59v25.73c0,.2-.35.36-.78.36h-34.26c-.43,0-.79-.16-.79-.36v-25.73c0-.2.35-.36.79-.36h34.26c.43,0,.78.16.78.36Z" fill="#86aa57"/><path d="M668.37,169.81h9.97c1.44,0,2.49-.87,2.49-2.06v-7.37c0-.2.35-.36.78-.36h9.97c1.44,0,2.49-.87,2.49-2.06v-7.37c0-.2.35-.36.78-.36h9.97c1.44,0,2.49-.87,2.49-2.06v-8.58c0-1.2-1.05-2.06-2.49-2.06h-12.15c-1.44,0-2.49.87-2.49,2.06v7.37c0,.2-.35.36-.78.36h-9.97c-1.44,0-2.49.87-2.49,2.06v7.37c0,.2-.35.36-.78.36h-9.97c-1.44,0-2.49.87-2.49,2.06v7.37c0,.2-.35.36-.79.36h-7.78c-.43,0-.79-.16-.79-.36v-26.94c0-1.2-1.05-2.06-2.49-2.06h-12.15c-1.44,0-2.49.87-2.49,2.06v86.89c0,1.2,1.05,2.06,2.49,2.06h12.15c1.44,0,2.49-.87,2.49-2.06v-46.52c0-.2.35-.36.79-.36h7.78c.47,0,.79.19.79.36v7.37c0,1.2,1.05,2.06,2.49,2.06h9.97c.43,0,.78.16.78.36v17.16c0,1.2,1.05,2.06,2.49,2.06h9.97c.43,0,.78.16.78.36v17.16c0,1.2,1.05,2.06,2.49,2.06h12.15c1.44,0,2.49-.87,2.49-2.06v-18.37c0-1.2-1.05-2.06-2.49-2.06h-9.97c-.43,0-.78-.16-.78-.36v-17.16c0-1.2-1.05-2.06-2.49-2.06h-9.97c-.43,0-.78-.16-.78-.36v-7.37c0-1.2-1.05-2.06-2.49-2.06h-9.97c-.43,0-.79-.16-.79-.36v-6.16c0-.2.35-.36.79-.36Z" fill="#86aa57"/><path d="M427.96,137.53h-12.67c-1.48,0-2.56.87-2.56,2.06v46.52c0,.15-.3.36-.86.36h-9.53c-.55,0-.85-.21-.85-.36v-46.52c0-1.2-1.08-2.06-2.56-2.06h-11.82c-1.48,0-2.56.87-2.56,2.06v46.52c0,.15-.3.36-.86.36h-9.39c-.55,0-.86-.21-.86-.36v-46.52c0-1.2-1.08-2.06-2.56-2.06h-12.67c-1.48,0-2.56.87-2.56,2.06v47.73c0,1.2,1.08,2.06,2.56,2.06h11.24c.55,0,.86.21.86.36v36.73c0,1.2,1.08,2.06,2.56,2.06h12.67c1.48,0,2.56-.87,2.56-2.06v-36.73c0-.15.3-.36.86-.36h8.11c.55,0,.86.21.86.36v36.73c0,1.2,1.08,2.06,2.56,2.06h12.67c1.48,0,2.56-.87,2.56-2.06v-36.73c0-.15.3-.36.86-.36h11.39c1.48,0,2.56-.87,2.56-2.06v-47.73c0-1.2-1.08-2.06-2.56-2.06Z" fill="#86aa57"/><ellipse cx="537.14" cy="1328.16" rx="250.99" ry="54.5" fill="#86aa57"/><rect x="391.16" y="461.64" width="11.78" height="11.78" rx=".95" ry=".95" fill="#85a857"/><rect x="402.95" y="499.52" width="11.78" height="11.78" rx=".95" ry=".95" fill="#85a857"/><path d="M679.67,450.81v9.88c0,.52-.43.95-.95.95h-28.06c-.52,0-.95.43-.95.95v12.41c0,.52.43.95.95.95h16.27c.52,0,.95.43.95.95v21.66c0,.52-.43.95-.95.95h-9.88c-.52,0-.95-.43-.95-.95v-9.88c0-.52-.43-.95-.95-.95h-17.96c-.52,0-.95.43-.95.95v11.57c0,.52-.43.95-.95.95h-11.57c-.52,0-.95.43-.95.95v11.57c0,.52-.43.95-.95.95h-25.03c-.52,0-.95.43-.95.95v11.56c0,.52.43.95.95.95h11.57c.52,0,.95.43.95.95v11.57c0,.52.43.95.95.95h11.56c.52,0,.95.43.95.95v18.32c0,.52-.43.95-.95.95h-11.56c-.52,0-.95-.43-.95-.95v-4.85c0-.52-.43-.95-.95-.95h-25.03c-.52,0-.95.43-.95.95v92.36c0,.52-.43.95-.95.95h-11.56c-.52,0-.95-.43-.95-.95v-25.03c0-.52-.43-.95-.95-.95h-11.57c-.52,0-.95-.43-.95-.95v-11.57c0-.52-.43-.95-.95-.95h-25.03c-.52,0-.95.43-.95.95v11.57c0,.52-.43.95-.95.95h-11.57c-.52,0-.95.43-.95.95v12.51h-.21c.12,0,.21.09.21.21v12.3c0,.52-.43.95-.95.95h-11.56c-.52,0-.95-.43-.95-.95v-12.3c0-.12.09-.21.21-.21h-.21v-79.84c0-.52-.43-.95-.95-.95h-25.03c-.52,0-.95.43-.95.95v11.57c0,.52-.43.95-.95.95h-11.56c-.52,0-.95-.43-.95-.95v-25.03c0-.52.43-.95.95-.95h11.56c.52,0,.95-.43.95-.95v-11.57c0-.52.43-.95.95-.95h11.57c.52,0,.95-.43.95-.95v-11.56c0-.52-.43-.95-.95-.95h-25.03c-.52,0-.95-.43-.95-.95v-11.57c0-.52-.43-.95-.95-.95h-11.57c-.52,0-.95-.43-.95-.95v-11.57c0-.52-.43-.95-.95-.95h-19.31c-.52,0-.95.43-.95.95v9.88c0,.52-.43.95-.95.95h-9.88c-.52,0-.95-.43-.95-.95v-21.66c0-.52.43-.95.95-.95h17.62c.52,0,.95-.43.95-.95v-12.41c0-.52-.43-.95-.95-.95h-29.4c-.52,0-.95-.43-.95-.95v-9.88c0-.52.43-.95.95-.95h29.4c.52,0,.95-.43.95-.95v-41.02c0-.52.43-.95.95-.95h11.57c.52,0,.95-.43.95-.95v-11.56c0-.52.43-.95.95-.95h11.57c.52,0,.95-.43.95-.95v-25.03c0-.52.43-.95.95-.95h11.56c.52,0,.95-.43.95-.95v-11.56c0-.52.43-.95.95-.95h11.57c.52,0,.95.43.95.95v11.56c0,.52.43.95.95.95h11.57c.52,0,.95.43.95.95v11.57c0,.52.43.95.95.95h78.89c.52,0,.95-.43.95-.95v-11.57c0-.52.43-.95.95-.95h11.57c.52,0,.95-.43.95-.95v-11.56c0-.52.43-.95.95-.95h11.57c.52,0,.95.43.95.95v11.56c0,.52.43.95.95.95h11.56c.52,0,.95.43.95.95v25.03c0,.52.43.95.95.95h11.57c.52,0,.95.43.95.95v11.56c0,.52.43.95.95.95h11.57c.52,0,.95.43.95.95v41.02c0,.52.43.95.95.95h28.06c.52,0,.95.43.95.95Z" fill="#85a857"/><rect x="679.67" y="461.64" width="11.78" height="11.78" rx=".95" ry=".95" fill="#85a857"/><rect x="667.88" y="499.52" width="11.78" height="11.78" rx=".95" ry=".95" fill="#85a857"/><path d="M729.72,596.8c0-.5-.41-.91-.91-.93l-31.66-.89c-.5-.01-.9-.42-.91-.92l-.56-25.91c-.01-.51-.43-.92-.94-.92l-101.78.38c.12-.16.19-.36.18-.57l-.23-12.14c0-.51-.43-.92-.94-.92h-20.86l2.69-10.99,52.74-.02c.52,0,.94-.42.94-.94v-89.11c0-.52-.42-.94-.94-.94l-131.26.06c-.52,0-.94.42-.94.94v89.11c0,.52.42.94.94.94l59.55-.03-.83,10.99h-20.96c-.46,0-.86.34-.93.79l-1.95,12.08c-.07.42.16.81.51.99l-155.85.58c-.52,0-.93.42-.94.93l-.23,24.94c0,.51-.42.93-.93.93l-30.18.3c-.52,0-.94.43-.93.95l1.93,725.64c0,.52.42.93.94.93h45.56c.52,0,.94-.42.94-.94l-.26-698.46c0-.52.42-.94.94-.94l287.18-.07c.51,0,.93.41.94.92l4.71,698.59c.01.51.43.92.94.92h46.33c.53,0,.95-.43.94-.96l-2.97-725.3Z" fill="#4f5b39"/><path d="M630.02,651.06l-10.36-.96-17.6-1.03s-.04,0-.06,0h-145.18c-.37,0-.7.21-.86.55l-12.48,27.11c-.06.12-.09.26-.09.39v11.8c0,.52.42.94.94.94h80.61l-2.84,26.54-31.43,5.44c-.17.03-.33.11-.46.22l-18.04,15.84c-.17.15-.28.36-.31.58l-4.08,29.82h-7.38c-.33,0-.63.17-.8.45l-5.14,8.3c-.17.27-.19.61-.05.9l5.31,11.18c.1.21.28.38.5.47l6.77,2.72c.13.05.27.07.41.07l14.54-.91c.22-.01.43-.11.59-.26l7.35-7.07c.32-.3.38-.79.15-1.16l-4.43-7.36,13.12-33.45c.12-.32.41-.54.75-.59l23.56-3.32c.52-.07.99.29,1.06.8l4.25,30.89h-4.26c-.47,0-.88.35-.93.82l-2.57,20.52c-.05.42.19.83.58.99l9.89,3.97c.13.05.27.07.41.07l15.97-.99c.22-.01.43-.11.59-.26l8.12-7.82c.32-.3.38-.79.15-1.16l-7.58-12.58c-.11-.18-.27-.31-.46-.39l-.72-.28v-33.35c0-.38.23-.73.58-.87l1.19-.49c.2-.08.43-.09.64-.03l22.94,7.07c.21.06.39.2.51.39l8.32,12.75c.08.12.13.27.15.41l1.21,11.19-3.61.51c-.32.04-.6.25-.73.55l-4.95,11.09c-.14.32-.1.69.12.96l4.89,6.26c.1.13.24.23.39.29l6.87,2.76c.13.05.27.07.41.07l14.54-.91c.22-.01.43-.11.59-.26l7.45-7.17c.26-.25.36-.64.24-.99l-3.93-11.29c-.1-.29-.34-.51-.64-.6l-3.06-.86v-.82c0-.06,0-.12-.02-.18l-6.17-31.61c-.04-.2-.14-.37-.28-.51l-23.79-22.08c-.17-.16-.4-.25-.64-.25h-20.09l1.57-25.01h77.68c.52,0,.94-.42.94-.94v-36.92c0-.49-.37-.89-.85-.94Z" fill="#4f5b39"/></svg>