<?xml version="1.0" encoding="UTF-8"?><svg id="_レイヤー_1" xmlns="http://www.w3.org/2000/svg" width="327.31" height="404.78" viewBox="0 0 327.31 404.78"><path d="M142.82,2.81h-25.67c-3.03,0-5.23,1.77-5.23,4.22v94.27c0,.29-.65.69-1.7.69h-16.44c-1.05,0-1.7-.4-1.7-.69V7.03c0-2.45-2.2-4.22-5.23-4.22h-25.67c-3.03,0-5.23,1.77-5.23,4.22v94.27c0,.29-.65.69-1.7.69h-16.44c-1.05,0-1.7-.4-1.7-.69V7.03c0-2.45-2.2-4.22-5.23-4.22H5.23C2.2,2.81,0,4.58,0,7.03v96.72c0,2.44,2.2,4.22,5.23,4.22h21.06c1.05,0,1.7.4,1.7.69v74.43c0,2.44,2.2,4.22,5.23,4.22h25.67c3.03,0,5.23-1.77,5.23-4.22v-74.43c0-.29.65-.69,1.7-.69h16.44c1.05,0,1.7.4,1.7.69v74.43c0,2.44,2.2,4.22,5.23,4.22h25.67c3.03,0,5.23-1.77,5.23-4.22v-74.43c0-.29.65-.69,1.7-.69h21.06c3.03,0,5.23-1.77,5.23-4.22V7.03c0-2.45-2.2-4.22-5.23-4.22Z" fill="#4f5b39"/><path d="M322.1,20.45h-20.82c-.9,0-1.64-.33-1.64-.75V4.31c0-2.5-2.19-4.31-5.2-4.31h-80.7c-3.02,0-5.2,1.81-5.2,4.31v15.39c0,.41-.73.75-1.64.75h-20.82c-3.02,0-5.2,1.81-5.2,4.31v140.6c0,2.5,2.19,4.31,5.2,4.31h20.82c.9,0,1.64.34,1.64.75v15.39c0,2.5,2.19,4.31,5.2,4.31h80.7c3.02,0,5.2-1.81,5.2-4.31v-15.39c0-.41.74-.75,1.64-.75h20.82c3.01,0,5.2-1.81,5.2-4.31V24.76c0-2.5-2.19-4.31-5.2-4.31ZM291.52,27.29v135.54c0,.41-.74.75-1.64.75h-71.57c-.9,0-1.64-.34-1.64-.75V27.29c0-.41.74-.75,1.64-.75h71.57c.9,0,1.64.33,1.64.75Z" fill="#4f5b39"/><path d="M137.94,245.31h-19.56c-.85,0-1.54-.32-1.54-.7v-14.46c0-2.35-2.06-4.05-4.89-4.05H10.1c-2.83,0-4.89,1.7-4.89,4.05v170.58c0,2.35,2.06,4.05,4.89,4.05h23.85c2.83,0,4.89-1.7,4.89-4.05v-72.12c0-.39.69-.7,1.54-.7h67.27c.85,0,1.54.32,1.54.7v72.12c0,2.35,2.06,4.05,4.89,4.05h23.85c2.83,0,4.89-1.7,4.89-4.05v-74.49c0-2.35-2.06-4.05-4.89-4.05h-19.56c-.85,0-1.54-.32-1.54-.7v-12.09c0-.39.69-.7,1.54-.7h19.56c2.83,0,4.89-1.7,4.89-4.05v-55.28c0-2.35-2.06-4.05-4.89-4.05ZM109.2,251.74v50.52c0,.39-.69.7-1.54.7H40.39c-.85,0-1.54-.32-1.54-.7v-50.52c0-.39.69-.7,1.54-.7h67.27c.85,0,1.54.32,1.54.7Z" fill="#4f5b39"/><path d="M320.19,226.09h-23.85c-2.83,0-4.89,1.7-4.89,4.05v14.46c0,.39-.69.7-1.54.7h-19.57c-2.83,0-4.89,1.7-4.89,4.05v14.46c0,.39-.69.7-1.54.7h-19.56c-2.83,0-4.89,1.7-4.89,4.05v14.46c0,.39-.69.7-1.54.7h-15.28c-.85,0-1.54-.32-1.54-.7v-52.9c0-2.35-2.06-4.05-4.89-4.05h-23.85c-2.83,0-4.89,1.7-4.89,4.05v170.58c0,2.35,2.06,4.05,4.89,4.05h23.85c2.83,0,4.89-1.7,4.89-4.05v-91.34c0-.39.69-.7,1.54-.7h15.28c.85,0,1.54.32,1.54.7v14.46c0,2.35,2.06,4.05,4.89,4.05h19.56c.85,0,1.54.32,1.54.7v33.68c0,2.35,2.06,4.05,4.89,4.05h19.57c.85,0,1.54.32,1.54.7v33.68c0,2.35,2.06,4.05,4.89,4.05h23.85c2.83,0,4.89-1.7,4.89-4.05v-36.06c0-2.35-2.06-4.05-4.89-4.05h-19.56c-.85,0-1.54-.32-1.54-.7v-33.68c0-2.35-2.06-4.05-4.89-4.05h-19.56c-.85,0-1.54-.32-1.54-.7v-14.46c0-2.35-2.06-4.05-4.89-4.05h-19.56c-.85,0-1.54-.32-1.54-.7v-12.09c0-.39.69-.7,1.54-.7h19.56c2.83,0,4.89-1.7,4.89-4.05v-14.46c0-.39.69-.7,1.54-.7h19.56c2.83,0,4.89-1.7,4.89-4.05v-14.46c0-.39.69-.7,1.54-.7h19.56c2.83,0,4.89-1.7,4.89-4.05v-16.84c0-2.35-2.06-4.05-4.89-4.05Z" fill="#4f5b39"/></svg>