<?xml version="1.0" encoding="UTF-8"?><svg id="_レイヤー_1" xmlns="http://www.w3.org/2000/svg" width="1074.27" height="1382.66" viewBox="0 0 1074.27 1382.66"><path d="M815.92,776.28l-125.39-7.97c-.14,0-.29.01-.43.06l-69.32,23.81c-.75.26-.99,1.2-.46,1.78l172.65,190.05c.54.6,1.53.43,1.83-.32l36.81-90.18c.07-.18.1-.37.07-.56l-14.75-115.72c-.07-.52-.5-.93-1.02-.96Z" fill="#4f5b39"/><path d="M793.58,984.68l-173.67-191.17c-.4-.44-1.07-.48-1.52-.1l-286.47,239.9c-.49.41-.53,1.14-.09,1.6l254.74,269.03c.49.52,1.34.44,1.72-.16l205.4-317.76c.27-.42.23-.97-.11-1.34Z" fill="#86aa57"/><path d="M416.1,937.64l24.56,60.3c.19.46.05.98-.34,1.29l-122.52,95.1c-.46.36-1.12.29-1.5-.14l-95.51-109.01c-.55-.62-.23-1.6.57-1.8l193.47-46.39c.53-.13,1.07.15,1.28.66Z" fill="#4f5b39"/><path d="M601.13,1197.96l52.97,34.92c.44.29.61.84.42,1.32l-58.39,147.76c-.25.64-1.03.89-1.61.53l-83.94-52.6c-.53-.33-.68-1.04-.32-1.56l89.36-130.08c.34-.49,1.01-.63,1.51-.3Z" fill="#4f5b39"/><circle cx="590.58" cy="1019.86" r="105.53" fill="#171917"/><path d="M381.16,1135.44l64.33,75.8c.25.29.33.69.21,1.06l-15.58,47.12c-.12.35-.4.62-.76.72l-46.21,12.56s-.07.02-.1.02c-2.05.35-69.01,11.61-71.88,14.49-2.52,2.52-34.32,2.82-42.9,2.86-.89,0-1.41-1-.9-1.73l41.15-58.59s.04-.06.05-.08l31.45-54.71c.05-.08.11-.16.18-.23l39.34-39.34c.46-.46,1.2-.42,1.62.07Z" fill="#4f5b39"/><path d="M395.7,1152.56l33.44,39.41c.21.25.31.58.25.9l-4.14,24.67c-.06.36-.3.67-.64.82l-22.17,9.88s-.06.03-.1.04c-1.4.46-34.09,11.32-35.31,12.99-1.03,1.41-15.69,3.88-20.84,4.71-.81.13-1.47-.65-1.22-1.43l14.37-43.94s.02-.06.03-.09l13.09-30.46c.07-.17.18-.31.32-.42l21.39-17.22c.46-.37,1.14-.31,1.52.14Z" fill="#86aa57"/><rect x="479.18" y="1088.08" width="7.17" height="7.17" rx=".42" ry=".42" transform="translate(-630.52 661.11) rotate(-45)" fill="#86aa57"/><rect x="479.18" y="1088.08" width="7.17" height="7.17" rx=".42" ry=".42" transform="translate(-630.52 661.11) rotate(-45)" fill="#86aa57"/><rect x="599.18" y="1104.75" width="6.28" height="6.28" rx=".42" ry=".42" transform="translate(-606.98 750.4) rotate(-45)" fill="#86aa57"/><path d="M520.95,985.28l-3.85,3.85c-.16.16-.16.43,0,.59l10.69,10.69c.16.16.16.43,0,.59l-4.8,4.8c-.16.16-.43.16-.59,0l-6.25-6.25c-.16-.16-.43-.16-.59,0l-8.28,8.28c-.16.16-.16.43,0,.59l3.85,3.85c.16.16.43.16.59,0l3.85-3.85c.16-.16.43-.16.59,0l6.89,6.89c.16.16.16.43,0,.59l-4.48,4.48c-.16.16-.16.43,0,.59l4.48,4.48c.16.16.16.43,0,.59l-4.48,4.48c-.16.16-.16.43,0,.59l9.55,9.55c.16.16.16.43,0,.59l-4.48,4.48c-.16.16-.43.16-.59,0l-4.48-4.48c-.16-.16-.43-.16-.59,0l-4.48,4.48c-.16.16-.43.16-.59,0l-4.48-4.48c-.16-.16-.43-.16-.59,0l-9.55,9.55c-.16.16-.16.43,0,.59l4.48,4.48c.16.16.43.16.59,0l4.48-4.48c.16-.16.43-.16.59,0l9.55,9.55c.16.16.16.43,0,.59l-29.84,29.84c-.16.16-.16.43,0,.59l4.48,4.48c.16.16.43.16.59,0l4.48-4.48c.16-.16.43-.16.59,0l4.48,4.48c.16.16.43.16.59,0l4.48-4.48c.16-.16.43-.16.59,0l9.55,9.55c.16.16.16.43,0,.59l-4.48,4.48c-.16.16-.16.43,0,.59l4.48,4.48c.16.16.16.43,0,.59l-9.55,9.55c-.16.16-.16.43,0,.59l4.48,4.48c.16.16.43.16.59,0l34.91-34.91c.16-.16.43-.16.59,0l14.62,14.62c.16.16.43.16.59,0l4.48-4.48c.16-.16.43-.16.59,0l4.48,4.48c.16.16.43.16.59,0l9.55-9.55c.16-.16.16-.43,0-.59l-4.48-4.48c-.16-.16-.43-.16-.59,0l-4.48,4.48c-.16.16-.43.16-.59,0l-9.55-9.55c-.16-.16-.16-.43,0-.59l4.48-4.48c.16-.16.43-.16.59,0l9.55,9.55c.16.16.43.16.59,0l4.48-4.48c.16-.16.43-.16.59,0l4.48,4.48c.16.16.43.16.59,0l4.48-4.48c.16-.16.43-.16.59,0l7.4,7.4c.16.16.16.43,0,.59l-3.85,3.85c-.16.16-.16.43,0,.59l3.85,3.85c.16.16.43.16.59,0l8.28-8.28c.16-.16.16-.43,0-.59l-6.76-6.76c-.16-.16-.16-.43,0-.59l4.8-4.8c.16-.16.43-.16.59,0l11.2,11.2c.16.16.43.16.59,0l3.85-3.85c.16-.16.16-.43,0-.59l-11.2-11.2c-.16-.16-.16-.43,0-.59l15.57-15.57c.16-.16.16-.43,0-.59l-4.48-4.48c-.16-.16-.16-.43,0-.59l4.48-4.48c.16-.16.16-.43,0-.59l-4.48-4.48c-.16-.16-.16-.43,0-.59l9.55-9.55c.16-.16.16-.43,0-.59l-4.48-4.48c-.16-.16-.16-.43,0-.59l4.48-4.48c.16-.16.16-.43,0-.59l-4.48-4.48c-.16-.16-.43-.16-.59,0l-4.48,4.48c-.16.16-.43.16-.59,0l-4.48-4.48c-.16-.16-.43-.16-.59,0l-4.48,4.48c-.16.16-.43.16-.59,0l-29.84-29.84c-.16-.16-.16-.43,0-.59l4.48-4.48c.16-.16.16-.43,0-.59l-4.48-4.48c-.16-.16-.16-.43,0-.59l4.48-4.48c.16-.16.16-.43,0-.59l-4.48-4.48c-.16-.16-.43-.16-.59,0l-4.48,4.48c-.16.16-.43.16-.59,0l-4.48-4.48c-.16-.16-.43-.16-.59,0l-9.55,9.55c-.16.16-.43.16-.59,0l-4.48-4.48c-.16-.16-.43-.16-.59,0l-4.48,4.48c-.16.16-.43.16-.59,0l-4.48-4.48c-.16-.16-.43-.16-.59,0l-15.57,15.57c-.16.16-.43.16-.59,0l-10.69-10.69c-.16-.16-.43-.16-.59,0Z" fill="#86aa57"/><rect x="617.88" y="1094.93" width="6.28" height="6.28" rx=".42" ry=".42" transform="translate(-594.56 760.74) rotate(-45)" fill="#86aa57"/><rect x="509.23" y="986.28" width="6.28" height="6.28" rx=".42" ry=".42" transform="translate(-549.55 652.09) rotate(-45)" fill="#86aa57"/><rect x="499.41" y="1004.98" width="6.28" height="6.28" rx=".42" ry=".42" transform="translate(-565.65 650.62) rotate(-45)" fill="#86aa57"/><path d="M399.34,386.34h-9.93c-.45,0-.76-.17-.76-.33v-7.34c0-1.2-1.05-2.08-2.5-2.08h-51.67c-1.45,0-2.5.87-2.5,2.08v86.54c0,1.2,1.05,2.08,2.5,2.08h51.67c1.45,0,2.5-.87,2.5-2.08v-7.34c0-.16.3-.33.76-.33h9.93c1.45,0,2.5-.87,2.5-2.08v-28.04c0-1.2-1.05-2.08-2.5-2.08h-9.93c-.45,0-.76-.17-.76-.33v-6.13c0-.16.3-.33.76-.33h9.93c1.45,0,2.5-.87,2.5-2.08v-28.04c0-1.2-1.05-2.08-2.5-2.08ZM384.73,415.25c0,.16-.3.33-.76.33h-34.13c-.45,0-.76-.17-.76-.33v-25.63c0-.16.3-.33.76-.33h34.13c.45,0,.76.17.76.33v25.63ZM349.09,428.62c0-.16.3-.33.76-.33h34.13c.45,0,.76.17.76.33v25.63c0,.16-.3.33-.76.33h-34.13c-.45,0-.76-.17-.76-.33v-25.63Z" fill="#86aa57"/><path d="M483.64,376.59h-12.1c-1.45,0-2.5.87-2.5,2.08v26.84c0,.16-.3.33-.76.33h-9.93c-1.45,0-2.5.87-2.5,2.08v16.89c0,.16-.3.33-.76.33h-7.75c-.45,0-.76-.17-.76-.33v-16.89c0-1.2-1.05-2.08-2.5-2.08h-9.93c-.45,0-.76-.17-.76-.33v-26.84c0-1.2-1.05-2.08-2.5-2.08h-12.1c-1.45,0-2.5.87-2.5,2.08v28.04c0,1.2,1.05,2.08,2.5,2.08h9.93c.45,0,.76.17.76.33v16.89c0,1.2,1.05,2.08,2.5,2.08h9.93c.45,0,.76.17.76.33v36.79c0,1.2,1.05,2.08,2.5,2.08h12.1c1.45,0,2.51-.87,2.51-2.08v-36.59c0-.16.3-.33.76-.33h9.93c1.45,0,2.5-.87,2.5-2.08v-17.09c0-.16.3-.33.76-.33h9.93c1.45,0,2.5-.87,2.5-2.08v-28.04c0-1.2-1.05-2.08-2.5-2.08Z" fill="#86aa57"/><path d="M564.03,376.59h-60.94c-1.45,0-2.5.87-2.5,2.08v86.54c0,1.2,1.05,2.08,2.5,2.08h60.94c1.45,0,2.5-.87,2.5-2.08v-8.54c0-1.2-1.05-2.08-2.5-2.08h-45.58c-.45,0-.76-.17-.76-.33v-25.63c0-.16.3-.33.76-.33h35.42c1.45,0,2.5-.87,2.5-2.08v-8.54c0-1.2-1.05-2.08-2.5-2.08h-35.42c-.45,0-.76-.17-.76-.33v-25.63c0-.16.3-.33.76-.33h45.58c1.45,0,2.5-.87,2.5-2.08v-8.54c0-1.2-1.05-2.08-2.5-2.08Z" fill="#86aa57"/><path d="M682.13,386.34h-9.93c-.45,0-.76-.17-.76-.33v-7.34c0-1.2-1.05-2.08-2.5-2.08h-51.67c-1.45,0-2.5.87-2.5,2.08v86.54c0,1.2,1.05,2.08,2.5,2.08h51.67c1.45,0,2.5-.87,2.5-2.08v-7.34c0-.16.3-.33.76-.33h9.93c1.45,0,2.5-.87,2.5-2.08v-28.04c0-1.2-1.05-2.08-2.5-2.08h-9.93c-.45,0-.76-.17-.76-.33v-6.13c0-.16.3-.33.76-.33h9.93c1.45,0,2.5-.87,2.5-2.08v-28.04c0-1.2-1.05-2.08-2.5-2.08ZM631.88,415.25v-25.63c0-.16.3-.33.76-.33h34.13c.45,0,.76.17.76.33v25.63c0,.16-.3.33-.76.33h-34.13c-.45,0-.76-.17-.76-.33ZM631.88,428.62c0-.16.3-.33.76-.33h34.13c.45,0,.76.17.76.33v25.63c0,.16-.3.33-.76.33h-34.13c-.45,0-.76-.17-.76-.33v-25.63Z" fill="#86aa57"/><path d="M766.43,376.59h-12.1c-1.45,0-2.51.87-2.51,2.08v26.84c0,.16-.3.33-.76.33h-9.93c-1.45,0-2.5.87-2.5,2.08v16.89c0,.16-.3.33-.76.33h-7.75c-.45,0-.76-.17-.76-.33v-16.89c0-1.2-1.05-2.08-2.5-2.08h-9.93c-.45,0-.76-.17-.76-.33v-26.84c0-1.2-1.05-2.08-2.5-2.08h-12.1c-1.45,0-2.5.87-2.5,2.08v28.04c0,1.2,1.05,2.08,2.5,2.08h9.93c.45,0,.76.17.76.33v16.89c0,1.2,1.05,2.08,2.5,2.08h9.93c.45,0,.76.17.76.33v36.79c0,1.2,1.05,2.08,2.5,2.08h12.1c1.45,0,2.51-.87,2.51-2.08v-36.59c0-.16.3-.33.76-.33h9.93c1.45,0,2.5-.87,2.5-2.08v-17.09c0-.16.3-.33.76-.33h9.93c1.45,0,2.5-.87,2.5-2.08v-28.04c0-1.2-1.05-2.08-2.5-2.08Z" fill="#86aa57"/><path d="M801.76,389.29h49.49c1.45,0,2.5-.87,2.5-2.08v-8.54c0-1.2-1.05-2.08-2.5-2.08h-64.86c-1.45,0-2.5.87-2.5,2.08v86.54c0,1.2,1.05,2.08,2.5,2.08h64.86c1.45,0,2.5-.87,2.5-2.08v-8.54c0-1.2-1.05-2.08-2.5-2.08h-49.49c-.45,0-.76-.17-.76-.33v-25.63c0-.16.3-.33.76-.33h36.3c1.45,0,2.5-.87,2.5-2.08v-8.54c0-1.2-1.05-2.08-2.5-2.08h-36.3c-.45,0-.76-.17-.76-.33v-25.63c0-.16.3-.33.76-.33Z" fill="#86aa57"/></svg>