<?xml version="1.0" encoding="UTF-8"?><svg id="_レイヤー_1" xmlns="http://www.w3.org/2000/svg" width="327.12" height="860.33" viewBox="0 0 327.12 860.33"><path d="M142.74,2.81h-25.66c-3.03,0-5.22,1.77-5.22,4.22v94.22c0,.29-.65.69-1.69.69h-16.43c-1.05,0-1.69-.4-1.69-.69V7.02c0-2.44-2.2-4.22-5.22-4.22h-25.66c-3.03,0-5.22,1.77-5.22,4.22v94.22c0,.29-.65.69-1.7.69h-16.43c-1.05,0-1.7-.4-1.7-.69V7.02c0-2.44-2.2-4.22-5.22-4.22H5.22C2.2,2.81,0,4.58,0,7.02v96.67c0,2.44,2.2,4.22,5.22,4.22h21.05c1.05,0,1.69.4,1.69.69v74.39c0,2.44,2.2,4.22,5.22,4.22h25.66c3.03,0,5.22-1.77,5.22-4.22v-74.39c0-.29.65-.69,1.7-.69h16.43c1.05,0,1.7.4,1.7.69v74.39c0,2.44,2.2,4.22,5.22,4.22h25.66c3.03,0,5.22-1.77,5.22-4.22v-74.39c0-.29.65-.69,1.7-.69h21.04c3.03,0,5.22-1.77,5.22-4.22V7.02c0-2.44-2.2-4.22-5.22-4.22Z" fill="#4f5b39"/><path d="M321.93,20.44h-20.8c-.9,0-1.64-.33-1.64-.75V4.31c0-2.5-2.19-4.31-5.2-4.31h-80.65c-3.01,0-5.2,1.81-5.2,4.31v15.38c0,.41-.73.75-1.64.75h-20.8c-3.01,0-5.2,1.81-5.2,4.31v140.52c0,2.5,2.19,4.31,5.2,4.31h20.8c.9,0,1.64.34,1.64.75v15.38c0,2.5,2.19,4.31,5.2,4.31h80.65c3.01,0,5.2-1.81,5.2-4.31v-15.38c0-.41.74-.75,1.64-.75h20.8c3.01,0,5.2-1.81,5.2-4.31V24.74c0-2.5-2.19-4.31-5.2-4.31ZM291.36,27.27v135.47c0,.41-.74.75-1.64.75h-71.53c-.9,0-1.64-.34-1.64-.75V27.27c0-.41.74-.75,1.64-.75h71.53c.9,0,1.64.33,1.64.75Z" fill="#4f5b39"/><path d="M137.87,245.18h-19.55c-.85,0-1.54-.31-1.54-.7v-14.45c0-2.35-2.06-4.05-4.89-4.05H10.1c-2.83,0-4.89,1.7-4.89,4.05v170.49c0,2.35,2.06,4.05,4.89,4.05h23.84c2.83,0,4.89-1.7,4.89-4.05v-72.08c0-.39.69-.7,1.54-.7h67.23c.85,0,1.54.31,1.54.7v72.08c0,2.35,2.06,4.05,4.89,4.05h23.84c2.83,0,4.89-1.7,4.89-4.05v-74.45c0-2.35-2.06-4.05-4.89-4.05h-19.55c-.85,0-1.54-.31-1.54-.7v-12.08c0-.39.69-.7,1.54-.7h19.55c2.83,0,4.89-1.7,4.89-4.05v-55.25c0-2.35-2.06-4.05-4.89-4.05ZM109.14,251.6v50.49c0,.39-.69.7-1.54.7H40.37c-.85,0-1.54-.31-1.54-.7v-50.49c0-.39.69-.7,1.54-.7h67.23c.85,0,1.54.32,1.54.7Z" fill="#4f5b39"/><path d="M320.01,225.97h-23.84c-2.83,0-4.89,1.7-4.89,4.05v14.45c0,.39-.69.7-1.54.7h-19.55c-2.83,0-4.89,1.7-4.89,4.05v14.46c0,.39-.69.7-1.54.7h-19.55c-2.83,0-4.89,1.7-4.89,4.05v14.46c0,.39-.69.7-1.54.7h-15.27c-.85,0-1.54-.31-1.54-.7v-52.87c0-2.35-2.06-4.05-4.89-4.05h-23.84c-2.83,0-4.89,1.7-4.89,4.05v170.49c0,2.35,2.06,4.05,4.89,4.05h23.84c2.83,0,4.89-1.7,4.89-4.05v-91.28c0-.39.69-.7,1.54-.7h15.27c.85,0,1.54.31,1.54.7v14.46c0,2.35,2.06,4.05,4.89,4.05h19.55c.85,0,1.54.31,1.54.7v33.66c0,2.35,2.06,4.05,4.89,4.05h19.55c.85,0,1.54.31,1.54.7v33.66c0,2.35,2.06,4.05,4.89,4.05h23.84c2.83,0,4.89-1.7,4.89-4.05v-36.04c0-2.35-2.06-4.05-4.89-4.05h-19.55c-.85,0-1.54-.31-1.54-.7v-33.66c0-2.35-2.06-4.05-4.89-4.05h-19.55c-.85,0-1.54-.31-1.54-.7v-14.45c0-2.35-2.06-4.05-4.89-4.05h-19.55c-.85,0-1.54-.31-1.54-.7v-12.08c0-.39.69-.7,1.54-.7h19.55c2.83,0,4.89-1.7,4.89-4.05v-14.45c0-.39.69-.7,1.54-.7h19.55c2.83,0,4.89-1.7,4.89-4.05v-14.45c0-.39.69-.7,1.54-.7h19.55c2.83,0,4.89-1.7,4.89-4.05v-16.83c0-2.35-2.06-4.05-4.89-4.05Z" fill="#4f5b39"/><path d="M142.74,458.58h-25.66c-3.03,0-5.22,1.77-5.22,4.22v94.22c0,.29-.65.69-1.69.69h-16.43c-1.05,0-1.69-.4-1.69-.69v-94.22c0-2.44-2.2-4.22-5.22-4.22h-25.66c-3.03,0-5.22,1.77-5.22,4.22v94.22c0,.29-.65.69-1.7.69h-16.43c-1.05,0-1.7-.4-1.7-.69v-94.22c0-2.44-2.2-4.22-5.22-4.22H5.22c-3.03,0-5.22,1.77-5.22,4.22v96.67c0,2.44,2.2,4.22,5.22,4.22h21.05c1.05,0,1.69.4,1.69.69v74.39c0,2.44,2.2,4.22,5.22,4.22h25.66c3.03,0,5.22-1.77,5.22-4.22v-74.39c0-.29.65-.69,1.7-.69h16.43c1.05,0,1.7.4,1.7.69v74.39c0,2.44,2.2,4.22,5.22,4.22h25.66c3.03,0,5.22-1.77,5.22-4.22v-74.39c0-.29.65-.69,1.7-.69h21.04c3.03,0,5.22-1.77,5.22-4.22v-96.67c0-2.44-2.2-4.22-5.22-4.22Z" fill="#4f5b39"/><path d="M321.93,476.21h-20.8c-.9,0-1.64-.33-1.64-.75v-15.38c0-2.5-2.19-4.31-5.2-4.31h-80.65c-3.01,0-5.2,1.81-5.2,4.31v15.38c0,.41-.73.75-1.64.75h-20.8c-3.01,0-5.2,1.81-5.2,4.31v140.52c0,2.5,2.19,4.31,5.2,4.31h20.8c.9,0,1.64.34,1.64.75v15.38c0,2.5,2.19,4.31,5.2,4.31h80.65c3.01,0,5.2-1.81,5.2-4.31v-15.38c0-.41.74-.75,1.64-.75h20.8c3.01,0,5.2-1.81,5.2-4.31v-140.52c0-2.5-2.19-4.31-5.2-4.31ZM291.36,483.04v135.47c0,.41-.74.75-1.64.75h-71.53c-.9,0-1.64-.34-1.64-.75v-135.47c0-.41.74-.75,1.64-.75h71.53c.9,0,1.64.33,1.64.75Z" fill="#4f5b39"/><path d="M137.87,700.95h-19.55c-.85,0-1.54-.31-1.54-.7v-14.45c0-2.35-2.06-4.05-4.89-4.05H10.1c-2.83,0-4.89,1.7-4.89,4.05v170.49c0,2.35,2.06,4.05,4.89,4.05h23.84c2.83,0,4.89-1.7,4.89-4.05v-72.08c0-.39.69-.7,1.54-.7h67.23c.85,0,1.54.31,1.54.7v72.08c0,2.35,2.06,4.05,4.89,4.05h23.84c2.83,0,4.89-1.7,4.89-4.05v-74.45c0-2.35-2.06-4.05-4.89-4.05h-19.55c-.85,0-1.54-.31-1.54-.7v-12.08c0-.39.69-.7,1.54-.7h19.55c2.83,0,4.89-1.7,4.89-4.05v-55.25c0-2.35-2.06-4.05-4.89-4.05ZM109.14,707.37v50.49c0,.39-.69.7-1.54.7H40.37c-.85,0-1.54-.31-1.54-.7v-50.49c0-.39.69-.7,1.54-.7h67.23c.85,0,1.54.32,1.54.7Z" fill="#4f5b39"/><path d="M320.01,681.74h-23.84c-2.83,0-4.89,1.7-4.89,4.05v14.45c0,.39-.69.7-1.54.7h-19.55c-2.83,0-4.89,1.7-4.89,4.05v14.46c0,.39-.69.7-1.54.7h-19.55c-2.83,0-4.89,1.7-4.89,4.05v14.46c0,.39-.69.7-1.54.7h-15.27c-.85,0-1.54-.31-1.54-.7v-52.87c0-2.35-2.06-4.05-4.89-4.05h-23.84c-2.83,0-4.89,1.7-4.89,4.05v170.49c0,2.35,2.06,4.05,4.89,4.05h23.84c2.83,0,4.89-1.7,4.89-4.05v-91.28c0-.39.69-.7,1.54-.7h15.27c.85,0,1.54.31,1.54.7v14.46c0,2.35,2.06,4.05,4.89,4.05h19.55c.85,0,1.54.31,1.54.7v33.66c0,2.35,2.06,4.05,4.89,4.05h19.55c.85,0,1.54.31,1.54.7v33.66c0,2.35,2.06,4.05,4.89,4.05h23.84c2.83,0,4.89-1.7,4.89-4.05v-36.04c0-2.35-2.06-4.05-4.89-4.05h-19.55c-.85,0-1.54-.31-1.54-.7v-33.66c0-2.35-2.06-4.05-4.89-4.05h-19.55c-.85,0-1.54-.31-1.54-.7v-14.45c0-2.35-2.06-4.05-4.89-4.05h-19.55c-.85,0-1.54-.31-1.54-.7v-12.08c0-.39.69-.7,1.54-.7h19.55c2.83,0,4.89-1.7,4.89-4.05v-14.45c0-.39.69-.7,1.54-.7h19.55c2.83,0,4.89-1.7,4.89-4.05v-14.45c0-.39.69-.7,1.54-.7h19.55c2.83,0,4.89-1.7,4.89-4.05v-16.83c0-2.35-2.06-4.05-4.89-4.05Z" fill="#4f5b39"/></svg>