<?xml version="1.0" encoding="UTF-8"?><svg id="_レイヤー_1" xmlns="http://www.w3.org/2000/svg" width="576.87" height="576.87" viewBox="0 0 576.87 576.87"><rect x="395.77" y="188.01" width="35.15" height="35.15" fill="#7caa4a"/><polygon points="430.92 258.32 430.92 293.48 430.92 328.63 430.92 363.78 466.08 363.78 466.08 328.63 466.08 293.48 466.08 258.32 466.08 223.17 430.92 223.17 430.92 258.32" fill="#7caa4a"/><rect x="395.77" y="363.78" width="35.15" height="35.15" fill="#7caa4a"/><rect x="474.87" y="152.86" width="35.15" height="35.15" fill="#7caa4a"/><polygon points="510.02 188.01 510.02 223.17 510.02 258.32 510.02 293.48 510.02 328.63 510.02 363.78 510.02 398.94 545.17 398.94 545.17 363.78 545.17 328.63 545.17 293.48 545.17 258.32 545.17 223.17 545.17 188.01 510.02 188.01" fill="#7caa4a"/><rect x="474.87" y="398.94" width="35.15" height="35.15" fill="#7caa4a"/><polygon points="66.85 270.86 66.85 235.7 31.69 235.7 31.69 270.86 31.69 306.01 31.69 341.16 66.85 341.16 66.85 306.01 66.85 270.86" fill="#7caa4a"/><polygon points="137.15 235.7 172.31 235.7 172.31 200.55 137.15 200.55 102 200.55 66.85 200.55 66.85 235.7 102 235.7 137.15 235.7" fill="#7caa4a"/><rect x="172.31" y="165.39" width="35.15" height="35.15" fill="#7caa4a"/><rect x="207.46" y="130.24" width="35.15" height="35.15" fill="#7caa4a"/><polygon points="312.93 130.24 312.93 95.08 277.77 95.08 242.62 95.08 242.62 130.24 277.77 130.24 312.93 130.24" fill="#7caa4a"/><polygon points="312.93 165.39 312.93 200.55 312.93 235.7 312.93 270.86 312.93 306.01 312.93 341.16 312.93 376.32 312.93 411.47 312.93 446.63 348.08 446.63 348.08 411.47 348.08 376.32 348.08 341.16 348.08 306.01 348.08 270.86 348.08 235.7 348.08 200.55 348.08 165.39 348.08 130.24 312.93 130.24 312.93 165.39" fill="#7caa4a"/><polygon points="137.15 341.16 102 341.16 66.85 341.16 66.85 376.32 102 376.32 137.15 376.32 172.31 376.32 172.31 341.16 137.15 341.16" fill="#7caa4a"/><rect x="172.31" y="376.32" width="35.15" height="35.15" fill="#7caa4a"/><rect x="207.46" y="411.47" width="35.15" height="35.15" fill="#7caa4a"/><polygon points="242.62 446.63 242.62 481.78 277.77 481.78 312.93 481.78 312.93 446.63 277.77 446.63 242.62 446.63" fill="#7caa4a"/></svg>