<?xml version="1.0" encoding="UTF-8"?><svg id="_レイヤー_1" xmlns="http://www.w3.org/2000/svg" width="576.87" height="576.87" viewBox="0 0 576.87 576.87"><path d="M207.73,126.12h9.11c1.06,0,1.94-.81,2.03-1.86l.8-9.13c.1-1.19-.84-2.22-2.03-2.22h-9.11c-1.06,0-1.94.81-2.03,1.87l-.8,9.13c-.1,1.19.84,2.22,2.03,2.22Z" fill="#7caa4a"/><path d="M217.24,168.59h9.11c1.06,0,1.94-.81,2.03-1.87l.8-9.13c.1-1.19-.84-2.22-2.03-2.22h-9.11c-1.06,0-1.94.81-2.03,1.86l-.8,9.13c-.1,1.19.84,2.22,2.03,2.22Z" fill="#7caa4a"/><path d="M522.74,117.64h-35.06c-1.2,0-2.14-1.03-2.04-2.22l.05-.61,1.31-15.12,1.33-15.09,1.12-12.85c.1-1.2-.84-2.23-2.06-2.23h-10.59c-1.21,0-2.17-1.03-2.06-2.25l1.12-12.87,1.12-12.85c.1-1.2-.84-2.23-2.06-2.23h-10.59c-1.21,0-2.15-1.05-2.06-2.25l.94-10.61c.11-1.2-.84-2.25-2.06-2.25h-10.98c-1.06,0-1.95.82-2.04,1.89l-.98,11.32c-.1,1.08-.99,1.89-2.06,1.89h-11.33c-1.08,0-1.96.82-2.06,1.88l-.98,11.32c-.1,1.08-.98,1.89-2.06,1.89h-86.46c-1.2,0-2.15-1.03-2.04-2.25l.91-10.61c.11-1.2-.84-2.23-2.04-2.23h-10.61c-1.2,0-2.15-1.03-2.04-2.25l.91-10.61c.11-1.21-.84-2.25-2.04-2.25h-10.96c-1.08,0-1.96.82-2.06,1.88l-.99,11.34c-.1,1.06-.99,1.88-2.06,1.88h-11.32c-1.06,0-1.96.82-2.06,1.88l-1.14,13.21-1.16,13.24c-.1,1.06-.99,1.88-2.06,1.88h-11.32c-1.06,0-1.96.8-2.06,1.88l-1.16,13.21-1.16,13.21c-.08,1.06-.98,1.88-2.04,1.88h-50.85c-1.06,0-1.96.82-2.04,1.88l-.79,9.11c-.11,1.2.84,2.23,2.06,2.23h37.26l-.16,1.89-1.08,12.27c-.09,1.05-.98,1.86-2.03,1.86h-22.54c-1.08,0-1.96.83-2.06,1.89l-.97,11.34-.97,10.95c-.11,1.21.84,2.25,2.04,2.25h9.1c1.06,0,1.96-.82,2.04-1.88l.82-9.44c.1-1.06.98-1.88,2.06-1.88h8.97c1.2,0,2.14,1.03,2.03,2.23l-.06.6-1.31,15.09-1.31,15.09-1.17,13.24c-.1,1.06-.98,1.88-2.06,1.88h-11.32c-1.06,0-1.96.82-2.06,1.88l-1.16,13.21-1.31,15.09-1.14,13.24c-.1,1.06-.99,1.88-2.06,1.88h-11.34c-1.06,0-1.95.82-2.04,1.88l-1.14,13.21-1.33,15.09-1.31,15.12-1.14,13.21c-.1,1.06-.98,1.88-2.06,1.88h-11.33c-1.08,0-1.96.82-2.06,1.89l-1.14,13.22-1.33,15.09-1.31,15.09-1.14,13.24c-.1,1.06-.98,1.88-2.06,1.88h-11.33c-1.08,0-1.96.82-2.06,1.89l-1.14,13.2-1.33,15.1-1.31,15.12-1.31,15.09-1.17,13.24c-.08,1.06-.98,1.88-2.04,1.88h-11.34c-1.06,0-1.94.81-2.03,1.86l-1.17,13.23-1.31,15.09-1.31,15.12-1.33,15.09-1.31,15.09-1.33,15.12-1.14,13.21c-.08,1.06-.98,1.88-2.04,1.88H43.01c-1.06,0-1.96.82-2.06,1.88l-.95,10.98c-.1,1.2.84,2.23,2.06,2.23h388.43c1.06,0,1.96-.82,2.06-1.88l.97-10.96c.11-1.21-.84-2.25-2.06-2.25h-10.59c-1.21,0-2.15-1.03-2.06-2.23l1.12-12.85,1.31-15.12,1.33-15.09,1.31-15.09,1.33-15.12,1.31-15.09,1.31-15.09,1.33-15.12,1.31-15.09,1.33-15.12,1.31-15.1,1.12-12.84c.1-1.21-.84-2.25-2.06-2.25h-10.59c-1.21,0-2.17-1.03-2.06-2.23l1.14-12.88,1.31-15.09,1.31-15.09,1.32-15.12,1.12-12.84c.11-1.21-.84-2.25-2.04-2.25h-10.61c-1.2,0-2.15-1.03-2.04-2.23l1.1-12.88,1.33-15.09,1.31-15.09,1.14-13.24c.1-1.06.99-1.88,2.06-1.88h11.34c1.06,0,1.95-.82,2.04-1.88l.98-11.33c.1-1.06.99-1.88,2.06-1.88h11.33c1.08,0,1.96-.82,2.06-1.88l.98-11.33c.1-1.06.98-1.88,2.06-1.88h11.32c1.06,0,1.96-.82,2.06-1.88l1.16-13.24,1.14-13.21c.1-1.06.98-1.88,2.06-1.88h24.09c1.2,0,2.15,1.03,2.04,2.23l-.75,8.73c-.11,1.2.84,2.23,2.06,2.23h9.07c1.06,0,1.96-.82,2.04-1.88l1.01-11.32.94-10.96c.11-1.21-.84-2.25-2.06-2.25h-24.08l.16-1.88,1.08-12.3c.1-1.06.98-1.88,2.06-1.88h35.77c1.06,0,1.96-.82,2.04-1.88l.79-9.08c.11-1.2-.84-2.23-2.06-2.23ZM385.01,146.17h-15.86c-1.13,0-2.04-.91-2.04-2.04v-15.86c0-1.13.91-2.04,2.04-2.04h15.86c1.13,0,2.04.91,2.04,2.04v15.86c0,1.13-.91,2.04-2.04,2.04ZM435.48,177.18h-39.38c-1.13,0-2.04-.91-2.04-2.04v-10.66c0-1.13.91-2.04,2.04-2.04h10.72c1.13,0,2.04-.91,2.04-2.04v-10.09c0-1.13.91-2.04,2.04-2.04h10.66c1.13,0,2.04.91,2.04,2.04v10.09c0,1.13.91,2.04,2.04,2.04h9.83c1.13,0,2.04.91,2.04,2.04v10.66c0,1.13-.91,2.04-2.04,2.04ZM454.38,145.8h-15.14c-1.13,0-2.04-.91-2.04-2.04v-15.14c0-1.13.91-2.04,2.04-2.04h15.14c1.13,0,2.04.91,2.04,2.04v15.14c0,1.13-.91,2.04-2.04,2.04Z" fill="#7caa4a"/><path d="M523.68,132.71l-.8,9.13c-.1,1.19.84,2.22,2.03,2.22h9.11c1.06,0,1.94-.81,2.03-1.87l.8-9.13c.1-1.19-.84-2.22-2.03-2.22h-9.11c-1.06,0-1.94.81-2.03,1.87Z" fill="#7caa4a"/><path d="M519.15,184.66l.8-9.13c.1-1.19-.84-2.22-2.03-2.22h-9.11c-1.06,0-1.94.81-2.03,1.87l-.8,9.13c-.1,1.19.84,2.22,2.03,2.22h9.11c1.06,0,1.94-.81,2.03-1.87Z" fill="#7caa4a"/></svg>