<?xml version="1.0" encoding="UTF-8"?><svg id="_レイヤー_1" xmlns="http://www.w3.org/2000/svg" width="348.6" height="344.64" viewBox="0 0 348.6 344.64"><path d="M1.11,126.3h11.47c.61,0,1.1.49,1.1,1.1v11.5c0,.61-.5,1.11-1.11,1.11H1.1c-.61,0-1.1-.49-1.1-1.1v-11.5c0-.61.5-1.11,1.11-1.11Z" fill="#85a857"/><path d="M14.78,170.36h11.47c.61,0,1.1.49,1.1,1.1v11.5c0,.61-.5,1.11-1.11,1.11h-11.47c-.61,0-1.1-.49-1.1-1.1v-11.5c0-.61.5-1.11,1.11-1.11Z" fill="#85a857"/><path d="M334.92,113.7v11.49c0,.61-.49,1.11-1.1,1.11h-32.58c-.61,0-1.1.49-1.1,1.11v14.43c0,.61.49,1.11,1.1,1.11h18.89c.61,0,1.1.49,1.1,1.11v25.2c0,.61-.49,1.11-1.1,1.11h-11.47c-.61,0-1.1-.49-1.1-1.11v-11.49c0-.61-.49-1.11-1.1-1.11h-20.85c-.61,0-1.1.49-1.1,1.11v13.46c0,.61-.49,1.11-1.1,1.11h-13.43c-.61,0-1.1.49-1.1,1.11v13.46c0,.61-.49,1.11-1.1,1.11h-29.06c-.61,0-1.1.49-1.1,1.11v13.45c0,.61.49,1.11,1.1,1.11h13.43c.61,0,1.1.49,1.1,1.11v13.46c0,.61.49,1.11,1.1,1.11h13.42c.61,0,1.1.49,1.1,1.11v29.12c0,.61-.49,1.11-1.1,1.11h-13.42c-.61,0-1.1-.49-1.1-1.11v-13.46c0-.61-.49-1.11-1.1-1.11h-29.06c-.61,0-1.1.49-1.1,1.11v107.45c0,.61-.49,1.11-1.1,1.11h-13.42c-.61,0-1.1-.49-1.1-1.11v-29.12c0-.61-.49-1.11-1.1-1.11h-13.43c-.61,0-1.1-.49-1.1-1.11v-13.46c0-.61-.49-1.11-1.1-1.11h-29.06c-.61,0-1.1.49-1.1,1.11v13.46c0,.61-.49,1.11-1.1,1.11h-13.43c-.61,0-1.1.49-1.1,1.11v14.56h-.25c.14,0,.25.11.25.25v14.31c0,.61-.49,1.11-1.1,1.11h-13.42c-.61,0-1.1-.49-1.1-1.11v-14.31c0-.14.11-.25.25-.25h-.25v-92.89c0-.61-.49-1.11-1.1-1.11h-29.06c-.61,0-1.1.49-1.1,1.11v13.46c0,.61-.49,1.11-1.1,1.11h-13.42c-.61,0-1.1-.49-1.1-1.11v-29.12c0-.61.49-1.11,1.1-1.11h13.42c.61,0,1.1-.49,1.1-1.11v-13.46c0-.61.49-1.11,1.1-1.11h13.43c.61,0,1.1-.49,1.1-1.11v-13.45c0-.61-.49-1.11-1.1-1.11h-29.06c-.61,0-1.1-.49-1.1-1.11v-13.46c0-.61-.49-1.11-1.1-1.11h-13.43c-.61,0-1.1-.49-1.1-1.11v-13.46c0-.61-.49-1.11-1.1-1.11h-22.42c-.61,0-1.1.49-1.1,1.11v11.49c0,.61-.49,1.11-1.1,1.11h-11.47c-.61,0-1.1-.49-1.1-1.11v-25.2c0-.61.49-1.11,1.1-1.11h20.46c.61,0,1.1-.49,1.1-1.11v-14.43c0-.61-.49-1.11-1.1-1.11H14.78c-.61,0-1.1-.49-1.1-1.11v-11.49c0-.61.49-1.11,1.1-1.11h34.14c.61,0,1.1-.49,1.1-1.11v-47.73c0-.61.49-1.11,1.1-1.11h13.43c.61,0,1.1-.49,1.1-1.11v-13.45c0-.61.49-1.11,1.1-1.11h13.43c.61,0,1.1-.49,1.1-1.11v-29.12c0-.61.49-1.11,1.1-1.11h13.42c.61,0,1.1-.49,1.1-1.11V1.11c0-.61.49-1.11,1.1-1.11h13.43c.61,0,1.1.49,1.1,1.11v13.45c0,.61.49,1.11,1.1,1.11h13.43c.61,0,1.1.49,1.1,1.11v13.46c0,.61.49,1.11,1.1,1.11h91.58c.61,0,1.1-.49,1.1-1.11v-13.46c0-.61.49-1.11,1.1-1.11h13.43c.61,0,1.1-.49,1.1-1.11V1.11c0-.61.49-1.11,1.1-1.11h13.43c.61,0,1.1.49,1.1,1.11v13.45c0,.61.49,1.11,1.1,1.11h13.42c.61,0,1.1.49,1.1,1.11v29.12c0,.61.49,1.11,1.1,1.11h13.43c.61,0,1.1.49,1.1,1.11v13.45c0,.61.49,1.11,1.1,1.11h13.43c.61,0,1.1.49,1.1,1.11v47.73c0,.61.49,1.11,1.1,1.11h32.58c.61,0,1.1.49,1.1,1.11Z" fill="#85a857"/><path d="M336.03,126.3h11.47c.61,0,1.11.5,1.11,1.11v11.5c0,.61-.49,1.1-1.1,1.1h-11.47c-.61,0-1.11-.5-1.11-1.11v-11.5c0-.61.49-1.1,1.1-1.1Z" fill="#85a857"/><path d="M322.35,170.36h11.47c.61,0,1.11.5,1.11,1.11v11.5c0,.61-.49,1.1-1.1,1.1h-11.47c-.61,0-1.11-.5-1.11-1.11v-11.5c0-.61.49-1.1,1.1-1.1Z" fill="#85a857"/></svg>