<?xml version="1.0" encoding="UTF-8"?><svg id="_レイヤー_1" xmlns="http://www.w3.org/2000/svg" width="576.87" height="576.87" viewBox="0 0 576.87 576.87"><path d="M440.02,192.47v-34.1c0-1.05-.85-1.9-1.9-1.9h-34.11c-1.05,0-1.9-.85-1.9-1.9v-34.1c0-1.05-.85-1.9-1.9-1.9h-34.1c-1.05,0-1.9-.85-1.9-1.9v-34.09c0-1.05-.85-1.9-1.9-1.9h-147.77c-1.05,0-1.9.85-1.9,1.9v34.09c0,1.05-.85,1.9-1.9,1.9h-34.1c-1.05,0-1.9.85-1.9,1.9v34.1c0,1.05-.85,1.9-1.9,1.9h-34.1c-1.05,0-1.9.85-1.9,1.9v34.1c0,1.05-.85,1.9-1.9,1.9h-30.87c-1.05,0-1.9.85-1.9,1.9v185.67c0,1.05.85,1.9,1.9,1.9h30.87c1.05,0,1.9.85,1.9,1.9v34.1c0,1.05.85,1.9,1.9,1.9h34.1c1.05,0,1.9.85,1.9,1.9v34.09c0,1.05.85,1.9,1.9,1.9h34.1c1.05,0,1.9.85,1.9,1.9v34.1c0,1.05.85,1.9,1.9,1.9h34.09c1.05,0,1.9.85,1.9,1.9v34.09c0,1.05.85,1.9,1.9,1.9h72c1.05,0,1.9-.85,1.9-1.9v-35.97h.01s35.97-.01,35.97-.01c1.05,0,1.9-.85,1.9-1.9v-34.1c0-1.05.85-1.9,1.9-1.9h34.1c1.05,0,1.9-.85,1.9-1.9v-35.97h.01s36-.01,36-.01c1.05,0,1.9-.85,1.9-1.9v-34.1c0-1.05.85-1.9,1.9-1.9h30.87c1.05,0,1.9-.85,1.9-1.9v-185.67c0-1.05-.85-1.9-1.9-1.9h-30.87c-1.05,0-1.9-.85-1.9-1.9ZM184.48,353.7v-25c0-1.05-.85-1.9-1.9-1.9h-10.61c-1.05,0-1.9-.85-1.9-1.9v-53.81c0-1.05.85-1.9,1.9-1.9h53.82c1.05,0,1.9.85,1.9,1.9v25c0,1.05.85,1.9,1.9,1.9h10.6c1.05,0,1.9.85,1.9,1.9v25c0,1.05.85,1.9,1.9,1.9h10.6c1.05,0,1.9.85,1.9,1.9v25c0,1.05-.85,1.9-1.9,1.9h-68.21c-1.05,0-1.9-.85-1.9-1.9ZM325.59,424.67h-68.3c-1.05,0-1.9-.85-1.9-1.9v-20.67c0-1.05.85-1.9,1.9-1.9h20.75c1.05,0,1.9-.85,1.9-1.9v-19.7c0-1.05.85-1.9,1.9-1.9h20.66c1.05,0,1.9.85,1.9,1.9v19.7c0,1.05.85,1.9,1.9,1.9h19.29c1.05,0,1.9.85,1.9,1.9v20.67c0,1.05-.85,1.9-1.9,1.9ZM404.88,326.8h-10.6c-1.05,0-1.9.85-1.9,1.9v25c0,1.05-.85,1.9-1.9,1.9h-68.21c-1.05,0-1.9-.85-1.9-1.9v-25c0-1.05.85-1.9,1.9-1.9h10.6c1.05,0,1.9-.85,1.9-1.9v-25c0-1.05.85-1.9,1.9-1.9h10.6c1.05,0,1.9-.85,1.9-1.9v-25c0-1.05.85-1.9,1.9-1.9h53.81c1.05,0,1.9.85,1.9,1.9v53.81c0,1.05-.85,1.9-1.9,1.9Z" fill="#7caa4a"/></svg>