<?xml version="1.0" encoding="UTF-8"?><svg id="_レイヤー_1" xmlns="http://www.w3.org/2000/svg" width="456.91" height="862.74" viewBox="0 0 456.91 862.74"><path d="M453.45,168.34c0-.59-.48-1.06-1.07-1.08l-36.99-1.04c-.59-.02-1.06-.49-1.07-1.07l-.65-30.12c-.01-.6-.5-1.07-1.1-1.07l-118.91.44c.14-.19.22-.41.21-.66l-.27-14.11c-.01-.6-.5-1.07-1.1-1.07h-24.37l3.14-12.78,61.61-.03c.61,0,1.1-.49,1.1-1.09V1.09C333.98.49,333.48,0,332.88,0l-153.34.07c-.61,0-1.1.49-1.1,1.09v103.58c0,.6.49,1.09,1.1,1.09l69.57-.03-.97,12.77h-24.48c-.54,0-1,.39-1.09.92l-2.28,14.04c-.08.49.18.94.59,1.15l-182.08.68c-.6,0-1.09.49-1.1,1.08l-.27,28.98c0,.6-.49,1.08-1.09,1.08l-35.26.35c-.61,0-1.09.5-1.09,1.1l2.26,693.68c0,.6.5,1.08,1.1,1.08h53.23c.61,0,1.1-.49,1.1-1.1l-.31-662.09c0-.6.49-1.1,1.1-1.1l335.5-.08c.6,0,1.08.47,1.1,1.07l5.51,662.24c.02.59.5,1.07,1.1,1.07h54.12c.61,0,1.11-.5,1.1-1.11l-3.46-693.28Z" fill="#4f5b39"/><path d="M336.97,236.46l-12.11-1.12-20.56-1.2s-.04,0-.06,0h-169.62c-.43,0-.82.25-1,.64l-14.58,31.51c-.07.14-.1.3-.1.46v13.72c0,.6.49,1.09,1.1,1.09h94.18l-3.32,30.85-36.72,6.33c-.2.03-.39.12-.54.26l-21.08,18.41c-.2.17-.33.41-.36.67l-4.76,34.66h-8.62c-.38,0-.73.2-.93.52l-6.01,9.65c-.2.32-.22.71-.06,1.05l6.21,13c.12.25.33.44.58.55l7.91,3.16c.15.06.32.09.48.08l16.98-1.05c.26-.02.51-.12.69-.3l8.58-8.22c.37-.35.44-.92.18-1.35l-5.18-8.55,15.32-38.88c.14-.37.48-.63.87-.68l27.52-3.86c.6-.08,1.16.33,1.24.93l4.97,35.9h-4.97c-.55,0-1.02.41-1.09.96l-3,23.85c-.06.49.22.97.68,1.15l11.56,4.62c.15.06.31.09.48.08l18.66-1.16c.26-.02.51-.12.69-.3l9.49-9.09c.37-.35.44-.92.18-1.35l-8.85-14.62c-.12-.21-.31-.36-.54-.45l-.84-.33v-38.76c0-.44.27-.84.68-1.01l1.39-.57c.24-.1.5-.11.74-.03l26.8,8.22c.25.08.46.23.6.45l9.71,14.82c.09.14.15.31.17.48l1.41,13-4.21.59c-.38.05-.7.29-.85.64l-5.78,12.88c-.17.37-.11.8.14,1.12l5.71,7.27c.12.15.28.27.46.34l8.03,3.21c.15.06.31.09.48.08l16.98-1.05c.26-.02.51-.12.69-.3l8.71-8.34c.31-.3.42-.74.28-1.15l-4.59-13.12c-.12-.34-.4-.6-.74-.69l-3.58-1v-.96c0-.07,0-.14-.02-.21l-7.21-36.74c-.04-.23-.16-.43-.33-.59l-27.79-25.67c-.2-.19-.47-.29-.75-.29h-23.47l1.84-29.07h90.75c.61,0,1.1-.49,1.1-1.09v-42.91c0-.57-.43-1.04-1-1.09Z" fill="#4f5b39"/></svg>