<?xml version="1.0" encoding="UTF-8"?><svg id="_レイヤー_1" xmlns="http://www.w3.org/2000/svg" width="576.87" height="576.87" viewBox="0 0 576.87 576.87"><path d="M192.14,228.58v-31.02c0-.66-.57-1.2-1.26-1.2h-45.21c-.7,0-1.26.54-1.26,1.2v31.02c0,.66.57,1.2,1.26,1.2h45.21c.7,0,1.26-.54,1.26-1.2Z" fill="#7caa4a"/><path d="M192.14,230.98v31.02c0,.66.57,1.2,1.26,1.2h45.21c.7,0,1.26-.54,1.26-1.2v-31.02c0-.66-.57-1.2-1.26-1.2h-45.21c-.7,0-1.26.54-1.26,1.2Z" fill="#7caa4a"/><path d="M239.88,264.39v33.99c0,.66.57,1.2,1.26,1.2h92.94c.7,0,1.26-.54,1.26-1.2v-33.99c0-.66-.57-1.2-1.26-1.2h-92.94c-.7,0-1.26.54-1.26,1.2Z" fill="#7caa4a"/><path d="M336.61,263.19h45.21c.7,0,1.26-.54,1.26-1.2v-31.02c0-.66-.57-1.2-1.26-1.2h-45.21c-.7,0-1.26.54-1.26,1.2v31.02c0,.66.57,1.2,1.26,1.2Z" fill="#7caa4a"/><path d="M384.34,229.78h45.21c.7,0,1.26-.54,1.26-1.2v-31.02c0-.66-.57-1.2-1.26-1.2h-45.21c-.7,0-1.26.54-1.26,1.2v31.02c0,.66.57,1.2,1.26,1.2Z" fill="#7caa4a"/><path d="M461.89,161.76v-36.94c0-.66-.57-1.2-1.26-1.2H117.36c-.7,0-1.26.54-1.26,1.2v36.94c0,.66-.57,1.2-1.26,1.2h-45.9c-.7,0-1.26.54-1.26,1.2v257.44c0,.66.57,1.2,1.26,1.2h26.48c.7,0,1.26-.54,1.26-1.2v-224.03c0-.66.57-1.2,1.26-1.2h45.21c.7,0,1.26-.54,1.26-1.2v-42.89c0-.66.57-1.2,1.26-1.2h283.87c.7,0,1.26.54,1.26,1.2v42.89c0,.66.57,1.2,1.26,1.2h45.21c.7,0,1.26.54,1.26,1.2v224.03c0,.66.57,1.2,1.26,1.2h29.26c.7,0-1.51-.54-1.51-1.2V164.15c0-.66,2.21-1.2,1.51-1.2h-45.9c-.7,0-1.26-.54-1.26-1.2Z" fill="#7caa4a"/><path d="M383.08,422.8H97.94c-.7,0-1.26.54-1.26,1.2v28.05c0,.66.57,1.2,1.26,1.2h379.34c.7,0,1.26-.54,1.26-1.2v-28.05c0-.66-.57-1.2-1.26-1.2h-94.2Z" fill="#7caa4a"/></svg>