<?xml version="1.0" encoding="UTF-8"?><svg id="_レイヤー_1" xmlns="http://www.w3.org/2000/svg" width="576.87" height="576.87" viewBox="0 0 576.87 576.87"><rect x="160.78" y="203.33" width="42.55" height="42.55" rx="1.13" ry="1.13" fill="#7caa4a"/><rect x="203.33" y="245.88" width="42.55" height="42.55" rx="1.13" ry="1.13" fill="#7caa4a"/><path d="M245.88,289.56v40.3c0,.62.5,1.13,1.13,1.13h82.85c.62,0,1.13-.5,1.13-1.13v-40.3c0-.62-.5-1.13-1.13-1.13h-82.85c-.62,0-1.13.5-1.13,1.13Z" fill="#7caa4a"/><rect x="330.98" y="245.88" width="42.55" height="42.55" rx="1.13" ry="1.13" fill="#7caa4a"/><rect x="373.54" y="203.33" width="42.55" height="42.55" rx="1.13" ry="1.13" fill="#7caa4a"/><path d="M458.64,159.65v-40.3c0-.62-.5-1.13-1.13-1.13H119.35c-.62,0-1.13.5-1.13,1.13v40.3c0,.62-.5,1.13-1.13,1.13h-40.3c-.62,0-1.13.5-1.13,1.13v253.06c0,.62.5,1.13,1.13,1.13h40.3c.62,0,1.13-.5,1.13-1.13v-210.51c0-.62.5-1.13,1.13-1.13h40.3c.62,0,1.13-.5,1.13-1.13v-40.3c0-.62.5-1.13,1.13-1.13h253.06c.62,0,1.13.5,1.13,1.13v40.3c0,.62.5,1.13,1.13,1.13h40.3c.62,0,1.13.5,1.13,1.13v210.51c0,.62.5,1.13,1.13,1.13h40.3c.62,0,1.13-.5,1.13-1.13v-253.06c0-.62-.5-1.13-1.13-1.13h-40.3c-.62,0-1.13-.5-1.13-1.13Z" fill="#7caa4a"/><path d="M373.54,416.09H119.35c-.62,0-1.13.5-1.13,1.13v40.3c0,.62.5,1.13,1.13,1.13h338.16c.62,0,1.13-.5,1.13-1.13v-40.3c0-.62-.5-1.13-1.13-1.13h-83.98Z" fill="#7caa4a"/></svg>