<?xml version="1.0" encoding="UTF-8"?><svg id="_レイヤー_1" xmlns="http://www.w3.org/2000/svg" width="1074.27" height="1382.66" viewBox="0 0 1074.27 1382.66"><path d="M537.74,775.26l-94.3,83.03c-.11.1-.2.21-.26.34l-32.18,65.85c-.35.71.15,1.55.94,1.58l256.47,12.31c.81.04,1.38-.78,1.07-1.53l-37.73-89.79c-.07-.18-.19-.33-.34-.44l-92.26-71.39c-.42-.32-1.01-.3-1.4.04Z" fill="#4f5b39"/><path d="M669.3,938.42l-257.98-12.38c-.59-.03-1.1.41-1.15,1l-32.93,372.21c-.06.63.43,1.18,1.07,1.2l370.36,10.1c.71.02,1.26-.63,1.11-1.33l-79.45-369.93c-.1-.49-.53-.84-1.02-.87Z" fill="#86aa57"/><path d="M369.11,1172.07l60.01,25.27c.45.19.73.66.67,1.15l-19.39,153.88c-.07.58-.58,1-1.16.96l-144.62-9.55c-.83-.05-1.3-.97-.87-1.67l104-169.6c.28-.46.86-.65,1.37-.44Z" fill="#4f5b39"/><path d="M684.02,1225.31l62.15-12.76c.51-.1,1.02.16,1.23.64l63.2,145.77c.27.63-.09,1.36-.76,1.51l-96.55,22.16c-.61.14-1.21-.26-1.33-.87l-28.79-155.17c-.11-.59.27-1.16.86-1.28Z" fill="#4f5b39"/><circle cx="550.63" cy="1106.84" r="105.53" fill="#171917"/><rect x="521.58" y="1230.26" width="7.17" height="7.17" rx=".42" ry=".42" fill="#86aa57"/><rect x="521.58" y="1230.26" width="7.17" height="7.17" rx=".42" ry=".42" fill="#86aa57"/></svg>