<?xml version="1.0" encoding="UTF-8"?><svg id="_レイヤー_1" xmlns="http://www.w3.org/2000/svg" width="576.87" height="576.87" viewBox="0 0 576.87 576.87"><path d="M524.16,234.27v-74.48c0-.55-.45-1-1-1h-35.72c-.55,0-1-.45-1-1v-16.82c0-.55-.45-1-1-1h-73.44c-.55,0-1,.45-1,1v16.86c0,.55-.45,1-1,1h-35.72c-.55,0-1,.45-1,1v16.86c0,.55-.45,1-1,1h-35.72c-.55,0-1,.45-1,1v16.86c0,.55-.45,1-1,1h-16.86c-.55,0-1,.45-1,1v16.86c0,.55-.45,1-1,1h-16.86c-.55,0-1,.45-1,1v16.86c0,.55-.45,1-1,1h-16.86c-.55,0-1-.45-1-1v-16.86c0-.55-.45-1-1-1h-16.86c-.55,0-1-.45-1-1v-16.86c0-.55-.45-1-1-1h-16.86c-.55,0-1-.45-1-1v-16.86c0-.55-.45-1-1-1h-35.72c-.55,0-1-.45-1-1v-16.86c0-.55-.45-1-1-1h-35.72c-.55,0-1-.45-1-1v-16.86c0-.55-.45-1-1-1h-73.44c-.55,0-1,.45-1,1v16.86c0,.55-.45,1-1,1h-35.72c-.55,0-1,.45-1,1v262.01c0,.55.45,1,1,1h35.72c.55,0,1,.45,1,1v16.86c0,.55.45,1,1,1h73.44c.55,0,1,.45,1,1v16.86c0,.55.45,1,1,1h35.71c.55,0,1,.45,1,1v16.86c0,.55.45,1,1,1h35.72c.55,0,1,.45,1,1v16.86c0,.55.45,1,1,1h35.72c.55,0,1-.45,1-1v-16.86c0-.55.45-1,1-1h16.86c.55,0,1,.45,1,1v16.86c0,.55.45,1,1,1h35.72c.55,0,1-.45,1-1v-16.86c0-.55.45-1,1-1h35.72c.55,0,1-.45,1-1v-16.86c0-.55-.45-1-1-1h-35.72c-.55,0-1-.45-1-1v-16.86c0-.55.45-1,1-1h35.72c.55,0,1,.45,1,1v16.86c0,.55.45,1,1,1h35.72c.55,0,1-.45,1-1v-16.86c0-.55.45-1,1-1h73.44c.55,0,1-.45,1-1v-16.86c0-.55.45-1,1-1h35.71c.55,0,1-.45,1-1v-168.75h0v-18.83h0ZM71.57,402.99v-224.29c0-.55.45-1,1-1h16.86c.55,0,1,.45,1,1v224.29c0,.55-.45,1-1,1h-16.86c-.55,0-1-.45-1-1ZM164.86,422.85h-73.43c-.55,0-1-.45-1-1v-16.86c0-.55.45-1,1-1h17.86s55.57,0,55.57,0c.55,0,1,.45,1,1v16.86c0,.55-.45,1-1,1ZM165.86,440.7v-16.86c0-.55.45-1,1-1h35.72c.55,0,1,.45,1,1v16.86c0,.55-.45,1-1,1h-35.72c-.55,0-1-.45-1-1ZM259.14,479.42h-16.86c-.55,0-1-.45-1-1v-16.86c0-.55-.45-1-1-1h-35.72c-.55,0-1-.45-1-1v-16.86c0-.55.45-1,1-1h35.72c.55,0,1,.45,1,1v16.86c0,.55.45,1,1,1h16.86c.55,0,1,.45,1,1v16.86c0,.55-.45,1-1,1ZM259.15,403.99h-16.86c-.55,0-1-.45-1-1v-16.86c0-.55-.45-1-1-1h-35.72c-.55,0-1-.45-1-1v-16.86c0-.55-.45-1-1-1h-35.72c-.55,0-1-.45-1-1v-16.86c0-.55-.45-1-1-1h-35.72c-.55,0-1-.45-1-1v-16.86c0-.55.45-1,1-1h35.72c.55,0,1,.45,1,1v16.86c0,.55.45,1,1,1h35.72c.55,0,1,.45,1,1v16.86c0,.55.45,1,1,1h35.72c.55,0,1,.45,1,1v16.86c0,.55.45,1,1,1h16.86c.55,0,1,.45,1,1v16.86c0,.55-.45,1-1,1ZM259.15,347.42h-16.86c-.55,0-1-.45-1-1v-16.86c0-.55-.45-1-1-1h-35.72c-.55,0-1-.45-1-1v-16.86c0-.55-.45-1-1-1h-35.72c-.55,0-1-.45-1-1v-16.86c0-.55-.45-1-1-1h-35.72c-.55,0-1-.45-1-1v-16.86c0-.55.45-1,1-1h35.72c.55,0,1,.45,1,1v16.86c0,.55.45,1,1,1h35.72c.55,0,1,.45,1,1v16.86c0,.55.45,1,1,1h35.72c.55,0,1,.45,1,1v16.86c0,.55.45,1,1,1h16.86c.55,0,1,.45,1,1v16.86c0,.55-.45,1-1,1ZM259.15,290.84h-16.86c-.55,0-1-.45-1-1v-16.86c0-.55-.45-1-1-1h-35.72c-.55,0-1-.45-1-1v-16.86c0-.55-.45-1-1-1h-35.72c-.55,0-1-.45-1-1v-16.86c0-.55-.45-1-1-1h-35.72c-.55,0-1-.45-1-1v-16.86c0-.55.45-1,1-1h35.72c.55,0,1,.45,1,1v16.86c0,.55.45,1,1,1h35.72c.55,0,1,.45,1,1v16.86c0,.55.45,1,1,1h35.72c.55,0,1,.45,1,1v16.86c0,.55.45,1,1,1h16.86c.55,0,1,.45,1,1v16.86c0,.55-.45,1-1,1ZM317.72,271.98h16.86c.55,0,1-.45,1-1v-16.86c0-.55.45-1,1-1h35.72c.55,0,1-.45,1-1v-16.86c0-.55.45-1,1-1h35.72c.55,0,1-.45,1-1v-16.86c0-.55.45-1,1-1h35.72c.55,0,1,.45,1,1v16.86c0,.55-.45,1-1,1h-35.72c-.55,0-1,.45-1,1v16.86c0,.55-.45,1-1,1h-35.72c-.55,0-1,.45-1,1v16.86c0,.55-.45,1-1,1h-35.72c-.55,0-1,.45-1,1v16.86c0,.55-.45,1-1,1h-16.86c-.55,0-1-.45-1-1v-16.86c0-.55.45-1,1-1ZM317.72,328.56h16.86c.55,0,1-.45,1-1v-16.86c0-.55.45-1,1-1h35.72c.55,0,1-.45,1-1v-16.86c0-.55.45-1,1-1h35.72c.55,0,1-.45,1-1v-16.86c0-.55.45-1,1-1h35.72c.55,0,1,.45,1,1v16.86c0,.55-.45,1-1,1h-35.72c-.55,0-1,.45-1,1v16.86c0,.55-.45,1-1,1h-35.72c-.55,0-1,.45-1,1v16.86c0,.55-.45,1-1,1h-35.72c-.55,0-1,.45-1,1v16.86c0,.55-.45,1-1,1h-16.86c-.55,0-1-.45-1-1v-16.86c0-.55.45-1,1-1ZM334.58,479.42h-16.86c-.55,0-1-.45-1-1v-16.86c0-.55.45-1,1-1h16.86c.55,0,1,.45,1,1v16.86c0,.55-.45,1-1,1ZM410,441.7h-35.71c-.55,0-1-.45-1-1v-16.86c0-.55.45-1,1-1h35.71c.55,0,1,.45,1,1v16.86c0,.55-.45,1-1,1ZM373.3,367.27v16.86c0,.55-.45,1-1,1h-35.72c-.55,0-1,.45-1,1v16.86c0,.55-.45,1-1,1h-16.86c-.55,0-1-.45-1-1v-16.86c0-.55.45-1,1-1h16.86c.55,0,1-.45,1-1v-16.86c0-.55.45-1,1-1h35.72c.55,0,1-.45,1-1v-16.86c0-.55.45-1,1-1h35.72c.55,0,1-.45,1-1v-16.86c0-.55.45-1,1-1h35.72c.55,0,1,.45,1,1v16.86c0,.55-.45,1-1,1h-35.72c-.55,0-1,.45-1,1v16.86c0,.55-.45,1-1,1h-35.72c-.55,0-1,.45-1,1ZM505.3,234.27h0v18.86h0v149.87c0,.55-.45,1-1,1h-16.86c-.55,0-1,.45-1,1v16.86c0,.55-.45,1-1,1h-73.44c-.55,0-1-.45-1-1v-16.86c0-.55.45-1,1-1h73.43c.55,0,1-.45,1-1v-224.34c0-.55.45-1,1-1h16.86c.55,0,1,.45,1,1v55.62Z" fill="#7caa4a"/></svg>