<?xml version="1.0" encoding="UTF-8"?><svg id="_レイヤー_1" xmlns="http://www.w3.org/2000/svg" width="1074.27" height="1382.66" viewBox="0 0 1074.27 1382.66"><path d="M537.74,775.26l-94.3,83.03c-.11.1-.2.21-.26.34l-32.18,65.85c-.35.71.15,1.55.94,1.58l256.47,12.31c.81.04,1.38-.78,1.07-1.53l-37.73-89.79c-.07-.18-.19-.33-.34-.44l-92.26-71.39c-.42-.32-1.01-.3-1.4.04Z" fill="#4f5b39"/><path d="M669.3,938.42l-257.98-12.38c-.59-.03-1.1.41-1.15,1l-32.93,372.21c-.06.63.43,1.18,1.07,1.2l370.36,10.1c.71.02,1.26-.63,1.11-1.33l-79.45-369.93c-.1-.49-.53-.84-1.02-.87Z" fill="#86aa57"/><path d="M369.11,1172.07l60.01,25.27c.45.19.73.66.67,1.15l-19.39,153.88c-.07.58-.58,1-1.16.96l-144.62-9.55c-.83-.05-1.3-.97-.87-1.67l104-169.6c.28-.46.86-.65,1.37-.44Z" fill="#4f5b39"/><path d="M684.02,1225.31l62.15-12.76c.51-.1,1.02.16,1.23.64l63.2,145.77c.27.63-.09,1.36-.76,1.51l-96.55,22.16c-.61.14-1.21-.26-1.33-.87l-28.79-155.17c-.11-.59.27-1.16.86-1.28Z" fill="#4f5b39"/><circle cx="550.63" cy="1106.84" r="105.53" fill="#171917"/><rect x="521.58" y="1230.26" width="7.17" height="7.17" rx=".42" ry=".42" fill="#86aa57"/><rect x="521.58" y="1230.26" width="7.17" height="7.17" rx=".42" ry=".42" fill="#86aa57"/><path d="M476.94,1131.62v5.44c0,.23.19.42.42.42h15.12c.23,0,.42.19.42.42v6.78c0,.23-.19.42-.42.42h-8.84c-.23,0-.42.19-.42.42v11.72c0,.23.19.42.42.42h5.44c.23,0,.42-.19.42-.42v-5.44c0-.23.19-.42.42-.42h9.74c.23,0,.42.19.42.42v6.34c0,.23.19.42.42.42h6.34c.23,0,.42.19.42.42v6.34c0,.23.19.42.42.42h13.51c.23,0,.42.19.42.42v6.34c0,.23-.19.42-.42.42h-6.34c-.23,0-.42.19-.42.42v6.34c0,.23-.19.42-.42.42h-6.34c-.23,0-.42.19-.42.42v13.51c0,.23.19.42.42.42h6.34c.23,0,.42-.19.42-.42v-6.34c0-.23.19-.42.42-.42h13.51c.23,0,.42.19.42.42v42.2c0,.23.19.42.42.42h6.34c.23,0,.42-.19.42-.42v-6.34c0-.23.19-.42.42-.42h6.34c.23,0,.42-.19.42-.42v-6.34c0-.23.19-.42.42-.42h13.51c.23,0,.42.19.42.42v6.34c0,.23.19.42.42.42h6.34c.23,0,.42.19.42.42v13.51c0,.23.19.42.42.42h6.34c.23,0,.42-.19.42-.42v-49.36c0-.23.19-.42.42-.42h20.68c.23,0,.42-.19.42-.42v-6.34c0-.23.19-.42.42-.42h6.34c.23,0,.42-.19.42-.42v-13.51c0-.23-.19-.42-.42-.42h-6.34c-.23,0-.42.19-.42.42v6.34c0,.23-.19.42-.42.42h-13.51c-.23,0-.42-.19-.42-.42v-6.34c0-.23.19-.42.42-.42h13.51c.23,0,.42-.19.42-.42v-6.34c0-.23.19-.42.42-.42h6.34c.23,0,.42-.19.42-.42v-6.34c0-.23.19-.42.42-.42h10.46c.23,0,.42.19.42.42v5.44c0,.23.19.42.42.42h5.44c.23,0,.42-.19.42-.42v-11.72c0-.23-.19-.42-.42-.42h-9.56c-.23,0-.42-.19-.42-.42v-6.78c0-.23.19-.42.42-.42h15.84c.23,0,.42-.19.42-.42v-5.44c0-.23-.19-.42-.42-.42h-15.84c-.23,0-.42-.19-.42-.42v-22.02c0-.23-.19-.42-.42-.42h-6.34c-.23,0-.42-.19-.42-.42v-6.34c0-.23-.19-.42-.42-.42h-6.34c-.23,0-.42-.19-.42-.42v-13.51c0-.23-.19-.42-.42-.42h-6.34c-.23,0-.42-.19-.42-.42v-6.33c0-.23-.19-.42-.42-.42h-6.34c-.23,0-.42.19-.42.42v6.33c0,.23-.19.42-.42.42h-6.34c-.23,0-.42.19-.42.42v6.34c0,.23-.19.42-.42.42h-42.2c-.23,0-.42-.19-.42-.42v-6.34c0-.23-.19-.42-.42-.42h-6.34c-.23,0-.42-.19-.42-.42v-6.33c0-.23-.19-.42-.42-.42h-6.34c-.23,0-.42.19-.42.42v6.33c0,.23-.19.42-.42.42h-6.34c-.23,0-.42.19-.42.42v13.51c0,.23-.19.42-.42.42h-6.34c-.23,0-.42.19-.42.42v6.34c0,.23-.19.42-.42.42h-6.34c-.23,0-.42.19-.42.42v22.02c0,.23-.19.42-.42.42h-15.12c-.23,0-.42.19-.42.42Z" fill="#86aa57"/><rect x="624.31" y="1137.48" width="6.28" height="6.28" rx=".42" ry=".42" fill="#86aa57"/><rect x="618.04" y="1157.65" width="6.28" height="6.28" rx=".42" ry=".42" fill="#86aa57"/><rect x="470.66" y="1137.48" width="6.28" height="6.28" rx=".42" ry=".42" fill="#86aa57"/><rect x="476.94" y="1157.65" width="6.28" height="6.28" rx=".42" ry=".42" fill="#86aa57"/></svg>