<?xml version="1.0" encoding="UTF-8"?><svg id="_レイヤー_1" xmlns="http://www.w3.org/2000/svg" width="377.68" height="372.6" viewBox="0 0 377.68 372.6"><rect x="0" y="136.55" width="14.82" height="14.82" rx=".99" ry=".99" fill="#86aa57"/><rect x="14.82" y="184.18" width="14.82" height="14.82" rx=".99" ry=".99" fill="#86aa57"/><path d="M362.84,122.71v12.85c0,.54-.44.99-.99.99h-37.41c-.54,0-.99.44-.99.99v16.02c0,.54.44.99.99.99h22.59c.54,0,.99.44.99.99v27.67c0,.54-.44.99-.99.99h-12.84c-.54,0-.99-.44-.99-.99v-12.85c0-.54-.44-.99-.99-.99h-24.71c-.54,0-.99.44-.99.99v14.97c0,.54-.44.99-.99.99h-14.97c-.54,0-.99.44-.99.99v14.97c0,.54-.44.99-.99.99h-31.9c-.54,0-.99.44-.99.99v14.97c0,.54.44.99.99.99h14.97c.54,0,.99.44.99.99v14.97c0,.54.44.99.99.99h14.97c.54,0,.99.44.99.99v31.9c0,.54-.44.99-.99.99h-14.97c-.54,0-.99-.44-.99-.99v-14.97c0-.54-.44-.99-.99-.99h-31.9c-.54,0-.99.44-.99.99v99.65c0,.54-.44.99-.99.99h-14.97c-.54,0-.99-.44-.99-.99v-14.97c0-.54-.44-.99-.99-.99h-14.97c-.54,0-.99-.44-.99-.99v-14.97c0-.54-.44-.99-.99-.99h-31.9c-.54,0-.99.44-.99.99v14.97c0,.54-.44.99-.99.99h-14.96c-.54,0-.99.44-.99.99v31.9c0,.54-.44.99-.99.99h-14.97c-.54,0-.99-.44-.99-.99v-116.58c0-.54-.44-.99-.99-.99h-48.84c-.54,0-.99-.44-.99-.99v-14.97c0-.54-.44-.99-.99-.99h-14.97c-.54,0-.99-.44-.99-.99v-31.9c0-.54.44-.99.99-.99h14.97c.54,0,.99.44.99.99v14.97c0,.54.44.99.99.99h31.9c.54,0,.99-.44.99-.99v-14.97c0-.54-.44-.99-.99-.99h-31.9c-.54,0-.99-.44-.99-.99v-14.97c0-.54-.44-.99-.99-.99h-14.97c-.54,0-.99-.44-.99-.99v-14.97c0-.54-.44-.99-.99-.99h-23c-.54,0-.99.44-.99.99v12.85c0,.54-.44.99-.99.99h-12.85c-.54,0-.99-.44-.99-.99v-27.67c0-.54.44-.99.99-.99h20.88c.54,0,.99-.44.99-.99v-16.02c0-.54-.44-.99-.99-.99H15.78c-.54,0-.99-.44-.99-.99v-12.85c0-.54.44-.99.99-.99h35.7c.54,0,.99-.44.99-.99v-52.01c0-.54.44-.99.99-.99h14.97c.54,0,.99-.44.99-.99v-14.97c0-.54.44-.99.99-.99h14.97c.54,0,.99-.44.99-.99v-31.9c0-.54.44-.99.99-.99h14.97c.54,0,.99-.44.99-.99V.99C103.28.44,103.72,0,104.26,0h14.97c.54,0,.99.44.99.99v14.96c0,.54.44.99.99.99h14.97c.54,0,.99.44.99.99v14.97c0,.54.44.99.99.99h99.65c.54,0,.99-.44.99-.99v-14.97c0-.54.44-.99.99-.99h14.97c.54,0,.99-.44.99-.99V.99c0-.54.44-.99.99-.99h14.97c.54,0,.99.44.99.99v14.96c0,.54.44.99.99.99h14.97c.54,0,.99.44.99.99v31.9c0,.54.44.99.99.99h14.97c.54,0,.99.44.99.99v14.97c0,.54.44.99.99.99h14.97c.54,0,.99.44.99.99v52.01c0,.54.44.99.99.99h37.41c.54,0,.99.44.99.99Z" fill="#86aa57"/><rect x="362.86" y="136.55" width="14.82" height="14.82" rx=".99" ry=".99" fill="#86aa57"/><rect x="348.04" y="184.18" width="14.82" height="14.82" rx=".99" ry=".99" fill="#86aa57"/></svg>