<?xml version="1.0" encoding="UTF-8"?><svg id="_レイヤー_1" xmlns="http://www.w3.org/2000/svg" width="547.1" height="751.15" viewBox="0 0 547.1 751.15"><path d="M274.15.27l-94.3,83.03c-.11.1-.2.21-.26.34l-32.18,65.85c-.35.71.15,1.55.94,1.58l256.47,12.31c.81.04,1.38-.78,1.07-1.53l-37.73-89.79c-.07-.18-.19-.33-.34-.44L275.55.23c-.42-.32-1.01-.3-1.4.04Z" fill="#4f5b39"/><path d="M405.72,163.43l-257.98-12.38c-.59-.03-1.1.41-1.15,1l-32.93,372.21c-.06.63.43,1.18,1.07,1.2l370.36,10.1c.71.02,1.26-.63,1.11-1.33l-79.45-369.93c-.1-.49-.53-.84-1.02-.87Z" fill="#86aa57"/><path d="M105.53,397.09l60.01,25.27c.45.19.73.66.67,1.15l-19.39,153.88c-.07.58-.58,1-1.16.96L1.03,568.8c-.83-.05-1.3-.97-.87-1.67l104-169.6c.28-.46.86-.65,1.37-.44Z" fill="#4f5b39"/><path d="M420.44,450.32l62.15-12.76c.51-.1,1.02.16,1.23.64l63.2,145.77c.27.63-.09,1.36-.76,1.51l-96.55,22.16c-.61.14-1.21-.26-1.33-.87l-28.79-155.17c-.11-.59.27-1.16.86-1.28Z" fill="#4f5b39"/><circle cx="287.04" cy="331.85" r="105.53" fill="#171917"/><path d="M220.7,561.66l99.09,8.11c.38.03.72.26.89.6l22.3,44.34c.17.33.16.72-.03,1.04l-23.79,41.56s-.03.06-.06.09c-1.21,1.7-40.58,57-40.58,61.07,0,3.57-22.27,26.26-28.31,32.35-.63.63-1.71.29-1.86-.59l-12.33-70.53s-.01-.07-.02-.1l-16.45-60.92c-.03-.09-.04-.19-.04-.29v-55.64c0-.64.55-1.15,1.19-1.1Z" fill="#4f5b39"/><path d="M243.08,563.49l51.51,4.22c.33.02.62.19.81.46l14.52,20.37c.21.3.26.69.13,1.03l-8.69,22.66s-.03.06-.04.09c-.66,1.32-16.1,32.11-15.78,34.16.27,1.72-8.35,13.84-11.41,18.07-.48.67-1.5.58-1.87-.15l-20.91-41.24s-.03-.06-.04-.09l-12.28-30.79c-.07-.17-.09-.35-.07-.53l2.95-27.3c.07-.59.59-1.02,1.18-.98Z" fill="#86aa57"/><rect x="258" y="455.27" width="7.17" height="7.17" rx=".42" ry=".42" fill="#86aa57"/><rect x="258" y="455.27" width="7.17" height="7.17" rx=".42" ry=".42" fill="#86aa57"/><path d="M213.35,356.63v5.44c0,.23.19.42.42.42h15.12c.23,0,.42.19.42.42v6.78c0,.23-.19.42-.42.42h-8.84c-.23,0-.42.19-.42.42v11.72c0,.23.19.42.42.42h5.44c.23,0,.42-.19.42-.42v-5.44c0-.23.19-.42.42-.42h9.74c.23,0,.42.19.42.42v6.34c0,.23.19.42.42.42h6.34c.23,0,.42.19.42.42v6.34c0,.23.19.42.42.42h13.51c.23,0,.42.19.42.42v6.34c0,.23-.19.42-.42.42h-6.34c-.23,0-.42.19-.42.42v6.34c0,.23-.19.42-.42.42h-6.34c-.23,0-.42.19-.42.42v13.51c0,.23.19.42.42.42h6.34c.23,0,.42-.19.42-.42v-6.34c0-.23.19-.42.42-.42h13.51c.23,0,.42.19.42.42v42.2c0,.23.19.42.42.42h6.34c.23,0,.42-.19.42-.42v-6.34c0-.23.19-.42.42-.42h6.34c.23,0,.42-.19.42-.42v-6.34c0-.23.19-.42.42-.42h13.51c.23,0,.42.19.42.42v6.34c0,.23.19.42.42.42h6.34c.23,0,.42.19.42.42v13.51c0,.23.19.42.42.42h6.34c.23,0,.42-.19.42-.42v-49.36c0-.23.19-.42.42-.42h20.68c.23,0,.42-.19.42-.42v-6.34c0-.23.19-.42.42-.42h6.34c.23,0,.42-.19.42-.42v-13.51c0-.23-.19-.42-.42-.42h-6.34c-.23,0-.42.19-.42.42v6.34c0,.23-.19.42-.42.42h-13.51c-.23,0-.42-.19-.42-.42v-6.34c0-.23.19-.42.42-.42h13.51c.23,0,.42-.19.42-.42v-6.34c0-.23.19-.42.42-.42h6.34c.23,0,.42-.19.42-.42v-6.34c0-.23.19-.42.42-.42h10.46c.23,0,.42.19.42.42v5.44c0,.23.19.42.42.42h5.44c.23,0,.42-.19.42-.42v-11.72c0-.23-.19-.42-.42-.42h-9.56c-.23,0-.42-.19-.42-.42v-6.78c0-.23.19-.42.42-.42h15.84c.23,0,.42-.19.42-.42v-5.44c0-.23-.19-.42-.42-.42h-15.84c-.23,0-.42-.19-.42-.42v-22.02c0-.23-.19-.42-.42-.42h-6.34c-.23,0-.42-.19-.42-.42v-6.34c0-.23-.19-.42-.42-.42h-6.34c-.23,0-.42-.19-.42-.42v-13.51c0-.23-.19-.42-.42-.42h-6.34c-.23,0-.42-.19-.42-.42v-6.33c0-.23-.19-.42-.42-.42h-6.34c-.23,0-.42.19-.42.42v6.33c0,.23-.19.42-.42.42h-6.34c-.23,0-.42.19-.42.42v6.34c0,.23-.19.42-.42.42h-42.2c-.23,0-.42-.19-.42-.42v-6.34c0-.23-.19-.42-.42-.42h-6.34c-.23,0-.42-.19-.42-.42v-6.33c0-.23-.19-.42-.42-.42h-6.34c-.23,0-.42.19-.42.42v6.33c0,.23-.19.42-.42.42h-6.34c-.23,0-.42.19-.42.42v13.51c0,.23-.19.42-.42.42h-6.34c-.23,0-.42.19-.42.42v6.34c0,.23-.19.42-.42.42h-6.34c-.23,0-.42.19-.42.42v22.02c0,.23-.19.42-.42.42h-15.12c-.23,0-.42.19-.42.42Z" fill="#86aa57"/><rect x="360.73" y="362.49" width="6.28" height="6.28" rx=".42" ry=".42" fill="#86aa57"/><rect x="354.46" y="382.66" width="6.28" height="6.28" rx=".42" ry=".42" fill="#86aa57"/><rect x="207.08" y="362.49" width="6.28" height="6.28" rx=".42" ry=".42" fill="#86aa57"/><rect x="213.35" y="382.66" width="6.28" height="6.28" rx=".42" ry=".42" fill="#86aa57"/></svg>