<?xml version="1.0" encoding="UTF-8"?><svg id="_レイヤー_1" xmlns="http://www.w3.org/2000/svg" width="349.23" height="339.83" viewBox="0 0 349.23 339.83"><rect x="144.08" y="324.17" width="15.66" height="15.66" rx="1.1" ry="1.1" fill="#85a857"/><rect y="98.86" width="13.7" height="13.7" rx="1.1" ry="1.1" fill="#85a857"/><path d="M191.05,325.28v13.45c0,.61.49,1.1,1.1,1.1h13.45c.61,0,1.1-.49,1.1-1.1v-13.45c0-.61-.49-1.1-1.1-1.1h-13.45c-.61,0-1.1.49-1.1,1.1Z" fill="#85a857"/><path d="M349.23,100.97v11.5c0,.61-.49,1.1-1.1,1.1h-11.49c-.61,0-1.1.49-1.1,1.1v10.48c0,.61-.49,1.1-1.1,1.1h-32.63c-.61,0-1.1.49-1.1,1.1v14.43c0,.61.49,1.1,1.1,1.1h32.63c.61,0,1.1.49,1.1,1.1v11.49c0,.61-.49,1.1-1.1,1.1h-33.74s-14.56,0-14.56,0c-.61,0-1.1.49-1.1,1.1v13.45c0,.61-.49,1.1-1.1,1.1h-13.45c-.61,0-1.1.49-1.1,1.1v13.45c0,.61-.49,1.1-1.1,1.1h-29.12c-.61,0-1.1.49-1.1,1.1v8.75c0,.61.49,1.1,1.1,1.1h13.45c.61,0,1.1.49,1.1,1.1v13.45c0,.61.49,1.1,1.1,1.1h13.45c.61,0,1.1.49,1.1,1.1v29.11c0,.61-.49,1.1-1.1,1.1h-13.45c-.61,0-1.1-.49-1.1-1.1v-13.45c0-.61-.49-1.1-1.1-1.1h-29.11c-.61,0-1.1.49-1.1,1.1v91.75c0,.61-.49,1.1-1.1,1.1h-13.45c-.61,0-1.1-.49-1.1-1.1v-13.45c0-.61-.49-1.1-1.1-1.1h-13.45c-.61,0-1.1-.49-1.1-1.1v-13.45c0-.61-.49-1.1-1.1-1.1h-29.11c-.61,0-1.1.49-1.1,1.1v13.45c0,.61-.49,1.1-1.1,1.1h-13.45c-.61,0-1.1.49-1.1,1.1v13.45c0,.61-.49,1.1-1.1,1.1h-13.45c-.61,0-1.1-.49-1.1-1.1v-91.75c0-.61-.49-1.1-1.1-1.1h-29.11c-.61,0-1.1.49-1.1,1.1v13.45c0,.61-.49,1.1-1.1,1.1h-13.45c-.61,0-1.1-.49-1.1-1.1v-29.11c0-.61.49-1.1,1.1-1.1h13.45c.61,0,1.1-.49,1.1-1.1v-13.45c0-.61.49-1.1,1.1-1.1h13.45c.61,0,1.1-.49,1.1-1.1v-8.75c0-.61-.49-1.1-1.1-1.1h-29.11c-.61,0-1.1-.49-1.1-1.1v-13.45c0-.61-.49-1.1-1.1-1.1h-13.45c-.61,0-1.1-.49-1.1-1.1v-13.45c0-.61-.49-1.1-1.1-1.1h-14.55s-35.31,0-35.31,0c-.61,0-1.1-.49-1.1-1.1v-11.49c0-.61.49-1.1,1.1-1.1h34.2c.61,0,1.1-.49,1.1-1.1v-14.43c0-.61-.49-1.1-1.1-1.1H14.81c-.61,0-1.1-.49-1.1-1.1v-11.49c0-.61.49-1.1,1.1-1.1h34.2c.61,0,1.1-.49,1.1-1.1v-47.71c0-.61.49-1.1,1.1-1.1h13.45c.61,0,1.1-.49,1.1-1.1v-13.45c0-.61.49-1.1,1.1-1.1h13.45c.61,0,1.1-.49,1.1-1.1v-29.11c0-.61.49-1.1,1.1-1.1h13.45c.61,0,1.1-.49,1.1-1.1V1.1c0-.61.49-1.1,1.1-1.1h13.45c.61,0,1.1.49,1.1,1.1v13.45c0,.61.49,1.1,1.1,1.1h13.45c.61,0,1.1.49,1.1,1.1v13.45c0,.61.49,1.1,1.1,1.1h91.75c.61,0,1.1-.49,1.1-1.1v-13.45c0-.61.49-1.1,1.1-1.1h13.45c.61,0,1.1-.49,1.1-1.1V1.1c0-.61.49-1.1,1.1-1.1h13.45c.61,0,1.1.49,1.1,1.1v13.45c0,.61.49,1.1,1.1,1.1h13.45c.61,0,1.1.49,1.1,1.1v29.11c0,.61.49,1.1,1.1,1.1h13.45c.61,0,1.1.49,1.1,1.1v13.45c0,.61.49,1.1,1.1,1.1h13.45c.61,0,1.1.49,1.1,1.1v47.71c0,.61.49,1.1,1.1,1.1h32.63c.61,0,1.1-.49,1.1-1.1v-10.49c0-.61.49-1.1,1.1-1.1h11.49c.61,0,1.1.49,1.1,1.1Z" fill="#85a857"/></svg>