<?xml version="1.0" encoding="UTF-8"?><svg id="_レイヤー_1" xmlns="http://www.w3.org/2000/svg" width="611.19" height="614.35" viewBox="0 0 611.19 614.35"><path d="M595.41,7.97L470.02,0c-.14,0-.29.01-.43.06l-69.32,23.81c-.75.26-.99,1.2-.46,1.78l172.65,190.05c.54.6,1.53.43,1.83-.32l36.81-90.18c.07-.18.1-.37.07-.56l-14.75-115.72c-.07-.52-.5-.93-1.02-.96Z" fill="#4f5b39"/><path d="M573.07,216.37L399.4,25.2c-.4-.44-1.07-.48-1.52-.1L111.41,265c-.49.41-.53,1.14-.09,1.6l254.74,269.03c.49.52,1.34.44,1.72-.16l205.4-317.76c.27-.42.23-.97-.11-1.34Z" fill="#86aa57"/><path d="M195.59,169.32l24.56,60.3c.19.46.05.98-.34,1.29l-122.52,95.1c-.46.36-1.12.29-1.5-.14L.27,216.85c-.55-.62-.23-1.6.57-1.8l193.47-46.39c.53-.13,1.07.15,1.28.66Z" fill="#4f5b39"/><path d="M380.62,429.64l52.97,34.92c.44.29.61.84.42,1.32l-58.39,147.76c-.25.64-1.03.89-1.61.53l-83.94-52.6c-.53-.33-.68-1.04-.32-1.56l89.36-130.08c.34-.49,1.01-.63,1.51-.3Z" fill="#4f5b39"/><circle cx="370.06" cy="251.55" r="105.53" fill="#171917"/><path d="M160.65,367.13l64.33,75.8c.25.29.33.69.21,1.06l-15.58,47.12c-.12.35-.4.62-.76.72l-46.21,12.56s-.07.02-.1.02c-2.05.35-69.01,11.61-71.88,14.49-2.52,2.52-34.32,2.82-42.9,2.86-.89,0-1.41-1-.9-1.73l41.15-58.59s.04-.06.05-.08l31.45-54.71c.05-.08.11-.16.18-.23l39.34-39.34c.46-.46,1.2-.42,1.62.07Z" fill="#4f5b39"/><path d="M175.19,384.25l33.44,39.41c.21.25.31.58.25.9l-4.14,24.67c-.06.36-.3.67-.64.82l-22.17,9.88s-.06.03-.1.04c-1.4.46-34.09,11.32-35.31,12.99-1.03,1.41-15.69,3.88-20.84,4.71-.81.13-1.47-.65-1.22-1.43l14.37-43.94s.02-.06.03-.09l13.09-30.46c.07-.17.18-.31.32-.42l21.39-17.22c.46-.37,1.14-.31,1.52.14Z" fill="#86aa57"/><rect x="258.67" y="319.76" width="7.17" height="7.17" rx=".42" ry=".42" transform="translate(-151.83 280.15) rotate(-45)" fill="#86aa57"/><rect x="258.67" y="319.76" width="7.17" height="7.17" rx=".42" ry=".42" transform="translate(-151.83 280.15) rotate(-45)" fill="#86aa57"/><path d="M300.44,216.96l-3.85,3.85c-.16.16-.16.43,0,.59l10.69,10.69c.16.16.16.43,0,.59l-4.8,4.8c-.16.16-.43.16-.59,0l-6.25-6.25c-.16-.16-.43-.16-.59,0l-8.28,8.28c-.16.16-.16.43,0,.59l3.85,3.85c.16.16.43.16.59,0l3.85-3.85c.16-.16.43-.16.59,0l6.89,6.89c.16.16.16.43,0,.59l-4.48,4.48c-.16.16-.16.43,0,.59l4.48,4.48c.16.16.16.43,0,.59l-4.48,4.48c-.16.16-.16.43,0,.59l9.55,9.55c.16.16.16.43,0,.59l-4.48,4.48c-.16.16-.43.16-.59,0l-4.48-4.48c-.16-.16-.43-.16-.59,0l-4.48,4.48c-.16.16-.43.16-.59,0l-4.48-4.48c-.16-.16-.43-.16-.59,0l-9.55,9.55c-.16.16-.16.43,0,.59l4.48,4.48c.16.16.43.16.59,0l4.48-4.48c.16-.16.43-.16.59,0l9.55,9.55c.16.16.16.43,0,.59l-29.84,29.84c-.16.16-.16.43,0,.59l4.48,4.48c.16.16.43.16.59,0l4.48-4.48c.16-.16.43-.16.59,0l4.48,4.48c.16.16.43.16.59,0l4.48-4.48c.16-.16.43-.16.59,0l9.55,9.55c.16.16.16.43,0,.59l-4.48,4.48c-.16.16-.16.43,0,.59l4.48,4.48c.16.16.16.43,0,.59l-9.55,9.55c-.16.16-.16.43,0,.59l4.48,4.48c.16.16.43.16.59,0l34.91-34.91c.16-.16.43-.16.59,0l14.62,14.62c.16.16.43.16.59,0l4.48-4.48c.16-.16.43-.16.59,0l4.48,4.48c.16.16.43.16.59,0l9.55-9.55c.16-.16.16-.43,0-.59l-4.48-4.48c-.16-.16-.43-.16-.59,0l-4.48,4.48c-.16.16-.43.16-.59,0l-9.55-9.55c-.16-.16-.16-.43,0-.59l4.48-4.48c.16-.16.43-.16.59,0l9.55,9.55c.16.16.43.16.59,0l4.48-4.48c.16-.16.43-.16.59,0l4.48,4.48c.16.16.43.16.59,0l4.48-4.48c.16-.16.43-.16.59,0l7.4,7.4c.16.16.16.43,0,.59l-3.85,3.85c-.16.16-.16.43,0,.59l3.85,3.85c.16.16.43.16.59,0l8.28-8.28c.16-.16.16-.43,0-.59l-6.76-6.76c-.16-.16-.16-.43,0-.59l4.8-4.8c.16-.16.43-.16.59,0l11.2,11.2c.16.16.43.16.59,0l3.85-3.85c.16-.16.16-.43,0-.59l-11.2-11.2c-.16-.16-.16-.43,0-.59l15.57-15.57c.16-.16.16-.43,0-.59l-4.48-4.48c-.16-.16-.16-.43,0-.59l4.48-4.48c.16-.16.16-.43,0-.59l-4.48-4.48c-.16-.16-.16-.43,0-.59l9.55-9.55c.16-.16.16-.43,0-.59l-4.48-4.48c-.16-.16-.16-.43,0-.59l4.48-4.48c.16-.16.16-.43,0-.59l-4.48-4.48c-.16-.16-.43-.16-.59,0l-4.48,4.48c-.16.16-.43.16-.59,0l-4.48-4.48c-.16-.16-.43-.16-.59,0l-4.48,4.48c-.16.16-.43.16-.59,0l-29.84-29.84c-.16-.16-.16-.43,0-.59l4.48-4.48c.16-.16.16-.43,0-.59l-4.48-4.48c-.16-.16-.16-.43,0-.59l4.48-4.48c.16-.16.16-.43,0-.59l-4.48-4.48c-.16-.16-.43-.16-.59,0l-4.48,4.48c-.16.16-.43.16-.59,0l-4.48-4.48c-.16-.16-.43-.16-.59,0l-9.55,9.55c-.16.16-.43.16-.59,0l-4.48-4.48c-.16-.16-.43-.16-.59,0l-4.48,4.48c-.16.16-.43.16-.59,0l-4.48-4.48c-.16-.16-.43-.16-.59,0l-15.57,15.57c-.16.16-.43.16-.59,0l-10.69-10.69c-.16-.16-.43-.16-.59,0Z" fill="#86aa57"/><rect x="397.37" y="326.61" width="6.28" height="6.28" rx=".42" ry=".42" transform="translate(-115.86 379.78) rotate(-45)" fill="#86aa57"/><rect x="378.67" y="336.44" width="6.28" height="6.28" rx=".42" ry=".42" transform="translate(-128.29 369.44) rotate(-45)" fill="#86aa57"/><rect x="288.72" y="217.97" width="6.28" height="6.28" rx=".42" ry=".42" transform="translate(-70.86 271.13) rotate(-45)" fill="#86aa57"/><rect x="278.89" y="236.67" width="6.28" height="6.28" rx=".42" ry=".42" transform="translate(-86.96 269.66) rotate(-45)" fill="#86aa57"/></svg>