<?xml version="1.0" encoding="UTF-8"?><svg id="_レイヤー_1" xmlns="http://www.w3.org/2000/svg" width="576.87" height="576.87" viewBox="0 0 576.87 576.87"><path d="M362.16,177.34l-35.38,35.38c-.55.55-.55,1.43,0,1.98l35.38,35.38c.55.55,1.43.55,1.98,0l35.38-35.38c.55-.55.55-1.43,0-1.98l-35.38-35.38c-.55-.55-1.43-.55-1.98,0ZM401.5,399.52l16.7-16.7c.55-.55.55-1.43,0-1.98l-16.7-16.7c-.55-.55-.55-1.43,0-1.98l72.74-72.74c.55-.55.55-1.43,0-1.98l-16.7-16.7c-.55-.55-.55-1.43,0-1.98l35.38-35.38c.55-.55.55-1.43,0-1.98l-16.7-16.7c-.55-.55-.55-1.43,0-1.98l16.7-16.7c.55-.55.55-1.43,0-1.98l-16.7-16.7c-.55-.55-.55-1.43,0-1.98l16.7-16.7c.55-.55.55-1.43,0-1.98l-16.7-16.7c-.55-.55-.55-1.43,0-1.98l16.7-16.7c.55-.55.55-1.43,0-1.98l-35.38-35.38c-.55-.55-1.43-.55-1.98,0l-16.7,16.7c-.55.55-1.43.55-1.98,0l-16.7-16.7c-.55-.55-1.43-.55-1.98,0l-16.7,16.7c-.55.55-1.43.55-1.98,0l-16.7-16.7c-.55-.55-1.43-.55-1.98,0l-16.7,16.7c-.55.55-1.43.55-1.98,0l-16.7-16.7c-.55-.55-1.43-.55-1.98,0l-35.38,35.38c-.55.55-1.43.55-1.98,0l-16.7-16.7c-.55-.55-1.43-.55-1.98,0l-72.74,72.74c-.55.55-1.43.55-1.98,0l-16.7-16.7c-.55-.55-1.43-.55-1.98,0l-16.7,16.7c-.55.55-1.43.55-1.98,0l-16.7-16.7c-.55-.55-1.43-.55-1.98,0l-72.74,72.74c-.55.55-.55,1.43,0,1.98l16.7,16.7c.55.55.55,1.43,0,1.98l-16.7,16.7c-.55.55-.55,1.43,0,1.98l16.7,16.7c.55.55,1.43.55,1.98,0l16.7-16.7c.55-.55,1.43-.55,1.98,0l16.7,16.7c.55.55,1.43.55,1.98,0l16.7-16.7c.55-.55,1.43-.55,1.98,0l147.46,147.46c.55.55.55,1.43,0,1.98l-16.7,16.7c-.55.55-.55,1.43,0,1.98l16.7,16.7c.55.55.55,1.43,0,1.98l-16.7,16.7c-.55.55-.55,1.43,0,1.98l16.7,16.7c.55.55,1.43.55,1.98,0l16.7-16.7c.55-.55,1.43-.55,1.98,0l16.7,16.7c.55.55,1.43.55,1.98,0l72.74-72.74c.55-.55.55-1.43,0-1.98l-16.7-16.7c-.55-.55-.55-1.43,0-1.98ZM380.84,268.76l-16.7-16.7c-.55-.55-1.43-.55-1.98,0l-16.7,16.7c-.55.55-1.43.55-1.98,0l-35.38-35.38c-.55-.55-.55-1.43,0-1.98l16.7-16.7c.55-.55.55-1.43,0-1.98l-16.7-16.7c-.55-.55-.55-1.43,0-1.98l35.38-35.38c.55-.55,1.43-.55,1.98,0l16.7,16.7c.55.55,1.43.55,1.98,0l16.7-16.7c.55-.55,1.43-.55,1.98,0l35.38,35.38c.55.55.55,1.43,0,1.98l-16.7,16.7c-.55.55-.55,1.43,0,1.98l16.7,16.7c.55.55.55,1.43,0,1.98l-35.38,35.38c-.55.55-1.43.55-1.98,0ZM362.16,177.34l-35.38,35.38c-.55.55-.55,1.43,0,1.98l35.38,35.38c.55.55,1.43.55,1.98,0l35.38-35.38c.55-.55.55-1.43,0-1.98l-35.38-35.38c-.55-.55-1.43-.55-1.98,0Z" fill="#7caa4a"/><path d="M250.09,401.5c.55-.55.55-1.43,0-1.98l-17.69-17.69-18.68-18.68-18.68-18.68-17.69-17.69c-.55-.55-1.43-.55-1.98,0l-16.7,16.7c-.55.55-1.43.55-1.98,0l-16.7-16.7c-.55-.55-1.43-.55-1.98,0l-17.69,17.69-17.69,17.69c-.55.55-.55,1.43,0,1.98l16.7,16.7c.55.55.55,1.43,0,1.98l-16.7,16.7c-.55.55-.55,1.43,0,1.98l16.7,16.7c.55.55.55,1.43,0,1.98l-16.7,16.7c-.55.55-.55,1.43,0,1.98l17.69,17.69,17.69,17.69c.55.55,1.43.55,1.98,0l16.7-16.7c.55-.55,1.43-.55,1.98,0l16.7,16.7c.55.55,1.43.55,1.98,0l16.7-16.7c.55-.55,1.43-.55,1.98,0l16.7,16.7c.55.55,1.43.55,1.98,0l17.69-17.69,17.69-17.69c.55-.55.55-1.43,0-1.98l-16.7-16.7c-.55-.55-.55-1.43,0-1.98l16.7-16.7Z" fill="#7caa4a"/><rect x="336.73" y="187.29" width="52.83" height="52.83" rx="1.4" ry="1.4" transform="translate(-44.75 319.38) rotate(-45)" fill="#7caa4a"/></svg>