<?xml version="1.0" encoding="UTF-8"?><svg id="_レイヤー_1" xmlns="http://www.w3.org/2000/svg" width="1074.27" height="1382.66" viewBox="0 0 1074.27 1382.66"><rect x="3.73" y="1032.08" width="26.55" height="11.41" rx=".53" ry=".53" fill="#171917"/><path d="M745.63,1027.82v-29.22c0-.29-.24-.53-.53-.53h-29.22c-.29,0-.53-.24-.53-.53v-14.08c0-.29-.24-.53-.53-.53h-29.22c-.29,0-.53-.24-.53-.53v-14.07c0-.29-.24-.53-.53-.53h-63.23c-.29,0-.53.24-.53.53v14.07c0,.29-.24.53-.53.53h-29.22c-.29,0-.53.24-.53.53v14.08c0,.29-.24.53-.53.53h-101.18c-.29,0-.53-.24-.53-.53v-10.35c0-.29.24-.53.53-.53h44.35c.29,0,.53-.24.53-.53v-14.07c0-.29.24-.53.53-.53h29.22c.29,0,.53-.24.53-.53v-14.08c0-.29.24-.53.53-.53h14.08c.29,0,.53-.24.53-.53v-14.07c0-.29.24-.53.53-.53h14.07c.29,0,.53-.24.53-.53v-14.08c0-.29.24-.53.53-.53h14.08c.29,0,.53-.24.53-.53v-29.22c0-.29.24-.53.53-.53h14.07c.29,0,.53-.24.53-.53v-14.07c0-.29.24-.53.53-.53h14.08c.29,0,.53-.24.53-.53v-108.65c0-.29-.24-.53-.53-.53h-14.08c-.29,0-.53-.24-.53-.53v-59.5c0-.29-.24-.53-.53-.53h-14.07c-.29,0-.53-.24-.53-.53v-89.78c0-.29-.24-.53-.53-.53h-63.23c-.29,0-.53.24-.53.53v14.07c0,.29-.24.53-.53.53H231.38c-.29,0-.53-.24-.53-.53v-14.07c0-.29-.24-.53-.53-.53h-63.23c-.29,0-.53.24-.53.53v89.78c0,.29-.24.53-.53.53h-14.08c-.29,0-.53.24-.53.53v59.5c0,.29-.24.53-.53.53h-14.07c-.29,0-.53.24-.53.53v108.65c0,.29.24.53.53.53h14.07c.29,0,.53.24.53.53v14.07c0,.29.24.53.53.53h14.08c.29,0,.53.24.53.53v29.22c0,.29.24.53.53.53h14.07c.29,0,.53.24.53.53v14.08c0,.29.24.53.53.53h14.08c.29,0,.53.24.53.53v14.07c0,.29.24.53.53.53h14.07c.29,0,.53.24.53.53v14.08c0,.29.24.53.53.53h29.22c.29,0,.53.24.53.53v14.07c0,.29.24.53.53.53h44.36c.29,0,.53.24.53.53v10.35c0,.29-.24.53-.53.53h-101.19c-.29,0-.53-.24-.53-.53v-14.08c0-.29-.24-.53-.53-.53h-29.22c-.29,0-.53-.24-.53-.53v-14.07c0-.29-.24-.53-.53-.53h-63.23c-.29,0-.53.24-.53.53v14.07c0,.29-.24.53-.53.53h-29.22c-.29,0-.53.24-.53.53v14.08c0,.29-.24.53-.53.53h-29.22c-.29,0-.53.24-.53.53v29.22c0,.29-.24.53-.53.53H.53c-.29,0-.53.24-.53.53v17.8c0,.29.24.53.53.53h32.95c.29,0,.53-.24.53-.53v-14.07c0-.29.24-.53.53-.53h29.22c.29,0,.53-.24.53-.53v-14.08c0-.29.24-.53.53-.53h40.63c.29,0,.53.24.53.53v14.08c0,.29.24.53.53.53h29.22c.29,0,.53.24.53.53v14.07c0,.29.24.53.53.53h29.22c.29,0,.53.24.53.53v14.08c0,.29.24.53.53.53h29.22c.29,0,.53.24.53.53v14.07c0,.29.24.53.53.53h74.64c.29,0,.53.24.53.53v10.35c0,.29-.24.53-.53.53h-14.08c-.29,0-.53.24-.53.53v44.35c0,.29-.24.53-.53.53h-14.08c-.29,0-.53.24-.53.53v29.22c0,.29-.24.53-.53.53h-14.07c-.29,0-.53.24-.53.53v29.22c0,.29-.24.53-.53.53h-14.08c-.29,0-.53.24-.53.53v14.08c0,.29-.24.53-.53.53h-14.07c-.29,0-.53.24-.53.53v32.95c0,.29.24.53.53.53h48.08c.29,0,.53-.24.53-.53v-14.08c0-.29.24-.53.53-.53h14.08c.29,0,.53-.24.53-.53v-29.22c0-.29.24-.53.53-.53h14.08c.29,0,.53-.24.53-.53v-14.07c0-.29.24-.53.53-.53h14.07c.29,0,.53-.24.53-.53v-44.36c0-.29.24-.53.53-.53h14.08c.29,0,.53-.24.53-.53v-29.22c0-.29.24-.53.53-.53h14.07c.29,0,.53-.24.53-.53v-44.35c0-.29.24-.53.53-.53h10.35c.29,0,.53.24.53.53v86.05c0,.29-.24.53-.53.53h-14.08c-.29,0-.53.24-.53.53v29.22c0,.29-.24.53-.53.53h-14.07c-.29,0-.53.24-.53.53v29.22c0,.29-.24.53-.53.53h-14.08c-.29,0-.53.24-.53.53v32.95c0,.29.24.53.53.53h48.09c.29,0,.53-.24.53-.53v-14.08c0-.29.24-.53.53-.53h14.07c.29,0,.53-.24.53-.53v-29.22c0-.29.24-.53.53-.53h14.08c.29,0,.53-.24.53-.53v-59.5c0-.29.24-.53.53-.53h14.07c.29,0,.53-.24.53-.53v-59.5c0-.29.24-.53.53-.53h10.35c.29,0,.53.24.53.53v59.5c0,.29.24.53.53.53h14.07c.29,0,.53.24.53.53v59.5c0,.29.24.53.53.53h14.08c.29,0,.53.24.53.53v29.22c0,.29.24.53.53.53h14.07c.29,0,.53.24.53.53v14.08c0,.29.24.53.53.53h48.09c.29,0,.53-.24.53-.53v-32.95c0-.29-.24-.53-.53-.53h-14.08c-.29,0-.53-.24-.53-.53v-29.22c0-.29-.24-.53-.53-.53h-14.07c-.29,0-.53-.24-.53-.53v-29.22c0-.29-.24-.53-.53-.53h-14.08c-.29,0-.53-.24-.53-.53v-86.05c0-.29.24-.53.53-.53h10.35c.29,0,.53.24.53.53v44.35c0,.29.24.53.53.53h14.07c.29,0,.53.24.53.53v29.22c0,.29.24.53.53.53h14.08c.29,0,.53.24.53.53v44.36c0,.29.24.53.53.53h14.07c.29,0,.53.24.53.53v14.07c0,.29.24.53.53.53h14.08c.29,0,.53.24.53.53v29.22c0,.29.24.53.53.53h14.07c.29,0,.53.24.53.53v14.08c0,.29.24.53.53.53h48.09c.29,0,.53-.24.53-.53v-32.95c0-.29-.24-.53-.53-.53h-14.08c-.29,0-.53-.24-.53-.53v-14.08c0-.29-.24-.53-.53-.53h-14.07c-.29,0-.53-.24-.53-.53v-29.22c0-.29-.24-.53-.53-.53h-14.08c-.29,0-.53-.24-.53-.53v-29.22c0-.29-.24-.53-.53-.53h-14.07c-.29,0-.53-.24-.53-.53v-44.35c0-.29-.24-.53-.53-.53h-14.08c-.29,0-.53-.24-.53-.53v-10.35c0-.29.24-.53.53-.53h74.64c.29,0,.53-.24.53-.53v-14.07c0-.29.24-.53.53-.53h29.22c.29,0,.53-.24.53-.53v-14.08c0-.29.24-.53.53-.53h29.22c.29,0,.53-.24.53-.53v-14.07c0-.29.24-.53.53-.53h29.22c.29,0,.53-.24.53-.53v-14.08c0-.29.24-.53.53-.53h40.62c.29,0,.53.24.53.53v14.08c0,.29.24.53.53.53h29.22c.29,0,.53.24.53.53v14.07c0,.29.24.53.53.53h32.95c.29,0,.53-.24.53-.53v-17.8c0-.29-.24-.53-.53-.53h-29.22c-.29,0-.53-.24-.53-.53ZM29.75,1043.49H4.26c-.29,0-.53-.24-.53-.53v-10.34c0-.29.24-.53.53-.53h25.48c.29,0,.53.24.53.53v10.34c0,.29-.24.53-.53.53ZM741.36,1028.35h-25.48c-.29,0-.53-.24-.53-.53v-14.08c0-.29-.24-.53-.53-.53h-48.08c-.29,0-.53.24-.53.53v14.08c0,.29-.24.53-.53.53h-29.22c-.29,0-.53.24-.53.53v14.07c0,.29-.24.53-.53.53h-29.22c-.29,0-.53.24-.53.53v14.08c0,.29-.24.53-.53.53h-29.22c-.29,0-.53.24-.53.53v14.07c0,.29-.24.53-.53.53h-74.64c-.29,0-.53.24-.53.53v17.81c0,.29.24.53.53.53h14.08c.29,0,.53.24.53.53v44.35c0,.29.24.53.53.53h14.07c.29,0,.53.24.53.53v29.22c0,.29.24.53.53.53h14.08c.29,0,.53.24.53.53v29.22c0,.29.24.53.53.53h14.07c.29,0,.53.24.53.53v14.08c0,.29.24.53.53.53h14.08c.29,0,.53.24.53.53v25.48c0,.29-.24.53-.53.53h-40.63c-.29,0-.53-.24-.53-.53v-14.08c0-.29-.24-.53-.53-.53h-14.07c-.29,0-.53-.24-.53-.53v-29.22c0-.29-.24-.53-.53-.53h-14.08c-.29,0-.53-.24-.53-.53v-14.07c0-.29-.24-.53-.53-.53h-14.07c-.29,0-.53-.24-.53-.53v-44.36c0-.29-.24-.53-.53-.53h-14.08c-.29,0-.53-.24-.53-.53v-29.22c0-.29-.24-.53-.53-.53h-14.07c-.29,0-.53-.24-.53-.53v-44.35c0-.29-.24-.53-.53-.53h-17.81c-.29,0-.53.24-.53.53v93.51c0,.29.24.53.53.53h14.08c.29,0,.53.24.53.53v29.22c0,.29.24.53.53.53h14.07c.29,0,.53.24.53.53v29.22c0,.29.24.53.53.53h14.08c.29,0,.53.24.53.53v25.48c0,.29-.24.53-.53.53h-40.63c-.29,0-.53-.24-.53-.53v-14.08c0-.29-.24-.53-.53-.53h-14.07c-.29,0-.53-.24-.53-.53v-29.22c0-.29-.24-.53-.53-.53h-14.08c-.29,0-.53-.24-.53-.53v-59.5c0-.29-.24-.53-.53-.53h-14.07c-.29,0-.53-.24-.53-.53v-59.5c0-.29-.24-.53-.53-.53h-17.81c-.29,0-.53.24-.53.53v59.5c0,.29-.24.53-.53.53h-14.07c-.29,0-.53.24-.53.53v59.5c0,.29-.24.53-.53.53h-14.08c-.29,0-.53.24-.53.53v29.22c0,.29-.24.53-.53.53h-14.07c-.29,0-.53.24-.53.53v14.08c0,.29-.24.53-.53.53h-40.63c-.29,0-.53-.24-.53-.53v-25.48c0-.29.24-.53.53-.53h14.08c.29,0,.53-.24.53-.53v-29.22c0-.29.24-.53.53-.53h14.07c.29,0,.53-.24.53-.53v-29.22c0-.29.24-.53.53-.53h14.08c.29,0,.53-.24.53-.53v-93.51c0-.29-.24-.53-.53-.53h-17.81c-.29,0-.53.24-.53.53v44.35c0,.29-.24.53-.53.53h-14.07c-.29,0-.53.24-.53.53v29.22c0,.29-.24.53-.53.53h-14.08c-.29,0-.53.24-.53.53v44.36c0,.29-.24.53-.53.53h-14.07c-.29,0-.53.24-.53.53v14.07c0,.29-.24.53-.53.53h-14.08c-.29,0-.53.24-.53.53v29.22c0,.29-.24.53-.53.53h-14.08c-.29,0-.53.24-.53.53v14.08c0,.29-.24.53-.53.53h-40.62c-.29,0-.53-.24-.53-.53v-25.48c0-.29.24-.53.53-.53h14.07c.29,0,.53-.24.53-.53v-14.08c0-.29.24-.53.53-.53h14.08c.29,0,.53-.24.53-.53v-29.22c0-.29.24-.53.53-.53h14.07c.29,0,.53-.24.53-.53v-29.22c0-.29.24-.53.53-.53h14.08c.29,0,.53-.24.53-.53v-44.35c0-.29.24-.53.53-.53h14.08c.29,0,.53-.24.53-.53v-17.81c0-.29-.24-.53-.53-.53h-74.64c-.29,0-.53-.24-.53-.53v-14.07c0-.29-.24-.53-.53-.53h-29.22c-.29,0-.53-.24-.53-.53v-14.08c0-.29-.24-.53-.53-.53h-29.22c-.29,0-.53-.24-.53-.53v-14.07c0-.29-.24-.53-.53-.53h-29.22c-.29,0-.53-.24-.53-.53v-14.08c0-.29-.24-.53-.53-.53h-48.09c-.29,0-.53.24-.53.53v14.08c0,.29-.24.53-.53.53h-25.48c-.29,0-.53-.24-.53-.53v-25.48c0-.29.24-.53.53-.53h29.22c.29,0,.53-.24.53-.53v-14.08c0-.29.24-.53.53-.53h29.22c.29,0,.53-.24.53-.53v-14.07c0-.29.24-.53.53-.53h55.77c.29,0,.53.24.53.53v14.07c0,.29.24.53.53.53h29.22c.29,0,.53.24.53.53v14.08c0,.29.24.53.53.53h108.65c.29,0,.53-.24.53-.53v-17.81c0-.29-.24-.53-.53-.53h-44.36c-.29,0-.53-.24-.53-.53v-14.07c0-.29-.24-.53-.53-.53h-29.22c-.29,0-.53-.24-.53-.53v-14.08c0-.29-.24-.53-.53-.53h-14.07c-.29,0-.53-.24-.53-.53v-14.07c0-.29-.24-.53-.53-.53h-14.08c-.29,0-.53-.24-.53-.53v-14.08c0-.29-.24-.53-.53-.53h-14.07c-.29,0-.53-.24-.53-.53v-29.22c0-.29-.24-.53-.53-.53h-14.08c-.29,0-.53-.24-.53-.53v-14.07c0-.29-.24-.53-.53-.53h-14.07c-.29,0-.53-.24-.53-.53v-101.19c0-.29.24-.53.53-.53h14.07c.29,0,.53-.24.53-.53v-59.5c0-.29.24-.53.53-.53h14.08c.29,0,.53-.24.53-.53v-89.78c0-.29.24-.53.53-.53h55.77c.29,0,.53.24.53.53v14.07c0,.29.24.53.53.53h320.62c.29,0,.53-.24.53-.53v-14.07c0-.29.24-.53.53-.53h55.77c.29,0,.53.24.53.53v89.78c0,.29.24.53.53.53h14.07c.29,0,.53.24.53.53v59.5c0,.29.24.53.53.53h14.08c.29,0,.53.24.53.53v101.19c0,.29-.24.53-.53.53h-14.08c-.29,0-.53.24-.53.53v14.07c0,.29-.24.53-.53.53h-14.07c-.29,0-.53.24-.53.53v29.22c0,.29-.24.53-.53.53h-14.08c-.29,0-.53.24-.53.53v14.08c0,.29-.24.53-.53.53h-14.07c-.29,0-.53.24-.53.53v14.07c0,.29-.24.53-.53.53h-14.08c-.29,0-.53.24-.53.53v14.08c0,.29-.24.53-.53.53h-29.22c-.29,0-.53.24-.53.53v14.07c0,.29-.24.53-.53.53h-44.35c-.29,0-.53.24-.53.53v17.81c0,.29.24.53.53.53h108.65c.29,0,.53-.24.53-.53v-14.08c0-.29.24-.53.53-.53h29.22c.29,0,.53-.24.53-.53v-14.07c0-.29.24-.53.53-.53h55.77c.29,0,.53.24.53.53v14.07c0,.29.24.53.53.53h29.22c.29,0,.53.24.53.53v14.08c0,.29.24.53.53.53h29.22c.29,0,.53.24.53.53v25.48c0,.29-.24.53-.53.53ZM771.65,1043.49h-25.48c-.29,0-.53-.24-.53-.53v-10.34c0-.29.24-.53.53-.53h25.48c.29,0,.53.24.53.53v10.34c0,.29-.24.53-.53.53Z" fill="#85a857"/><path d="M741.9,1002.34v25.48c0,.29-.24.53-.53.53h-25.48c-.29,0-.53-.24-.53-.53v-14.08c0-.29-.24-.53-.53-.53h-48.08c-.29,0-.53.24-.53.53v14.08c0,.29-.24.53-.53.53h-29.22c-.29,0-.53.24-.53.53v14.07c0,.29-.24.53-.53.53h-29.22c-.29,0-.53.24-.53.53v14.08c0,.29-.24.53-.53.53h-29.22c-.29,0-.53.24-.53.53v14.07c0,.29-.24.53-.53.53h-74.64c-.29,0-.53.24-.53.53v17.81c0,.29.24.53.53.53h14.08c.29,0,.53.24.53.53v44.35c0,.29.24.53.53.53h14.07c.29,0,.53.24.53.53v29.22c0,.29.24.53.53.53h14.08c.29,0,.53.24.53.53v29.22c0,.29.24.53.53.53h14.07c.29,0,.53.24.53.53v14.08c0,.29.24.53.53.53h14.08c.29,0,.53.24.53.53v25.48c0,.29-.24.53-.53.53h-40.63c-.29,0-.53-.24-.53-.53v-14.08c0-.29-.24-.53-.53-.53h-14.07c-.29,0-.53-.24-.53-.53v-29.22c0-.29-.24-.53-.53-.53h-14.08c-.29,0-.53-.24-.53-.53v-14.07c0-.29-.24-.53-.53-.53h-14.07c-.29,0-.53-.24-.53-.53v-44.36c0-.29-.24-.53-.53-.53h-14.08c-.29,0-.53-.24-.53-.53v-29.22c0-.29-.24-.53-.53-.53h-14.07c-.29,0-.53-.24-.53-.53v-44.35c0-.29-.24-.53-.53-.53h-17.81c-.29,0-.53.24-.53.53v93.51c0,.29.24.53.53.53h14.08c.29,0,.53.24.53.53v29.22c0,.29.24.53.53.53h14.07c.29,0,.53.24.53.53v29.22c0,.29.24.53.53.53h14.08c.29,0,.53.24.53.53v25.48c0,.29-.24.53-.53.53h-40.63c-.29,0-.53-.24-.53-.53v-14.08c0-.29-.24-.53-.53-.53h-14.07c-.29,0-.53-.24-.53-.53v-29.22c0-.29-.24-.53-.53-.53h-14.08c-.29,0-.53-.24-.53-.53v-59.5c0-.29-.24-.53-.53-.53h-14.07c-.29,0-.53-.24-.53-.53v-59.5c0-.29-.24-.53-.53-.53h-17.81c-.29,0-.53.24-.53.53v59.5c0,.29-.24.53-.53.53h-14.07c-.29,0-.53.24-.53.53v59.5c0,.29-.24.53-.53.53h-14.08c-.29,0-.53.24-.53.53v29.22c0,.29-.24.53-.53.53h-14.07c-.29,0-.53.24-.53.53v14.08c0,.29-.24.53-.53.53h-40.63c-.29,0-.53-.24-.53-.53v-25.48c0-.29.24-.53.53-.53h14.08c.29,0,.53-.24.53-.53v-29.22c0-.29.24-.53.53-.53h14.07c.29,0,.53-.24.53-.53v-29.22c0-.29.24-.53.53-.53h14.08c.29,0,.53-.24.53-.53v-93.51c0-.29-.24-.53-.53-.53h-17.81c-.29,0-.53.24-.53.53v44.35c0,.29-.24.53-.53.53h-14.07c-.29,0-.53.24-.53.53v29.22c0,.29-.24.53-.53.53h-14.08c-.29,0-.53.24-.53.53v44.36c0,.29-.24.53-.53.53h-14.07c-.29,0-.53.24-.53.53v14.07c0,.29-.24.53-.53.53h-14.08c-.29,0-.53.24-.53.53v29.22c0,.29-.24.53-.53.53h-14.08c-.29,0-.53.24-.53.53v14.08c0,.29-.24.53-.53.53h-40.62c-.29,0-.53-.24-.53-.53v-25.48c0-.29.24-.53.53-.53h14.07c.29,0,.53-.24.53-.53v-14.08c0-.29.24-.53.53-.53h14.08c.29,0,.53-.24.53-.53v-29.22c0-.29.24-.53.53-.53h14.07c.29,0,.53-.24.53-.53v-29.22c0-.29.24-.53.53-.53h14.08c.29,0,.53-.24.53-.53v-44.35c0-.29.24-.53.53-.53h14.08c.29,0,.53-.24.53-.53v-17.81c0-.29-.24-.53-.53-.53h-74.64c-.29,0-.53-.24-.53-.53v-14.07c0-.29-.24-.53-.53-.53h-29.22c-.29,0-.53-.24-.53-.53v-14.08c0-.29-.24-.53-.53-.53h-29.22c-.29,0-.53-.24-.53-.53v-14.07c0-.29-.24-.53-.53-.53h-29.22c-.29,0-.53-.24-.53-.53v-14.08c0-.29-.24-.53-.53-.53h-48.09c-.29,0-.53.24-.53.53v14.08c0,.29-.24.53-.53.53h-25.48c-.29,0-.53-.24-.53-.53v-25.48c0-.29.24-.53.53-.53h29.22c.29,0,.53-.24.53-.53v-14.08c0-.29.24-.53.53-.53h29.22c.29,0,.53-.24.53-.53v-14.07c0-.29.24-.53.53-.53h55.77c.29,0,.53.24.53.53v14.07c0,.29.24.53.53.53h29.22c.29,0,.53.24.53.53v14.08c0,.29.24.53.53.53h108.65c.29,0,.53-.24.53-.53v-17.81c0-.29-.24-.53-.53-.53h-44.36c-.29,0-.53-.24-.53-.53v-14.07c0-.29-.24-.53-.53-.53h-29.22c-.29,0-.53-.24-.53-.53v-14.08c0-.29-.24-.53-.53-.53h-14.07c-.29,0-.53-.24-.53-.53v-14.07c0-.29-.24-.53-.53-.53h-14.08c-.29,0-.53-.24-.53-.53v-14.08c0-.29-.24-.53-.53-.53h-14.07c-.29,0-.53-.24-.53-.53v-29.22c0-.29-.24-.53-.53-.53h-14.08c-.29,0-.53-.24-.53-.53v-14.07c0-.29-.24-.53-.53-.53h-14.07c-.29,0-.53-.24-.53-.53v-101.19c0-.29.24-.53.53-.53h14.07c.29,0,.53-.24.53-.53v-59.5c0-.29.24-.53.53-.53h14.08c.29,0,.53-.24.53-.53v-89.78c0-.29.24-.53.53-.53h55.77c.29,0,.53.24.53.53v14.07c0,.29.24.53.53.53h320.62c.29,0,.53-.24.53-.53v-14.07c0-.29.24-.53.53-.53h55.77c.29,0,.53.24.53.53v89.78c0,.29.24.53.53.53h14.07c.29,0,.53.24.53.53v59.5c0,.29.24.53.53.53h14.08c.29,0,.53.24.53.53v101.19c0,.29-.24.53-.53.53h-14.08c-.29,0-.53.24-.53.53v14.07c0,.29-.24.53-.53.53h-14.07c-.29,0-.53.24-.53.53v29.22c0,.29-.24.53-.53.53h-14.08c-.29,0-.53.24-.53.53v14.08c0,.29-.24.53-.53.53h-14.07c-.29,0-.53.24-.53.53v14.07c0,.29-.24.53-.53.53h-14.08c-.29,0-.53.24-.53.53v14.08c0,.29-.24.53-.53.53h-29.22c-.29,0-.53.24-.53.53v14.07c0,.29-.24.53-.53.53h-44.35c-.29,0-.53.24-.53.53v17.81c0,.29.24.53.53.53h108.65c.29,0,.53-.24.53-.53v-14.08c0-.29.24-.53.53-.53h29.22c.29,0,.53-.24.53-.53v-14.07c0-.29.24-.53.53-.53h55.77c.29,0,.53.24.53.53v14.07c0,.29.24.53.53.53h29.22c.29,0,.53.24.53.53v14.08c0,.29.24.53.53.53h29.22c.29,0,.53.24.53.53Z" fill="#171917"/><rect x="745.63" y="1032.08" width="26.55" height="11.41" rx=".53" ry=".53" fill="#171917"/><path d="M489.3,557.29h-12.34c-1.47,0-2.53.88-2.53,2.1v27.37c0,.2-.36.36-.8.36h-10.12c-1.47,0-2.53.88-2.53,2.1v17.22c0,.2-.36.36-.8.36h-7.9c-.44,0-.8-.16-.8-.36v-17.22c0-1.21-1.06-2.1-2.53-2.1h-10.12c-.44,0-.8-.16-.8-.36v-27.37c0-1.21-1.06-2.1-2.53-2.1h-12.34c-1.47,0-2.53.88-2.53,2.1v28.59c0,1.22,1.06,2.1,2.53,2.1h10.12c.44,0,.8.16.8.36v17.22c0,1.21,1.06,2.1,2.53,2.1h10.12c.44,0,.8.16.8.36v37.51c0,1.21,1.06,2.1,2.53,2.1h12.34c1.47,0,2.53-.88,2.53-2.1v-37.31c0-.2.36-.36.8-.36h10.12c1.47,0,2.53-.88,2.53-2.1v-17.42c0-.2.36-.36.8-.36h10.12c1.47,0,2.53-.88,2.53-2.1v-28.59c0-1.21-1.06-2.1-2.53-2.1Z" fill="#86aa57"/><path d="M583.58,567.24h-10.12c-.44,0-.8-.16-.8-.36v-7.48c0-1.21-1.06-2.1-2.53-2.1h-39.24c-1.47,0-2.53.88-2.53,2.1v7.48c0,.2-.36.36-.8.36h-10.12c-1.47,0-2.53.88-2.53,2.1v68.36c0,1.21,1.06,2.1,2.53,2.1h10.12c.44,0,.8.16.8.36v7.48c0,1.21,1.06,2.1,2.53,2.1h39.24c1.47,0,2.53-.88,2.53-2.1v-7.48c0-.2.36-.36.8-.36h10.12c1.47,0,2.53-.88,2.53-2.1v-68.36c0-1.21-1.06-2.1-2.53-2.1ZM533.12,570.2h34.8c.44,0,.8.16.8.36v65.9c0,.2-.36.36-.8.36h-34.8c-.44,0-.8-.16-.8-.36v-65.9c0-.2.36-.36.8-.36Z" fill="#86aa57"/><path d="M677.86,557.29h-12.34c-1.47,0-2.53.88-2.53,2.1v77.07c0,.2-.36.36-.8.36h-34.8c-.44,0-.8-.16-.8-.36v-77.07c0-1.21-1.06-2.1-2.53-2.1h-12.34c-1.47,0-2.53.88-2.53,2.1v78.3c0,1.21,1.06,2.1,2.53,2.1h10.12c.44,0,.8.16.8.36v7.48c0,1.21,1.06,2.1,2.53,2.1h39.24c1.47,0,2.53-.88,2.53-2.1v-7.48c0-.2.36-.36.8-.36h10.12c1.47,0,2.53-.88,2.53-2.1v-78.3c0-1.21-1.06-2.1-2.53-2.1Z" fill="#86aa57"/><path d="M794.92,557.29h-12.34c-1.47,0-2.53.88-2.53,2.1v7.48c0,.2-.36.36-.8.36h-10.12c-1.47,0-2.53.88-2.53,2.1v7.48c0,.2-.36.36-.8.36h-7.9c-.44,0-.8-.16-.8-.36v-7.48c0-1.21-1.06-2.1-2.53-2.1h-10.12c-.44,0-.8-.16-.8-.36v-7.48c0-1.21-1.06-2.1-2.53-2.1h-12.34c-1.47,0-2.53.88-2.53,2.1v88.25c0,1.21,1.06,2.1,2.53,2.1h12.34c1.47,0,2.53-.88,2.53-2.1v-67.13c0-.2.36-.36.8-.36h7.9c.44,0,.8.16.8.36v7.48c0,1.22,1.06,2.1,2.53,2.1h12.34c1.47,0,2.53-.88,2.53-2.1v-7.48c0-.2.36-.36.8-.36h7.9c.44,0,.8.16.8.36v67.13c0,1.21,1.06,2.1,2.53,2.1h12.34c1.47,0,2.53-.88,2.53-2.1v-88.25c0-1.21-1.06-2.1-2.53-2.1Z" fill="#86aa57"/><path d="M889.2,557.29h-12.34c-1.47,0-2.53.88-2.53,2.1v77.07c0,.2-.36.36-.8.36h-34.8c-.44,0-.8-.16-.8-.36v-77.07c0-1.21-1.06-2.1-2.53-2.1h-12.34c-1.47,0-2.53.88-2.53,2.1v78.3c0,1.21,1.06,2.1,2.53,2.1h10.12c.44,0,.8.16.8.36v7.48c0,1.21,1.06,2.1,2.53,2.1h39.24c1.47,0,2.53-.88,2.53-2.1v-7.48c0-.2.36-.36.8-.36h10.12c1.47,0,2.53-.88,2.53-2.1v-78.3c0-1.21-1.06-2.1-2.53-2.1Z" fill="#86aa57"/><path d="M983.48,567.24h-10.12c-.44,0-.8-.16-.8-.36v-7.48c0-1.21-1.06-2.1-2.53-2.1h-39.24c-1.47,0-2.53.88-2.53,2.1v7.48c0,.2-.36.36-.8.36h-10.12c-1.47,0-2.53.88-2.53,2.1v28.6c0,1.21,1.06,2.1,2.53,2.1h10.12c.44,0,.8.16.8.36v7.48c0,1.21,1.06,2.1,2.53,2.1h37.02c.44,0,.8.16.8.36v26.14c0,.2-.36.36-.8.36h-34.8c-.44,0-.8-.16-.8-.36v-7.48c0-1.21-1.06-2.1-2.53-2.1h-12.34c-1.47,0-2.53.88-2.53,2.1v8.71c0,1.21,1.06,2.1,2.53,2.1h10.12c.44,0,.8.16.8.36v7.48c0,1.21,1.06,2.1,2.53,2.1h39.24c1.47,0,2.53-.88,2.53-2.1v-7.48c0-.2.36-.36.8-.36h10.12c1.47,0,2.53-.88,2.53-2.1v-28.6c0-1.21-1.06-2.1-2.53-2.1h-10.12c-.44,0-.8-.16-.8-.36v-7.48c0-1.21-1.06-2.1-2.53-2.1h-37.02c-.44,0-.8-.16-.8-.36v-26.14c0-.2.36-.36.8-.36h34.8c.44,0,.8.16.8.36v7.48c0,1.21,1.06,2.1,2.53,2.1h12.34c1.47,0,2.53-.88,2.53-2.1v-8.71c0-1.21-1.06-2.1-2.53-2.1Z" fill="#86aa57"/><path d="M1071.74,557.29h-66.13c-1.47,0-2.53.88-2.53,2.1v8.71c0,1.21,1.06,2.1,2.53,2.1h23.57c.44,0,.8.16.8.36v77.07c0,1.21,1.06,2.1,2.53,2.1h12.34c1.47,0,2.53-.88,2.53-2.1v-77.07c0-.2.36-.36.8-.36h23.57c1.47,0,2.53-.88,2.53-2.1v-8.71c0-1.21-1.06-2.1-2.53-2.1Z" fill="#86aa57"/><path d="M729.2,706.92h-10.12c-.44,0-.8-.16-.8-.36v-7.48c0-1.21-1.06-2.1-2.53-2.1h-39.24c-1.47,0-2.53.88-2.53,2.1v7.48c0,.2-.36.36-.8.36h-10.12c-1.47,0-2.53.88-2.53,2.1v68.36c0,1.21,1.06,2.1,2.53,2.1h10.12c.44,0,.8.16.8.36v7.48c0,1.21,1.06,2.1,2.53,2.1h39.24c1.47,0,2.53-.88,2.53-2.1v-7.48c0-.2.36-.36.8-.36h10.12c1.47,0,2.53-.88,2.53-2.1v-68.36c0-1.21-1.06-2.1-2.53-2.1ZM678.74,709.88h34.8c.44,0,.8.16.8.36v65.9c0,.2-.36.36-.8.36h-34.8c-.44,0-.8-.16-.8-.36v-65.9c0-.2.36-.36.8-.36Z" fill="#86aa57"/><path d="M823.48,706.92h-10.12c-.44,0-.8-.16-.8-.36v-7.48c0-1.21-1.06-2.1-2.53-2.1h-52.68c-1.47,0-2.53.88-2.53,2.1v88.25c0,1.21,1.06,2.1,2.53,2.1h12.34c1.47,0,2.53-.88,2.53-2.1v-37.31c0-.2.36-.36.8-.36h34.8c.44,0,.8.16.8.36v37.31c0,1.21,1.06,2.1,2.53,2.1h12.34c1.47,0,2.53-.88,2.53-2.1v-38.54c0-1.21-1.06-2.1-2.53-2.1h-10.12c-.44,0-.8-.16-.8-.36v-6.25c0-.18.32-.36.8-.36h10.12c1.47,0,2.53-.88,2.53-2.1v-28.6c0-1.21-1.06-2.1-2.53-2.1ZM808.61,710.24v26.14c0,.2-.36.36-.8.36h-34.8c-.44,0-.8-.16-.8-.36v-26.14c0-.2.36-.36.8-.36h34.8c.44,0,.8.16.8.36Z" fill="#86aa57"/><path d="M880.74,729.76h10.12c1.47,0,2.53-.88,2.53-2.1v-7.48c0-.2.36-.36.8-.36h10.12c1.47,0,2.53-.88,2.53-2.1v-7.48c0-.2.36-.36.8-.36h10.12c1.47,0,2.53-.88,2.53-2.1v-8.71c0-1.21-1.06-2.1-2.53-2.1h-12.34c-1.47,0-2.53.88-2.53,2.1v7.48c0,.2-.36.36-.8.36h-10.12c-1.47,0-2.53.88-2.53,2.1v7.48c0,.2-.36.36-.8.36h-10.12c-1.47,0-2.53.88-2.53,2.1v7.48c0,.2-.36.36-.8.36h-7.9c-.44,0-.8-.16-.8-.36v-27.37c0-1.21-1.06-2.1-2.53-2.1h-12.34c-1.47,0-2.53.88-2.53,2.1v88.25c0,1.21,1.06,2.1,2.53,2.1h12.34c1.47,0,2.53-.88,2.53-2.1v-47.25c0-.2.36-.36.8-.36h7.9c.48,0,.8.19.8.36v7.48c0,1.21,1.06,2.1,2.53,2.1h10.12c.44,0,.8.16.8.36v17.42c0,1.21,1.06,2.1,2.53,2.1h10.12c.44,0,.8.16.8.36v17.42c0,1.21,1.06,2.1,2.53,2.1h12.34c1.47,0,2.53-.88,2.53-2.1v-18.65c0-1.21-1.06-2.1-2.53-2.1h-10.12c-.44,0-.8-.16-.8-.36v-17.42c0-1.21-1.06-2.1-2.53-2.1h-10.12c-.44,0-.8-.16-.8-.36v-7.48c0-1.21-1.06-2.1-2.53-2.1h-10.12c-.44,0-.8-.16-.8-.36v-6.25c0-.2.36-.36.8-.36Z" fill="#86aa57"/><path d="M636.57,696.97h-12.87c-1.51,0-2.6.88-2.6,2.1v47.25c0,.15-.31.36-.87.36h-9.68c-.56,0-.87-.21-.87-.36v-47.25c0-1.21-1.09-2.1-2.6-2.1h-12c-1.51,0-2.6.88-2.6,2.1v47.25c0,.15-.31.36-.87.36h-9.54c-.56,0-.87-.21-.87-.36v-47.25c0-1.21-1.09-2.1-2.6-2.1h-12.87c-1.51,0-2.6.88-2.6,2.1v48.48c0,1.21,1.09,2.1,2.6,2.1h11.42c.56,0,.87.21.87.36v37.31c0,1.21,1.09,2.1,2.6,2.1h12.87c1.51,0,2.6-.88,2.6-2.1v-37.31c0-.15.31-.36.87-.36h8.24c.56,0,.87.21.87.36v37.31c0,1.21,1.09,2.1,2.6,2.1h12.87c1.51,0,2.6-.88,2.6-2.1v-37.31c0-.15.31-.36.87-.36h11.56c1.51,0,2.6-.88,2.6-2.1v-48.48c0-1.21-1.09-2.1-2.6-2.1Z" fill="#86aa57"/><ellipse cx="747.46" cy="1332.4" rx="231.46" ry="50.26" fill="#86aa57"/><rect x="612.84" y="1014.69" width="10.87" height="10.87" rx=".88" ry=".88" fill="#85a857"/><rect x="623.71" y="1049.61" width="10.87" height="10.87" rx=".88" ry=".88" fill="#85a857"/><path d="M878.9,1004.7v9.11c0,.48-.39.88-.88.88h-25.88c-.48,0-.88.39-.88.88v11.44c0,.48.39.88.88.88h15.01c.48,0,.88.39.88.88v19.98c0,.48-.39.88-.88.88h-9.11c-.48,0-.88-.39-.88-.88v-9.11c0-.48-.39-.88-.88-.88h-16.56c-.48,0-.88.39-.88.88v10.67c0,.48-.39.88-.88.88h-10.67c-.48,0-.88.39-.88.88v10.67c0,.48-.39.88-.88.88h-23.08c-.48,0-.88.39-.88.88v10.66c0,.48.39.88.88.88h10.67c.48,0,.88.39.88.88v10.67c0,.48.39.88.88.88h10.66c.48,0,.88.39.88.88v16.89c0,.48-.39.88-.88.88h-10.66c-.48,0-.88-.39-.88-.88v-4.48c0-.48-.39-.88-.88-.88h-23.09c-.48,0-.88.39-.88.88v85.17c0,.48-.39.88-.88.88h-10.66c-.48,0-.88-.39-.88-.88v-23.08c0-.48-.39-.88-.88-.88h-10.67c-.48,0-.88-.39-.88-.88v-10.67c0-.48-.39-.88-.88-.88h-23.08c-.48,0-.88.39-.88.88v10.67c0,.48-.39.88-.88.88h-10.67c-.48,0-.88.39-.88.88v11.54h-.2c.11,0,.2.09.2.2v11.35c0,.48-.39.88-.88.88h-10.66c-.48,0-.88-.39-.88-.88v-11.35c0-.11.09-.2.2-.2h-.2v-73.63c0-.48-.39-.88-.88-.88h-23.09c-.48,0-.88.39-.88.88v10.67c0,.48-.39.88-.88.88h-10.66c-.48,0-.88-.39-.88-.88v-23.08c0-.48.39-.88.88-.88h10.66c.48,0,.88-.39.88-.88v-10.67c0-.48.39-.88.88-.88h10.67c.48,0,.88-.39.88-.88v-10.66c0-.48-.39-.88-.88-.88h-23.08c-.48,0-.88-.39-.88-.88v-10.67c0-.48-.39-.88-.88-.88h-10.67c-.48,0-.88-.39-.88-.88v-10.67c0-.48-.39-.88-.88-.88h-17.81c-.48,0-.88.39-.88.88v9.11c0,.48-.39.88-.88.88h-9.11c-.48,0-.88-.39-.88-.88v-19.98c0-.48.39-.88.88-.88h16.25c.48,0,.88-.39.88-.88v-11.44c0-.48-.39-.88-.88-.88h-27.12c-.48,0-.88-.39-.88-.88v-9.11c0-.48.39-.88.88-.88h27.12c.48,0,.88-.39.88-.88v-37.83c0-.48.39-.88.88-.88h10.67c.48,0,.88-.39.88-.88v-10.66c0-.48.39-.88.88-.88h10.67c.48,0,.88-.39.88-.88v-23.09c0-.48.39-.88.88-.88h10.66c.48,0,.88-.39.88-.88v-10.66c0-.48.39-.88.88-.88h10.67c.48,0,.88.39.88.88v10.66c0,.48.39.88.88.88h10.67c.48,0,.88.39.88.88v10.67c0,.48.39.88.88.88h72.75c.48,0,.88-.39.88-.88v-10.67c0-.48.39-.88.88-.88h10.67c.48,0,.88-.39.88-.88v-10.66c0-.48.39-.88.88-.88h10.67c.48,0,.88.39.88.88v10.66c0,.48.39.88.88.88h10.66c.48,0,.88.39.88.88v23.09c0,.48.39.88.88.88h10.67c.48,0,.88.39.88.88v10.66c0,.48.39.88.88.88h10.67c.48,0,.88.39.88.88v37.83c0,.48.39.88.88.88h25.88c.48,0,.88.39.88.88Z" fill="#85a857"/><rect x="878.9" y="1014.69" width="10.87" height="10.87" rx=".88" ry=".88" fill="#85a857"/><rect x="868.03" y="1049.61" width="10.87" height="10.87" rx=".88" ry=".88" fill="#85a857"/><path d="M925.05,1139.33c0-.46-.38-.84-.84-.86l-29.2-.82c-.46-.01-.83-.39-.84-.85l-.52-23.9c-.01-.47-.4-.85-.87-.85l-93.86.35c.11-.15.17-.33.17-.52l-.21-11.19c0-.47-.39-.85-.87-.85h-19.24l2.48-10.14,48.63-.02c.48,0,.87-.39.87-.87v-82.18c0-.48-.39-.87-.87-.87l-121.04.05c-.48,0-.87.39-.87.87v82.18c0,.48.39.87.87.87l54.92-.02-.77,10.13h-19.32c-.43,0-.79.31-.86.73l-1.8,11.14c-.06.39.14.75.47.91l-143.72.54c-.48,0-.86.39-.86.86l-.21,23c0,.47-.39.86-.86.86l-27.84.28c-.48,0-.86.4-.86.88l1.78,187.8c0,.48.39.86.87.86h42.02c.48,0,.87-.39.87-.87l-.24-162.74c0-.48.39-.87.87-.87l264.83-.07c.47,0,.86.37.87.85l4.35,162.85c.01.47.4.85.87.85h42.72c.48,0,.88-.4.87-.88l-2.73-187.48Z" fill="#4f5b39"/><path d="M833.11,1189.37l-9.56-.89-16.23-.95s-.03,0-.05,0h-133.89c-.34,0-.65.2-.79.51l-11.51,25c-.05.11-.08.24-.08.36v10.88c0,.48.39.87.87.87h74.34l-2.62,24.48-28.98,5.02c-.16.03-.3.1-.42.2l-16.64,14.61c-.16.14-.26.33-.29.53l-3.76,27.5h-6.81c-.3,0-.58.16-.74.41l-4.74,7.66c-.16.25-.17.56-.05.83l4.9,10.31c.09.2.26.35.46.43l6.24,2.51c.12.05.25.07.38.06l13.4-.83c.21-.01.4-.1.55-.24l6.77-6.52c.29-.28.35-.73.14-1.07l-4.09-6.79,12.1-30.85c.11-.29.38-.5.69-.54l21.73-3.06c.48-.07.92.27.98.74l3.92,28.48h-3.93c-.44,0-.81.33-.86.76l-2.37,18.92c-.05.39.17.77.54.91l9.12,3.66c.12.05.25.07.38.06l14.73-.92c.21-.01.4-.1.55-.24l7.49-7.21c.29-.28.35-.73.14-1.07l-6.99-11.6c-.1-.16-.25-.29-.42-.36l-.66-.26v-30.76c0-.35.21-.67.54-.8l1.09-.45c.19-.08.39-.09.59-.03l21.16,6.52c.19.06.36.19.47.36l7.67,11.75c.07.11.12.25.14.38l1.12,10.32-3.33.47c-.3.04-.55.23-.67.51l-4.56,10.22c-.13.29-.09.64.11.89l4.51,5.77c.09.12.22.21.36.27l6.34,2.54c.12.05.25.07.38.06l13.4-.83c.21-.01.4-.1.55-.24l6.87-6.62c.24-.24.33-.59.22-.91l-3.62-10.41c-.09-.27-.31-.47-.59-.55l-2.83-.79v-.76c0-.06,0-.11-.02-.17l-5.69-29.15c-.04-.18-.13-.34-.26-.47l-21.94-20.36c-.16-.15-.37-.23-.59-.23h-18.52l1.45-23.06h71.64c.48,0,.87-.39.87-.87v-34.05c0-.45-.34-.82-.79-.86Z" fill="#4f5b39"/></svg>