<?xml version="1.0" encoding="UTF-8"?><svg id="_レイヤー_1" xmlns="http://www.w3.org/2000/svg" width="576.87" height="576.87" viewBox="0 0 576.87 576.87"><path d="M436.91,260.88v-24.13c0-.79-.64-1.43-1.43-1.43h-24.14c-.79,0-1.43-.64-1.43-1.43v-24.14c0-.79-.64-1.43-1.43-1.43h-78.13c-.79,0-1.43.64-1.43,1.43v24.14c0,.79-.64,1.43-1.43,1.43h-24.14c-.79,0-1.43.64-1.43,1.43v24.13c0,.79-.64,1.43-1.43,1.43h-24.13c-.79,0-1.43-.64-1.43-1.43v-24.13c0-.79-.64-1.43-1.43-1.43h-24.14c-.79,0-1.43-.64-1.43-1.43v-24.14c0-.79-.64-1.43-1.43-1.43h-78.13c-.79,0-1.43.64-1.43,1.43v24.14c0,.79-.64,1.43-1.43,1.43h-24.13c-.79,0-1.43.64-1.43,1.43v24.13c0,.79-.64,1.43-1.43,1.43h-24.14c-.79,0-1.43.64-1.43,1.43v78.13c0,.79.64,1.43,1.43,1.43h24.14c.79,0,1.43.64,1.43,1.43v24.14c0,.79.64,1.43,1.43,1.43h24.13c.79,0,1.43.64,1.43,1.43v24.13c0,.79.64,1.43,1.43,1.43h24.14c.79,0,1.43.64,1.43,1.43v24.14c0,.79.64,1.43,1.43,1.43h24.13c.79,0,1.43.64,1.43,1.43v24.14c0,.79.64,1.43,1.43,1.43h24.14c.79,0,1.43.64,1.43,1.43v24.13c0,.79.64,1.43,1.43,1.43h24.14c.79,0,1.43.64,1.43,1.43v24.14c0,.79.64,1.43,1.43,1.43h24.13c.79,0,1.43-.64,1.43-1.43v-24.14c0-.79.64-1.43,1.43-1.43h24.14c.79,0,1.43-.64,1.43-1.43v-24.13c0-.79.64-1.43,1.43-1.43h24.14c.79,0,1.43-.64,1.43-1.43v-24.14c0-.79.64-1.43,1.43-1.43h24.13c.79,0,1.43-.64,1.43-1.43v-24.14c0-.79.64-1.43,1.43-1.43h24.14c.79,0,1.43-.64,1.43-1.43v-24.13c0-.79.64-1.43,1.43-1.43h24.14c.79,0,1.43-.64,1.43-1.43v-24.14c0-.79.64-1.43,1.43-1.43h24.13c.79,0,1.43-.64,1.43-1.43v-78.13c0-.79-.64-1.43-1.43-1.43h-24.13c-.79,0-1.43-.64-1.43-1.43Z" fill="#7caa4a"/></svg>