<?xml version="1.0" encoding="UTF-8"?><svg id="_レイヤー_1" xmlns="http://www.w3.org/2000/svg" width="1074.27" height="1382.66" viewBox="0 0 1074.27 1382.66"><path d="M281.79,521.99h-12.2c-1.45,0-2.5.87-2.5,2.06v26.94c0,.2-.35.36-.79.36h-10.01c-1.45,0-2.5.87-2.5,2.06v16.95c0,.2-.35.36-.79.36h-7.82c-.43,0-.79-.16-.79-.36v-16.95c0-1.2-1.05-2.06-2.5-2.06h-10.01c-.43,0-.79-.16-.79-.36v-26.94c0-1.2-1.05-2.06-2.5-2.06h-12.2c-1.45,0-2.5.87-2.5,2.06v28.16c0,1.2,1.05,2.06,2.5,2.06h10.01c.43,0,.79.16.79.36v16.95c0,1.2,1.05,2.06,2.5,2.06h10.01c.43,0,.79.16.79.36v36.94c0,1.2,1.05,2.06,2.5,2.06h12.21c1.45,0,2.5-.87,2.5-2.06v-36.73c0-.2.35-.36.79-.36h10.01c1.45,0,2.5-.87,2.5-2.06v-17.16c0-.2.35-.36.79-.36h10.01c1.45,0,2.5-.87,2.5-2.06v-28.16c0-1.2-1.05-2.06-2.5-2.06Z" fill="#86aa57"/><path d="M375.04,531.78h-10.01c-.43,0-.79-.16-.79-.36v-7.37c0-1.2-1.05-2.06-2.5-2.06h-38.81c-1.45,0-2.5.87-2.5,2.06v7.37c0,.2-.35.36-.79.36h-10.01c-1.45,0-2.5.87-2.5,2.06v67.31c0,1.2,1.05,2.06,2.5,2.06h10.01c.43,0,.79.16.79.36v7.37c0,1.2,1.05,2.06,2.5,2.06h38.81c1.45,0,2.5-.87,2.5-2.06v-7.37c0-.2.35-.36.79-.36h10.01c1.45,0,2.5-.87,2.5-2.06v-67.31c0-1.2-1.05-2.06-2.5-2.06ZM325.13,534.7h34.42c.43,0,.79.16.79.36v64.89c0,.2-.35.36-.79.36h-34.42c-.43,0-.79-.16-.79-.36v-64.89c0-.2.35-.36.79-.36Z" fill="#86aa57"/><path d="M468.3,521.99h-12.2c-1.45,0-2.5.87-2.5,2.06v75.89c0,.2-.35.36-.79.36h-34.42c-.43,0-.79-.16-.79-.36v-75.89c0-1.2-1.05-2.06-2.5-2.06h-12.2c-1.45,0-2.5.87-2.5,2.06v77.1c0,1.2,1.05,2.06,2.5,2.06h10.01c.43,0,.79.16.79.36v7.37c0,1.2,1.05,2.06,2.5,2.06h38.81c1.45,0,2.5-.87,2.5-2.06v-7.37c0-.2.35-.36.79-.36h10.01c1.45,0,2.5-.87,2.5-2.06v-77.1c0-1.2-1.05-2.06-2.5-2.06Z" fill="#86aa57"/><path d="M584.09,521.99h-12.21c-1.45,0-2.5.87-2.5,2.06v7.37c0,.2-.35.36-.79.36h-10.01c-1.45,0-2.5.87-2.5,2.06v7.37c0,.2-.35.36-.79.36h-7.82c-.43,0-.79-.16-.79-.36v-7.37c0-1.2-1.05-2.06-2.5-2.06h-10.01c-.43,0-.79-.16-.79-.36v-7.37c0-1.2-1.05-2.06-2.5-2.06h-12.2c-1.45,0-2.5.87-2.5,2.06v86.89c0,1.2,1.05,2.06,2.5,2.06h12.2c1.45,0,2.5-.87,2.5-2.06v-66.1c0-.2.35-.36.79-.36h7.82c.43,0,.79.16.79.36v7.37c0,1.2,1.05,2.06,2.5,2.06h12.2c1.45,0,2.5-.87,2.5-2.06v-7.37c0-.2.35-.36.79-.36h7.82c.43,0,.79.16.79.36v66.1c0,1.2,1.05,2.06,2.5,2.06h12.21c1.45,0,2.5-.87,2.5-2.06v-86.89c0-1.2-1.05-2.06-2.5-2.06Z" fill="#86aa57"/><path d="M677.34,521.99h-12.21c-1.45,0-2.5.87-2.5,2.06v75.89c0,.2-.35.36-.79.36h-34.42c-.43,0-.79-.16-.79-.36v-75.89c0-1.2-1.05-2.06-2.5-2.06h-12.2c-1.45,0-2.5.87-2.5,2.06v77.1c0,1.2,1.05,2.06,2.5,2.06h10.01c.43,0,.79.16.79.36v7.37c0,1.2,1.05,2.06,2.5,2.06h38.81c1.45,0,2.5-.87,2.5-2.06v-7.37c0-.2.35-.36.79-.36h10.01c1.45,0,2.5-.87,2.5-2.06v-77.1c0-1.2-1.05-2.06-2.5-2.06Z" fill="#86aa57"/><path d="M770.59,531.78h-10.01c-.43,0-.79-.16-.79-.36v-7.37c0-1.2-1.05-2.06-2.5-2.06h-38.81c-1.45,0-2.5.87-2.5,2.06v7.37c0,.2-.35.36-.79.36h-10.01c-1.45,0-2.5.87-2.5,2.06v28.16c0,1.2,1.05,2.06,2.5,2.06h10.01c.43,0,.79.16.79.36v7.37c0,1.2,1.05,2.06,2.5,2.06h36.62c.43,0,.79.16.79.36v25.73c0,.2-.35.36-.79.36h-34.42c-.43,0-.79-.16-.79-.36v-7.37c0-1.2-1.05-2.06-2.5-2.06h-12.2c-1.45,0-2.5.87-2.5,2.06v8.58c0,1.2,1.05,2.06,2.5,2.06h10.01c.43,0,.79.16.79.36v7.37c0,1.2,1.05,2.06,2.5,2.06h38.81c1.45,0,2.5-.87,2.5-2.06v-7.37c0-.2.35-.36.79-.36h10.01c1.45,0,2.5-.87,2.5-2.06v-28.16c0-1.2-1.05-2.06-2.5-2.06h-10.01c-.43,0-.79-.16-.79-.36v-7.37c0-1.2-1.05-2.06-2.5-2.06h-36.61c-.43,0-.79-.16-.79-.36v-25.73c0-.2.35-.36.79-.36h34.42c.43,0,.79.16.79.36v7.37c0,1.2,1.05,2.06,2.5,2.06h12.21c1.45,0,2.5-.87,2.5-2.06v-8.58c0-1.2-1.05-2.06-2.5-2.06Z" fill="#86aa57"/><path d="M857.89,521.99h-65.41c-1.45,0-2.5.87-2.5,2.06v8.58c0,1.2,1.05,2.06,2.5,2.06h23.31c.43,0,.79.16.79.36v75.89c0,1.2,1.05,2.06,2.5,2.06h12.21c1.45,0,2.5-.87,2.5-2.06v-75.89c0-.2.35-.36.79-.36h23.31c1.45,0,2.5-.87,2.5-2.06v-8.58c0-1.2-1.05-2.06-2.5-2.06Z" fill="#86aa57"/><path d="M519.08,669.31h-10.01c-.43,0-.79-.16-.79-.36v-7.37c0-1.2-1.05-2.06-2.5-2.06h-38.81c-1.45,0-2.5.87-2.5,2.06v7.37c0,.2-.35.36-.79.36h-10.01c-1.45,0-2.5.87-2.5,2.06v67.31c0,1.2,1.05,2.06,2.5,2.06h10.01c.43,0,.79.16.79.36v7.37c0,1.2,1.05,2.06,2.5,2.06h38.81c1.45,0,2.5-.87,2.5-2.06v-7.37c0-.2.35-.36.79-.36h10.01c1.45,0,2.5-.87,2.5-2.06v-67.31c0-1.2-1.05-2.06-2.5-2.06ZM469.17,672.23h34.42c.43,0,.79.16.79.36v64.89c0,.2-.35.36-.79.36h-34.42c-.43,0-.79-.16-.79-.36v-64.89c0-.2.35-.36.79-.36Z" fill="#86aa57"/><path d="M612.34,669.31h-10.01c-.43,0-.79-.16-.79-.36v-7.37c0-1.2-1.05-2.06-2.5-2.06h-52.11c-1.45,0-2.5.87-2.5,2.06v86.89c0,1.2,1.05,2.06,2.5,2.06h12.2c1.45,0,2.5-.87,2.5-2.06v-36.73c0-.2.35-.36.79-.36h34.42c.43,0,.79.16.79.36v36.73c0,1.2,1.05,2.06,2.5,2.06h12.21c1.45,0,2.5-.87,2.5-2.06v-37.94c0-1.2-1.05-2.06-2.5-2.06h-10.01c-.43,0-.79-.16-.79-.36v-6.16c0-.17.32-.36.79-.36h10.01c1.45,0,2.5-.87,2.5-2.06v-28.16c0-1.2-1.05-2.06-2.5-2.06ZM597.63,672.59v25.73c0,.2-.35.36-.79.36h-34.42c-.43,0-.79-.16-.79-.36v-25.73c0-.2.35-.36.79-.36h34.42c.43,0,.79.16.79.36Z" fill="#86aa57"/><path d="M668.97,691.81h10.01c1.45,0,2.5-.87,2.5-2.06v-7.37c0-.2.35-.36.79-.36h10.01c1.45,0,2.5-.87,2.5-2.06v-7.37c0-.2.35-.36.79-.36h10.01c1.45,0,2.5-.87,2.5-2.06v-8.58c0-1.2-1.05-2.06-2.5-2.06h-12.21c-1.45,0-2.5.87-2.5,2.06v7.37c0,.2-.35.36-.79.36h-10.01c-1.45,0-2.5.87-2.5,2.06v7.37c0,.2-.35.36-.79.36h-10.01c-1.45,0-2.5.87-2.5,2.06v7.37c0,.2-.35.36-.79.36h-7.82c-.43,0-.79-.16-.79-.36v-26.94c0-1.2-1.05-2.06-2.5-2.06h-12.2c-1.45,0-2.5.87-2.5,2.06v86.89c0,1.2,1.05,2.06,2.5,2.06h12.2c1.45,0,2.5-.87,2.5-2.06v-46.52c0-.2.35-.36.79-.36h7.82c.47,0,.79.19.79.36v7.37c0,1.2,1.05,2.06,2.5,2.06h10.01c.43,0,.79.16.79.36v17.16c0,1.2,1.05,2.06,2.5,2.06h10.01c.43,0,.79.16.79.36v17.16c0,1.2,1.05,2.06,2.5,2.06h12.21c1.45,0,2.5-.87,2.5-2.06v-18.37c0-1.2-1.05-2.06-2.5-2.06h-10.01c-.43,0-.79-.16-.79-.36v-17.16c0-1.2-1.05-2.06-2.5-2.06h-10.01c-.43,0-.79-.16-.79-.36v-7.37c0-1.2-1.05-2.06-2.5-2.06h-10.01c-.43,0-.79-.16-.79-.36v-6.16c0-.2.35-.36.79-.36Z" fill="#86aa57"/><path d="M427.46,659.53h-12.73c-1.49,0-2.57.87-2.57,2.06v46.52c0,.15-.31.36-.86.36h-9.58c-.55,0-.86-.21-.86-.36v-46.52c0-1.2-1.08-2.06-2.57-2.06h-11.87c-1.49,0-2.57.87-2.57,2.06v46.52c0,.15-.31.36-.86.36h-9.43c-.55,0-.86-.21-.86-.36v-46.52c0-1.2-1.08-2.06-2.57-2.06h-12.73c-1.49,0-2.57.87-2.57,2.06v47.73c0,1.2,1.08,2.06,2.57,2.06h11.29c.55,0,.86.21.86.36v36.73c0,1.2,1.08,2.06,2.57,2.06h12.73c1.49,0,2.57-.87,2.57-2.06v-36.73c0-.15.31-.36.86-.36h8.15c.55,0,.86.21.86.36v36.73c0,1.2,1.08,2.06,2.57,2.06h12.73c1.49,0,2.57-.87,2.57-2.06v-36.73c0-.15.31-.36.86-.36h11.44c1.49,0,2.57-.87,2.57-2.06v-47.73c0-1.2-1.08-2.06-2.57-2.06Z" fill="#86aa57"/><ellipse cx="537.14" cy="1328.16" rx="252.14" ry="54.5" fill="#86aa57"/><path d="M391.45,995.42h9.93c.53,0,.95-.43.95-.95v-9.88c0-.52-.43-.95-.95-.95h-9.93c-.53,0-.95.43-.95.95v9.88c0,.52.43.95.95.95Z" fill="#85a857"/><path d="M403.29,1033.29h9.93c.53,0,.95-.43.95-.95v-9.88c0-.52-.43-.95-.95-.95h-9.93c-.53,0-.95.43-.95.95v9.88c0,.52.43.95.95.95Z" fill="#85a857"/><path d="M680.32,972.81v9.88c0,.52-.43.95-.95.95h-28.19c-.53,0-.95.43-.95.95v12.41c0,.52.43.95.95.95h16.35c.53,0,.95.43.95.95v21.66c0,.52-.43.95-.95.95h-9.93c-.53,0-.95-.43-.95-.95v-9.88c0-.52-.43-.95-.95-.95h-18.04c-.53,0-.95.43-.95.95v11.57c0,.52-.43.95-.95.95h-11.62c-.53,0-.95.43-.95.95v11.57c0,.52-.43.95-.95.95h-25.14c-.53,0-.95.43-.95.95v11.56c0,.52.43.95.95.95h11.62c.53,0,.95.43.95.95v11.57c0,.52.43.95.95.95h11.62c.53,0,.95.43.95.95v18.32c0,.52-.43.95-.95.95h-11.62c-.53,0-.95-.43-.95-.95v-4.85c0-.52-.43-.95-.95-.95h-25.15c-.53,0-.95.43-.95.95v92.36c0,.52-.43.95-.95.95h-11.62c-.53,0-.95-.43-.95-.95v-25.03c0-.52-.43-.95-.95-.95h-11.62c-.53,0-.95-.43-.95-.95v-11.57c0-.52-.43-.95-.95-.95h-25.14c-.53,0-.95.43-.95.95v11.57c0,.52-.43.95-.95.95h-11.62c-.53,0-.95.43-.95.95v12.51h-.21c.12,0,.21.09.21.21v12.3c0,.52-.43.95-.95.95h-11.62c-.53,0-.95-.43-.95-.95v-12.3c0-.12.1-.21.21-.21h-.21v-79.84c0-.52-.43-.95-.95-.95h-25.15c-.53,0-.95.43-.95.95v11.57c0,.52-.43.95-.95.95h-11.62c-.53,0-.95-.43-.95-.95v-25.03c0-.52.43-.95.95-.95h11.62c.53,0,.95-.43.95-.95v-11.57c0-.52.43-.95.95-.95h11.62c.53,0,.95-.43.95-.95v-11.56c0-.52-.43-.95-.95-.95h-25.14c-.53,0-.95-.43-.95-.95v-11.57c0-.52-.43-.95-.95-.95h-11.62c-.53,0-.95-.43-.95-.95v-11.57c0-.52-.43-.95-.95-.95h-19.4c-.53,0-.95.43-.95.95v9.88c0,.52-.43.95-.95.95h-9.93c-.53,0-.95-.43-.95-.95v-21.66c0-.52.43-.95.95-.95h17.7c.53,0,.95-.43.95-.95v-12.41c0-.52-.43-.95-.95-.95h-29.54c-.53,0-.95-.43-.95-.95v-9.88c0-.52.43-.95.95-.95h29.54c.53,0,.95-.43.95-.95v-41.02c0-.52.43-.95.95-.95h11.62c.53,0,.95-.43.95-.95v-11.56c0-.52.43-.95.95-.95h11.62c.53,0,.95-.43.95-.95v-25.03c0-.52.43-.95.95-.95h11.62c.53,0,.95-.43.95-.95v-11.56c0-.52.43-.95.95-.95h11.62c.53,0,.95.43.95.95v11.56c0,.52.43.95.95.95h11.62c.53,0,.95.43.95.95v11.57c0,.52.43.95.95.95h79.25c.53,0,.95-.43.95-.95v-11.57c0-.52.43-.95.95-.95h11.62c.53,0,.95-.43.95-.95v-11.56c0-.52.43-.95.95-.95h11.62c.53,0,.95.43.95.95v11.56c0,.52.43.95.95.95h11.62c.53,0,.95.43.95.95v25.03c0,.52.43.95.95.95h11.62c.53,0,.95.43.95.95v11.56c0,.52.43.95.95.95h11.62c.53,0,.95.43.95.95v41.02c0,.52.43.95.95.95h28.19c.53,0,.95.43.95.95Z" fill="#85a857"/><path d="M680.32,984.59v9.88c0,.52.43.95.95.95h9.93c.53,0,.95-.43.95-.95v-9.88c0-.52-.43-.95-.95-.95h-9.93c-.53,0-.95.43-.95.95Z" fill="#85a857"/><path d="M680.32,1032.34v-9.88c0-.52-.43-.95-.95-.95h-9.93c-.53,0-.95.43-.95.95v9.88c0,.52.43.95.95.95h9.93c.53,0,.95-.43.95-.95Z" fill="#85a857"/><path d="M730.6,1118.79c0-.5-.41-.91-.92-.93l-31.81-.89c-.5-.01-.91-.42-.92-.92l-.56-25.91c-.01-.51-.43-.92-.95-.92l-102.25.38c.12-.16.19-.36.18-.57l-.23-12.14c0-.51-.43-.92-.95-.92h-20.95l2.7-10.99,52.98-.02c.52,0,.95-.42.95-.94v-89.11c0-.52-.42-.94-.95-.94l-131.85.06c-.52,0-.95.42-.95.94v89.11c0,.52.42.94.95.94l59.82-.03-.84,10.99h-21.05c-.46,0-.86.34-.93.79l-1.96,12.08c-.07.42.16.81.51.99l-156.56.58c-.52,0-.94.42-.94.93l-.23,24.94c0,.51-.42.93-.94.93l-30.32.3c-.52,0-.94.43-.94.95l1.94,203.65c0,.52.43.93.95.93h45.77c.52,0,.95-.42.95-.94l-.26-176.47c0-.52.42-.94.95-.94l288.49-.07c.51,0,.93.41.95.92l4.73,176.59c.01.51.43.92.95.92h46.54c.53,0,.95-.43.95-.96l-2.98-203.3Z" fill="#4f5b39"/><path d="M630.44,1173.06l-10.41-.96-17.68-1.03s-.04,0-.06,0h-145.85c-.37,0-.7.21-.86.55l-12.54,27.11c-.06.12-.09.26-.09.39v11.8c0,.52.42.94.95.94h80.98l-2.86,26.54-31.57,5.44c-.17.03-.33.11-.46.22l-18.13,15.84c-.17.15-.28.36-.31.58l-4.1,29.82h-7.41c-.33,0-.63.17-.8.45l-5.17,8.3c-.17.27-.19.61-.05.9l5.34,11.18c.1.21.28.38.5.47l6.8,2.72c.13.05.27.07.41.07l14.6-.91c.22-.01.44-.11.6-.26l7.38-7.07c.32-.3.38-.79.15-1.16l-4.46-7.36,13.18-33.45c.12-.32.41-.54.75-.59l23.67-3.32c.52-.07,1,.29,1.07.8l4.27,30.89h-4.28c-.48,0-.88.35-.94.82l-2.58,20.52c-.05.42.19.83.59.99l9.94,3.97c.13.05.27.07.41.07l16.04-.99c.22-.01.44-.11.6-.26l8.16-7.82c.32-.3.38-.79.15-1.16l-7.61-12.58c-.11-.18-.27-.31-.46-.39l-.72-.28v-33.35c0-.38.23-.73.59-.87l1.19-.49c.2-.08.43-.09.64-.03l23.05,7.07c.21.06.39.2.51.39l8.35,12.75c.08.12.13.27.15.41l1.22,11.19-3.62.51c-.32.04-.6.25-.73.55l-4.97,11.09c-.14.32-.1.69.12.96l4.91,6.26c.1.13.24.23.39.29l6.91,2.76c.13.05.27.07.41.07l14.6-.91c.22-.01.44-.11.6-.26l7.49-7.17c.27-.25.36-.64.24-.99l-3.94-11.29c-.1-.29-.34-.51-.64-.6l-3.08-.86v-.82c0-.06,0-.12-.02-.18l-6.2-31.61c-.04-.2-.14-.37-.28-.51l-23.9-22.08c-.17-.16-.4-.25-.64-.25h-20.18l1.58-25.01h78.04c.52,0,.95-.42.95-.94v-36.92c0-.49-.37-.89-.86-.94Z" fill="#4f5b39"/></svg>