<?xml version="1.0" encoding="UTF-8"?><svg id="_レイヤー_1" xmlns="http://www.w3.org/2000/svg" width="1399.58" height="1382.66" viewBox="0 0 1399.58 1382.66"><rect x="4.72" y="1051.26" width="33.56" height="14.42" rx=".67" ry=".67" fill="#171917"/><path d="M942.62,1045.87v-36.93c0-.37-.3-.67-.67-.67h-36.93c-.37,0-.67-.3-.67-.67v-17.8c0-.37-.3-.67-.67-.67h-36.93c-.37,0-.67-.3-.67-.67v-17.79c0-.37-.3-.67-.67-.67h-79.93c-.37,0-.67.3-.67.67v17.79c0,.37-.3.67-.67.67h-36.93c-.37,0-.67.3-.67.67v17.8c0,.37-.3.67-.67.67h-127.92c-.37,0-.67-.3-.67-.67v-13.08c0-.37.3-.67.67-.67h56.07c.37,0,.67-.3.67-.67v-17.79c0-.37.3-.67.67-.67h36.93c.37,0,.67-.3.67-.67v-17.8c0-.37.3-.67.67-.67h17.8c.37,0,.67-.3.67-.67v-17.79c0-.37.3-.67.67-.67h17.79c.37,0,.67-.3.67-.67v-17.8c0-.37.3-.67.67-.67h17.8c.37,0,.67-.3.67-.67v-36.93c0-.37.3-.67.67-.67h17.79c.37,0,.67-.3.67-.67v-17.79c0-.37.3-.67.67-.67h17.8c.37,0,.67-.3.67-.67v-137.36c0-.37-.3-.67-.67-.67h-17.8c-.37,0-.67-.3-.67-.67v-75.22c0-.37-.3-.67-.67-.67h-17.79c-.37,0-.67-.3-.67-.67v-113.5c0-.37-.3-.67-.67-.67h-79.93c-.37,0-.67.3-.67.67v17.79c0,.37-.3.67-.67.67h-395.9c-.37,0-.67-.3-.67-.67v-17.79c0-.37-.3-.67-.67-.67h-79.93c-.37,0-.67.3-.67.67v113.5c0,.37-.3.67-.67.67h-17.8c-.37,0-.67.3-.67.67v75.22c0,.37-.3.67-.67.67h-17.79c-.37,0-.67.3-.67.67v137.36c0,.37.3.67.67.67h17.79c.37,0,.67.3.67.67v17.79c0,.37.3.67.67.67h17.8c.37,0,.67.3.67.67v36.93c0,.37.3.67.67.67h17.79c.37,0,.67.3.67.67v17.8c0,.37.3.67.67.67h17.8c.37,0,.67.3.67.67v17.79c0,.37.3.67.67.67h17.79c.37,0,.67.3.67.67v17.8c0,.37.3.67.67.67h36.93c.37,0,.67.3.67.67v17.79c0,.37.3.67.67.67h56.08c.37,0,.67.3.67.67v13.08c0,.37-.3.67-.67.67h-127.92c-.37,0-.67-.3-.67-.67v-17.8c0-.37-.3-.67-.67-.67h-36.93c-.37,0-.67-.3-.67-.67v-17.79c0-.37-.3-.67-.67-.67h-79.93c-.37,0-.67.3-.67.67v17.79c0,.37-.3.67-.67.67h-36.93c-.37,0-.67.3-.67.67v17.8c0,.37-.3.67-.67.67h-36.93c-.37,0-.67.3-.67.67v36.93c0,.37-.3.67-.67.67H.67c-.37,0-.67.3-.67.67v22.51c0,.37.3.67.67.67h41.65c.37,0,.67-.3.67-.67v-17.79c0-.37.3-.67.67-.67h36.93c.37,0,.67-.3.67-.67v-17.8c0-.37.3-.67.67-.67h51.36c.37,0,.67.3.67.67v17.8c0,.37.3.67.67.67h36.93c.37,0,.67.3.67.67v17.79c0,.37.3.67.67.67h36.93c.37,0,.67.3.67.67v17.8c0,.37.3.67.67.67h36.93c.37,0,.67.3.67.67v17.79c0,.37.3.67.67.67h94.36c.37,0,.67.3.67.67v13.08c0,.37-.3.67-.67.67h-17.8c-.37,0-.67.3-.67.67v56.07c0,.37-.3.67-.67.67h-17.8c-.37,0-.67.3-.67.67v36.93c0,.37-.3.67-.67.67h-17.79c-.37,0-.67.3-.67.67v36.93c0,.37-.3.67-.67.67h-17.8c-.37,0-.67.3-.67.67v17.8c0,.37-.3.67-.67.67h-17.79c-.37,0-.67.3-.67.67v41.65c0,.37.3.67.67.67h60.79c.37,0,.67-.3.67-.67v-17.8c0-.37.3-.67.67-.67h17.8c.37,0,.67-.3.67-.67v-36.93c0-.37.3-.67.67-.67h17.8c.37,0,.67-.3.67-.67v-17.79c0-.37.3-.67.67-.67h17.79c.37,0,.67-.3.67-.67v-56.08c0-.37.3-.67.67-.67h17.8c.37,0,.67-.3.67-.67v-36.93c0-.37.3-.67.67-.67h17.79c.37,0,.67-.3.67-.67v-56.07c0-.37.3-.67.67-.67h13.08c.37,0,.67.3.67.67v108.78c0,.37-.3.67-.67.67h-17.8c-.37,0-.67.3-.67.67v36.93c0,.37-.3.67-.67.67h-17.79c-.37,0-.67.3-.67.67v36.93c0,.37-.3.67-.67.67h-17.8c-.37,0-.67.3-.67.67v41.65c0,.37.3.67.67.67h60.8c.37,0,.67-.3.67-.67v-17.8c0-.37.3-.67.67-.67h17.79c.37,0,.67-.3.67-.67v-36.93c0-.37.3-.67.67-.67h17.8c.37,0,.67-.3.67-.67v-75.22c0-.37.3-.67.67-.67h17.79c.37,0,.67-.3.67-.67v-75.22c0-.37.3-.67.67-.67h13.08c.37,0,.67.3.67.67v75.22c0,.37.3.67.67.67h17.79c.37,0,.67.3.67.67v75.22c0,.37.3.67.67.67h17.8c.37,0,.67.3.67.67v36.93c0,.37.3.67.67.67h17.79c.37,0,.67.3.67.67v17.8c0,.37.3.67.67.67h60.8c.37,0,.67-.3.67-.67v-41.65c0-.37-.3-.67-.67-.67h-17.8c-.37,0-.67-.3-.67-.67v-36.93c0-.37-.3-.67-.67-.67h-17.79c-.37,0-.67-.3-.67-.67v-36.93c0-.37-.3-.67-.67-.67h-17.8c-.37,0-.67-.3-.67-.67v-108.78c0-.37.3-.67.67-.67h13.08c.37,0,.67.3.67.67v56.07c0,.37.3.67.67.67h17.79c.37,0,.67.3.67.67v36.93c0,.37.3.67.67.67h17.8c.37,0,.67.3.67.67v56.08c0,.37.3.67.67.67h17.79c.37,0,.67.3.67.67v17.79c0,.37.3.67.67.67h17.8c.37,0,.67.3.67.67v36.93c0,.37.3.67.67.67h17.79c.37,0,.67.3.67.67v17.8c0,.37.3.67.67.67h60.8c.37,0,.67-.3.67-.67v-41.65c0-.37-.3-.67-.67-.67h-17.8c-.37,0-.67-.3-.67-.67v-17.8c0-.37-.3-.67-.67-.67h-17.79c-.37,0-.67-.3-.67-.67v-36.93c0-.37-.3-.67-.67-.67h-17.8c-.37,0-.67-.3-.67-.67v-36.93c0-.37-.3-.67-.67-.67h-17.79c-.37,0-.67-.3-.67-.67v-56.07c0-.37-.3-.67-.67-.67h-17.8c-.37,0-.67-.3-.67-.67v-13.08c0-.37.3-.67.67-.67h94.36c.37,0,.67-.3.67-.67v-17.79c0-.37.3-.67.67-.67h36.93c.37,0,.67-.3.67-.67v-17.8c0-.37.3-.67.67-.67h36.93c.37,0,.67-.3.67-.67v-17.79c0-.37.3-.67.67-.67h36.93c.37,0,.67-.3.67-.67v-17.8c0-.37.3-.67.67-.67h51.35c.37,0,.67.3.67.67v17.8c0,.37.3.67.67.67h36.94c.37,0,.67.3.67.67v17.79c0,.37.3.67.67.67h41.65c.37,0,.67-.3.67-.67v-22.51c0-.37-.3-.67-.67-.67h-36.94c-.37,0-.67-.3-.67-.67ZM37.61,1065.68H5.39c-.37,0-.67-.3-.67-.67v-13.07c0-.37.3-.67.67-.67h32.22c.37,0,.67.3.67.67v13.07c0,.37-.3.67-.67.67ZM937.23,1046.55h-32.22c-.37,0-.67-.3-.67-.67v-17.8c0-.37-.3-.67-.67-.67h-60.79c-.37,0-.67.3-.67.67v17.8c0,.37-.3.67-.67.67h-36.93c-.37,0-.67.3-.67.67v17.79c0,.37-.3.67-.67.67h-36.93c-.37,0-.67.3-.67.67v17.8c0,.37-.3.67-.67.67h-36.93c-.37,0-.67.3-.67.67v17.79c0,.37-.3.67-.67.67h-94.36c-.37,0-.67.3-.67.67v22.51c0,.37.3.67.67.67h17.8c.37,0,.67.3.67.67v56.07c0,.37.3.67.67.67h17.79c.37,0,.67.3.67.67v36.93c0,.37.3.67.67.67h17.8c.37,0,.67.3.67.67v36.93c0,.37.3.67.67.67h17.79c.37,0,.67.3.67.67v17.8c0,.37.3.67.67.67h17.8c.37,0,.67.3.67.67v32.22c0,.37-.3.67-.67.67h-51.36c-.37,0-.67-.3-.67-.67v-17.8c0-.37-.3-.67-.67-.67h-17.79c-.37,0-.67-.3-.67-.67v-36.93c0-.37-.3-.67-.67-.67h-17.8c-.37,0-.67-.3-.67-.67v-17.79c0-.37-.3-.67-.67-.67h-17.79c-.37,0-.67-.3-.67-.67v-56.08c0-.37-.3-.67-.67-.67h-17.8c-.37,0-.67-.3-.67-.67v-36.93c0-.37-.3-.67-.67-.67h-17.79c-.37,0-.67-.3-.67-.67v-56.07c0-.37-.3-.67-.67-.67h-22.51c-.37,0-.67.3-.67.67v118.21c0,.37.3.67.67.67h17.8c.37,0,.67.3.67.67v36.93c0,.37.3.67.67.67h17.79c.37,0,.67.3.67.67v36.93c0,.37.3.67.67.67h17.8c.37,0,.67.3.67.67v32.22c0,.37-.3.67-.67.67h-51.36c-.37,0-.67-.3-.67-.67v-17.8c0-.37-.3-.67-.67-.67h-17.79c-.37,0-.67-.3-.67-.67v-36.93c0-.37-.3-.67-.67-.67h-17.8c-.37,0-.67-.3-.67-.67v-75.22c0-.37-.3-.67-.67-.67h-17.79c-.37,0-.67-.3-.67-.67v-75.22c0-.37-.3-.67-.67-.67h-22.51c-.37,0-.67.3-.67.67v75.22c0,.37-.3.67-.67.67h-17.79c-.37,0-.67.3-.67.67v75.22c0,.37-.3.67-.67.67h-17.8c-.37,0-.67.3-.67.67v36.93c0,.37-.3.67-.67.67h-17.79c-.37,0-.67.3-.67.67v17.8c0,.37-.3.67-.67.67h-51.36c-.37,0-.67-.3-.67-.67v-32.22c0-.37.3-.67.67-.67h17.8c.37,0,.67-.3.67-.67v-36.93c0-.37.3-.67.67-.67h17.79c.37,0,.67-.3.67-.67v-36.93c0-.37.3-.67.67-.67h17.8c.37,0,.67-.3.67-.67v-118.21c0-.37-.3-.67-.67-.67h-22.51c-.37,0-.67.3-.67.67v56.07c0,.37-.3.67-.67.67h-17.79c-.37,0-.67.3-.67.67v36.93c0,.37-.3.67-.67.67h-17.8c-.37,0-.67.3-.67.67v56.08c0,.37-.3.67-.67.67h-17.79c-.37,0-.67.3-.67.67v17.79c0,.37-.3.67-.67.67h-17.8c-.37,0-.67.3-.67.67v36.93c0,.37-.3.67-.67.67h-17.8c-.37,0-.67.3-.67.67v17.8c0,.37-.3.67-.67.67h-51.35c-.37,0-.67-.3-.67-.67v-32.22c0-.37.3-.67.67-.67h17.79c.37,0,.67-.3.67-.67v-17.8c0-.37.3-.67.67-.67h17.8c.37,0,.67-.3.67-.67v-36.93c0-.37.3-.67.67-.67h17.79c.37,0,.67-.3.67-.67v-36.93c0-.37.3-.67.67-.67h17.8c.37,0,.67-.3.67-.67v-56.07c0-.37.3-.67.67-.67h17.8c.37,0,.67-.3.67-.67v-22.51c0-.37-.3-.67-.67-.67h-94.36c-.37,0-.67-.3-.67-.67v-17.79c0-.37-.3-.67-.67-.67h-36.93c-.37,0-.67-.3-.67-.67v-17.8c0-.37-.3-.67-.67-.67h-36.93c-.37,0-.67-.3-.67-.67v-17.79c0-.37-.3-.67-.67-.67h-36.93c-.37,0-.67-.3-.67-.67v-17.8c0-.37-.3-.67-.67-.67h-60.8c-.37,0-.67.3-.67.67v17.8c0,.37-.3.67-.67.67h-32.22c-.37,0-.67-.3-.67-.67v-32.22c0-.37.3-.67.67-.67h36.93c.37,0,.67-.3.67-.67v-17.8c0-.37.3-.67.67-.67h36.93c.37,0,.67-.3.67-.67v-17.79c0-.37.3-.67.67-.67h70.5c.37,0,.67.3.67.67v17.79c0,.37.3.67.67.67h36.93c.37,0,.67.3.67.67v17.8c0,.37.3.67.67.67h137.36c.37,0,.67-.3.67-.67v-22.51c0-.37-.3-.67-.67-.67h-56.08c-.37,0-.67-.3-.67-.67v-17.79c0-.37-.3-.67-.67-.67h-36.93c-.37,0-.67-.3-.67-.67v-17.8c0-.37-.3-.67-.67-.67h-17.79c-.37,0-.67-.3-.67-.67v-17.79c0-.37-.3-.67-.67-.67h-17.8c-.37,0-.67-.3-.67-.67v-17.8c0-.37-.3-.67-.67-.67h-17.79c-.37,0-.67-.3-.67-.67v-36.93c0-.37-.3-.67-.67-.67h-17.8c-.37,0-.67-.3-.67-.67v-17.79c0-.37-.3-.67-.67-.67h-17.79c-.37,0-.67-.3-.67-.67v-127.92c0-.37.3-.67.67-.67h17.79c.37,0,.67-.3.67-.67v-75.22c0-.37.3-.67.67-.67h17.8c.37,0,.67-.3.67-.67v-113.5c0-.37.3-.67.67-.67h70.5c.37,0,.67.3.67.67v17.79c0,.37.3.67.67.67h405.33c.37,0,.67-.3.67-.67v-17.79c0-.37.3-.67.67-.67h70.5c.37,0,.67.3.67.67v113.5c0,.37.3.67.67.67h17.79c.37,0,.67.3.67.67v75.22c0,.37.3.67.67.67h17.8c.37,0,.67.3.67.67v127.92c0,.37-.3.67-.67.67h-17.8c-.37,0-.67.3-.67.67v17.79c0,.37-.3.67-.67.67h-17.79c-.37,0-.67.3-.67.67v36.93c0,.37-.3.67-.67.67h-17.8c-.37,0-.67.3-.67.67v17.8c0,.37-.3.67-.67.67h-17.79c-.37,0-.67.3-.67.67v17.79c0,.37-.3.67-.67.67h-17.8c-.37,0-.67.3-.67.67v17.8c0,.37-.3.67-.67.67h-36.93c-.37,0-.67.3-.67.67v17.79c0,.37-.3.67-.67.67h-56.07c-.37,0-.67.3-.67.67v22.51c0,.37.3.67.67.67h137.35c.37,0,.67-.3.67-.67v-17.8c0-.37.3-.67.67-.67h36.93c.37,0,.67-.3.67-.67v-17.79c0-.37.3-.67.67-.67h70.5c.37,0,.67.3.67.67v17.79c0,.37.3.67.67.67h36.93c.37,0,.67.3.67.67v17.8c0,.37.3.67.67.67h36.93c.37,0,.67.3.67.67v32.22c0,.37-.3.67-.67.67ZM975.52,1065.68h-32.22c-.37,0-.67-.3-.67-.67v-13.07c0-.37.3-.67.67-.67h32.22c.37,0,.67.3.67.67v13.07c0,.37-.3.67-.67.67Z" fill="#85a857"/><path d="M937.91,1013.66v32.22c0,.37-.3.67-.67.67h-32.22c-.37,0-.67-.3-.67-.67v-17.8c0-.37-.3-.67-.67-.67h-60.79c-.37,0-.67.3-.67.67v17.8c0,.37-.3.67-.67.67h-36.93c-.37,0-.67.3-.67.67v17.79c0,.37-.3.67-.67.67h-36.93c-.37,0-.67.3-.67.67v17.8c0,.37-.3.67-.67.67h-36.93c-.37,0-.67.3-.67.67v17.79c0,.37-.3.67-.67.67h-94.36c-.37,0-.67.3-.67.67v22.51c0,.37.3.67.67.67h17.8c.37,0,.67.3.67.67v56.07c0,.37.3.67.67.67h17.79c.37,0,.67.3.67.67v36.93c0,.37.3.67.67.67h17.8c.37,0,.67.3.67.67v36.93c0,.37.3.67.67.67h17.79c.37,0,.67.3.67.67v17.8c0,.37.3.67.67.67h17.8c.37,0,.67.3.67.67v32.22c0,.37-.3.67-.67.67h-51.36c-.37,0-.67-.3-.67-.67v-17.8c0-.37-.3-.67-.67-.67h-17.79c-.37,0-.67-.3-.67-.67v-36.93c0-.37-.3-.67-.67-.67h-17.8c-.37,0-.67-.3-.67-.67v-17.79c0-.37-.3-.67-.67-.67h-17.79c-.37,0-.67-.3-.67-.67v-56.08c0-.37-.3-.67-.67-.67h-17.8c-.37,0-.67-.3-.67-.67v-36.93c0-.37-.3-.67-.67-.67h-17.79c-.37,0-.67-.3-.67-.67v-56.07c0-.37-.3-.67-.67-.67h-22.51c-.37,0-.67.3-.67.67v118.21c0,.37.3.67.67.67h17.8c.37,0,.67.3.67.67v36.93c0,.37.3.67.67.67h17.79c.37,0,.67.3.67.67v36.93c0,.37.3.67.67.67h17.8c.37,0,.67.3.67.67v32.22c0,.37-.3.67-.67.67h-51.36c-.37,0-.67-.3-.67-.67v-17.8c0-.37-.3-.67-.67-.67h-17.79c-.37,0-.67-.3-.67-.67v-36.93c0-.37-.3-.67-.67-.67h-17.8c-.37,0-.67-.3-.67-.67v-75.22c0-.37-.3-.67-.67-.67h-17.79c-.37,0-.67-.3-.67-.67v-75.22c0-.37-.3-.67-.67-.67h-22.51c-.37,0-.67.3-.67.67v75.22c0,.37-.3.67-.67.67h-17.79c-.37,0-.67.3-.67.67v75.22c0,.37-.3.67-.67.67h-17.8c-.37,0-.67.3-.67.67v36.93c0,.37-.3.67-.67.67h-17.79c-.37,0-.67.3-.67.67v17.8c0,.37-.3.67-.67.67h-51.36c-.37,0-.67-.3-.67-.67v-32.22c0-.37.3-.67.67-.67h17.8c.37,0,.67-.3.67-.67v-36.93c0-.37.3-.67.67-.67h17.79c.37,0,.67-.3.67-.67v-36.93c0-.37.3-.67.67-.67h17.8c.37,0,.67-.3.67-.67v-118.21c0-.37-.3-.67-.67-.67h-22.51c-.37,0-.67.3-.67.67v56.07c0,.37-.3.67-.67.67h-17.79c-.37,0-.67.3-.67.67v36.93c0,.37-.3.67-.67.67h-17.8c-.37,0-.67.3-.67.67v56.08c0,.37-.3.67-.67.67h-17.79c-.37,0-.67.3-.67.67v17.79c0,.37-.3.67-.67.67h-17.8c-.37,0-.67.3-.67.67v36.93c0,.37-.3.67-.67.67h-17.8c-.37,0-.67.3-.67.67v17.8c0,.37-.3.67-.67.67h-51.35c-.37,0-.67-.3-.67-.67v-32.22c0-.37.3-.67.67-.67h17.79c.37,0,.67-.3.67-.67v-17.8c0-.37.3-.67.67-.67h17.8c.37,0,.67-.3.67-.67v-36.93c0-.37.3-.67.67-.67h17.79c.37,0,.67-.3.67-.67v-36.93c0-.37.3-.67.67-.67h17.8c.37,0,.67-.3.67-.67v-56.07c0-.37.3-.67.67-.67h17.8c.37,0,.67-.3.67-.67v-22.51c0-.37-.3-.67-.67-.67h-94.36c-.37,0-.67-.3-.67-.67v-17.79c0-.37-.3-.67-.67-.67h-36.93c-.37,0-.67-.3-.67-.67v-17.8c0-.37-.3-.67-.67-.67h-36.93c-.37,0-.67-.3-.67-.67v-17.79c0-.37-.3-.67-.67-.67h-36.93c-.37,0-.67-.3-.67-.67v-17.8c0-.37-.3-.67-.67-.67h-60.8c-.37,0-.67.3-.67.67v17.8c0,.37-.3.67-.67.67h-32.22c-.37,0-.67-.3-.67-.67v-32.22c0-.37.3-.67.67-.67h36.93c.37,0,.67-.3.67-.67v-17.8c0-.37.3-.67.67-.67h36.93c.37,0,.67-.3.67-.67v-17.79c0-.37.3-.67.67-.67h70.5c.37,0,.67.3.67.67v17.79c0,.37.3.67.67.67h36.93c.37,0,.67.3.67.67v17.8c0,.37.3.67.67.67h137.36c.37,0,.67-.3.67-.67v-22.51c0-.37-.3-.67-.67-.67h-56.08c-.37,0-.67-.3-.67-.67v-17.79c0-.37-.3-.67-.67-.67h-36.93c-.37,0-.67-.3-.67-.67v-17.8c0-.37-.3-.67-.67-.67h-17.79c-.37,0-.67-.3-.67-.67v-17.79c0-.37-.3-.67-.67-.67h-17.8c-.37,0-.67-.3-.67-.67v-17.8c0-.37-.3-.67-.67-.67h-17.79c-.37,0-.67-.3-.67-.67v-36.93c0-.37-.3-.67-.67-.67h-17.8c-.37,0-.67-.3-.67-.67v-17.79c0-.37-.3-.67-.67-.67h-17.79c-.37,0-.67-.3-.67-.67v-127.92c0-.37.3-.67.67-.67h17.79c.37,0,.67-.3.67-.67v-75.22c0-.37.3-.67.67-.67h17.8c.37,0,.67-.3.67-.67v-113.5c0-.37.3-.67.67-.67h70.5c.37,0,.67.3.67.67v17.79c0,.37.3.67.67.67h405.33c.37,0,.67-.3.67-.67v-17.79c0-.37.3-.67.67-.67h70.5c.37,0,.67.3.67.67v113.5c0,.37.3.67.67.67h17.79c.37,0,.67.3.67.67v75.22c0,.37.3.67.67.67h17.8c.37,0,.67.3.67.67v127.92c0,.37-.3.67-.67.67h-17.8c-.37,0-.67.3-.67.67v17.79c0,.37-.3.67-.67.67h-17.79c-.37,0-.67.3-.67.67v36.93c0,.37-.3.67-.67.67h-17.8c-.37,0-.67.3-.67.67v17.8c0,.37-.3.67-.67.67h-17.79c-.37,0-.67.3-.67.67v17.79c0,.37-.3.67-.67.67h-17.8c-.37,0-.67.3-.67.67v17.8c0,.37-.3.67-.67.67h-36.93c-.37,0-.67.3-.67.67v17.79c0,.37-.3.67-.67.67h-56.07c-.37,0-.67.3-.67.67v22.51c0,.37.3.67.67.67h137.35c.37,0,.67-.3.67-.67v-17.8c0-.37.3-.67.67-.67h36.93c.37,0,.67-.3.67-.67v-17.79c0-.37.3-.67.67-.67h70.5c.37,0,.67.3.67.67v17.79c0,.37.3.67.67.67h36.93c.37,0,.67.3.67.67v17.8c0,.37.3.67.67.67h36.93c.37,0,.67.3.67.67Z" fill="#171917"/><rect x="942.63" y="1051.26" width="33.56" height="14.42" rx=".67" ry=".67" fill="#171917"/><rect x="1105.97" y="1083.6" width="18.77" height="18.78" rx="1.25" ry="1.25" fill="#86aa57"/><rect x="1087.19" y="1143.95" width="18.78" height="18.78" rx="1.25" ry="1.25" fill="#86aa57"/><path d="M665.02,1066.07v16.28c0,.69.56,1.25,1.25,1.25h45.24c.69,0,1.25.56,1.25,1.25v20.3c0,.69-.56,1.25-1.25,1.25h-26.46c-.69,0-1.25.56-1.25,1.25v35.06c0,.69.56,1.25,1.25,1.25h16.27c.69,0,1.25-.56,1.25-1.25v-16.28c0-.69.56-1.25,1.25-1.25h29.15c.69,0,1.25.56,1.25,1.25v18.96c0,.69.56,1.25,1.25,1.25h18.96c.69,0,1.25.56,1.25,1.25v18.96c0,.69.56,1.25,1.25,1.25h40.42c.69,0,1.25.56,1.25,1.25v18.96c0,.69-.56,1.25-1.25,1.25h-18.96c-.69,0-1.25.56-1.25,1.25v18.96c0,.69-.56,1.25-1.25,1.25h-18.96c-.69,0-1.25.56-1.25,1.25v40.42c0,.69.56,1.25,1.25,1.25h18.96c.69,0,1.25-.56,1.25-1.25v-18.96c0-.69.56-1.25,1.25-1.25h40.42c.69,0,1.25.56,1.25,1.25v126.25c0,.69.56,1.25,1.25,1.25h18.96c.69,0,1.25-.56,1.25-1.25v-18.96c0-.69.56-1.25,1.25-1.25h18.96c.69,0,1.25-.56,1.25-1.25v-18.96c0-.69.56-1.25,1.25-1.25h40.42c.69,0,1.25.56,1.25,1.25v18.96c0,.69.56,1.25,1.25,1.25h18.96c.69,0,1.25.56,1.25,1.25v40.41c0,.69.56,1.25,1.25,1.25h18.96c.69,0,1.25-.56,1.25-1.25v-147.7c0-.69.56-1.25,1.25-1.25h61.87c.69,0,1.25-.56,1.25-1.25v-18.96c0-.69.56-1.25,1.25-1.25h18.96c.69,0,1.25-.56,1.25-1.25v-40.42c0-.69-.56-1.25-1.25-1.25h-18.96c-.69,0-1.25.56-1.25,1.25v18.96c0,.69-.56,1.25-1.25,1.25h-40.42c-.69,0-1.25-.56-1.25-1.25v-18.96c0-.69.56-1.25,1.25-1.25h40.42c.69,0,1.25-.56,1.25-1.25v-18.96c0-.69.56-1.25,1.25-1.25h18.96c.69,0,1.25-.56,1.25-1.25v-18.96c0-.69.56-1.25,1.25-1.25h31.29c.69,0,1.25.56,1.25,1.25v16.28c0,.69.56,1.25,1.25,1.25h16.28c.69,0,1.25-.56,1.25-1.25v-35.06c0-.69-.56-1.25-1.25-1.25h-28.61c-.69,0-1.25-.56-1.25-1.25v-20.3c0-.69.56-1.25,1.25-1.25h47.39c.69,0,1.25-.56,1.25-1.25v-16.28c0-.69-.56-1.25-1.25-1.25h-47.39c-.69,0-1.25-.56-1.25-1.25v-65.9c0-.69-.56-1.25-1.25-1.25h-18.96c-.69,0-1.25-.56-1.25-1.25v-18.96c0-.69-.56-1.25-1.25-1.25h-18.96c-.69,0-1.25-.56-1.25-1.25v-40.42c0-.69-.56-1.25-1.25-1.25h-18.96c-.69,0-1.25-.56-1.25-1.25v-18.95c0-.69-.56-1.25-1.25-1.25h-18.96c-.69,0-1.25.56-1.25,1.25v18.95c0,.69-.56,1.25-1.25,1.25h-18.96c-.69,0-1.25.56-1.25,1.25v18.96c0,.69-.56,1.25-1.25,1.25h-126.25c-.69,0-1.25-.56-1.25-1.25v-18.96c0-.69-.56-1.25-1.25-1.25h-18.96c-.69,0-1.25-.56-1.25-1.25v-18.95c0-.69-.56-1.25-1.25-1.25h-18.96c-.69,0-1.25.56-1.25,1.25v18.95c0,.69-.56,1.25-1.25,1.25h-18.96c-.69,0-1.25.56-1.25,1.25v40.42c0,.69-.56,1.25-1.25,1.25h-18.96c-.69,0-1.25.56-1.25,1.25v18.96c0,.69-.56,1.25-1.25,1.25h-18.96c-.69,0-1.25.56-1.25,1.25v65.9c0,.69-.56,1.25-1.25,1.25h-45.24c-.69,0-1.25.56-1.25,1.25Z" fill="#86aa57"/><rect x="646.24" y="1083.6" width="18.78" height="18.78" rx="1.25" ry="1.25" fill="#86aa57"/><rect x="665.02" y="1143.95" width="18.78" height="18.78" rx="1.25" ry="1.25" fill="#86aa57"/><path d="M1310.2,1148.23h-4.85c-.56,0-1.04-.43-1.08-.99l-.42-4.86c-.06-.64.45-1.18,1.08-1.18h4.85c.56,0,1.04.43,1.08.99l.42,4.86c.06.64-.45,1.18-1.08,1.18Z" fill="#86aa57"/><path d="M1305.14,1170.85h-4.85c-.56,0-1.04-.43-1.08-.99l-.42-4.86c-.06-.64.45-1.18,1.08-1.18h4.85c.56,0,1.04.43,1.08.99l.42,4.86c.06.64-.45,1.18-1.08,1.18Z" fill="#86aa57"/><path d="M1141.26,1144.9l.42,4.84c.04.57.52,1,1.09,1h19.06c.57,0,1.04.44,1.1,1l.57,6.55.09,1h-12.83c-.65,0-1.15.55-1.1,1.2l.5,5.84.54,6.03c.04.57.52,1,1.09,1h4.83c.65,0,1.15-.55,1.1-1.19l-.4-4.65c-.06-.64.45-1.19,1.09-1.19h12.84c.57,0,1.04.44,1.1,1l.61,7.04.62,7.05c.05.57.53,1,1.1,1h6.03c.57,0,1.04.44,1.1,1l.52,6.04c.05.57.52,1,1.1,1h6.04c.57,0,1.04.44,1.1,1l.52,6.04c.05.57.52,1,1.09,1h6.04c.57,0,1.04.44,1.1,1l.61,7.05.7,8.04.71,8.04.59,6.86c.06.64-.45,1.19-1.09,1.19h-5.65c-.64,0-1.15.55-1.09,1.2l.6,6.84.7,8.05.7,8.04.7,8.04.61,6.86c.06.64-.45,1.19-1.1,1.19h-5.65c-.65,0-1.15.55-1.1,1.2l.6,6.84.7,8.05.71,8.05.7,8.04.71,8.05.7,8.04.7,8.04.71,8.05.7,8.04.71,8.04.7,8.05.6,6.85c.05.64-.45,1.19-1.1,1.19h-5.65c-.65,0-1.15.55-1.1,1.2l.52,5.84c.05.57.53,1,1.1,1h206.97c.65,0,1.15-.55,1.1-1.19l-.51-5.85c-.05-.57-.53-1-1.1-1h-54.31c-.57,0-1.04-.44-1.09-1l-.61-7.04-.71-8.05-.7-8.04-.71-8.04-.7-8.05-.7-8.04-.62-7.05c-.05-.56-.52-.99-1.08-.99h-6.04c-.57,0-1.04-.44-1.09-1l-.62-7.05-.7-8.04-.7-8.05-.71-8.05-.61-7.03c-.05-.57-.52-1.01-1.1-1.01h-6.04c-.57,0-1.04-.44-1.1-1l-.61-7.05-.7-8.04-.71-8.04-.61-7.05c-.05-.57-.52-1.01-1.1-1.01h-6.04c-.57,0-1.04-.44-1.1-1l-.61-7.04-.7-8.05-.71-8.04-.61-7.04c-.05-.57-.52-1-1.09-1h-6.04c-.57,0-1.04-.44-1.1-1l-.61-7.05-.7-8.04-.62-7.04c-.05-.57-.53-1-1.1-1h-6.03c-.57,0-1.04-.44-1.1-1l-.62-7.05-.7-8.04-.7-8.04-.03-.32c-.06-.64.44-1.19,1.08-1.19h4.78c.57,0,1.04.44,1.1,1l.44,5.03c.04.57.52,1,1.09,1h4.85c.64,0,1.15-.55,1.09-1.2l-.52-5.83-.52-6.04c-.05-.57-.52-1.01-1.1-1.01h-12.01c-.56,0-1.03-.43-1.08-.99l-.57-6.54-.09-1.01h19.85c.65,0,1.15-.55,1.1-1.19l-.42-4.85c-.04-.57-.52-1-1.09-1h-27.09c-.57,0-1.04-.44-1.09-1l-.62-7.04-.62-7.04c-.05-.57-.53-1-1.1-1h-6.03c-.57,0-1.04-.44-1.1-1l-.62-7.05-.61-7.04c-.05-.57-.53-1-1.1-1h-6.03c-.57,0-1.04-.44-1.1-1l-.53-6.04c-.05-.57-.52-1-1.1-1h-5.84c-.64,0-1.15.55-1.09,1.2l.49,5.65c.06.65-.45,1.2-1.09,1.2h-5.65c-.64,0-1.15.55-1.09,1.19l.49,5.65c.06.65-.45,1.2-1.09,1.2h-46.07c-.57,0-1.04-.44-1.1-1.01l-.52-6.03c-.05-.57-.52-1-1.1-1h-6.04c-.57,0-1.04-.44-1.1-1.01l-.52-6.03c-.05-.57-.52-1.01-1.09-1.01h-5.85c-.65,0-1.15.56-1.1,1.2l.5,5.65c.05.64-.45,1.2-1.1,1.2h-5.65c-.65,0-1.15.55-1.1,1.19l.59,6.85.6,6.86c.06.65-.45,1.2-1.1,1.2h-5.64c-.65,0-1.15.55-1.1,1.19l.6,6.85.71,8.04.7,8.05.03.33c.05.64-.45,1.18-1.08,1.18h-18.68c-.65,0-1.15.55-1.1,1.19ZM1214.65,1157.82v-8.45c0-.6.49-1.09,1.09-1.09h8.45c.6,0,1.09.49,1.09,1.09v8.45c0,.6-.49,1.09-1.09,1.09h-8.45c-.6,0-1.09-.49-1.09-1.09ZM1187.76,1174.34v-5.68c0-.6.49-1.09,1.09-1.09h5.24c.6,0,1.09-.49,1.09-1.09v-5.38c0-.6.49-1.09,1.09-1.09h5.68c.6,0,1.09.49,1.09,1.09v5.38c0,.6.49,1.09,1.09,1.09h5.71c.6,0,1.09.49,1.09,1.09v5.68c0,.6-.49,1.09-1.09,1.09h-20.98c-.6,0-1.09-.49-1.09-1.09ZM1177.69,1157.62v-8.07c0-.6.49-1.09,1.09-1.09h8.07c.6,0,1.09.49,1.09,1.09v8.07c0,.6-.49,1.09-1.09,1.09h-8.07c-.6,0-1.09-.49-1.09-1.09Z" fill="#86aa57"/><path d="M1141.85,1151.74l.42,4.86c.06.64-.45,1.18-1.08,1.18h-4.85c-.56,0-1.04-.43-1.08-.99l-.42-4.86c-.06-.64.45-1.18,1.08-1.18h4.85c.56,0,1.04.43,1.08.99Z" fill="#86aa57"/><path d="M1144.27,1179.41l-.42-4.86c-.06-.64.45-1.18,1.08-1.18h4.85c.56,0,1.04.43,1.08.99l.42,4.86c.06.64-.45,1.18-1.08,1.18h-4.85c-.56,0-1.04-.43-1.08-.99Z" fill="#86aa57"/><rect x="460.39" y="1251.39" width="0" height="8.86" fill="#86aa57"/><path d="M358,1340.82v33.77c0,.47.37.84.84.84h167.42c.44,0,.81-.37.81-.84v-33.77c0-.47-.37-.84-.81-.84h-12.44c-.44,0-.82-.37-.82-.84v-13.32c0-.47.37-.84.82-.84h12.13c.44,0,.82-.37.82-.84v-5.15c0-.47-.37-.84-.82-.84h-12.13c-.44,0-.82-.37-.82-.84v-5.1c0-.47.37-.84.82-.84h18.68c.44,0,.82-.37.82-.84v-5.17c0-.47-.37-.84-.82-.84h-36.21c-.44,0-.82-.37-.82-.82v-16.07c0-.47-.37-.84-.84-.84h-15.88c-.44,0-.81-.37-.81-.84v-16.05c0-.44-.37-.82-.82-.82h-15.91c-.44,0-.82-.37-.82-.84v-16.12c.02-.42.37-.77.82-.77h11.27c.47,0,.82-.37.82-.84v-16.05c0-.47-.35-.84-.82-.84h-15.88c-.47,0-.84.37-.84.84v7.17c0,.47-.37.84-.82.84h-11.27c-.44,0-.82.37-.82.84v7.2c0,.47-.37.84-.84.84h-15.88c-.44,0-.82.37-.82.84v16.05c0,.47-.37.84-.84.84h-15.88c-.47,0-.82.37-.82.82v16.05c0,.47-.37.84-.84.84h-15.88c-.47,0-.82.37-.82.84v16.07c0,.44-.37.82-.84.82h-15.88c-.44,0-.82.37-.82.84v33.77c0,.47-.37.84-.84.84h-13.04c-.47,0-.84.37-.84.84ZM475.65,1307.08c0-.47.37-.84.81-.84h8.36c.44,0,.81.37.81.84v8.43c0,.47-.37.84-.81.84h-8.36c-.44,0-.81-.37-.81-.84v-8.43ZM455.02,1325.52c0-.47.37-.84.82-.84h4.77c.47,0,.84-.37.84-.84v-5.57c0-.47.37-.84.82-.84h6.22c.47,0,.82.37.82.84v5.57c0,.47.37.84.84.84h3.98c.44,0,.82.37.82.84v5.87c0,.47-.37.84-.82.84h-18.28c-.44,0-.82-.37-.82-.84v-5.87ZM437.13,1307.08c0-.47.37-.84.84-.84h8.34c.47,0,.84.37.84.84v8.43c0,.47-.37.84-.84.84h-8.34c-.47,0-.84-.37-.84-.84v-8.43ZM401.36,1335.79c0-.47.35-.84.82-.84h4.26c.44,0,.82-.37.82-.84v-4.29c0-.47.37-.84.82-.84h20.77c.44,0,.82.37.82.84v4.29c0,.47-.37.84-.82.84h-20.77c-.44,0-.82.37-.82.84v4.29c0,.47-.37.84-.82.84h-4.26c-.47,0-.82-.37-.82-.84v-4.29ZM395.65,1323.92c0-.47.37-.84.82-.84h4.26c.44,0,.82-.37.82-.82v-4.31c0-.47.37-.84.84-.84h23.99c.47,0,.84.37.84.84v4.31c0,.44-.37.82-.84.82h-23.99c-.47,0-.84.37-.84.84v4.31c0,.47-.37.84-.82.84h-4.26c-.44,0-.82-.37-.82-.84v-4.31Z" fill="#86aa57"/><path d="M401.36,1335.79v4.29c0,.47.35.84.82.84h4.26c.44,0,.82-.37.82-.84v-4.29c0-.47.37-.84.82-.84h20.77c.44,0,.82-.37.82-.84v-4.29c0-.47-.37-.84-.82-.84h-20.77c-.44,0-.82.37-.82.84v4.29c0,.47-.37.84-.82.84h-4.26c-.47,0-.82.37-.82.84Z" fill="#171917"/><path d="M395.65,1323.92v4.31c0,.47.37.84.82.84h4.26c.44,0,.82-.37.82-.84v-4.31c0-.47.37-.84.84-.84h23.99c.47,0,.84-.37.84-.82v-4.31c0-.47-.37-.84-.84-.84h-23.99c-.47,0-.84.37-.84.84v4.31c0,.44-.37.82-.82.82h-4.26c-.44,0-.82.37-.82.84Z" fill="#171917"/><rect x="437.13" y="1306.24" width="10.01" height="10.11" rx=".84" ry=".84" fill="#171917"/><path d="M455.02,1325.52v5.87c0,.47.37.84.82.84h18.28c.44,0,.82-.37.82-.84v-5.87c0-.47-.37-.84-.82-.84h-3.98c-.47,0-.84-.37-.84-.84v-5.57c0-.47-.35-.84-.82-.84h-6.22c-.44,0-.82.37-.82.84v5.57c0,.47-.37.84-.84.84h-4.77c-.44,0-.82.37-.82.84Z" fill="#171917"/><path d="M475.65,1307.08v8.43c0,.47.37.84.81.84h8.36c.44,0,.81-.37.81-.84v-8.43c0-.47-.37-.84-.81-.84h-8.36c-.44,0-.81.37-.81.84Z" fill="#171917"/><polygon points="513 1375.43 513 1375.43 526.26 1375.43 513 1375.43" fill="#86aa57"/><polygon points="372.71 1375.43 372.71 1375.43 358.83 1375.43 372.71 1375.43" fill="#86aa57"/><rect x="533.28" y="1311.42" width="6.84" height="6.77" rx=".83" ry=".83" transform="translate(-778.1 1851.51) rotate(-90)" fill="#86aa57"/><path d="M526.78,1325.83v5.17c0,.46.37.83.82.83h5.12c.46,0,.82-.37.82-.83v-5.17c0-.46-.37-.83-.82-.83h-5.12c-.46,0-.82.37-.82.83Z" fill="#86aa57"/><path d="M321.33,845.65h-12.46c-.4,0-.72-.33-.72-.72v-12.46c0-.4-.33-.75-.74-.75h-26.36c-.42,0-.75-.33-.75-.72v-12.46c0-.4-.33-.72-.72-.72h-40.31c-.4,0-.72-.35-.72-.75v-12.44c0-.42-.33-.75-.75-.75h-40.29c-.4,0-.74.33-.74.75v12.44c0,.4-.33.75-.72.75h-26.39c-.4,0-.72.33-.72.72v12.46c0,.4-.33.72-.75.72h-26.36c-.42,0-.74.35-.74.75v12.46c0,.4-.33.72-.75.72h-12.44c-.4,0-.74-.33-.74-.72v-12.46c0-.4-.33-.75-.72-.75h-12.46c-.4,0-.72-.33-.72-.72v-12.46c0-.4-.35-.72-.74-.72h-12.44c-.42,0-.74.33-.74.72v26.39c0,.4.33.72.74.72h12.44c.4,0,.74.33.74.74v26.36c0,.42-.35.74-.74.74h-12.44c-.42,0-.74.33-.74.75v26.36c0,.4.33.72.74.72h12.44c.4,0,.74-.33.74-.72v-12.46c0-.4.33-.72.72-.72h12.46c.4,0,.72-.33.72-.74v-12.44c0-.42.35-.75.74-.75h12.44c.42,0,.75.33.75.75v12.44c0,.42.33.74.74.74h26.36c.42,0,.75.33.75.72v12.46c0,.4.33.72.72.72h40.31c.4,0,.72.35.72.74v12.46c0,.4.33.72.75.72h26.36c.42,0,.75-.33.75-.72v-12.46c0-.4.33-.74.72-.74h40.31c.4,0,.72-.33.72-.72v-12.46c0-.4.33-.72.75-.72h26.36c.42,0,.74-.33.74-.74v-12.44c0-.42.33-.75.72-.75h12.46c.42,0,.74-.33.74-.74v-26.36c0-.42-.33-.74-.74-.74ZM274.96,860.35c0,.4-.35.72-.74.72h-6.66c-.42,0-.75-.33-.75-.72v-6.68c0-.4.33-.72.75-.72h6.66c.4,0,.74.33.74.72v6.68ZM297.59,873.13c0,.42-.33.74-.75.74h-14.74c-.4,0-.75-.33-.75-.74v-4.61c0-.4.35-.72.75-.72h14.74c.42,0,.75.33.75.72v4.61ZM306.33,860.35c0,.4-.35.72-.75.72h-6.66c-.42,0-.74-.33-.74-.72v-6.68c0-.4.33-.72.74-.72h6.66c.4,0,.75.33.75.72v6.68Z" fill="#86aa57"/><path d="M543.17,261.41v55.72c0,1.07-1.04,1.84-2.49,1.84h-18.43c-1.45,0-2.49-.77-2.49-1.84v-131.81c0-1.07,1.04-1.84,2.49-1.84h98.79c1.45,0,2.49.77,2.49,1.84v13.01c0,1.07-1.04,1.84-2.49,1.84h-75.39c-1.45,0-2.49.76-2.49,1.84v39.04c0,1.07,1.04,1.84,2.49,1.84h55.3c1.45,0,2.49.77,2.49,1.84v13.01c0,1.07-1.04,1.84-2.49,1.84h-55.3c-1.45,0-2.49.76-2.49,1.84Z" fill="#83a656" stroke="#83a656" stroke-miterlimit="10" stroke-width="1.69"/><path d="M727.7,304.12v13.01c0,1.07-1.04,1.84-2.49,1.84h-58.61c-1.45,0-2.49-.77-2.49-1.84v-13.01c0-1.07,1.04-1.84,2.49-1.84h15.12c1.45,0,2.49-.77,2.49-1.84v-98.44c0-1.07-1.04-1.84-2.49-1.84h-15.12c-1.45,0-2.49-.77-2.49-1.84v-13.01c0-1.07,1.04-1.84,2.49-1.84h58.61c1.45,0,2.49.77,2.49,1.84v13.01c0,1.07-1.04,1.84-2.49,1.84h-15.12c-1.45,0-2.49.76-2.49,1.84v98.44c0,1.07,1.04,1.84,2.49,1.84h15.12c1.45,0,2.49.77,2.49,1.84Z" fill="#83a656" stroke="#83a656" stroke-miterlimit="10" stroke-width="1.69"/><path d="M802.05,231.71v85.42c0,1.07-1.04,1.84-2.49,1.84h-18.43c-1.45,0-2.49-.77-2.49-1.84v-131.81c0-1.07,1.04-1.84,2.49-1.84h18.43c1.45,0,2.49.77,2.49,1.84v26.03c0,1.07,1.04,1.84,2.49,1.84h15.12c1.45,0,2.49.76,2.49,1.84v11.18c0,1.07,1.04,1.84,2.49,1.84h15.12c1.45,0,2.49.77,2.49,1.84v11.18c0,1.07,1.04,1.84,2.49,1.84h11.8c1.45,0,2.49-.77,2.49-1.84v-55.73c0-1.07,1.04-1.84,2.49-1.84h18.43c1.45,0,2.49.77,2.49,1.84v131.81c0,1.07-1.04,1.84-2.49,1.84h-18.43c-1.45,0-2.49-.77-2.49-1.84v-55.72c0-1.07-1.04-1.84-2.49-1.84h-15.12c-1.45,0-2.49-.77-2.49-1.84v-11.18c0-1.07-1.04-1.84-2.49-1.84h-15.12c-1.45,0-2.49-.77-2.49-1.84v-11.18c0-1.07-1.04-1.84-2.49-1.84h-11.8c-1.45,0-2.49.77-2.49,1.84Z" fill="#83a656" stroke="#83a656" stroke-miterlimit="10" stroke-width="1.69"/><path d="M1014.34,228.32l-41.53,103.72c-.61,1.51.91,3.01,2.41,2.38l109.86-45.71c1.27-.53,1.53-2.21.48-3.1l-68.33-58c-.96-.81-2.43-.45-2.9.72Z" fill="#86aa57"/><path d="M1032.67,201.23l-13.53-29.53c-.18-.4-.22-.84-.1-1.26l8.27-29.52c.07-.25.19-.47.35-.67l19.56-23.77c.63-.77,1.76-.89,2.54-.29l7.45,5.76c.92.72.96,2.1.06,2.86l-9.19,7.77c-.12.1-.23.22-.32.35l-11.39,16.37c-.26.38-.38.84-.31,1.3l3.93,28.57c.05.4.23.76.51,1.04,2.1,2.1,11.07,11.29,7.63,11.76-3.21.44-10.69,20.24-13.18,27.07-.42,1.15-1.81,1.56-2.8.84l-5.88-4.28c-.8-.58-.99-1.68-.45-2.5l6.71-10.1c.35-.53.41-1.2.14-1.78Z" fill="#86aa57"/><path d="M1054.87,240.47l3.68-18.17c.3-1.5,2.21-1.99,3.2-.82l12.78,15.06c.91,1.07.33,2.73-1.06,2.99l-16.46,3.11c-1.28.24-2.4-.89-2.14-2.17Z" fill="#86aa57"/><path d="M1080.56,192.83l-17.03-20.42c-.98-1.18-.17-2.97,1.36-3.01l28.32-.79c1.41-.04,2.34,1.46,1.67,2.7l-11.29,21.21c-.61,1.15-2.2,1.32-3.03.31Z" fill="#86aa57"/><path d="M1080.58,256.69l19.42-21.57c.44-.48,1.09-.7,1.73-.57l24.33,4.93c.85.17,1.71-.27,2.05-1.07l8.28-19.15c.34-.8,1.2-1.24,2.05-1.07l18.49,3.74c.7.14,1.26.68,1.42,1.38l3.67,15.74c.28,1.21-.69,2.34-1.93,2.25l-9.75-.75c-.85-.07-1.55-.71-1.68-1.55l-1.14-7.34c-.2-1.3-1.67-1.97-2.79-1.28l-7.78,4.84c-.52.32-.84.88-.87,1.49l-.82,21.88c-.04,1.07-.97,1.87-2.03,1.76-4.38-.47-14.59-1.71-14.31-3.1.3-1.48-5.71-6.81-7.65-8.49-.38-.33-.87-.48-1.37-.43l-9.15.88c-.52.05-.99.32-1.3.73l-10.8,14.56c-.68.92-2.02,1-2.8.17l-5.25-5.5c-.66-.7-.68-1.78-.04-2.5Z" fill="#86aa57"/><path d="M1150.84,262.35l-8.45,15.56c-.8,1.48.65,3.18,2.23,2.61l10.68-3.83c.85-.31,1.35-1.18,1.19-2.07l-2.23-11.74c-.32-1.7-2.6-2.05-3.42-.53Z" fill="#86aa57"/><path d="M1140.76,190.62l-25.7,5.76c-1.84.41-3.03-1.88-1.64-3.15l22.4-20.5c1.04-.95,2.73-.42,3.03.95l3.3,14.75c.22.99-.4,1.97-1.39,2.19Z" fill="#86aa57"/></svg>