<?xml version="1.0" encoding="UTF-8"?><svg id="_レイヤー_1" xmlns="http://www.w3.org/2000/svg" width="453.26" height="404.59" viewBox="0 0 453.26 404.59"><path d="M449.83,167.86c0-.58-.48-1.06-1.06-1.07l-36.69-1.03c-.58-.02-1.05-.49-1.06-1.07l-.65-30.03c-.01-.59-.5-1.07-1.09-1.07l-117.96.44c.13-.19.21-.41.21-.66l-.26-14.07c-.01-.59-.5-1.07-1.09-1.07h-24.17l3.11-12.74,61.12-.03c.6,0,1.09-.49,1.09-1.09V1.09C331.31.49,330.82,0,330.22,0l-152.12.07c-.6,0-1.09.49-1.09,1.09v103.28c0,.6.49,1.09,1.09,1.09l69.02-.03-.97,12.73h-24.29c-.54,0-.99.39-1.08.92l-2.26,14c-.08.49.18.94.59,1.15l-180.62.68c-.6,0-1.08.48-1.09,1.08l-.27,28.9c0,.59-.49,1.07-1.08,1.08l-34.98.35c-.6,0-1.09.5-1.08,1.1l2.24,236.02c0,.6.49,1.08,1.09,1.08h52.81c.6,0,1.09-.49,1.09-1.09l-.3-204.52c0-.6.49-1.09,1.09-1.09l332.82-.08c.59,0,1.08.47,1.09,1.06l5.46,204.66c.02.59.5,1.06,1.09,1.06h53.69c.61,0,1.1-.5,1.09-1.11l-3.44-235.62Z" fill="#4f5b39"/><path d="M334.28,230.75l-12.01-1.11-20.4-1.2s-.04,0-.06,0h-168.26c-.43,0-.81.25-.99.63l-14.46,31.42c-.07.14-.1.3-.1.46v13.68c0,.6.49,1.09,1.09,1.09h93.43l-3.29,30.76-36.42,6.31c-.2.03-.38.12-.53.26l-20.91,18.36c-.2.17-.33.41-.36.67l-4.72,34.57h-8.55c-.38,0-.73.2-.93.52l-5.96,9.62c-.2.32-.22.71-.06,1.04l6.16,12.96c.12.25.32.44.58.54l7.84,3.15c.15.06.31.09.47.08l16.85-1.05c.26-.02.5-.12.69-.3l8.51-8.2c.37-.35.44-.91.18-1.35l-5.14-8.53,15.2-38.77c.14-.37.47-.63.86-.68l27.3-3.85c.6-.08,1.15.33,1.23.93l4.93,35.8h-4.93c-.55,0-1.01.41-1.08.96l-2.98,23.78c-.06.49.22.96.68,1.15l11.46,4.6c.15.06.31.09.47.08l18.51-1.15c.26-.02.5-.12.69-.3l9.41-9.06c.37-.35.44-.91.18-1.35l-8.78-14.58c-.12-.2-.31-.36-.53-.45l-.83-.33v-38.65c0-.44.27-.84.68-1.01l1.37-.57c.23-.1.5-.11.74-.03l26.59,8.2c.24.07.45.23.59.45l9.64,14.77c.09.14.15.31.17.48l1.4,12.97-4.18.59c-.37.05-.69.29-.84.64l-5.74,12.85c-.16.37-.11.8.14,1.12l5.67,7.25c.12.15.27.27.45.34l7.97,3.2c.15.06.31.09.47.08l16.85-1.05c.26-.02.5-.12.69-.3l8.64-8.32c.31-.3.41-.74.27-1.14l-4.55-13.08c-.12-.34-.39-.6-.74-.69l-3.55-1v-.95c0-.07,0-.14-.02-.21l-7.15-36.63c-.04-.23-.16-.43-.33-.59l-27.57-25.59c-.2-.19-.47-.29-.74-.29h-23.28l1.82-28.99h90.03c.6,0,1.09-.49,1.09-1.09v-42.79c0-.56-.43-1.03-.99-1.09Z" fill="#4f5b39"/></svg>