<?xml version="1.0" encoding="UTF-8"?><svg id="_レイヤー_1" xmlns="http://www.w3.org/2000/svg" width="2489.48" height="204.23" viewBox="0 0 2489.48 204.23"><path d="M136.33,21.96h-19.81c-1.24,0-2.15-.55-2.15-1.3V6.02c0-2.04-1.84-3.51-4.37-3.51H6.87c-2.53,0-4.36,1.48-4.36,3.51v172.74c0,2.04,1.83,3.51,4.36,3.51h24.16c2.53,0,4.36-1.48,4.36-3.51v-73.02c0-.75.9-1.3,2.15-1.3h68.12c1.25,0,2.15.55,2.15,1.3v73.02c0,2.04,1.83,3.51,4.36,3.51h24.16c2.53,0,4.37-1.48,4.37-3.51v-73.03c0-2.04-1.84-3.51-4.37-3.51h-19.81c-1.24,0-2.15-.55-2.15-1.3v-17.05c0-.75.9-1.3,2.15-1.3h19.81c2.53,0,4.37-1.48,4.37-3.52V25.48c0-2.04-1.84-3.51-4.37-3.51ZM107.81,27.88v51.16c0,.75-.9,1.3-2.15,1.3H37.54c-1.25,0-2.15-.55-2.15-1.3V27.88c0-.75.9-1.3,2.15-1.3h68.12c1.25,0,2.15.55,2.15,1.3Z" fill="#7ba84a"/><path d="M295.9,60.88h-24.16c-2.53,0-4.37,1.48-4.37,3.51v92.49c0,.75-.9,1.3-2.15,1.3h-41.8c-1.25,0-2.15-.55-2.15-1.3v-92.49c0-2.04-1.83-3.51-4.36-3.51h-24.16c-2.53,0-4.37,1.48-4.37,3.51v94.89c0,2.04,1.84,3.52,4.37,3.52h19.81c1.24,0,2.15.55,2.15,1.3v14.65c0,2.04,1.84,3.51,4.37,3.51h76.81c2.53,0,4.36-1.48,4.36-3.51v-114.35c0-2.04-1.83-3.51-4.36-3.51Z" fill="#7ba84a"/><path d="M456.46,80.34h-19.81c-1.25,0-2.15-.55-2.15-1.3v-14.65c0-2.04-1.83-3.51-4.36-3.51h-76.81c-2.53,0-4.36,1.48-4.36,3.51v114.35c0,2.04,1.83,3.51,4.36,3.51h24.16c2.53,0,4.36-1.48,4.36-3.51v-92.49c0-.75.9-1.3,2.15-1.3h41.8c1.24,0,2.15.55,2.15,1.3v92.49c0,2.04,1.84,3.51,4.37,3.51h24.16c2.53,0,4.37-1.48,4.37-3.51v-94.89c0-2.04-1.84-3.52-4.37-3.52Z" fill="#7ba84a"/><path d="M683.82,21.96h-19.81c-1.25,0-2.15-.55-2.15-1.3V6.02c0-2.04-1.83-3.51-4.36-3.51h-76.81c-2.53,0-4.37,1.48-4.37,3.51v14.65c0,.75-.9,1.3-2.15,1.3h-19.81c-2.53,0-4.37,1.48-4.37,3.51v153.27c0,2.04,1.84,3.51,4.37,3.51h24.16c2.53,0,4.36-1.48,4.36-3.51v-73.02c0-.75.9-1.3,2.15-1.3h68.12c1.25,0,2.15.55,2.15,1.3v73.02c0,2.04,1.84,3.51,4.37,3.51h24.16c2.53,0,4.37-1.48,4.37-3.51V25.48c0-2.04-1.84-3.51-4.37-3.51ZM655.29,27.88v51.16c0,.75-.9,1.3-2.15,1.3h-68.12c-1.25,0-2.15-.55-2.15-1.3V27.88c0-.75.9-1.3,2.15-1.3h68.12c1.25,0,2.15.55,2.15,1.3Z" fill="#7ba84a"/><path d="M869.17,60.88h-21.75c-2.02,0-5.97,1.06-5.97,3.51v53.57c0,.75-.9,1.3-2.15,1.3h-18.68c-1.25,0-2.15-.55-2.15-1.3v-53.57c0-2.04-1.83-3.51-4.36-3.51h-22.55c-2.53,0-4.37,1.48-4.37,3.51v53.57c0,.75-.9,1.3-2.15,1.3h-17.07c-1.76,0-3.62-.9-3.75-1.3v-53.57c0-2.45-3.95-3.51-5.97-3.51h-21.75c-2.53,0-4.36,1.48-4.36,3.51v55.97c0,2.04,1.83,3.52,4.36,3.52h19.82c1.24,0,2.15.55,2.15,1.3v53.57c0,2.04,1.84,3.51,4.37,3.51h24.16c2.53,0,4.36-1.48,4.36-3.51v-53.57c0-.75.9-1.3,2.15-1.3h18.42s.08.03.11.04c1.99.78,2.27,1.24,2.29,1.25v53.57c0,2.04,1.84,3.51,4.37,3.51h22.55c2.02,0,5.97-1.06,5.97-3.51v-53.57c0-.75.9-1.3,2.15-1.3h19.81c2.53,0,4.37-1.48,4.37-3.52v-55.97c0-2.04-1.84-3.51-4.37-3.51Z" fill="#7ba84a"/><path d="M1016.26,80.34h-19.81c-1.25,0-2.15-.55-2.15-1.3v-14.65c0-2.04-1.83-3.51-4.36-3.51h-50.48c-2.53,0-4.37,1.48-4.37,3.51v15.45c0,2.04,1.84,3.52,4.37,3.52h46.14c1.24,0,2.15.55,2.15,1.3v13.84c0,.75-.9,1.3-2.15,1.3h-46.14c-2.53,0-4.37,1.48-4.37,3.51v14.65c0,.75-.9,1.3-2.15,1.3h-19.82c-2.53,0-4.36,1.48-4.36,3.52v36.51c0,2.04,1.83,3.52,4.36,3.52h19.82c1.24,0,2.15.55,2.15,1.3v14.65c0,2.04,1.84,3.51,4.37,3.51h76.81c2.53,0,4.37-1.48,4.37-3.51v-94.89c0-2.04-1.84-3.52-4.37-3.52ZM987.74,125.19v31.7c0,.75-.9,1.3-2.15,1.3h-41.8c-1.25,0-2.15-.55-2.15-1.3v-31.7c0-.75.9-1.3,2.15-1.3h41.8c1.24,0,2.15.55,2.15,1.3Z" fill="#7ba84a"/><path d="M1172.88,60.88h-24.16c-2.53,0-4.37,1.48-4.37,3.51v73.02c0,.75-.9,1.3-2.15,1.3h-41.8c-1.25,0-2.15-.55-2.15-1.3v-73.02c0-2.04-1.83-3.51-4.36-3.51h-24.16c-2.53,0-4.36,1.48-4.36,3.51v75.43c0,2.04,1.83,3.51,4.36,3.51h19.82c1.24,0,2.15.55,2.15,1.3v13.04c0,2.04,1.84,3.52,4.37,3.52h46.14c1.24,0,2.15.55,2.15,1.3v13.84c0,.75-.9,1.3-2.15,1.3h-46.14c-2.53,0-4.37,1.48-4.37,3.51v17.05c0,2.04,1.84,3.52,4.37,3.52h50.48c2.53,0,4.36-1.48,4.36-3.52v-14.64c0-.75.9-1.3,2.15-1.3h19.81c2.53,0,4.37-1.48,4.37-3.51v-114.35c0-2.04-1.84-3.51-4.37-3.51Z" fill="#7ba84a"/><path d="M1388.3,2.5h-113.99c-2.53,0-4.37,1.48-4.37,3.51v172.74c0,2.04,1.84,3.51,4.37,3.51h24.16c2.53,0,4.36-1.48,4.36-3.51v-73.02c0-.75.9-1.3,2.15-1.3h69.38c2.53,0,4.36-1.48,4.36-3.51v-17.05c0-2.04-1.83-3.52-4.36-3.52h-69.38c-1.25,0-2.15-.55-2.15-1.3V27.88c0-.75.9-1.3,2.15-1.3h83.32c2.53,0,4.37-1.48,4.37-3.51V6.02c0-2.04-1.84-3.51-4.37-3.51Z" fill="#7ba84a"/><path d="M1519.04,60.88h-40.22c-2.53,0-4.37,1.48-4.37,3.51v14.65c0,.75-.9,1.3-2.15,1.3h-15.47c-1.25,0-2.15-.55-2.15-1.3v-14.65c0-2.04-1.83-3.51-4.36-3.51h-24.16c-2.53,0-4.37,1.48-4.37,3.51v114.35c0,2.04,1.84,3.51,4.37,3.51h24.16c2.53,0,4.36-1.48,4.36-3.51v-73.02c0-.75.9-1.3,2.15-1.3h19.81c2.53,0,4.36-1.48,4.36-3.51v-14.65c0-.75.9-1.3,2.15-1.3h35.88c2.53,0,4.36-1.48,4.36-3.52v-17.05c0-2.04-1.83-3.51-4.36-3.51Z" fill="#7ba84a"/><path d="M1655.78,80.34h-19.81c-1.25,0-2.15-.55-2.15-1.3v-14.65c0-2.04-1.83-3.51-4.36-3.51h-50.48c-2.53,0-4.37,1.48-4.37,3.51v14.65c0,.75-.9,1.3-2.15,1.3h-19.82c-2.53,0-4.36,1.48-4.36,3.52v75.43c0,2.04,1.83,3.52,4.36,3.52h19.82c1.24,0,2.15.55,2.15,1.3v14.65c0,2.04,1.84,3.51,4.37,3.51h50.48c2.53,0,4.36-1.48,4.36-3.51v-14.65c0-.75.9-1.3,2.15-1.3h19.81c2.53,0,4.37-1.48,4.37-3.52v-75.43c0-2.04-1.84-3.52-4.37-3.52ZM1627.26,86.27v70.62c0,.75-.9,1.3-2.15,1.3h-41.8c-1.25,0-2.15-.55-2.15-1.3v-70.62c0-.75.9-1.3,2.15-1.3h41.8c1.24,0,2.15.55,2.15,1.3Z" fill="#7ba84a"/><path d="M1831.28,80.34h-19.81c-1.25,0-2.15-.55-2.15-1.3v-14.65c0-2.04-1.83-3.51-4.36-3.51h-103.14c-2.53,0-4.37,1.48-4.37,3.51v114.35c0,2.04,1.84,3.51,4.37,3.51h22.55c2.53,0,4.36-1.48,4.36-3.51v-92.49c0-.75.9-1.3,2.15-1.3h18.68c1.24,0,2.15.55,2.15,1.3v92.49c0,2.04,1.84,3.51,4.37,3.51h20.95c2.53,0,4.36-1.48,4.36-3.51v-92.49c0-.75.9-1.3,2.15-1.3h18.68c1.24,0,2.15.55,2.15,1.3v92.49c0,2.04,1.84,3.51,4.37,3.51h22.55c2.53,0,4.37-1.48,4.37-3.51v-94.89c0-2.04-1.84-3.52-4.37-3.52Z" fill="#7ba84a"/><path d="M2058.05,3.21c-.62-.64-1.52-.71-2.14-.71h-22.55c-2.53,0-4.37,1.48-4.37,3.51v92.14c.01.27.02.62-.01.79-.08.02-.24.05-.53.05h-25.89c-.3,0-.46-.03-.53-.05-.03-.17-.03-.52-.02-.79V6.02c0-2.27-1.26-3.51-3.56-3.51h-26.56c-2.53,0-4.37,1.48-4.37,3.51v91.69c0,.49-1.38,1.3-2.95,1.3h-21.88c-1.25,0-2.15-.55-2.15-1.3V6.02c0-2.04-1.83-3.51-4.36-3.51h-22.55c-2.53,0-4.37,1.48-4.37,3.51v95.7c0,2.04,1.84,3.51,4.37,3.51h18.79c1.3,0,3.17,2.28,3.17,3.06v70.47c0,2.04,1.84,3.51,4.37,3.51h25.37c2.37,0,5.55-2.1,5.55-4.25v-71.49c0-.75.9-1.3,2.15-1.3h23.49c1.24,0,2.15.55,2.15,1.3v72.22c0,2.04,1.84,3.51,4.37,3.51h26.56c2.53,0,4.36-1.48,4.36-3.51v-72.2c.13-.42,1.99-1.32,3.75-1.32h18.21c.62,0,1.51-.07,2.14-.71.66-.68.65-1.59.63-2.39V6.02s0-.41,0-.41c.02-.8.03-1.72-.63-2.39Z" fill="#7ba84a"/><path d="M2202.64,80.34h-19.81c-1.25,0-2.15-.55-2.15-1.3v-14.65c0-2.04-1.83-3.51-4.36-3.51h-50.48c-2.53,0-4.37,1.48-4.37,3.51v14.65c0,.75-.9,1.3-2.15,1.3h-19.82c-2.53,0-4.36,1.48-4.36,3.52v75.43c0,2.04,1.84,3.52,4.36,3.52h19.82c1.24,0,2.15.55,2.15,1.3v14.65c0,2.04,1.84,3.51,4.37,3.51h50.48c2.53,0,4.36-1.48,4.36-3.51v-14.65c0-.75.9-1.3,2.15-1.3h19.81c2.53,0,4.37-1.48,4.37-3.52v-75.43c0-2.04-1.84-3.52-4.37-3.52ZM2174.12,86.27v70.62c0,.75-.9,1.3-2.15,1.3h-41.8c-1.25,0-2.15-.55-2.15-1.3v-70.62c0-.75.9-1.3,2.15-1.3h41.8c1.24,0,2.15.55,2.15,1.3Z" fill="#7ba84a"/><path d="M2436.47,102.82h19.81c2.53,0,4.36-1.48,4.36-3.51v-13.04c0-.75.9-1.3,2.15-1.3h19.81c2.53,0,4.37-1.48,4.37-3.52v-17.05c0-2.04-1.84-3.51-4.37-3.51h-24.16c-2.53,0-4.37,1.48-4.37,3.51v14.65c0,.75-.9,1.3-2.15,1.3h-19.81c-2.53,0-4.37,1.48-4.37,3.52v14.64c0,.75-.9,1.3-2.15,1.3h-15.47c-1.25,0-2.15-.55-2.15-1.3V25.48c0-2.04-1.83-3.51-4.36-3.51h-24.16c-2.53,0-4.36,1.48-4.36,3.51v153.27c0,2.04,1.84,3.51,4.36,3.51h24.16c2.53,0,4.36-1.48,4.36-3.51v-53.57c0-.75.9-1.3,2.15-1.3h15.47c1.24,0,2.15.55,2.15,1.36l.81,14.58c0,2.04,1.83,3.51,4.36,3.51h19c1.24,0,2.15.55,2.15,1.3v34.1c0,2.04,1.84,3.51,4.37,3.51h24.16c2.53,0,4.37-1.48,4.37-3.51v-36.51c0-2.04-1.84-3.51-4.37-3.51h-19.27c-1.24,0-2.15-.55-2.15-1.35l-.54-12.99c0-2.04-1.84-3.52-4.36-3.52h-19.81c-1.25,0-2.15-.55-2.15-1.3v-15.44c0-.75.9-1.3,2.15-1.3Z" fill="#7ba84a"/><path d="M2342.31,60.88h-40.22c-2.53,0-4.37,1.48-4.37,3.51v14.65c0,.75-.9,1.3-2.15,1.3h-15.47c-1.25,0-2.15-.55-2.15-1.3v-14.65c0-2.04-1.83-3.51-4.36-3.51h-24.16c-2.53,0-4.37,1.48-4.37,3.51v114.35c0,2.04,1.84,3.51,4.37,3.51h24.16c2.53,0,4.36-1.48,4.36-3.51v-73.02c0-.75.9-1.3,2.15-1.3h19.81c2.53,0,4.36-1.48,4.36-3.51v-14.65c0-.75.9-1.3,2.15-1.3h35.88c2.53,0,4.36-1.48,4.36-3.52v-17.05c0-2.04-1.83-3.51-4.36-3.51Z" fill="#7ba84a"/></svg>