<?xml version="1.0" encoding="UTF-8"?><svg id="_レイヤー_1" xmlns="http://www.w3.org/2000/svg" width="576.87" height="576.87" viewBox="0 0 576.87 576.87"><path d="M130.18,227.57v-95.69c0-.93-.76-1.69-1.69-1.69h-45.31c-.93,0-1.69.76-1.69,1.69v191.38c0,.93.76,1.69,1.69,1.69h45.31c.93,0,1.69-.76,1.69-1.69v-95.69Z" fill="#7caa4a"/><rect x="324.95" y="130.18" width="48.69" height="48.69" rx="1.69" ry="1.69" fill="#7caa4a"/><path d="M227.57,130.18h95.69c.93,0,1.69-.76,1.69-1.69v-45.31c0-.93-.76-1.69-1.69-1.69h-191.38c-.93,0-1.69.76-1.69,1.69v45.31c0,.93.76,1.69,1.69,1.69h95.69Z" fill="#7caa4a"/><rect x="130.18" y="324.95" width="48.69" height="48.69" rx="1.69" ry="1.69" fill="#7caa4a"/><path d="M251.91,349.3v-95.69c0-.93-.76-1.69-1.69-1.69h-45.31c-.93,0-1.69.76-1.69,1.69v191.38c0,.93.76,1.69,1.69,1.69h45.31c.93,0,1.69-.76,1.69-1.69v-95.69Z" fill="#7caa4a"/><path d="M448.37,251.91c-.93,0-1.69.76-1.69,1.69v191.38c0,.93.76,1.69,1.69,1.69h45.31c.93,0,1.69-.76,1.69-1.69v-191.38c0-.93-.76-1.69-1.69-1.69h-45.31Z" fill="#7caa4a"/><path d="M349.3,251.91h95.69c.93,0,1.69-.76,1.69-1.69v-45.31c0-.93-.76-1.69-1.69-1.69h-191.38c-.93,0-1.69.76-1.69,1.69v45.31c0,.93.76,1.69,1.69,1.69h95.69Z" fill="#7caa4a"/><path d="M349.3,446.68h-95.69c-.93,0-1.69.76-1.69,1.69v45.31c0,.93.76,1.69,1.69,1.69h191.38c.93,0,1.69-.76,1.69-1.69v-45.31c0-.93-.76-1.69-1.69-1.69h-95.69Z" fill="#7caa4a"/></svg>