<?xml version="1.0" encoding="UTF-8"?><svg id="_レイヤー_1" xmlns="http://www.w3.org/2000/svg" width="1074.27" height="1382.66" viewBox="0 0 1074.27 1382.66"><ellipse cx="540" cy="1007.97" rx="199.75" ry="43.38" fill="#3b442c"/><rect x="404.14" y="843.89" width="10.66" height="10.66" rx=".86" ry=".86" fill="#86aa57"/><rect x="414.8" y="878.16" width="10.66" height="10.66" rx=".86" ry=".86" fill="#86aa57"/><path d="M665.21,834.09v8.94c0,.47-.38.86-.86.86h-25.39c-.47,0-.86.38-.86.86v11.23c0,.47.38.86.86.86h14.73c.47,0,.86.38.86.86v19.6c0,.47-.38.86-.86.86h-8.94c-.47,0-.86-.38-.86-.86v-8.94c0-.47-.38-.86-.86-.86h-16.25c-.47,0-.86.38-.86.86v10.47c0,.47-.38.86-.86.86h-10.47c-.47,0-.86.38-.86.86v10.47c0,.47-.38.86-.86.86h-22.65c-.47,0-.86.38-.86.86v10.46c0,.47,11.33.86,11.33.86.47,0,.86.38.86.86v10.47c0,.47.38.86.86.86h10.46c.47,0,.86.38.86.86v22.65c0,.47-.38.86-.86.86h-10.46c-.47,0-.86-.38-.86-.86v-10.47c0-.47-.38-.86-.86-.86h-22.65c-.47,0-.86.38-.86.86v83.58c0,.47-.38.86-.86.86h-10.46c-.47,0-.86-.38-.86-.86v-22.65c0-.47-.38-.86-.86-.86h-10.47c-.47,0-.86-.38-.86-.86v-10.47c0-.47-.38-.86-.86-.86h-22.65c-.47,0-.86.38-.86.86v10.47c0,.47-.38.86-.86.86h-10.47c-.47,0-.86.38-.86.86v11.32h-.19c.11,0,.19.09.19.19v11.13c0,.47-.38.86-.86.86h-10.46c-.47,0-.86-.38-.86-.86v-11.13c0-.11.09-.19.19-.19h-.19v-72.25c0-.47-.38-.86-.86-.86h-22.65c-.47,0-.86.38-.86.86v10.47c0,.47-.38.86-.86.86h-10.46c-.47,0-.86-.38-.86-.86v-22.65c0-.47.38-.86.86-.86h10.46c.47,0,.86-.38.86-.86v-10.47c0-.47.38-.86.86-.86h10.47c.47,0,.86-.38.86-.86v-10.46c0-.47-.38-.86-.86-.86h-22.65c-.47,0-.86-.38-.86-.86v-10.47c0-.47-.38-.86-.86-.86h-10.47c-.47,0-.86-.38-.86-.86v-10.47c0-.47-.38-.86-.86-.86h-17.47c-.47,0-.86.38-.86.86v8.94c0,.47-.38.86-.86.86h-8.94c-.47,0-.86-.38-.86-.86v-19.6c0-.47.38-.86.86-.86h15.95c.47,0,.86-.38.86-.86v-11.23c0-.47-.38-.86-.86-.86h-26.61c-.47,0-.86-.38-.86-.86v-8.94c0-.47.38-.86.86-.86h26.61c.47,0,.86-.38.86-.86v-37.12c0-.47.38-.86.86-.86h10.47c.47,0,.86-.38.86-.86v-10.46c0-.47.38-.86.86-.86h10.47c.47,0,.86-.38.86-.86v-22.65c0-.47.38-.86.86-.86h10.46c.47,0,.86-.38.86-.86v-10.46c0-.47.38-.86.86-.86h10.47c.47,0,.86.38.86.86v10.46c0,.47.38.86.86.86h10.47c.47,0,.86.38.86.86v10.47c0,.47.38.86.86.86h71.39c.47,0,.86-.38.86-.86v-10.47c0-.47.38-.86.86-.86h10.47c.47,0,.86-.38.86-.86v-10.46c0-.47.38-.86.86-.86h10.47c.47,0,.86.38.86.86v10.46c0,.47.38.86.86.86h10.46c.47,0,.86.38.86.86v22.65c0,.47.38.86.86.86h10.47c.47,0,.86.38.86.86v10.46c0,.47.38.86.86.86h10.47c.47,0,.86.38.86.86v37.12c0,.47.38.86.86.86h25.39c.47,0,.86.38.86.86Z" fill="#86aa57"/><rect x="665.21" y="843.89" width="10.66" height="10.66" rx=".86" ry=".86" fill="#86aa57"/><rect x="654.55" y="878.16" width="10.66" height="10.66" rx=".86" ry=".86" fill="#86aa57"/><path d="M371.79,774.85c1.48-.16,2-2.06.79-2.93-6.72-4.89-21.98-15.2-28.35-13-8.29,2.86-10.28,13.52-3.27,15.04,6.57,1.43,11.63,3,30.83.89Z" fill="#86aa57"/><path d="M367.04,883.65c1.12-.98.46-2.83-1.03-2.86-8.31-.17-26.72.09-30.7,5.53-5.17,7.09-.72,16.97,5.91,14.21,6.21-2.58,11.26-4.18,25.81-16.89Z" fill="#86aa57"/><path d="M703.68,891.42c-1.47-.22-2.46,1.47-1.52,2.63,5.24,6.46,17.33,20.34,24.06,19.86,8.75-.63,13.41-10.42,7.03-13.69-5.98-3.07-10.46-5.89-29.56-8.79Z" fill="#86aa57"/><path d="M711.96,780.32c-.71,1.31.55,2.81,1.96,2.32,7.85-2.74,25.02-9.4,26.84-15.89,2.38-8.45-5.25-16.15-10.5-11.26-4.92,4.59-9.09,7.84-18.3,24.82Z" fill="#86aa57"/><path d="M531.31,551.6h-11.32c-1.34,0-2.31.78-2.31,1.86v41.59c0,.13-.28.3-.75.3h-7.25c-.46,0-.75-.18-.75-.3v-41.59c0-1.08-.97-1.86-2.31-1.86h-11.32c-1.34,0-2.31.78-2.31,1.86v41.59c0,.13-.28.3-.75.3h-7.25c-.46,0-.75-.18-.75-.3v-41.59c0-1.08-.97-1.86-2.31-1.86h-11.32c-1.34,0-2.31.78-2.31,1.86v42.67c0,1.08.97,1.86,2.31,1.86h9.29c.46,0,.75.18.75.3v32.84c0,1.08.97,1.86,2.31,1.86h11.32c1.34,0,2.31-.78,2.31-1.86v-32.84c0-.13.28-.3.75-.3h7.25c.46,0,.75.18.75.3v32.84c0,1.08.97,1.86,2.31,1.86h11.33c1.34,0,2.31-.78,2.31-1.86v-32.84c0-.13.28-.3.75-.3h9.29c1.34,0,2.31-.78,2.31-1.86v-42.67c0-1.08-.97-1.86-2.31-1.86Z" fill="#4f5b39"/><path d="M610.4,559.39h-9.18c-.4,0-.72-.15-.72-.33v-6.79c0-1.1-.97-1.9-2.3-1.9h-35.6c-1.33,0-2.3.8-2.3,1.9v6.79c0,.18-.32.33-.72.33h-9.18c-1.33,0-2.3.8-2.3,1.9v62.03c0,1.1.97,1.9,2.3,1.9h9.18c.4,0,.72.15.72.33v6.79c0,1.1.97,1.9,2.3,1.9h35.6c1.33,0,2.3-.8,2.3-1.9v-6.79c0-.18.32-.33.72-.33h9.18c1.33,0,2.29-.8,2.29-1.9v-62.03c0-1.1-.96-1.9-2.29-1.9ZM596.91,562.4v59.79c0,.18-.32.33-.72.33h-31.57c-.4,0-.72-.15-.72-.33v-59.79c0-.18.32-.33.72-.33h31.57c.4,0,.72.15.72.33Z" fill="#4f5b39"/><path d="M529.16,658.58h-8.63c-.38,0-.68-.14-.68-.31v-6.38c0-1.04-.91-1.79-2.16-1.79h-44.93c-1.25,0-2.16.75-2.16,1.79v75.25c0,1.04.91,1.79,2.16,1.79h10.52c1.25,0,2.16-.75,2.16-1.79v-31.81c0-.17.3-.31.68-.31h29.68c.37,0,.68.14.68.31v31.81c0,1.04.91,1.79,2.16,1.79h10.52c1.25,0,2.16-.75,2.16-1.79v-32.86c0-1.04-.91-1.79-2.16-1.79h-8.63c-.38,0-.68-.14-.68-.31v-5.33c0-.17.3-.31.68-.31h8.63c1.25,0,2.16-.75,2.16-1.79v-24.39c0-1.04-.91-1.79-2.16-1.79ZM516.48,661.42v22.29c0,.17-.3.31-.68.31h-29.68c-.38,0-.68-.14-.68-.31v-22.29c0-.17.3-.31.68-.31h29.68c.37,0,.68.14.68.31Z" fill="#4f5b39"/><path d="M609.56,650.11h-10.52c-1.25,0-2.16.75-2.16,1.79v6.38c0,.17-.3.31-.68.31h-8.63c-1.25,0-2.16.75-2.16,1.79v6.38c0,.17-.3.31-.68.31h-8.63c-1.25,0-2.16.75-2.16,1.79v6.38c0,.17-.3.31-.68.31h-6.74c-.38,0-.68-.14-.68-.31v-23.34c0-1.04-.91-1.79-2.16-1.79h-10.52c-1.25,0-2.16.75-2.16,1.79v75.25c0,1.04.91,1.79,2.16,1.79h10.52c1.25,0,2.16-.75,2.16-1.79v-40.29c0-.17.3-.31.68-.31h6.74c.38,0,.68.14.68.31v6.38c0,1.04.91,1.79,2.16,1.79h8.63c.38,0,.68.14.68.31v14.86c0,1.04.91,1.79,2.16,1.79h8.63c.37,0,.68.14.68.31v14.86c0,1.04.91,1.79,2.16,1.79h10.52c1.25,0,2.16-.75,2.16-1.79v-15.91c0-1.04-.91-1.79-2.16-1.79h-8.63c-.38,0-.68-.14-.68-.31v-14.86c0-1.04-.91-1.79-2.16-1.79h-8.63c-.37,0-.68-.14-.68-.31v-6.38c0-1.04-.91-1.79-2.16-1.79h-8.63c-.38,0-.68-.14-.68-.31v-5.33c0-.17.3-.31.68-.31h8.63c1.25,0,2.16-.75,2.16-1.79v-6.38c0-.17.3-.31.68-.31h8.63c1.25,0,2.16-.75,2.16-1.79v-6.38c0-.17.3-.31.68-.31h8.63c1.25,0,2.16-.75,2.16-1.79v-7.43c0-1.04-.91-1.79-2.16-1.79Z" fill="#4f5b39"/><path d="M638,359.28l-10.66-3.82c-1.26-.45-2.43-.04-2.8.98l-14.01,39.16c-.04.12-.37.19-.81.03l-6.83-2.44c-.44-.16-.64-.42-.6-.54l14.01-39.16c.36-1.02-.29-2.08-1.54-2.53l-10.66-3.82c-1.26-.45-2.43-.04-2.8.98l-14.01,39.16c-.04.12-.37.19-.81.03l-6.83-2.44c-.44-.16-.65-.42-.6-.54l14.01-39.16c.36-1.02-.29-2.08-1.54-2.53l-10.66-3.82c-1.26-.45-2.43-.04-2.8.98l-14.37,40.17c-.36,1.02.29,2.08,1.54,2.53l8.75,3.13c.44.16.64.42.6.54l-11.06,30.92c-.36,1.02.29,2.08,1.54,2.53l10.66,3.82c1.26.45,2.43.04,2.8-.98l11.06-30.92c.04-.12.37-.19.81-.03l6.83,2.44c.44.16.65.42.6.54l-11.06,30.92c-.36,1.02.29,2.08,1.54,2.53l10.66,3.82c1.26.45,2.43.04,2.8-.98l11.06-30.92c.04-.12.37-.19.81-.03l8.75,3.13c1.26.45,2.43.04,2.8-.98l14.37-40.17c.36-1.02-.29-2.08-1.54-2.53Z" fill="#4f5b39"/><path d="M709.84,393.26l-8.65-3.09c-.38-.13-.63-.38-.57-.55l2.29-6.39c.37-1.04-.27-2.12-1.52-2.56l-33.52-11.99c-1.25-.45-2.43-.02-2.8,1.02l-2.29,6.39c-.06.17-.42.2-.79.07l-8.65-3.09c-1.25-.45-2.43-.02-2.8,1.02l-20.9,58.4c-.37,1.04.27,2.12,1.52,2.56l8.65,3.09c.38.13.63.38.57.55l-2.29,6.39c-.37,1.04.27,2.12,1.52,2.56l33.52,11.99c1.25.45,2.43.02,2.8-1.02l2.29-6.39c.06-.17.42-.2.79-.07l8.65,3.09c1.25.45,2.43.02,2.8-1.02l20.9-58.4c.37-1.04-.27-2.12-1.52-2.56ZM696.12,391.55l-20.14,56.3c-.06.17-.42.2-.79.07l-29.73-10.64c-.38-.13-.63-.38-.57-.55l20.14-56.3c.06-.17.42-.2.79-.07l29.73,10.64c.38.13.63.38.57.55Z" fill="#4f5b39"/><path d="M599.93,459.28l-8.13-2.91c-.35-.13-.59-.36-.54-.52l2.15-6.01c.35-.98-.25-1.99-1.43-2.41l-42.3-15.14c-1.18-.42-2.28-.02-2.63.96l-25.35,70.85c-.35.98.25,1.99,1.43,2.41l9.91,3.54c1.18.42,2.28.02,2.63-.96l10.72-29.95c.06-.16.39-.19.74-.06l27.94,10c.35.13.59.36.54.52l-10.72,29.95c-.35.98.25,1.99,1.43,2.41l9.91,3.54c1.18.42,2.28.02,2.63-.96l11.07-30.94c.35-.98-.25-1.99-1.43-2.41l-8.13-2.91c-.35-.13-.59-.36-.54-.52l1.8-5.02c.06-.16.39-.19.74-.06l8.13,2.91c1.18.42,2.28.02,2.63-.96l8.22-22.96c.35-.98-.25-1.99-1.43-2.41ZM587.04,457.68l-7.51,20.98c-.06.16-.39.19-.74.06l-27.94-10c-.35-.13-.59-.36-.54-.52l7.51-20.98c.06-.16.39-.19.74-.06l27.94,10c.35.13.59.36.54.52Z" fill="#4f5b39"/><path d="M678.49,478.39l-9.91-3.54c-1.18-.42-2.28-.02-2.63.96l-2.15,6.01c-.06.16-.39.19-.74.06l-8.13-2.91c-1.18-.42-2.28-.02-2.63.96l-2.15,6.01c-.06.16-.39.19-.74.06l-8.13-2.91c-1.18-.42-2.28-.02-2.63.96l-2.15,6.01c-.06.16-.39.19-.74.06l-6.35-2.27c-.35-.13-.59-.36-.54-.52l7.86-21.97c.35-.98-.25-1.99-1.43-2.41l-9.91-3.54c-1.18-.42-2.28-.02-2.63.96l-25.35,70.85c-.35.98.25,1.99,1.43,2.41l9.91,3.54c1.18.42,2.28.02,2.63-.96l13.57-37.94c.06-.16.39-.19.74-.06l6.35,2.27c.35.13.59.36.54.52l-2.15,6.01c-.35.98.25,1.99,1.43,2.41l8.13,2.91c.35.13.59.36.54.52l-5.01,13.99c-.35.98.25,1.99,1.43,2.41l8.13,2.91c.35.13.59.36.54.52l-5.01,13.99c-.35.98.25,1.99,1.43,2.41l9.91,3.54c1.18.42,2.28.02,2.63-.96l5.36-14.98c.35-.98-.25-1.99-1.43-2.41l-8.13-2.91c-.35-.13-.59-.36-.54-.52l5.01-13.99c.35-.98-.25-1.99-1.43-2.41l-8.13-2.91c-.35-.13-.59-.36-.54-.52l2.15-6.01c.35-.98-.25-1.99-1.43-2.41l-8.13-2.91c-.35-.13-.59-.36-.54-.52l1.8-5.02c.06-.16.39-.19.74-.06l8.13,2.91c1.18.42,2.28.02,2.63-.96l2.15-6.01c.06-.16.39-.19.74-.06l8.13,2.91c1.18.42,2.28.02,2.63-.96l2.15-6.01c.06-.16.39-.19.74-.06l8.13,2.91c1.18.42,2.28.02,2.63-.96l2.5-6.99c.35-.98-.25-1.99-1.43-2.41Z" fill="#4f5b39"/><path d="M308.2,1176.81h-10.94c-1.3,0-2.24.78-2.24,1.86v24.27c0,.18-.32.32-.71.32h-8.98c-1.3,0-2.24.78-2.24,1.86v15.27c0,.18-.32.32-.71.32h-7.01c-.39,0-.71-.14-.71-.32v-15.27c0-1.08-.94-1.86-2.24-1.86h-8.98c-.39,0-.71-.14-.71-.32v-24.27c0-1.08-.94-1.86-2.24-1.86h-10.94c-1.3,0-2.24.78-2.24,1.86v25.36c0,1.08.94,1.86,2.24,1.86h8.98c.39,0,.71.14.71.32v15.27c0,1.08.94,1.86,2.24,1.86h8.97c.39,0,.71.14.71.32v33.27c0,1.08.94,1.86,2.24,1.86h10.94c1.3,0,2.24-.78,2.24-1.86v-33.08c0-.18.32-.32.71-.32h8.98c1.3,0,2.24-.78,2.24-1.86v-15.45c0-.18.32-.32.71-.32h8.98c1.3,0,2.24-.78,2.24-1.86v-25.36c0-1.08-.94-1.86-2.24-1.86Z" fill="#86aa57"/><path d="M391.81,1185.63h-8.98c-.39,0-.71-.14-.71-.32v-6.64c0-1.08-.94-1.86-2.24-1.86h-34.8c-1.3,0-2.24.78-2.24,1.86v6.64c0,.18-.32.32-.71.32h-8.98c-1.3,0-2.24.78-2.24,1.86v60.63c0,1.08.94,1.86,2.24,1.86h8.98c.39,0,.71.14.71.32v6.64c0,1.08.94,1.86,2.24,1.86h34.8c1.3,0,2.24-.78,2.24-1.86v-6.64c0-.18.32-.32.71-.32h8.98c1.3,0,2.24-.78,2.24-1.86v-60.63c0-1.08-.94-1.86-2.24-1.86ZM347.05,1188.26h30.86c.39,0,.71.14.71.32v58.44c0,.18-.32.32-.71.32h-30.86c-.39,0-.71-.14-.71-.32v-58.44c0-.18.32-.32.71-.32Z" fill="#86aa57"/><path d="M475.42,1176.81h-10.94c-1.3,0-2.24.78-2.24,1.86v68.35c0,.18-.32.32-.71.32h-30.86c-.39,0-.71-.14-.71-.32v-68.35c0-1.08-.94-1.86-2.24-1.86h-10.94c-1.3,0-2.24.78-2.24,1.86v69.44c0,1.08.94,1.86,2.24,1.86h8.98c.39,0,.71.14.71.32v6.64c0,1.08.94,1.86,2.24,1.86h34.8c1.3,0,2.24-.78,2.24-1.86v-6.64c0-.18.32-.32.71-.32h8.98c1.3,0,2.24-.78,2.24-1.86v-69.44c0-1.08-.94-1.86-2.24-1.86Z" fill="#86aa57"/><path d="M579.23,1176.81h-10.94c-1.3,0-2.24.78-2.24,1.86v6.64c0,.18-.32.32-.71.32h-8.98c-1.3,0-2.24.78-2.24,1.86v6.64c0,.18-.32.32-.71.32h-7.01c-.39,0-.71-.14-.71-.32v-6.64c0-1.08-.94-1.86-2.24-1.86h-8.98c-.39,0-.71-.14-.71-.32v-6.64c0-1.08-.94-1.86-2.24-1.86h-10.94c-1.3,0-2.24.78-2.24,1.86v78.26c0,1.08.94,1.86,2.24,1.86h10.94c1.3,0,2.24-.78,2.24-1.86v-59.53c0-.18.32-.32.71-.32h7.01c.39,0,.71.14.71.32v6.63c0,1.08.94,1.86,2.24,1.86h10.94c1.3,0,2.24-.78,2.24-1.86v-6.63c0-.18.32-.32.71-.32h7.01c.39,0,.71.14.71.32v59.53c0,1.08.94,1.86,2.24,1.86h10.94c1.3,0,2.24-.78,2.24-1.86v-78.26c0-1.08-.94-1.86-2.24-1.86Z" fill="#86aa57"/><path d="M662.84,1176.81h-10.94c-1.3,0-2.24.78-2.24,1.86v68.35c0,.18-.32.32-.71.32h-30.86c-.39,0-.71-.14-.71-.32v-68.35c0-1.08-.94-1.86-2.24-1.86h-10.94c-1.3,0-2.24.78-2.24,1.86v69.44c0,1.08.94,1.86,2.24,1.86h8.98c.39,0,.71.14.71.32v6.64c0,1.08.94,1.86,2.24,1.86h34.8c1.3,0,2.24-.78,2.24-1.86v-6.64c0-.18.32-.32.71-.32h8.98c1.3,0,2.24-.78,2.24-1.86v-69.44c0-1.08-.94-1.86-2.24-1.86Z" fill="#86aa57"/><path d="M746.45,1185.63h-8.98c-.39,0-.71-.14-.71-.32v-6.64c0-1.08-.94-1.86-2.24-1.86h-34.8c-1.3,0-2.24.78-2.24,1.86v6.64c0,.18-.32.32-.71.32h-8.98c-1.3,0-2.24.78-2.24,1.86v25.36c0,1.08.94,1.86,2.24,1.86h8.98c.39,0,.71.14.71.32v6.64c0,1.08.94,1.86,2.24,1.86h32.83c.39,0,.71.14.71.32v23.18c0,.18-.32.32-.71.32h-30.86c-.39,0-.71-.14-.71-.32v-6.64c0-1.08-.94-1.86-2.24-1.86h-10.94c-1.3,0-2.24.78-2.24,1.86v7.73c0,1.08.94,1.86,2.24,1.86h8.98c.39,0,.71.14.71.32v6.64c0,1.08.94,1.86,2.24,1.86h34.8c1.3,0,2.24-.78,2.24-1.86v-6.64c0-.18.32-.32.71-.32h8.98c1.3,0,2.24-.78,2.24-1.86v-25.36c0-1.08-.94-1.86-2.24-1.86h-8.98c-.39,0-.71-.14-.71-.32v-6.63c0-1.08-.94-1.86-2.24-1.86h-32.83c-.39,0-.71-.14-.71-.32v-23.18c0-.18.32-.32.71-.32h30.86c.39,0,.71.14.71.32v6.64c0,1.08.94,1.86,2.24,1.86h10.94c1.3,0,2.24-.78,2.24-1.86v-7.73c0-1.08-.94-1.86-2.24-1.86Z" fill="#86aa57"/><path d="M824.72,1176.81h-58.65c-1.3,0-2.24.78-2.24,1.86v7.73c0,1.08.94,1.86,2.24,1.86h20.9c.39,0,.71.14.71.32v68.35c0,1.08.94,1.86,2.24,1.86h10.94c1.3,0,2.24-.78,2.24-1.86v-68.35c0-.18.32-.32.71-.32h20.9c1.3,0,2.24-.78,2.24-1.86v-7.73c0-1.08-.94-1.86-2.24-1.86Z" fill="#86aa57"/><path d="M520.95,1309.5h-8.98c-.39,0-.71-.14-.71-.32v-6.64c0-1.08-.94-1.86-2.24-1.86h-34.8c-1.3,0-2.24.78-2.24,1.86v6.64c0,.18-.32.32-.71.32h-8.97c-1.3,0-2.24.78-2.24,1.86v60.63c0,1.08.94,1.86,2.24,1.86h8.97c.39,0,.71.14.71.32v6.64c0,1.08.94,1.86,2.24,1.86h34.8c1.3,0,2.24-.78,2.24-1.86v-6.64c0-.18.32-.32.71-.32h8.98c1.3,0,2.24-.78,2.24-1.86v-60.63c0-1.08-.94-1.86-2.24-1.86ZM476.19,1312.13h30.86c.39,0,.71.14.71.32v58.44c0,.18-.32.32-.71.32h-30.86c-.39,0-.71-.14-.71-.32v-58.44c0-.18.32-.32.71-.32Z" fill="#86aa57"/><path d="M604.56,1309.5h-8.98c-.39,0-.71-.14-.71-.32v-6.64c0-1.08-.94-1.86-2.24-1.86h-46.72c-1.3,0-2.24.78-2.24,1.86v78.26c0,1.08.94,1.86,2.24,1.86h10.94c1.3,0,2.24-.78,2.24-1.86v-33.08c0-.18.32-.32.71-.32h30.86c.39,0,.71.14.71.32v33.08c0,1.08.94,1.86,2.24,1.86h10.94c1.3,0,2.24-.78,2.24-1.86v-34.18c0-1.08-.94-1.86-2.24-1.86h-8.98c-.39,0-.71-.14-.71-.32v-5.54c0-.16.28-.32.71-.32h8.98c1.3,0,2.24-.78,2.24-1.86v-25.36c0-1.08-.94-1.86-2.24-1.86ZM591.37,1312.45v23.18c0,.18-.32.32-.71.32h-30.86c-.39,0-.71-.14-.71-.32v-23.18c0-.18.32-.32.71-.32h30.86c.39,0,.71.14.71.32Z" fill="#86aa57"/><path d="M655.34,1329.76h8.98c1.3,0,2.24-.78,2.24-1.86v-6.63c0-.18.32-.32.71-.32h8.98c1.3,0,2.24-.78,2.24-1.86v-6.64c0-.18.32-.32.71-.32h8.98c1.3,0,2.24-.78,2.24-1.86v-7.73c0-1.08-.94-1.86-2.24-1.86h-10.94c-1.3,0-2.24.78-2.24,1.86v6.64c0,.18-.32.32-.71.32h-8.98c-1.3,0-2.24.78-2.24,1.86v6.64c0,.18-.32.32-.71.32h-8.98c-1.3,0-2.24.78-2.24,1.86v6.63c0,.18-.32.32-.71.32h-7.01c-.39,0-.71-.14-.71-.32v-24.27c0-1.08-.94-1.86-2.24-1.86h-10.94c-1.3,0-2.24.78-2.24,1.86v78.26c0,1.08.94,1.86,2.24,1.86h10.94c1.3,0,2.24-.78,2.24-1.86v-41.9c0-.18.32-.32.71-.32h7.01c.42,0,.71.17.71.32v6.64c0,1.08.94,1.86,2.24,1.86h8.98c.39,0,.71.14.71.32v15.45c0,1.08.94,1.86,2.24,1.86h8.98c.39,0,.71.14.71.32v15.45c0,1.08.94,1.86,2.24,1.86h10.94c1.3,0,2.24-.78,2.24-1.86v-16.54c0-1.08-.94-1.86-2.24-1.86h-8.98c-.39,0-.71-.14-.71-.32v-15.45c0-1.08-.94-1.86-2.24-1.86h-8.98c-.39,0-.71-.14-.71-.32v-6.63c0-1.08-.94-1.86-2.24-1.86h-8.98c-.39,0-.71-.14-.71-.32v-5.54c0-.18.32-.32.71-.32Z" fill="#86aa57"/><path d="M438.8,1300.68h-11.41c-1.34,0-2.31.78-2.31,1.86v41.9c0,.13-.27.32-.77.32h-8.59c-.5,0-.77-.19-.77-.32v-41.9c0-1.08-.97-1.86-2.31-1.86h-10.64c-1.34,0-2.31.78-2.31,1.86v41.9c0,.13-.27.32-.77.32h-8.46c-.5,0-.77-.19-.77-.32v-41.9c0-1.08-.97-1.86-2.31-1.86h-11.41c-1.34,0-2.31.78-2.31,1.86v42.99c0,1.08.97,1.86,2.31,1.86h10.13c.5,0,.77.19.77.32v33.08c0,1.08.97,1.86,2.31,1.86h11.41c1.34,0,2.31-.78,2.31-1.86v-33.08c0-.13.27-.32.77-.32h7.31c.5,0,.77.19.77.32v33.08c0,1.08.97,1.86,2.31,1.86h11.41c1.34,0,2.31-.78,2.31-1.86v-33.08c0-.13.27-.32.77-.32h10.25c1.34,0,2.31-.78,2.31-1.86v-42.99c0-1.08-.97-1.86-2.31-1.86Z" fill="#86aa57"/></svg>