<?xml version="1.0" encoding="UTF-8"?><svg id="_レイヤー_1" xmlns="http://www.w3.org/2000/svg" width="576.87" height="576.87" viewBox="0 0 576.87 576.87"><rect x="152.18" y="428.73" width="22.9" height="22.9" rx="1.64" ry="1.64" fill="#7caa4a"/><rect x="404.08" y="428.73" width="22.9" height="22.9" rx="1.64" ry="1.64" fill="#7caa4a"/><rect x="53.13" y="292.76" width="20.04" height="20.04" rx="1.64" ry="1.64" fill="#7caa4a"/><rect x="73.17" y="337.13" width="20.04" height="20.04" rx="1.64" ry="1.64" fill="#7caa4a"/><path d="M502.05,272.74h-27.63c-.89,0-1.65-.74-1.65-1.65v-69.71c0-.93-.74-1.65-1.64-1.65h-19.62c-.89,0-1.65-.74-1.65-1.65v-19.6c0-.93-.74-1.65-1.65-1.65h-19.62c-.9,0-1.64-.73-1.64-1.64v-42.55c0-.9-.73-1.64-1.64-1.64h-19.63c-.9,0-1.64-.73-1.64-1.64v-19.63c0-.89-.74-1.64-1.65-1.64h-19.62c-.9,0-1.64.73-1.64,1.64v19.63c0,.9-.73,1.64-1.64,1.64h-19.63c-.9,0-1.64.73-1.64,1.64v19.65c0,.9-.73,1.64-1.64,1.64h-134.12c-.9,0-1.64-.73-1.64-1.64v-19.64c0-.91-.75-1.65-1.65-1.65h-19.65c-.9,0-1.64-.73-1.64-1.64v-19.63c0-.9-.73-1.64-1.64-1.64h-19.62c-.91,0-1.65.74-1.65,1.64v19.64c0,.91-.72,1.62-1.65,1.62h-19.62c-.9,0-1.64.73-1.64,1.64v42.54c0,.91-.72,1.65-1.65,1.65h-19.6c-.91,0-1.65.72-1.65,1.65v19.6c0,.91-.72,1.65-1.65,1.65h-19.6c-.91,0-1.65.72-1.65,1.65v69.71c0,.91-.72,1.65-1.65,1.65h-29.92c-.9,0-1.64.73-1.64,1.64v16.76c0,.9.73,1.64,1.64,1.64h29.93c.9,0,1.64.73,1.64,1.64v21.07c0,.9-.73,1.64-1.64,1.64h-9.88c-.91,0-1.65.71-1.65,1.64v16.76c0,.9.73,1.64,1.64,1.64h32.78c.93,0,1.65.74,1.65,1.65v19.62c0,.9.73,1.64,1.64,1.64h19.62c.93,0,1.65.74,1.65,1.65v19.62c0,.9.73,1.64,1.64,1.64h42.55c.89,0,1.61.74,1.61,1.65v19.6c0,.91-.72,1.65-1.61,1.65h-19.65c-.9,0-1.64.73-1.64,1.64v19.63c0,.9.73,1.64,1.64,1.64h19.65c.89,0,1.61.74,1.61,1.65v19.6c0,.94.74,1.65,1.65,1.65h19.64c.89,0,1.65.74,1.65,1.65v42.51c0,.93.71,1.64,1.61,1.64h19.64c.9,0,1.65-.71,1.65-1.64v-19.62c0-.91.71-1.65,1.64-1.65h88.32c.9,0,1.64.73,1.64,1.64v19.63c0,.93.74,1.64,1.65,1.64h19.6c.91,0,1.65-.71,1.65-1.64v-42.52c0-.9.73-1.64,1.64-1.64h19.62c.91,0,1.65-.71,1.65-1.65v-19.62c0-.9.73-1.64,1.64-1.64h19.63c.9,0,1.64-.73,1.64-1.64v-19.63c0-.9-.73-1.64-1.64-1.64h-19.63c-.9,0-1.64-.73-1.64-1.64v-19.63c0-.9.73-1.64,1.64-1.64h42.52c.9,0,1.64-.73,1.64-1.64v-19.63c0-.9.73-1.64,1.64-1.64h19.63c.9,0,1.64-.73,1.64-1.64v-19.62c0-.91.75-1.65,1.65-1.65h30.5c.9,0,1.64-.73,1.64-1.64v-16.76c0-.93-.74-1.64-1.65-1.64h-7.6c-.9,0-1.64-.73-1.64-1.64v-21.06c0-.93.75-1.65,1.65-1.65h27.63c.93,0,1.64-.74,1.64-1.65v-16.77c0-.9-.71-1.61-1.64-1.61ZM259.94,281.71h-18.39c-.9,0-1.64-.73-1.64-1.64v-18.41c0-.9.73-1.64,1.64-1.64h18.39c.9,0,1.64.73,1.64,1.64v18.41c0,.9-.73,1.64-1.64,1.64ZM314.71,315.5c0,.9-.73,1.64-1.64,1.64h-16.21s-32.24-.01-32.24-.01c-.9,0-1.64-.73-1.64-1.64v-14.58c0-.9.73-1.64,1.64-1.64h13.87c.9,0,1.64-.73,1.64-1.64v-13.87c0-.9.73-1.64,1.64-1.64h14.58c.9,0,1.64.73,1.64,1.64v13.88c0,.9.73,1.64,1.64,1.64h13.47c.9,0,1.64.73,1.64,1.64v14.58ZM335.32,281.32h-17.62c-.9,0-1.64-.73-1.64-1.64v-17.62c0-.9.73-1.64,1.64-1.64h17.62c.9,0,1.64.73,1.64,1.64v17.62c0,.9-.73,1.64-1.64,1.64Z" fill="#7caa4a"/><rect x="503.69" y="292.76" width="20.04" height="20.04" rx="1.64" ry="1.64" fill="#7caa4a"/><rect x="483.66" y="337.13" width="20.04" height="20.04" rx="1.64" ry="1.64" fill="#7caa4a"/><rect x="243.78" y="497.43" width="22.9" height="22.9" rx="1.64" ry="1.64" fill="#7caa4a"/><rect x="312.48" y="497.43" width="22.9" height="22.9" rx="1.64" ry="1.64" fill="#7caa4a"/></svg>