<?xml version="1.0" encoding="UTF-8"?><svg id="_レイヤー_1" xmlns="http://www.w3.org/2000/svg" width="349.23" height="344.53" viewBox="0 0 349.23 344.53"><rect y="126.26" width="13.7" height="13.7" rx="1.1" ry="1.1" fill="#85a857"/><rect x="13.7" y="170.31" width="13.7" height="13.7" rx="1.1" ry="1.1" fill="#85a857"/><path d="M335.53,113.66v11.5c0,.61-.49,1.1-1.1,1.1h-32.63c-.61,0-1.1.49-1.1,1.1v14.42c0,.61.49,1.1,1.1,1.1h18.93c.61,0,1.1.49,1.1,1.1v25.2c0,.61-.49,1.1-1.1,1.1h-11.49c-.61,0-1.1-.49-1.1-1.1v-11.49c0-.61-.49-1.1-1.1-1.1h-20.89c-.61,0-1.1.49-1.1,1.1v13.45c0,.61-.49,1.1-1.1,1.1h-13.45c-.61,0-1.1.49-1.1,1.1v13.45c0,.61-.49,1.1-1.1,1.1h-29.11c-.61,0-1.1.49-1.1,1.1v13.45c0,.61.49,1.1,1.1,1.1h13.45c.61,0,1.1.49,1.1,1.1v13.45c0,.61.49,1.1,1.1,1.1h13.45c.61,0,1.1.49,1.1,1.1v29.11c0,.61-.49,1.1-1.1,1.1h-13.45c-.61,0-1.1-.49-1.1-1.1v-13.45c0-.61-.49-1.1-1.1-1.1h-29.12c-.61,0-1.1.49-1.1,1.1v91.75c0,.61-.49,1.1-1.1,1.1h-13.45c-.61,0-1.1-.49-1.1-1.1v-13.45c0-.61-.49-1.1-1.1-1.1h-13.45c-.61,0-1.1-.49-1.1-1.1v-13.45c0-.61-.49-1.1-1.1-1.1h-29.11c-.61,0-1.1.49-1.1,1.1v13.45c0,.61-.49,1.1-1.1,1.1h-13.45c-.61,0-1.1.49-1.1,1.1v14.56h-.25c.14,0,.25.11.25.25v14.31c0,.61-.49,1.1-1.1,1.1h-14.31c-.13,0-.25-.11-.25-.25v-15.17c0-.14.12-.25.25-.25h-.25v-92.86c0-.61-.49-1.1-1.1-1.1h-29.11c-.61,0-1.1.49-1.1,1.1v13.45c0,.61-.49,1.1-1.1,1.1h-13.45c-.61,0-1.1-.49-1.1-1.1v-29.11c0-.61.49-1.1,1.1-1.1h13.45c.61,0,1.1-.49,1.1-1.1v-13.45c0-.61.49-1.1,1.1-1.1h13.45c.61,0,1.1-.49,1.1-1.1v-13.45c0-.61-.49-1.1-1.1-1.1h-29.11c-.61,0-1.1-.49-1.1-1.1v-13.45c0-.61-.49-1.1-1.1-1.1h-13.45c-.61,0-1.1-.49-1.1-1.1v-13.45c0-.61-.49-1.1-1.1-1.1h-22.46c-.61,0-1.1.49-1.1,1.1v11.49c0,.61-.49,1.1-1.1,1.1h-11.49c-.61,0-1.1-.49-1.1-1.1v-25.2c0-.61.49-1.1,1.1-1.1h20.5c.61,0,1.1-.49,1.1-1.1v-14.42c0-.61-.49-1.1-1.1-1.1H14.81c-.61,0-1.1-.49-1.1-1.1v-11.5c0-.61.49-1.1,1.1-1.1h34.2c.61,0,1.1-.49,1.1-1.1v-47.71c0-.61.49-1.1,1.1-1.1h13.45c.61,0,1.1-.49,1.1-1.1v-13.45c0-.61.49-1.1,1.1-1.1h13.45c.61,0,1.1-.49,1.1-1.1v-29.11c0-.61.49-1.1,1.1-1.1h13.45c.61,0,1.1-.49,1.1-1.1V1.1c0-.61.49-1.1,1.1-1.1h13.45c.61,0,1.1.49,1.1,1.1v13.45c0,.61.49,1.1,1.1,1.1h13.45c.61,0,1.1.49,1.1,1.1v13.45c0,.61.49,1.1,1.1,1.1h91.75c.61,0,1.1-.49,1.1-1.1v-13.45c0-.61.49-1.1,1.1-1.1h13.45c.61,0,1.1-.49,1.1-1.1V1.1c0-.61.49-1.1,1.1-1.1h13.45c.61,0,1.1.49,1.1,1.1v13.45c0,.61.49,1.1,1.1,1.1h13.45c.61,0,1.1.49,1.1,1.1v29.11c0,.61.49,1.1,1.1,1.1h13.45c.61,0,1.1.49,1.1,1.1v13.45c0,.61.49,1.1,1.1,1.1h13.45c.61,0,1.1.49,1.1,1.1v47.71c0,.61.49,1.1,1.1,1.1h32.63c.61,0,1.1.49,1.1,1.1Z" fill="#85a857"/><rect x="335.52" y="126.26" width="13.7" height="13.7" rx="1.1" ry="1.1" fill="#85a857"/><rect x="321.82" y="170.31" width="13.7" height="13.7" rx="1.1" ry="1.1" fill="#85a857"/></svg>