<?xml version="1.0" encoding="UTF-8"?><svg id="_レイヤー_1" xmlns="http://www.w3.org/2000/svg" width="576.87" height="576.87" viewBox="0 0 576.87 576.87"><path d="M501.83,224.75c-.62,0-1.12-.5-1.12-1.12v-40.21c0-.62-.5-1.12-1.12-1.12h-18.98c-.62,0-1.12-.5-1.12-1.12v-40.21c0-.62-.5-1.12-1.12-1.12h-18.98c-.62,0-1.12-.5-1.12-1.12v-18.98c0-.62-.5-1.12-1.12-1.12h-18.98c-.62,0-1.12-.5-1.12-1.12v-18.98c0-.62-.5-1.12-1.12-1.12h-40.21c-.62,0-1.12-.5-1.12-1.12v-18.98c0-.62-.5-1.12-1.12-1.12h-40.21c-.62,0-1.12-.5-1.12-1.12v-18.98c0-.62-.5-1.12-1.12-1.12h-125.12c-.62,0-1.12.5-1.12,1.12v18.98c0,.62-.5,1.12-1.12,1.12h-40.21c-.62,0-1.12.5-1.12,1.12v18.98c0,.62-.5,1.12-1.12,1.12h-40.21c-.62,0-1.12.5-1.12,1.12v18.98c0,.62-.5,1.12-1.12,1.12h-18.98c-.62,0-1.12.5-1.12,1.12v18.98c0,.62-.5,1.12-1.12,1.12h-18.98c-.62,0-1.12.5-1.12,1.12v40.21c0,.62-.5,1.12-1.12,1.12h-18.98c-.62,0-1.12.5-1.12,1.12v40.21c0,.62-.5,1.12-1.12,1.12h-18.98c-.62,0-1.12.5-1.12,1.12v125.12c0,.62.5,1.12,1.12,1.12h18.98c.62,0,1.12.5,1.12,1.12v40.21c0,.62.5,1.12,1.12,1.12h18.98c.62,0,1.12.5,1.12,1.12v40.21c0,.62.5,1.12,1.12,1.12h18.98c.62,0,1.12.5,1.12,1.12v18.98c0,.62.5,1.12,1.12,1.12h18.98c.62,0,1.12.5,1.12,1.12v18.98c0,.62.5,1.12,1.12,1.12h18.98c.62,0,1.12.5,1.12,1.12v18.98c0,.62.5,1.12,1.12,1.12h40.21c.62,0,1.12.5,1.12,1.12v18.98c0,.62.5,1.12,1.12,1.12h18.98c.62,0,1.12-.5,1.12-1.12v-61.44c0-.62-.5-1.12-1.12-1.12h-61.44c-.62,0-1.12-.5-1.12-1.12v-18.98c0-.62-.5-1.12-1.12-1.12h-18.98c-.62,0-1.12-.5-1.12-1.12v-40.21c0-.62-.5-1.12-1.12-1.12h-18.98c-.62,0-1.12-.5-1.12-1.12v-18.98c0-.62.5-1.12,1.12-1.12h40.21c.62,0,1.12.5,1.12,1.12v18.98c0,.62.5,1.12,1.12,1.12h18.98c.62,0,1.12.5,1.12,1.12v18.98c0,.62.5,1.12,1.12,1.12h40.21c.62,0,1.12-.5,1.12-1.12v-18.98c0-.62.5-1.12,1.12-1.12h18.98c.62,0,1.12-.5,1.12-1.12v-18.98c0-.62-.5-1.12-1.12-1.12h-61.44c-.62,0-1.12-.5-1.12-1.12v-18.98c0-.62-.5-1.12-1.12-1.12h-18.98c-.62,0-1.12-.5-1.12-1.12v-18.98c0-.62-.5-1.12-1.12-1.12h-18.98c-.62,0-1.12-.5-1.12-1.12v-103.89c0-.62.5-1.12,1.12-1.12h18.98c.62,0,1.12-.5,1.12-1.12v-61.44c0-.62.5-1.12,1.12-1.12h40.21c.62,0,1.12.5,1.12,1.12v18.98c0,.62.5,1.12,1.12,1.12h18.98c.62,0,1.12.5,1.12,1.12v18.98c0,.62.5,1.12,1.12,1.12h18.98c.62,0,1.12-.5,1.12-1.12v-18.98c0-.62.5-1.12,1.12-1.12h82.66c.62,0,1.12.5,1.12,1.12v18.98c0,.62.5,1.12,1.12,1.12h18.98c.62,0,1.12-.5,1.12-1.12v-18.98c0-.62.5-1.12,1.12-1.12h18.98c.62,0,1.12-.5,1.12-1.12v-18.98c0-.62.5-1.12,1.12-1.12h40.21c.62,0,1.12.5,1.12,1.12v61.44c0,.62.5,1.12,1.12,1.12h18.98c.62,0,1.12.5,1.12,1.12v103.89c0,.62-.5,1.12-1.12,1.12h-18.98c-.62,0-1.12.5-1.12,1.12v18.98c0,.62-.5,1.12-1.12,1.12h-18.98c-.62,0-1.12.5-1.12,1.12v18.98c0,.62-.5,1.12-1.12,1.12h-61.44c-.62,0-1.12.5-1.12,1.12v18.98c0,.62.5,1.12,1.12,1.12h18.98c.62,0,1.12.5,1.12,1.12v125.12c0,.62.5,1.12,1.12,1.12h18.98c.62,0,1.12-.5,1.12-1.12v-18.98c0-.62.5-1.12,1.12-1.12h40.21c.62,0,1.12-.5,1.12-1.12v-18.98c0-.62.5-1.12,1.12-1.12h18.98c.62,0,1.12-.5,1.12-1.12v-18.98c0-.62.5-1.12,1.12-1.12h18.98c.62,0,1.12-.5,1.12-1.12v-18.98c0-.62.5-1.12,1.12-1.12h18.98c.62,0,1.12-.5,1.12-1.12v-40.21c0-.62.5-1.12,1.12-1.12h18.98c.62,0,1.12-.5,1.12-1.12v-40.21c0-.62.5-1.12,1.12-1.12h18.98c.62,0,1.12-.5,1.12-1.12v-125.12c0-.62-.5-1.12-1.12-1.12h-18.98Z" fill="#171917"/></svg>