<?xml version="1.0" encoding="UTF-8"?><svg id="_レイヤー_1" xmlns="http://www.w3.org/2000/svg" width="576.87" height="576.87" viewBox="0 0 576.87 576.87"><polygon points="357.26 275.29 357.26 247.93 382.28 247.93 382.28 212.33 407.31 212.33 407.31 177.54 432.33 177.54 432.33 142.97 457.36 142.97 457.36 104.8 432.33 104.8 432.33 139.37 407.31 139.37 407.31 174.16 382.28 174.16 382.28 209.76 357.26 209.76 357.26 237.12 332.23 237.12 332.23 268.17 307.2 268.17 307.2 231.74 282.18 231.74 282.18 196.14 257.15 196.14 257.15 160.49 232.12 160.49 232.12 123.89 207.1 123.89 207.1 105.18 182.07 105.18 157.05 105.18 144.53 105.18 132.02 105.18 119.51 105.18 119.51 130.21 132.02 130.21 144.53 130.21 144.53 164.22 169.56 164.22 169.56 201.14 194.58 201.14 194.58 236.83 219.61 236.83 219.61 272.47 244.64 272.47 244.64 301.5 219.61 301.5 219.61 328.86 194.58 328.86 194.58 364.45 169.56 364.45 169.56 399.24 144.53 399.24 144.53 433.81 119.51 433.81 119.51 471.98 144.53 471.98 144.53 437.41 169.56 437.41 169.56 402.62 194.58 402.62 194.58 367.03 219.61 367.03 219.61 339.67 244.64 339.67 244.64 308.08 269.66 308.08 269.66 342.53 294.69 342.53 294.69 304.36 269.66 304.36 269.66 269.91 244.64 269.91 244.64 234.3 219.61 234.3 219.61 198.66 194.58 198.66 194.58 162.97 169.56 162.97 169.56 130.21 182.07 130.21 207.1 130.21 207.1 162.05 232.12 162.05 232.12 198.66 257.15 198.66 257.15 234.3 282.18 234.3 282.18 269.91 307.2 269.91 307.2 306.34 332.23 306.34 332.23 342.53 357.26 342.53 357.26 378.31 382.28 378.31 382.28 414.31 407.31 414.31 407.31 447.04 394.79 447.04 369.77 447.04 369.77 414.2 344.74 414.2 344.74 378.88 319.72 378.88 319.72 342.53 294.69 342.53 294.69 380.69 319.72 380.69 319.72 417.05 344.74 417.05 344.74 452.37 369.77 452.37 369.77 472.06 394.79 472.06 419.82 472.06 432.33 472.06 444.85 472.06 457.36 472.06 457.36 447.04 444.85 447.04 432.33 447.04 432.33 411.46 407.31 411.46 407.31 376.14 382.28 376.14 382.28 340.14 357.26 340.14 357.26 304.36 332.23 304.36 332.23 275.29 357.26 275.29" fill="#171917"/></svg>